<svg width="254" height="272" viewBox="0 0 254 272" fill="none" xmlns="http://www.w3.org/2000/svg">
<g filter="url(#filter0_d_7_1304)">
<path d="M246.854 155.083L242.858 148.067C242.706 147.801 242.545 147.543 242.373 147.293C242.95 145.565 243.361 143.785 243.605 141.959C245.128 130.554 239.753 118.981 230.126 111.739L227.932 109.682C228.667 108.995 229.314 108.209 229.848 107.34C230.107 106.917 230.339 106.479 230.539 106.03C232.409 104.153 233.601 101.643 233.81 98.8931C233.846 98.4313 233.852 97.9712 233.831 97.5163C234.556 96.0233 234.945 94.3774 234.909 92.6808C234.854 90.0767 233.844 87.6814 232.203 85.7956C232.029 84.5349 231.648 83.299 231.049 82.1367C229.445 79.0231 226.515 76.8434 223.061 76.0699C222.003 74.9323 220.72 73.9862 219.25 73.3088C217.691 72.5899 216.026 72.2161 214.3 72.1971C212.853 71.3735 211.236 70.8335 209.528 70.6374C209.055 70.5833 208.574 70.5551 208.098 70.5551C205.86 70.5551 203.688 71.1642 201.795 72.2603C201.663 72.273 201.531 72.2885 201.4 72.3058V20.815H149.805L137.926 10.8293C136.414 7.39993 132.983 5 129.001 5C125.006 5 121.564 7.41546 120.061 10.8627L108.521 20.815H54.3593V91.0837C54.2356 91.0072 54.1108 90.9313 53.9837 90.8566C51.934 89.6511 49.6422 88.8759 47.2572 88.5699C45.0902 86.3937 42.1002 85.0405 38.8284 85.0405C33.4678 85.0405 28.9215 88.5969 27.4268 93.4745C23.5839 96.8774 22.1169 100.871 21.2093 103.34C19.4133 108.229 18.9192 113.665 19.7796 119.057C20.0125 120.52 20.5324 121.884 21.2772 123.095C21.2248 123.14 21.1725 123.186 21.1208 123.232C13.902 129.622 6.32258 142.583 11.2053 168.036C11.9167 171.745 12.9548 175.408 14.2959 178.947C14.3005 179.266 14.3086 179.604 14.3218 179.956C13.328 181.639 12.4797 183.399 11.7885 185.217C10.7573 187.927 10.0735 190.778 9.74738 193.683C7.65455 195.432 6.30762 198.049 6.27656 200.967L5.9062 234.853C5.85387 239.507 8.799 243.577 13.2348 244.979C17.0605 246.189 20.9839 247.231 24.9038 248.079C26.203 248.492 27.512 248.838 28.8238 249.115C29.2154 249.723 29.6514 250.312 30.1287 250.876C33.3562 254.928 37.4246 257.838 41.9035 259.298C43.8278 259.925 45.6993 260.243 47.466 260.243C49.1896 260.243 50.8212 259.943 52.3119 259.351C53.5374 258.865 54.6831 258.206 55.7096 257.411C56.704 257.591 57.6765 257.682 58.6191 257.682C60.3381 257.682 61.9669 257.382 63.4633 256.79C67.3533 255.25 70.4313 251.952 71.4964 248.181C72.4776 244.706 71.7961 241.059 69.6992 237.739L69.7263 236.997C70.7868 207.961 71.3918 181.792 71.1341 176.129C70.9754 172.629 70.2645 169.49 69.8671 167.969L70.6901 167.47L70.2709 166.682C70.957 166.334 71.6189 165.933 72.2492 165.483C72.2395 165.58 71.5792 171.954 71.5792 171.954L72.8899 172.549C72.7105 174.387 72.5495 176.381 72.4362 178.441C72.0255 185.922 72.7732 208.887 76.5143 241.489L76.8628 244.527L77.1774 244.836C77.1935 245.359 77.251 245.883 77.3505 246.406C78.4633 252.248 84.104 255.736 92.4397 255.736C92.9325 255.736 93.4185 255.722 93.8815 255.693C95.7638 255.577 97.3862 255.3 98.7831 254.903C100.966 255.708 103.561 256.135 106.488 256.135C106.966 256.135 107.438 256.122 107.888 256.094C116.946 255.548 119.979 251.273 120.928 247.786C121.022 247.443 121.096 247.097 121.153 246.749L122.33 245.813L122.604 242.039C122.853 238.608 125.046 207.897 125.444 186.116C125.514 182.263 125.645 175.099 124.224 165.701C124.089 164.697 123.961 163.72 123.841 162.771C124.481 162.627 125.125 162.46 125.77 162.27C126.41 162.4 127.064 162.466 127.723 162.466C129.591 162.466 131.395 161.928 132.938 160.963C134.53 198.371 135.544 222.183 135.966 232.04C132.416 235.281 130.598 239.325 130.961 243.494C131.318 247.578 133.849 251.58 137.563 253.934C139.828 255.373 142.556 256.103 145.672 256.103C146.413 256.103 147.183 256.06 147.967 255.976C148.329 256.258 148.705 256.522 149.093 256.768C151.357 258.206 154.086 258.936 157.202 258.936C158.091 258.936 159.023 258.875 159.971 258.754C164.835 258.134 169.575 256.015 173.736 252.61C174.494 254.318 175.638 255.875 177.13 257.213C179.002 258.89 182.304 260.89 187.398 260.89C188.905 260.89 190.379 260.721 191.796 260.446C192.355 261.198 193.001 261.904 193.731 262.559C195.603 264.236 198.905 266.235 204 266.236H204.001C208.633 266.236 212.967 264.641 216.226 263.252C219.586 261.82 225.119 259.46 228.121 254.614C231.407 253.285 233.997 251.7 235.773 250.439L239.543 247.763L237.289 173.436L242.667 170.373C248.034 167.309 249.912 160.452 246.854 155.083Z" fill="white"/>
</g>
<path d="M192.772 29.4417H62.9835V111.475H192.772V29.4417Z" fill="white" stroke="black" stroke-miterlimit="10" stroke-linecap="round" stroke-linejoin="round"/>
<path d="M186.351 35.9277H70.1862V104.575H186.351V35.9277Z" fill="white" stroke="black" stroke-miterlimit="10" stroke-linecap="round" stroke-linejoin="round"/>
<path d="M111.726 29.4417C117.473 24.4848 123.221 19.5279 128.968 14.571C134.866 19.5279 140.763 24.4848 146.659 29.4417" stroke="black" stroke-miterlimit="10" stroke-linecap="round" stroke-linejoin="round"/>
<path d="M128.999 15.8696C129.618 15.8696 130.121 15.3675 130.121 14.7482C130.121 14.1288 129.618 13.6267 128.999 13.6267C128.38 13.6267 127.878 14.1288 127.878 14.7482C127.878 15.3675 128.38 15.8696 128.999 15.8696Z" fill="white" stroke="black" stroke-miterlimit="10" stroke-linecap="round" stroke-linejoin="round"/>
<path d="M94.9736 49.5049H83.1718V61.3067H94.9736V49.5049Z" fill="#FA0581" stroke="black" stroke-miterlimit="10" stroke-linecap="round" stroke-linejoin="round"/>
<path d="M130.441 88.6884C135.475 88.6884 139.556 84.6075 139.556 79.5734C139.556 74.5394 135.475 70.4585 130.441 70.4585C125.407 70.4585 121.326 74.5394 121.326 79.5734C121.326 84.6075 125.407 88.6884 130.441 88.6884Z" fill="#D800FC" stroke="black" stroke-miterlimit="10" stroke-linecap="round" stroke-linejoin="round"/>
<path d="M186.351 35.9277V104.575H70.1862C78.6789 85.5201 85.8632 81.7388 90.7257 81.6048C98.0066 81.4075 100.195 89.3929 112.912 94.8254C114.207 95.3787 133.791 103.506 142.652 95.7686C151.17 88.3364 141.173 73.7746 147.846 58.9488C151.753 50.2722 161.599 40.9876 186.351 35.9277Z" fill="#EBF17A" stroke="black" stroke-miterlimit="10" stroke-linecap="round" stroke-linejoin="round"/>
<path d="M161.834 43.1487H170.439L166.136 50.6004L161.834 58.0521L157.532 50.6004L153.229 43.1487H161.834Z" fill="#56BBFF" stroke="black" stroke-miterlimit="10" stroke-linecap="round" stroke-linejoin="round"/>
<path d="M158.377 107.734C157.031 107.545 155.783 107.531 154.639 107.633C142.791 108.687 135.847 122.612 134.603 125.206C131.956 129.292 131.68 134.253 133.947 137.937C135.726 140.827 138.5 142.007 139.631 142.414C140.673 143.612 141.714 144.809 142.756 146.007C147.962 133.249 153.17 120.491 158.377 107.734Z" fill="white"/>
<path d="M157.297 242.632C155.319 244.354 151.878 246.785 147.35 247.362C144.105 247.776 142.641 246.94 142.187 246.652C140.758 245.745 139.676 244.136 139.554 242.742C139.287 239.684 143.485 235.899 150.297 234.372C152.584 234.962 160.469 237.122 160.397 239.817C160.381 240.442 159.926 241.456 157.297 242.632Z" fill="white" stroke="black" stroke-miterlimit="10" stroke-linecap="round" stroke-linejoin="round"/>
<path d="M168.825 245.465C166.848 247.187 163.406 249.618 158.878 250.195C155.633 250.608 154.169 249.773 153.715 249.485C152.286 248.578 151.204 246.969 151.082 245.575C150.815 242.517 155.013 238.732 161.826 237.205C166.339 234.876 170.789 236.673 171.667 239.167C172.319 241.019 171.135 243.642 168.825 245.465Z" fill="white" stroke="black" stroke-miterlimit="10" stroke-linecap="round" stroke-linejoin="round"/>
<path d="M174.751 233.647C174.751 233.647 174.653 234.765 174.297 237.464C174.289 237.525 174.248 237.575 174.189 237.591C171.465 238.347 167.714 239.047 163.261 238.869C160.893 238.775 158.787 238.45 157.001 238.052C156.968 238.045 156.936 238.049 156.907 238.064C156.326 238.349 155.686 238.599 154.988 238.787C150.526 239.989 146.473 237.906 144.879 236.96C144.866 236.952 144.854 236.943 144.845 236.932C144.845 236.932 144.816 236.899 144.808 236.846C144.804 236.811 144.319 225.522 141.444 157.974C154.911 158.302 168.376 158.63 181.843 158.958C175.807 217.18 174.547 232.402 174.751 233.647Z" fill="#EBF17A" stroke="black" stroke-miterlimit="10" stroke-linecap="round" stroke-linejoin="round"/>
<path d="M140.681 141.159C140.53 148.911 141.1 155.31 141.651 159.723C144.438 161.48 151.482 165.401 161.262 165.375C171.752 165.347 179.16 160.795 181.843 158.958C181.547 149.952 180.567 124.918 177.837 115.358C177.812 115.274 177.774 115.14 177.717 114.968C177.717 114.968 177.4 114.024 176.828 113.14C176.312 112.344 167.508 110.253 155.061 109.017" fill="white"/>
<path d="M140.681 141.159C140.53 148.911 141.1 155.31 141.651 159.723C144.438 161.48 151.482 165.401 161.262 165.375C171.752 165.347 179.16 160.795 181.843 158.958C181.547 149.952 180.567 124.918 177.837 115.358C177.812 115.274 177.774 115.14 177.717 114.968C177.717 114.968 177.4 114.024 176.828 113.14C176.312 112.344 167.508 110.253 155.061 109.017" stroke="black" stroke-miterlimit="10" stroke-linecap="round" stroke-linejoin="round"/>
<path d="M140.477 126.485C140.734 130.257 140.847 134.219 140.765 138.355C140.746 139.3 140.718 140.235 140.68 141.159" fill="white"/>
<path d="M140.477 126.485C140.734 130.257 140.847 134.219 140.765 138.355C140.746 139.3 140.718 140.235 140.68 141.159" stroke="black" stroke-miterlimit="10" stroke-linecap="round" stroke-linejoin="round"/>
<path d="M168.306 91.453C169.1 90.8319 170.103 90.6462 170.882 91.0148C172.101 91.5911 172.495 93.3906 171.748 94.6081C171.03 95.7779 169.384 96.2092 168.054 95.4547C167.823 98.9554 165.897 101.961 163.01 103.286C160.294 104.532 157.733 103.829 156.952 103.574C153.522 102.458 151.023 99.1566 150.401 95.1263C149.156 95.4322 147.897 95.0768 147.252 94.2147C146.19 92.7959 147.032 90.3299 148.495 89.9048C149.457 89.6259 150.412 90.308 150.645 90.484C150.785 88.191 150.925 85.8986 151.064 83.6057C154.762 82.8126 157.643 82.0028 159.628 81.3955C161.814 80.7272 163.51 80.1234 165.089 80.9481C166.295 81.5778 166.909 82.7683 167.226 83.6051C167.586 86.2218 167.946 88.8374 168.306 91.453Z" fill="#F8BA94" stroke="black" stroke-miterlimit="10" stroke-linecap="round" stroke-linejoin="round"/>
<path d="M170.419 92.9448C170.054 92.7509 169.607 92.7975 169.295 93.0604C168.996 93.3122 168.871 93.72 168.976 94.1007" stroke="black" stroke-miterlimit="10" stroke-linecap="round" stroke-linejoin="round"/>
<path d="M162.379 107.614C169.054 107.267 173.263 109.096 175.625 110.51C188.922 118.469 188.622 140.415 188.489 150.762C188.389 158.642 187.229 165.027 186.301 169.084C185.617 168.486 183.549 166.832 180.461 166.648C178.5 166.531 176.952 167.057 176.106 167.419C175.963 162.263 175.852 157.05 175.774 151.779C175.69 146.128 175.645 140.54 175.639 135.018" fill="white"/>
<path d="M162.379 107.614C169.054 107.267 173.263 109.096 175.625 110.51C188.922 118.469 188.622 140.415 188.489 150.762C188.389 158.642 187.229 165.027 186.301 169.084C185.617 168.486 183.549 166.832 180.461 166.648C178.5 166.531 176.952 167.057 176.106 167.419C175.963 162.263 175.852 157.05 175.774 151.779C175.69 146.128 175.645 140.54 175.639 135.018" stroke="black" stroke-miterlimit="10" stroke-linecap="round" stroke-linejoin="round"/>
<path d="M169.809 93.8076C169.531 93.9054 169.253 94.0032 168.975 94.1015L169.809 93.8076Z" fill="white"/>
<path d="M169.809 93.8076C169.531 93.9054 169.253 94.0032 168.975 94.1015" stroke="black" stroke-miterlimit="10" stroke-linecap="round" stroke-linejoin="round"/>
<path d="M154.506 90.3706C154.786 90.3706 155.014 90.1429 155.014 89.8622C155.014 89.5814 154.786 89.3538 154.506 89.3538C154.225 89.3538 153.997 89.5814 153.997 89.8622C153.997 90.1429 154.225 90.3706 154.506 90.3706Z" fill="black"/>
<path d="M158.932 98.1468C159.179 98.1468 159.493 98.1238 159.847 98.0399C160.313 97.9289 160.678 97.7512 160.93 97.6028" stroke="black" stroke-miterlimit="10" stroke-linecap="round" stroke-linejoin="round"/>
<path d="M165.446 104.37C165.628 105.691 165.811 107.012 165.992 108.333C165.699 108.686 163.722 110.984 160.39 111.066C157.401 111.139 155.446 109.378 155.06 109.016C155.151 107.422 155.242 105.828 155.333 104.233C158.704 104.279 162.075 104.325 165.446 104.37Z" fill="#F8BA94" stroke="black" stroke-miterlimit="10" stroke-linecap="round" stroke-linejoin="round"/>
<path d="M161.696 89.7661C161.643 90.0416 161.823 90.3079 162.099 90.3614C162.375 90.4143 162.641 90.2343 162.694 89.9582C162.747 89.6827 162.567 89.4164 162.291 89.363C162.015 89.3101 161.749 89.4906 161.696 89.7661Z" fill="black"/>
<path d="M148.252 92.3075C148.617 92.1137 149.063 92.1603 149.376 92.4231C149.675 92.675 149.799 93.0828 149.695 93.4635" stroke="black" stroke-miterlimit="10" stroke-linecap="round" stroke-linejoin="round"/>
<path d="M148.861 93.1697C149.139 93.2674 149.417 93.3652 149.695 93.4636L148.861 93.1697Z" fill="white"/>
<path d="M148.861 93.1697C149.139 93.2674 149.417 93.3652 149.695 93.4636" stroke="black" stroke-miterlimit="10" stroke-linecap="round" stroke-linejoin="round"/>
<path d="M150.645 90.4845C150.992 91.4984 151.657 93.0173 152.949 94.5235C153.807 95.523 154.694 96.2287 155.409 96.7101C155.699 99.0203 156.663 100.464 157.504 100.445C158.203 100.43 158.729 99.4073 158.871 99.1244C159.387 99.2003 159.903 99.2762 160.419 99.3521C160.441 99.6103 160.523 100.074 160.875 100.355C161.492 100.847 162.6 100.502 163.244 99.9899C164.083 99.3228 163.917 98.5458 164.709 96.8015C165.166 95.7945 165.418 95.622 166.068 94.5235C166.666 93.513 167.445 91.9832 168.086 89.8628C168.354 92.9868 168.622 96.1108 168.89 99.2354C169.104 101.733 167.851 104.127 165.676 105.374C164.542 106.023 163.152 106.583 161.512 106.823C158.237 107.302 155.481 106.283 153.519 105.116C151.518 103.927 150.329 101.739 150.394 99.4125L150.645 90.4845Z" fill="#EAEAEA" stroke="black" stroke-miterlimit="10" stroke-linecap="round" stroke-linejoin="round"/>
<path d="M157.636 94.8144C157.315 94.9329 156.913 95.0836 156.44 95.389C155.3 96.1251 155.342 96.7226 154.218 97.5255C153.407 98.1046 152.863 98.1673 152.889 98.4002C152.925 98.7269 154.107 98.9236 155.003 98.8701C156.827 98.7608 158.27 97.5617 159.216 96.4851C159.834 96.9136 161.087 97.6422 162.71 97.5934C164.185 97.5491 165.714 96.8704 165.675 96.419C165.645 96.067 164.687 96.14 162.755 95.359C161.294 94.7684 161.312 94.5125 160.476 94.3975C159.229 94.2255 158.092 94.6459 157.636 94.8144Z" fill="#EAEAEA" stroke="black" stroke-miterlimit="10" stroke-linecap="round" stroke-linejoin="round"/>
<path d="M158.347 89.6697C157.135 92.1191 156.762 94.1078 157.436 94.5892C157.772 94.829 158.479 94.7755 158.985 94.5892C159.526 94.3902 159.849 94.0336 159.987 93.8605" fill="#F8BA94"/>
<path d="M158.347 89.6697C157.135 92.1191 156.762 94.1078 157.436 94.5892C157.772 94.829 158.479 94.7755 158.985 94.5892C159.526 94.3902 159.849 94.0336 159.987 93.8605" stroke="black" stroke-miterlimit="10" stroke-linecap="round" stroke-linejoin="round"/>
<path d="M164.459 81.0515C163.491 80.8928 162.882 81.5841 161.801 82.1546C160.278 82.9574 158.779 83.0144 157.923 83.0466C156.163 83.1127 155.916 82.6147 154.6 82.9482C154.164 83.0587 152.994 83.3554 152.282 84.3676C151.961 84.8248 151.857 85.3953 151.649 86.5369C151.452 87.6204 151.472 88.0552 151.252 89.5885C151.079 90.8008 150.99 91.4075 150.848 91.4144C150.598 91.4271 150.285 89.8197 150.144 88.5929C150.134 88.5101 150.128 88.4503 150.126 88.4331C149.943 86.6197 150.232 84.5114 150.251 84.3762C150.652 81.4184 149.44 81.0935 150.057 79.3089C150.88 76.9263 153.613 75.8451 154.703 75.4143C155.217 75.2107 157.158 74.4935 159.691 74.7995C160.734 74.9254 162.651 75.1773 164.406 76.6445C165.371 77.4508 165.948 78.3289 166.272 78.9173C166.671 79.0185 167.273 79.2284 167.824 79.7069C168.101 79.9467 168.891 80.6967 169.345 84.5217C169.345 84.5217 169.673 87.2834 168.961 90.1135C168.87 90.4759 168.706 90.9906 168.369 91.0613C168.12 91.1131 167.885 90.9026 167.844 90.8669C167.159 90.2556 168.081 89.1163 167.721 87.625C167.234 85.6006 165.997 85.6346 165.821 83.8052C165.733 82.8804 165.974 82.1023 165.408 81.5174C165.057 81.1556 164.598 81.0745 164.459 81.0515Z" fill="#EAEAEA" stroke="black" stroke-miterlimit="10" stroke-linecap="round" stroke-linejoin="round"/>
<path d="M155.581 88.4647H153.838C153.498 88.4647 153.223 88.1892 153.223 87.8499C153.223 87.51 153.499 87.2351 153.838 87.2351H155.581C155.921 87.2351 156.196 87.5106 156.196 87.8499C156.196 88.1892 155.92 88.4647 155.581 88.4647Z" fill="#EAEAEA" stroke="black" stroke-miterlimit="10" stroke-linecap="round" stroke-linejoin="round"/>
<path d="M163.066 88.4647H161.323C160.984 88.4647 160.709 88.1892 160.709 87.8499C160.709 87.51 160.984 87.2351 161.323 87.2351H163.066C163.406 87.2351 163.681 87.5106 163.681 87.8499C163.681 88.1892 163.406 88.4647 163.066 88.4647Z" fill="#EAEAEA" stroke="black" stroke-miterlimit="10" stroke-linecap="round" stroke-linejoin="round"/>
<path d="M149.989 81.1538C150.277 81.5207 150.678 81.9601 151.218 82.384C151.964 82.9694 152.692 83.3036 153.223 83.4968" fill="#EAEAEA"/>
<path d="M149.989 81.1538C150.277 81.5207 150.678 81.9601 151.218 82.384C151.964 82.9694 152.692 83.3036 153.223 83.4968" stroke="black" stroke-miterlimit="10" stroke-linecap="round" stroke-linejoin="round"/>
<path d="M165.089 80.9486C165.484 80.2711 165.878 79.5942 166.272 78.9167L165.089 80.9486Z" fill="#EAEAEA"/>
<path d="M165.089 80.9486C165.484 80.2711 165.878 79.5942 166.272 78.9167" stroke="black" stroke-miterlimit="10" stroke-linecap="round" stroke-linejoin="round"/>
<path d="M155.477 175.137C155.969 196.105 156.46 217.073 156.951 238.041L155.477 175.137Z" fill="white"/>
<path d="M155.477 175.137C155.969 196.105 156.46 217.073 156.951 238.041" stroke="black" stroke-miterlimit="10" stroke-linecap="round" stroke-linejoin="round"/>
<path d="M160.041 175.416C158.862 175.514 157.282 175.515 155.478 175.137C154.398 174.911 153.464 174.596 152.692 174.278" stroke="black" stroke-miterlimit="10" stroke-linecap="round" stroke-linejoin="round"/>
<path d="M172.451 109.086C171.259 110.269 167.946 113.234 162.787 114.003C154.903 115.178 149.2 110.253 148.365 109.508" stroke="black" stroke-miterlimit="10" stroke-linecap="round" stroke-linejoin="round"/>
<path d="M179.504 113.564C176.948 115.518 171.855 118.839 164.652 119.937C152.855 121.735 143.871 116.279 141.462 114.705" stroke="black" stroke-miterlimit="10" stroke-linecap="round" stroke-linejoin="round"/>
<path d="M183.132 119.428C179.83 121.619 173.2 125.36 164.058 126.21C150.834 127.439 141.012 121.814 137.779 119.767" stroke="black" stroke-miterlimit="10" stroke-linecap="round" stroke-linejoin="round"/>
<path d="M186.007 126.269C181.523 128.654 173.032 132.402 161.77 132.817C152.731 133.151 145.477 131.206 141.02 129.624" stroke="black" stroke-miterlimit="10" stroke-linecap="round" stroke-linejoin="round"/>
<path d="M187.704 132.439C186.467 133.307 184.592 134.417 182.115 135.196C179.5 136.018 177.213 136.156 175.662 136.131C172.867 137.28 169.457 138.369 165.5 139.011C154.722 140.759 145.779 138.235 140.848 136.38" stroke="black" stroke-miterlimit="10" stroke-linecap="round" stroke-linejoin="round"/>
<path d="M188.457 139.71C187.154 140.673 185.084 141.966 182.289 142.835C179.683 143.645 177.401 143.791 175.835 143.77C173.04 144.923 169.631 146.012 165.674 146.65C154.687 148.421 145.588 145.726 140.656 143.802" stroke="black" stroke-miterlimit="10" stroke-linecap="round" stroke-linejoin="round"/>
<path d="M188.536 147.75C187.191 148.647 185.321 149.699 182.948 150.507C180.096 151.477 177.568 151.737 175.773 151.78C173.121 152.815 169.956 153.765 166.332 154.321C155.11 156.047 145.833 153.032 140.858 150.937" stroke="black" stroke-miterlimit="10" stroke-linecap="round" stroke-linejoin="round"/>
<path d="M187.785 155.102C186.662 155.775 185.207 156.501 183.434 157.056C180.29 158.04 177.523 158.057 175.705 157.912C173.272 159.072 170.295 160.179 166.819 160.871C155.527 163.115 146.094 159.54 141.778 157.544" stroke="black" stroke-miterlimit="10" stroke-linecap="round" stroke-linejoin="round"/>
<path d="M187.016 161.911C185.902 162.262 184.428 162.597 182.68 162.661C179.705 162.771 177.327 162.045 175.898 161.474" stroke="black" stroke-miterlimit="10" stroke-linecap="round" stroke-linejoin="round"/>
<path d="M132.328 132.917C132.83 129.568 134.316 122.756 139.368 116.705C141.963 113.597 145.204 111.041 147.772 109.845C150.104 108.759 152.932 108.026 152.932 108.026C153.635 107.844 154.227 107.717 154.638 107.634" stroke="black" stroke-miterlimit="10" stroke-linecap="round" stroke-linejoin="round"/>
<path d="M176.106 167.419C172.77 173.719 171.588 177.248 172.561 178.005C173.053 178.387 174.092 178.063 175.681 177.033C175.577 179.529 176.067 181.275 176.844 181.428C177.563 181.57 178.402 180.331 178.715 179.83C178.707 180.861 179.129 181.735 179.698 181.902C180.411 182.112 181.638 181.292 181.961 179.638C182.623 179.908 183.102 179.886 183.455 179.754C186.307 178.687 184.863 168.988 184.734 168.16C184.083 167.714 182.586 166.817 180.462 166.648C178.402 166.485 176.824 167.09 176.106 167.419Z" fill="#F8BA94" stroke="black" stroke-miterlimit="10" stroke-linecap="round" stroke-linejoin="round"/>
<path d="M179.508 176.527C179.498 176.956 179.452 177.474 179.328 178.049C179.169 178.777 178.933 179.376 178.714 179.831" fill="#F8BA94"/>
<path d="M179.508 176.527C179.498 176.956 179.452 177.474 179.328 178.049C179.169 178.777 178.933 179.376 178.714 179.831" stroke="black" stroke-miterlimit="10" stroke-linecap="round" stroke-linejoin="round"/>
<path d="M182.067 176.201C182.125 176.704 182.159 177.29 182.138 177.943C182.117 178.579 182.048 179.149 181.96 179.637" fill="#F8BA94"/>
<path d="M182.067 176.201C182.125 176.704 182.159 177.29 182.138 177.943C182.117 178.579 182.048 179.149 181.96 179.637" stroke="black" stroke-miterlimit="10" stroke-linecap="round" stroke-linejoin="round"/>
<path d="M141.019 129.625C140.046 129.184 138.922 128.59 137.738 127.786C136.448 126.91 135.41 126.006 134.602 125.206" stroke="black" stroke-miterlimit="10" stroke-linecap="round" stroke-linejoin="round"/>
<path d="M152.538 100.265C151.37 104.759 150.2 109.253 149.032 113.746L152.538 100.265Z" fill="#FACDC2"/>
<path d="M152.538 100.265C151.37 104.759 150.2 109.253 149.032 113.746" stroke="black" stroke-miterlimit="10" stroke-linecap="round" stroke-linejoin="round"/>
<path d="M149.359 101.087C148.971 102.534 148.584 103.98 148.196 105.426C149.906 105.954 151.616 106.482 153.326 107.01C153.759 105.536 154.193 104.062 154.626 102.589C152.871 102.088 151.115 101.588 149.359 101.087Z" fill="#EBF17A" stroke="black" stroke-miterlimit="10" stroke-linecap="round" stroke-linejoin="round"/>
<path d="M152.075 110.62C152.608 109.694 152.118 108.412 150.981 107.757C149.843 107.102 148.489 107.322 147.955 108.248C147.422 109.174 147.912 110.456 149.049 111.111C150.187 111.766 151.542 111.547 152.075 110.62Z" fill="#56BBFF" stroke="black" stroke-miterlimit="10" stroke-linecap="round" stroke-linejoin="round"/>
<path d="M129.144 142.093C129.631 146.554 136.415 150.858 141.18 149.326C143.924 148.444 145.194 145.884 147.441 141.175C149.133 137.632 151.12 132.499 152.221 125.848C151.374 125.887 150.16 125.833 148.798 125.385C146.121 124.503 144.581 122.656 143.987 121.852C142.854 123.214 141.14 125.241 138.987 127.664C136.317 130.666 135.832 131.022 134.635 132.516C130.799 137.303 128.881 139.696 129.144 142.093Z" fill="white" stroke="black" stroke-miterlimit="10" stroke-linecap="round" stroke-linejoin="round"/>
<path d="M135.68 131.289C135.811 132.445 136.13 133.846 136.855 135.297C139.408 140.401 144.9 141.917 146.097 142.219" stroke="black" stroke-miterlimit="10" stroke-linecap="round" stroke-linejoin="round"/>
<path d="M139.777 127.196C140.297 128.06 141.665 130.074 144.303 131.429C146.928 132.779 149.349 132.726 150.356 132.648" stroke="black" stroke-miterlimit="10" stroke-linecap="round" stroke-linejoin="round"/>
<path d="M134.635 132.516C134.111 133.782 133.231 136.432 133.775 139.683C134.782 145.696 139.816 148.714 140.593 149.164" stroke="black" stroke-miterlimit="10" stroke-linecap="round" stroke-linejoin="round"/>
<path d="M143.987 121.853C144.281 119.832 144.575 117.811 144.868 115.79C144.898 115.093 145.077 113.006 146.612 111.877C146.969 111.615 147.802 111.002 148.45 111.351C148.932 111.612 149.17 112.329 149.039 113.131C150.529 111.714 152.254 111.662 152.824 112.327C153.247 112.819 153.113 113.793 152.662 114.679C153.413 113.935 154.572 113.969 155.167 114.578C155.824 115.25 155.75 116.572 154.79 117.252C154.869 117.268 155.534 117.414 155.832 118.04C156.087 118.575 155.97 119.241 155.532 119.704C155.837 121.152 155.496 121.913 155.231 122.297C155.2 122.34 155.177 122.369 155.155 122.396C154.766 122.883 153.975 123.833 152.222 125.849C151.171 125.815 149.207 125.606 147.118 124.444C145.607 123.603 144.593 122.576 143.987 121.853Z" fill="#F8BA94" stroke="black" stroke-miterlimit="10" stroke-linecap="round" stroke-linejoin="round"/>
<path d="M152.662 114.679C152.217 115.235 151.772 115.791 151.327 116.347L152.662 114.679Z" fill="white"/>
<path d="M152.662 114.679C152.217 115.235 151.772 115.791 151.327 116.347" stroke="black" stroke-miterlimit="10" stroke-linecap="round" stroke-linejoin="round"/>
<path d="M154.79 117.251C154.283 117.669 153.777 118.088 153.271 118.506L154.79 117.251Z" fill="white"/>
<path d="M154.79 117.251C154.283 117.669 153.777 118.088 153.271 118.506" stroke="black" stroke-miterlimit="10" stroke-linecap="round" stroke-linejoin="round"/>
<path d="M149.038 113.131C148.619 113.497 148.199 113.863 147.78 114.23L149.038 113.131Z" fill="white"/>
<path d="M149.038 113.131C148.619 113.497 148.199 113.863 147.78 114.23" stroke="black" stroke-miterlimit="10" stroke-linecap="round" stroke-linejoin="round"/>
<path d="M67.5498 145.509C64.8756 139.673 63.053 136.89 62.0828 137.161C61.5451 137.311 61.2691 138.397 61.2535 140.42C59.121 138.983 57.3261 138.472 56.7722 139.071C56.2604 139.623 56.8953 141.028 57.1656 141.572C56.2656 141.01 55.2718 140.909 54.8192 141.317C54.2515 141.829 54.3091 143.347 55.5852 144.522C54.925 144.987 54.7168 145.42 54.6777 145.769C54.4114 148.179 61.7688 150.642 62.5665 150.903C71.4508 157.526 80.0849 157.924 82.7822 154.553C85.2477 151.472 82.6068 145.423 82.0765 144.256C79.4719 143.558 76.8678 142.86 74.2625 142.162C74.128 143.801 73.9934 145.44 73.8582 147.079C71.7556 146.556 69.6524 146.032 67.5498 145.509Z" fill="#FACDC2" stroke="black" stroke-miterlimit="10" stroke-linecap="round" stroke-linejoin="round"/>
<path d="M59.6335 144.048C59.2625 143.808 58.8335 143.489 58.397 143.071C57.8437 142.54 57.4458 142.009 57.1651 141.572" fill="#FACDC2"/>
<path d="M59.6335 144.048C59.2625 143.808 58.8335 143.489 58.397 143.071C57.8437 142.54 57.4458 142.009 57.1651 141.572" stroke="black" stroke-miterlimit="10" stroke-linecap="round" stroke-linejoin="round"/>
<path d="M58.5405 146.468C58.0683 146.247 57.5358 145.961 56.975 145.591C56.4287 145.229 55.9668 144.861 55.585 144.521" fill="#FACDC2"/>
<path d="M58.5405 146.468C58.0683 146.247 57.5358 145.961 56.975 145.591C56.4287 145.229 55.9668 144.861 55.585 144.521" stroke="black" stroke-miterlimit="10" stroke-linecap="round" stroke-linejoin="round"/>
<path d="M104.041 118.958C107.766 119.223 110.332 120.443 111.872 121.397C118.543 125.533 121.786 134.535 120.54 144.378C118.549 144.328 116.069 144.062 113.326 143.275C111.983 142.89 110.778 142.438 109.718 141.972" fill="#D800FC"/>
<path d="M104.041 118.958C107.766 119.223 110.332 120.443 111.872 121.397C118.543 125.533 121.786 134.535 120.54 144.378C118.549 144.328 116.069 144.062 113.326 143.275C111.983 142.89 110.778 142.438 109.718 141.972" stroke="black" stroke-miterlimit="10" stroke-linecap="round" stroke-linejoin="round"/>
<path d="M130.709 150.5C122.597 155.81 114.96 155.803 112.472 152.622C110.147 149.649 112.471 144.092 113.021 142.844C115.592 142.155 118.164 141.466 120.735 140.777C120.867 142.395 121.001 144.013 121.134 145.631C123.21 145.115 125.286 144.599 127.362 144.082" fill="#FACDC2"/>
<path d="M130.709 150.5C122.597 155.81 114.96 155.803 112.472 152.622C110.147 149.649 112.471 144.092 113.021 142.844C115.592 142.155 118.164 141.466 120.735 140.777C120.867 142.395 121.001 144.013 121.134 145.631C123.21 145.115 125.286 144.599 127.362 144.082" stroke="black" stroke-miterlimit="10" stroke-linecap="round" stroke-linejoin="round"/>
<path d="M81.0467 178.914C81.4924 170.794 82.7444 163.679 82.7444 163.679C83.1269 161.506 83.5013 159.728 83.7618 158.552C93.3322 156.576 102.903 154.599 112.473 152.622C113.483 155.991 114.769 160.9 115.683 166.923C116.951 175.274 116.894 181.758 116.817 185.957C116.42 207.681 114.212 238.466 113.999 241.413C113.061 242.158 109.916 244.457 105.542 244.14C102.444 243.916 100.21 242.485 99.1771 241.716C98.227 242.41 96.137 243.722 93.2667 243.837C88.8268 244.016 85.7937 241.201 85.0828 240.504C81.5085 209.371 80.6447 186.236 81.0467 178.914Z" fill="white" stroke="black" stroke-miterlimit="10" stroke-linecap="round" stroke-linejoin="round"/>
<path d="M111.869 131.659C112.72 132.684 113.871 134.355 114.38 136.617C114.954 139.172 114.437 141.274 114.311 141.845C113.653 144.821 113.598 151.502 115.683 166.923C112.946 168.19 109.462 169.442 105.318 170.129C94.1885 171.973 85.0914 168.613 80.7965 166.663C81.6241 158.676 81.6448 152.435 81.4866 148.044C81.4602 147.314 81.1117 136.558 83.1039 129.271C83.2103 128.882 83.3103 128.55 83.3989 128.265C84.7165 124.018 86.424 120.697 87.7467 118.451C94.6866 118.257 101.626 118.063 108.566 117.87" fill="#D800FC"/>
<path d="M111.869 131.659C112.72 132.684 113.871 134.355 114.38 136.617C114.954 139.172 114.437 141.274 114.311 141.845C113.653 144.821 113.598 151.502 115.683 166.923C112.946 168.19 109.462 169.442 105.318 170.129C94.1885 171.973 85.0914 168.613 80.7965 166.663C81.6241 158.676 81.6448 152.435 81.4866 148.044C81.4602 147.314 81.1117 136.558 83.1039 129.271C83.2103 128.882 83.3103 128.55 83.3989 128.265C84.7165 124.018 86.424 120.697 87.7467 118.451C94.6866 118.257 101.626 118.063 108.566 117.87" stroke="black" stroke-miterlimit="10" stroke-linecap="round" stroke-linejoin="round"/>
<path d="M91.8769 119.512C89.45 119.486 86.1793 119.872 82.957 121.663C76.2115 125.414 72.4641 133.781 73.0145 143.1C75.7922 143.981 78.5695 144.863 81.3472 145.744" fill="#D800FC"/>
<path d="M91.8769 119.512C89.45 119.486 86.1793 119.872 82.957 121.663C76.2115 125.414 72.4641 133.781 73.0145 143.1C75.7922 143.981 78.5695 144.863 81.3472 145.744" stroke="black" stroke-miterlimit="10" stroke-linecap="round" stroke-linejoin="round"/>
<path d="M95.4145 90.5685C96.7982 89.8795 99.3971 88.8696 102.22 89.596C108.043 91.0947 109.985 98.7339 110.242 99.8047C111.673 105.775 108.558 107.282 109.999 114.876C110.635 118.227 111.42 118.878 111.457 121.925C111.518 127.009 109.408 131.699 107.932 131.647C107.166 131.62 107.128 130.334 105.501 129.581C104.05 128.91 103.28 129.634 102.463 128.973C101.251 127.994 101.693 125.441 101.879 124.365C102.204 122.491 102.826 121.998 102.818 120.26C102.814 119.166 102.563 118.36 102.403 117.839C100.436 111.415 100.962 110.994 99.3028 107.097C98.4338 105.056 97.1002 102.377 95.0493 99.4401C95.1712 96.4835 95.2926 93.5257 95.4145 90.5685Z" fill="#EBF17A" stroke="black" stroke-miterlimit="10" stroke-linecap="round" stroke-linejoin="round"/>
<path d="M104.61 111.756C104.355 112.822 104.138 114.017 104.006 115.325C103.71 118.25 103.934 120.802 104.28 122.793" stroke="black" stroke-miterlimit="10" stroke-linecap="round" stroke-linejoin="round"/>
<path d="M108.563 114.336C108.499 115.474 108.409 116.646 108.289 117.85C108.055 120.202 107.733 122.421 107.356 124.495" stroke="black" stroke-miterlimit="10" stroke-linecap="round" stroke-linejoin="round"/>
<path d="M99.6956 91.4092C100.606 91.5829 101.743 91.9124 102.935 92.5623C106.098 94.2853 107.529 97.101 108.042 98.2731" stroke="black" stroke-miterlimit="10" stroke-linecap="round" stroke-linejoin="round"/>
<path d="M95.7081 90.178C94.9616 89.8197 93.8878 89.4465 92.6289 89.5299C88.4335 89.8082 84.835 94.3827 83.8786 98.6046C83.2885 101.208 84.146 101.682 83.4456 105.191C82.8601 108.126 81.9468 109.367 81.1094 111.48C78.3662 118.41 79.5141 126.968 82.2579 127.936C83.4921 128.371 84.64 127.119 85.823 127.936C86.7841 128.599 86.4229 129.682 87.6053 131.339C88.2546 132.249 89.5239 133.548 90.1979 133.283C90.486 133.17 90.7891 132.695 90.3601 127.611C90.0628 124.091 89.6688 121.378 90.872 119.574C90.8927 119.543 91.0888 119.262 91.4804 118.701C93.2408 116.178 93.3438 116.065 93.4467 115.857C93.8384 115.069 93.9166 113.549 91.6564 110.434C93.5468 107.895 95.4377 105.356 97.3281 102.818C97.6795 102.498 97.9562 102.16 98.1741 101.817C100.781 97.7149 96.2429 90.9556 95.7081 90.178Z" fill="#EBF17A" stroke="black" stroke-miterlimit="10" stroke-linecap="round" stroke-linejoin="round"/>
<path d="M92.8946 92.8079C91.9434 93.1276 90.8253 93.6343 89.7096 94.455C85.9892 97.1925 85.0633 101.389 84.8229 102.746" stroke="black" stroke-miterlimit="10" stroke-linecap="round" stroke-linejoin="round"/>
<path d="M85.2891 106.744C85.0119 107.767 84.7664 108.866 84.5754 110.039C83.8807 114.297 84.1326 118.071 84.6306 121.021" stroke="black" stroke-miterlimit="10" stroke-linecap="round" stroke-linejoin="round"/>
<path d="M88.0904 109.38C87.7752 110.559 87.5009 111.882 87.3214 113.333C86.8849 116.871 87.1673 119.946 87.5958 122.284" stroke="black" stroke-miterlimit="10" stroke-linecap="round" stroke-linejoin="round"/>
<path d="M90.8726 119.574C91.7651 122.48 94.4544 124.394 97.2943 124.251C99.6856 124.131 101.842 122.57 102.819 120.261C102.646 119.541 102.496 118.73 102.404 117.84C102.227 116.146 102.307 114.654 102.466 113.453C99.0167 112.301 95.5672 111.15 92.1183 109.999C92.4708 110.758 93.5612 113.356 92.6485 116.387C92.1999 117.876 91.4275 118.939 90.8726 119.574Z" fill="#FACDC2" stroke="black" stroke-miterlimit="10" stroke-linecap="round" stroke-linejoin="round"/>
<path d="M106.26 103.954C106.952 103.413 107.825 103.251 108.503 103.572C109.564 104.074 109.907 105.64 109.256 106.7C108.632 107.718 107.198 108.093 106.041 107.436C106.014 110.98 104.132 114.056 101.263 115.306C100.898 115.465 98.5614 116.441 95.9522 115.506C92.846 114.394 90.7089 111.061 90.6761 107.151C89.592 107.417 88.497 107.107 87.9351 106.357C87.0109 105.122 87.7436 102.975 89.0169 102.606C89.8537 102.363 90.6847 102.957 90.8883 103.11C92.0886 102.578 93.73 101.658 95.1706 100.04C97.2939 97.656 97.3537 95.5488 98.707 95.2003C99.6041 94.9691 101.171 95.4827 103.997 99.5689C104.753 101.03 105.506 102.492 106.26 103.954Z" fill="#FACDC2" stroke="black" stroke-miterlimit="10" stroke-linecap="round" stroke-linejoin="round"/>
<path d="M108.099 105.252C107.782 105.084 107.393 105.124 107.121 105.353C106.861 105.572 106.752 105.927 106.843 106.258" stroke="black" stroke-miterlimit="10" stroke-linecap="round" stroke-linejoin="round"/>
<path d="M107.568 106.003C107.326 106.088 107.084 106.173 106.842 106.258L107.568 106.003Z" fill="white"/>
<path d="M107.568 106.003C107.326 106.088 107.084 106.173 106.842 106.258" stroke="black" stroke-miterlimit="10" stroke-linecap="round" stroke-linejoin="round"/>
<path d="M97.0482 104.691C97.2925 104.691 97.4905 104.493 97.4905 104.249C97.4905 104.004 97.2925 103.806 97.0482 103.806C96.804 103.806 96.606 104.004 96.606 104.249C96.606 104.493 96.804 104.691 97.0482 104.691Z" fill="black"/>
<path d="M97.3969 109.662C97.6418 109.853 98.1324 110.184 98.8392 110.329C99.6122 110.489 100.243 110.343 100.545 110.253" stroke="black" stroke-miterlimit="10" stroke-linecap="round" stroke-linejoin="round"/>
<path d="M103.371 104.165C103.325 104.405 103.482 104.637 103.721 104.683C103.961 104.729 104.193 104.572 104.24 104.333C104.286 104.093 104.129 103.861 103.889 103.814C103.648 103.768 103.417 103.925 103.371 104.165Z" fill="black"/>
<path d="M88.8057 104.697C89.1231 104.529 89.5119 104.569 89.7839 104.798C90.0439 105.017 90.1531 105.372 90.0617 105.703" stroke="black" stroke-miterlimit="10" stroke-linecap="round" stroke-linejoin="round"/>
<path d="M89.3361 105.448C89.5782 105.533 89.8203 105.618 90.0618 105.703L89.3361 105.448Z" fill="white"/>
<path d="M89.3361 105.448C89.5782 105.533 89.8203 105.618 90.0618 105.703" stroke="black" stroke-miterlimit="10" stroke-linecap="round" stroke-linejoin="round"/>
<path d="M100.293 105.827C100.355 105.798 100.896 105.555 101.427 105.843C101.901 106.1 102.094 106.631 102.055 107.051C101.997 107.696 101.375 108.267 100.557 108.308" stroke="black" stroke-miterlimit="10" stroke-linecap="round" stroke-linejoin="round"/>
<path d="M95.7961 103.072C95.9491 102.971 96.2642 102.794 96.6979 102.762C97.342 102.713 97.8096 103.017 97.9493 103.115" stroke="black" stroke-miterlimit="10" stroke-linecap="round" stroke-linejoin="round"/>
<path d="M102.64 103.251C102.793 103.15 103.108 102.973 103.542 102.941C104.186 102.892 104.654 103.196 104.793 103.294" stroke="black" stroke-miterlimit="10" stroke-linecap="round" stroke-linejoin="round"/>
<path d="M81.914 132.466C81.198 133.59 80.2669 135.392 80.0467 137.7C79.7959 140.33 80.589 142.364 80.7719 142.879C81.0588 143.686 81.2826 144.796 81.3907 146.333" fill="#D800FC"/>
<path d="M81.914 132.466C81.198 133.59 80.2669 135.392 80.0467 137.7C79.7959 140.33 80.589 142.364 80.7719 142.879C81.0588 143.686 81.2826 144.796 81.3907 146.333" stroke="black" stroke-miterlimit="10" stroke-linecap="round" stroke-linejoin="round"/>
<path d="M96.7643 110.029C97.0013 109.784 97.2377 109.539 97.4746 109.295" stroke="black" stroke-miterlimit="10" stroke-linecap="round" stroke-linejoin="round"/>
<path d="M97.5696 124.27C98.0959 139.734 98.6221 155.197 99.1483 170.661L97.5696 124.27Z" fill="#EBF17A"/>
<path d="M97.5696 124.27C98.0959 139.734 98.6221 155.197 99.1483 170.661" stroke="black" stroke-miterlimit="10" stroke-linecap="round" stroke-linejoin="round"/>
<path d="M94.8651 177.07C96.2171 177.124 97.6745 177.133 99.2238 177.07C100.608 177.014 101.914 176.908 103.132 176.769" fill="white"/>
<path d="M94.8651 177.07C96.2171 177.124 97.6745 177.133 99.2238 177.07C100.608 177.014 101.914 176.908 103.132 176.769" stroke="black" stroke-miterlimit="10" stroke-linecap="round" stroke-linejoin="round"/>
<path d="M99.1768 241.717C99.1929 220.543 99.2084 199.368 99.2245 178.195L99.1768 241.717Z" fill="white"/>
<path d="M99.1768 241.717C99.1929 220.543 99.2084 199.368 99.2245 178.195" stroke="black" stroke-miterlimit="10" stroke-linecap="round" stroke-linejoin="round"/>
<path d="M98.582 245.12C98.1363 246.785 94.2831 247.024 93.3474 247.082C90.588 247.254 86.1712 246.624 85.8226 244.792C85.4816 243.003 89.0174 240.027 92.5399 240.207C95.9049 240.38 99.037 243.42 98.582 245.12Z" fill="#EBF17A" stroke="black" stroke-miterlimit="10" stroke-linecap="round" stroke-linejoin="round"/>
<path d="M112.603 245.52C112.147 247.194 108.319 247.425 107.368 247.483C104.568 247.653 100.171 246.988 99.8432 245.193C99.5142 243.39 103.263 240.327 106.904 240.666C110.087 240.962 113.057 243.849 112.603 245.52Z" fill="#EBF17A" stroke="black" stroke-miterlimit="10" stroke-linecap="round" stroke-linejoin="round"/>
<path d="M47.9415 242.835C49.3608 244.641 51.9241 247.296 55.7262 248.535C58.4505 249.422 59.8474 248.943 60.2851 248.769C61.6636 248.223 62.8581 247.016 63.1917 245.836C63.9226 243.249 60.9303 239.303 55.3184 236.873C53.2543 237.006 46.1155 237.572 45.7359 239.904C45.6468 240.445 45.8716 241.392 47.9415 242.835Z" fill="#EBF17A" stroke="black" stroke-miterlimit="10" stroke-linecap="round" stroke-linejoin="round"/>
<path d="M36.7893 245.396C38.2086 247.202 40.7719 249.857 44.5739 251.096C47.2982 251.983 48.6952 251.504 49.1328 251.33C50.5114 250.784 51.7059 249.577 52.0395 248.397C52.7704 245.81 49.7781 241.864 44.1662 239.434C40.6644 236.69 36.5402 237.508 35.3762 239.51C34.5112 240.998 35.1002 243.448 36.7893 245.396Z" fill="#EBF17A" stroke="black" stroke-miterlimit="10" stroke-linecap="round" stroke-linejoin="round"/>
<path d="M24.4653 170.907C25.0076 168.706 25.7179 166.926 26.3016 165.654C37.2655 165.236 48.2294 164.816 59.1933 164.398C59.9335 165.757 60.7237 167.48 61.3506 169.546C61.3506 169.546 62.345 172.826 62.5129 176.52C62.7286 181.267 62.2702 204.687 61.1021 236.682C60.1348 237.502 57.1131 239.843 52.7538 239.883C50.5828 239.902 48.8362 239.344 47.7256 238.876C46.4604 239.466 45.0284 240.013 43.4313 240.439C36.5932 242.265 30.5465 240.865 27.1424 239.737C26.2493 216.793 25.3573 193.85 24.4653 170.907Z" fill="white" stroke="black" stroke-miterlimit="10" stroke-linecap="round" stroke-linejoin="round"/>
<path d="M14.8998 201.062C14.9073 200.374 15.5853 199.899 16.2352 200.123C16.8943 200.352 17.5677 200.573 18.2556 200.784C18.2814 200.792 18.3073 200.799 18.3338 200.807C18.0083 198.039 17.895 193.418 19.848 188.285C21.1783 184.789 23.0226 182.224 24.4489 180.56C24.7382 181.688 25.0275 182.817 25.3173 183.946C24.5599 184.942 23.8129 186.095 23.1469 187.417C20.4209 192.833 20.5083 198.211 20.9241 201.538C26.5561 202.993 31.8454 203.499 36.5061 203.51C36.1542 199.031 35.4094 194.024 34.0084 188.663C33.3626 186.19 32.6374 183.872 31.8707 181.714C30.5014 181.186 30.0516 179.844 30.4387 179.171C30.7423 178.643 31.6424 178.382 32.5724 178.648C33.0629 179.54 33.5397 180.467 33.9975 181.428C37.7323 189.266 39.0953 197.01 39.3822 203.653L41.7804 203.773C42.4585 203.807 42.9847 204.377 42.9635 205.056C42.5965 216.679 42.2296 228.302 41.8627 239.924C41.8282 241.01 40.881 241.839 39.7998 241.727C35.9178 241.327 31.6717 240.698 27.1422 239.736C23.0318 238.863 19.2539 237.836 15.8332 236.754C15.0481 236.506 14.5202 235.773 14.5294 234.95C14.6525 223.654 14.7761 212.358 14.8998 201.062Z" fill="white" stroke="black" stroke-miterlimit="10" stroke-linecap="round" stroke-linejoin="round"/>
<path d="M42.9471 174.574C43.7758 174.78 45.3873 175.071 47.3691 174.707C48.9265 174.42 50.0888 173.844 50.7755 173.439" fill="white"/>
<path d="M42.9471 174.574C43.7758 174.78 45.3873 175.071 47.3691 174.707C48.9265 174.42 50.0888 173.844 50.7755 173.439" stroke="black" stroke-miterlimit="10" stroke-linecap="round" stroke-linejoin="round"/>
<path d="M47.3683 174.707C47.4874 196.097 47.6064 217.486 47.7249 238.876L47.3683 174.707Z" fill="white"/>
<path d="M47.3683 174.707C47.4874 196.097 47.6064 217.486 47.7249 238.876" stroke="black" stroke-miterlimit="10" stroke-linecap="round" stroke-linejoin="round"/>
<path d="M57.4044 157.483C57.4337 158.342 57.5401 159.377 57.8087 160.523C58.1785 162.102 58.7375 163.38 59.2384 164.321C56.5728 165.926 52.0035 168.194 45.9257 168.957C36.6032 170.127 29.3487 167.052 26.3662 165.576C26.7579 164.117 27.111 162.34 27.2605 160.301C27.467 157.482 27.2203 155.056 26.8873 153.202C26.4174 152.442 25.7578 151.266 25.1827 149.746C23.0749 144.173 22.4095 134.89 28.1335 129.113C32.2766 124.931 37.6062 124.423 40.5519 124.117C43.5615 123.805 50.0562 123.136 55.7354 127.516" fill="#FA0581"/>
<path d="M57.4044 157.483C57.4337 158.342 57.5401 159.377 57.8087 160.523C58.1785 162.102 58.7375 163.38 59.2384 164.321C56.5728 165.926 52.0035 168.194 45.9257 168.957C36.6032 170.127 29.3487 167.052 26.3662 165.576C26.7579 164.117 27.111 162.34 27.2605 160.301C27.467 157.482 27.2203 155.056 26.8873 153.202C26.4174 152.442 25.7578 151.266 25.1827 149.746C23.0749 144.173 22.4095 134.89 28.1335 129.113C32.2766 124.931 37.6062 124.423 40.5519 124.117C43.5615 123.805 50.0562 123.136 55.7354 127.516" stroke="black" stroke-miterlimit="10" stroke-linecap="round" stroke-linejoin="round"/>
<path d="M33.7655 99.4204C31.0832 101.472 30.0917 104.171 29.3044 106.315C27.6883 110.714 27.8379 114.827 28.2956 117.7C28.4826 118.871 29.4706 119.744 30.6547 119.805C33.3963 119.947 36.2 120.055 39.064 120.124C43.5407 120.231 47.8805 120.235 52.0736 120.155C53.4038 120.13 54.4868 119.076 54.5426 117.747C54.6185 115.936 54.5402 113.701 54.0606 111.21C53.2025 106.756 52.073 100.894 47.0471 98.204C42.9207 95.9956 37.4123 96.6311 33.7655 99.4204Z" fill="black" stroke="black" stroke-miterlimit="10"/>
<path d="M38.4741 121.357C39.6347 121.112 41.1662 120.907 42.9605 120.977C45.15 121.064 46.9461 121.53 48.2073 121.966C47.3883 124.078 45.2748 125.411 43.0365 125.235C40.8562 125.065 39.009 123.498 38.4741 121.357Z" fill="#FA0581" stroke="black" stroke-miterlimit="10" stroke-linecap="round" stroke-linejoin="round"/>
<path d="M38.826 124.284C39.098 124.627 40.4208 126.226 42.7402 126.52C45.5979 126.883 47.5481 124.96 47.7724 124.731C47.4866 124.334 46.9396 123.462 46.7838 122.215C46.632 121 46.9275 120.043 47.1018 119.587C44.6415 119.438 42.1812 119.288 39.7208 119.139C39.8767 119.614 40.1378 120.625 39.906 121.879C39.6863 123.071 39.1308 123.892 38.826 124.284Z" fill="#F8BA94" stroke="black" stroke-miterlimit="10" stroke-linecap="round" stroke-linejoin="round"/>
<path d="M51.6291 114.131C51.3836 115.443 50.6123 119.659 47.0012 121.316C44.5093 122.459 42.1599 121.814 41.4428 121.58C38.2964 120.556 36.0034 117.527 35.4329 113.829C34.2901 114.11 33.1353 113.784 32.5435 112.993C31.5693 111.691 32.3416 109.429 33.6839 109.039C34.5662 108.783 35.4421 109.409 35.6566 109.571C35.7848 107.467 35.9131 105.364 36.0413 103.26C36.575 102.846 39.7192 100.493 43.8985 101.232C46.563 101.704 48.2958 103.194 48.9894 103.866C49.6749 104.785 52.6034 108.918 51.6291 114.131Z" fill="#F8BA94" stroke="black" stroke-miterlimit="10" stroke-linecap="round" stroke-linejoin="round"/>
<path d="M53.2387 112.619C52.9834 112.709 52.7286 112.799 52.4733 112.888L53.2387 112.619Z" fill="white"/>
<path d="M53.2387 112.619C52.9834 112.709 52.7286 112.799 52.4733 112.888" stroke="black" stroke-miterlimit="10" stroke-linecap="round" stroke-linejoin="round"/>
<path d="M42.2489 111.135C42.5065 111.135 42.7153 110.926 42.7153 110.669C42.7153 110.411 42.5065 110.202 42.2489 110.202C41.9913 110.202 41.7825 110.411 41.7825 110.669C41.7825 110.926 41.9913 111.135 42.2489 111.135Z" fill="black"/>
<path d="M43.6444 114.576C43.821 114.481 44.1022 115.178 45.0023 115.557C45.9615 115.961 46.7219 115.625 46.7822 115.821C46.8662 116.091 45.5768 117.231 44.5226 116.775C43.5052 116.336 43.396 114.709 43.6444 114.576Z" fill="white" stroke="black" stroke-miterlimit="10" stroke-linecap="round" stroke-linejoin="round"/>
<path d="M48.8917 110.116C48.8606 110.372 49.043 110.604 49.2983 110.635C49.5537 110.666 49.786 110.484 49.817 110.228C49.8481 109.973 49.6658 109.741 49.4105 109.71C49.1545 109.679 48.9222 109.861 48.8917 110.116Z" fill="black"/>
<path d="M33.4605 111.243C33.7952 111.065 34.2053 111.108 34.4917 111.349C34.766 111.581 34.881 111.954 34.7844 112.304" stroke="black" stroke-miterlimit="10" stroke-linecap="round" stroke-linejoin="round"/>
<path d="M34.019 112.034C34.2743 112.124 34.5291 112.214 34.7845 112.304L34.019 112.034Z" fill="white"/>
<path d="M34.019 112.034C34.2743 112.124 34.5291 112.214 34.7845 112.304" stroke="black" stroke-miterlimit="10" stroke-linecap="round" stroke-linejoin="round"/>
<path d="M46.3679 111.506C46.4306 111.471 46.9822 111.176 47.5619 111.44C48.0795 111.675 48.3204 112.22 48.3112 112.664C48.2969 113.347 47.6855 113.992 46.828 114.095" stroke="black" stroke-miterlimit="10" stroke-linecap="round" stroke-linejoin="round"/>
<path d="M40.8458 109.523C40.9993 109.405 41.3179 109.196 41.7711 109.13C42.4452 109.032 42.9587 109.317 43.1129 109.41" stroke="black" stroke-miterlimit="10" stroke-linecap="round" stroke-linejoin="round"/>
<path d="M48.0565 109.209C48.2101 109.092 48.5287 108.883 48.9819 108.816C49.6559 108.718 50.1695 109.003 50.3236 109.097" stroke="black" stroke-miterlimit="10" stroke-linecap="round" stroke-linejoin="round"/>
<path d="M40.2807 103.058C42.5598 106.324 45.0564 108.044 46.4654 107.417C46.7495 107.29 47.094 107.022 47.3781 106.403C48.1988 106.802 49.3002 107.479 50.2169 108.633C51.7185 110.524 51.5954 112.273 52.1688 112.308C52.9952 112.359 54.6136 108.807 54.0695 105.186C53.9511 104.397 53.2696 100.445 49.6084 98.2916C46.5868 96.5151 42.6916 96.6618 39.4698 98.5959C37.7916 98.5826 36.8381 99.1129 36.3268 99.5085C34.0143 101.297 33.6474 105.82 35.7948 110.813C36.0226 111.343 36.7777 111.343 37.0049 110.812C37.117 110.551 37.2286 110.289 37.3407 110.027C38.3357 107.696 39.3156 105.373 40.2807 103.058Z" fill="black" stroke="black" stroke-miterlimit="10"/>
<path d="M37.775 124.541C38.0079 123.48 38.2409 122.419 38.4738 121.357C38.8016 121.719 40.4453 123.456 43.188 123.638C45.9675 123.823 47.8435 122.277 48.2064 121.965C48.5175 122.879 48.8281 123.792 49.1392 124.706C48.8896 125.071 47.281 127.345 44.3267 127.694C41.7985 127.993 39.2628 126.766 37.775 124.541Z" fill="#FA0581" stroke="black" stroke-miterlimit="10" stroke-linecap="round" stroke-linejoin="round"/>
<path d="M57.1035 140.063C58.1893 142.557 58.551 144.678 58.6833 146.067C58.7557 146.825 58.8374 147.733 58.7109 148.929C58.5033 150.883 57.935 151.745 57.5549 153.206C57.2478 154.386 57.0178 156.129 57.4692 158.46" stroke="black" stroke-miterlimit="10" stroke-linecap="round" stroke-linejoin="round"/>
<path d="M38.8257 100.258C40.6457 100.258 42.1211 98.7824 42.1211 96.9624C42.1211 95.1424 40.6457 93.667 38.8257 93.667C37.0057 93.667 35.5303 95.1424 35.5303 96.9624C35.5303 98.7824 37.0057 100.258 38.8257 100.258Z" fill="black" stroke="black" stroke-miterlimit="10"/>
<path d="M39.7689 209.27C39.0115 219.248 38.2547 229.225 37.4973 239.202L39.7689 209.27Z" fill="white"/>
<path d="M39.7689 209.27C39.0115 219.248 38.2547 229.225 37.4973 239.202" stroke="black" stroke-miterlimit="10" stroke-linecap="round" stroke-linejoin="round"/>
<path d="M16.7856 203.39C17.3647 212.744 17.9439 222.098 18.5224 231.452L16.7856 203.39Z" fill="white"/>
<path d="M16.7856 203.39C17.3647 212.744 17.9439 222.098 18.5224 231.452" stroke="black" stroke-miterlimit="10" stroke-linecap="round" stroke-linejoin="round"/>
<path d="M29.5404 177.225C31.2531 177.486 32.152 178.219 32.5724 178.648C32.9295 179.012 33.4304 179.658 33.2568 179.934C33.1584 180.09 32.9037 180.028 32.3699 180.18C32.018 180.28 31.7419 180.418 31.555 180.525C32.6403 181.711 32.654 183.06 32.1261 183.495C31.735 183.818 30.9759 183.698 30.2903 183.333C30.8608 183.931 30.8166 184.836 30.3312 185.292C29.7963 185.795 28.764 185.717 28.2475 184.957C28.2337 185.018 28.1095 185.535 27.6155 185.759C27.1934 185.95 26.6752 185.848 26.3204 185.498C25.6831 185.975 25.2236 186.033 24.8952 185.953C22.7702 185.442 22.8979 178.425 22.9249 177.324C23.3171 174.901 23.7093 172.479 24.1016 170.056C26.3485 169.36 28.5949 168.664 30.8419 167.969C30.4083 171.054 29.974 174.14 29.5404 177.225Z" fill="#F8BA94" stroke="black" stroke-miterlimit="10" stroke-linecap="round" stroke-linejoin="round"/>
<path d="M29.6794 182.691C29.9549 183.003 30.2303 183.313 30.5064 183.624L29.6794 182.691Z" fill="#FACDC2"/>
<path d="M29.6794 182.691C29.9549 183.003 30.2303 183.313 30.5064 183.624" stroke="black" stroke-miterlimit="10" stroke-linecap="round" stroke-linejoin="round"/>
<path d="M27.7371 183.984C27.9073 184.308 28.0775 184.632 28.2478 184.956L27.7371 183.984Z" fill="#FACDC2"/>
<path d="M27.7371 183.984C27.9073 184.308 28.0775 184.632 28.2478 184.956" stroke="black" stroke-miterlimit="10" stroke-linecap="round" stroke-linejoin="round"/>
<path d="M26.006 184.656C26.1107 184.936 26.2159 185.218 26.3206 185.498L26.006 184.656Z" fill="#F8BA94"/>
<path d="M26.006 184.656C26.1107 184.936 26.2159 185.218 26.3206 185.498" stroke="black" stroke-miterlimit="10" stroke-linecap="round" stroke-linejoin="round"/>
<path d="M35.5768 124.936C31.2008 126.264 28.442 128.271 26.8363 129.692C14.6928 140.442 18.7697 161.692 19.675 166.411C20.5923 171.192 21.9565 174.962 22.9255 177.324C25.5745 176.811 28.224 176.299 30.873 175.786C30.8085 169.841 30.7223 163.895 30.6124 157.948C30.5365 153.824 30.4497 149.7 30.3519 145.578" fill="#FA0581"/>
<path d="M35.5768 124.936C31.2008 126.264 28.442 128.271 26.8363 129.692C14.6928 140.442 18.7697 161.692 19.675 166.411C20.5923 171.192 21.9565 174.962 22.9255 177.324C25.5745 176.811 28.224 176.299 30.873 175.786C30.8085 169.841 30.7223 163.895 30.6124 157.948C30.5365 153.824 30.4497 149.7 30.3519 145.578" stroke="black" stroke-miterlimit="10" stroke-linecap="round" stroke-linejoin="round"/>
<path d="M62.9868 140.741C62.0275 138.619 61.0665 136.497 60.1072 134.374C60.1072 134.374 57.3933 128.371 54.9657 126.751C54.6201 126.521 54.2595 126.31 54.2595 126.31C53.5872 125.923 52.9465 125.646 52.062 125.262C51.6502 125.083 51.1614 124.88 50.4908 124.64C50.0215 124.472 49.6103 124.339 49.2814 124.239" fill="#FA0581"/>
<path d="M62.9868 140.741C62.0275 138.619 61.0665 136.497 60.1072 134.374C60.1072 134.374 57.3933 128.371 54.9657 126.751C54.6201 126.521 54.2595 126.31 54.2595 126.31C53.5872 125.923 52.9465 125.646 52.062 125.262C51.6502 125.083 51.1614 124.88 50.4908 124.64C50.0215 124.472 49.6103 124.339 49.2814 124.239" stroke="black" stroke-miterlimit="10" stroke-linecap="round" stroke-linejoin="round"/>
<path d="M56.2212 152.025C57.0648 156.734 60.6184 159.805 63.9937 159.635C66.2591 159.521 68.3174 157.953 69.3377 156.073C70.1388 154.595 70.5656 152.434 68.5279 146.519C66.4081 140.366 63.2645 131.24 54.2594 126.311C52.6848 125.449 51.3177 124.927 50.4907 124.64" fill="#FA0581"/>
<path d="M56.2212 152.025C57.0648 156.734 60.6184 159.805 63.9937 159.635C66.2591 159.521 68.3174 157.953 69.3377 156.073C70.1388 154.595 70.5656 152.434 68.5279 146.519C66.4081 140.366 63.2645 131.24 54.2594 126.311C52.6848 125.449 51.3177 124.927 50.4907 124.64" stroke="black" stroke-miterlimit="10" stroke-linecap="round" stroke-linejoin="round"/>
<path d="M55.5848 136.563C55.4864 141.578 55.3881 146.593 55.2897 151.608L55.5848 136.563Z" fill="white"/>
<path d="M55.5848 136.563C55.4864 141.578 55.3881 146.593 55.2897 151.608" stroke="black" stroke-miterlimit="10" stroke-linecap="round" stroke-linejoin="round"/>
<path d="M55.2021 153.461C56.8595 153.461 58.203 152.835 58.203 152.063C58.203 151.29 56.8595 150.664 55.2021 150.664C53.5447 150.664 52.2012 151.29 52.2012 152.063C52.2012 152.835 53.5447 153.461 55.2021 153.461Z" fill="white" stroke="black" stroke-miterlimit="10" stroke-linecap="round" stroke-linejoin="round"/>
<path d="M55.5847 136.563C53.3562 136.563 51.5497 134.757 51.5497 132.528V122.665H59.6197V132.528C59.6203 134.757 57.8133 136.563 55.5847 136.563Z" fill="white" stroke="black" stroke-miterlimit="10" stroke-linecap="round" stroke-linejoin="round"/>
<path d="M55.5846 134.061C54.5005 134.061 53.6212 132.934 53.6212 131.543V127.26H57.548V131.543C57.548 132.933 56.6692 134.061 55.5846 134.061Z" fill="#EBF17A" stroke="black" stroke-miterlimit="10" stroke-linecap="round" stroke-linejoin="round"/>
<path d="M61.1028 145.092C60.4454 144.102 57.2501 139.361 55.5857 139.449C55.4408 139.457 55.0446 139.478 54.8243 139.754C54.3447 140.354 55.1262 141.62 55.1918 141.725C54.4597 140.879 53.3457 140.81 52.8016 141.311C52.2748 141.796 52.4416 142.672 52.4537 142.731C52.391 142.732 51.7578 142.746 51.4053 143.255C51.0918 143.708 51.1327 144.361 51.5283 144.836C51.4455 145.22 51.369 145.857 51.6048 146.547C51.817 147.168 52.2443 147.722 53.2836 148.425C54.1129 148.987 55.6093 149.832 57.8545 150.281C58.3457 150.015 59.3924 149.362 60.1837 148.08C60.9498 146.838 61.078 145.649 61.1028 145.092Z" fill="#F8BA94" stroke="black" stroke-miterlimit="10" stroke-linecap="round" stroke-linejoin="round"/>
<path d="M54.2751 144.296C54.0082 144.151 53.6977 143.956 53.3762 143.692C52.969 143.358 52.6682 143.016 52.4531 142.731" fill="#F8BA94"/>
<path d="M54.2751 144.296C54.0082 144.151 53.6977 143.956 53.3762 143.692C52.969 143.358 52.6682 143.016 52.4531 142.731" stroke="black" stroke-miterlimit="10" stroke-linecap="round" stroke-linejoin="round"/>
<path d="M53.6559 146.011C53.3211 145.885 52.941 145.717 52.5373 145.494C52.1439 145.276 51.808 145.048 51.5285 144.836" fill="#F8BA94"/>
<path d="M53.6559 146.011C53.3211 145.885 52.941 145.717 52.5373 145.494C52.1439 145.276 51.808 145.048 51.5285 144.836" stroke="black" stroke-miterlimit="10" stroke-linecap="round" stroke-linejoin="round"/>
<path d="M61.1028 145.092C61.8338 145.185 63.8007 145.536 65.4512 147.167C66.3335 148.039 66.8125 148.967 67.0702 149.596" fill="#FA0581"/>
<path d="M61.1028 145.092C61.8338 145.185 63.8007 145.536 65.4512 147.167C66.3335 148.039 66.8125 148.967 67.0702 149.596" stroke="black" stroke-miterlimit="10" stroke-linecap="round" stroke-linejoin="round"/>
<path d="M219.642 242.49C220.484 243.542 221.816 245.562 221.533 247.901C221.058 251.811 216.413 253.792 212.841 255.314C210.528 256.3 203.174 259.435 199.486 256.131C199.18 255.858 198.137 254.897 197.923 253.421C197.508 250.557 200.422 247.161 205.388 245.159C210.139 244.27 214.89 243.38 219.642 242.49Z" fill="black" stroke="black" stroke-miterlimit="10"/>
<path d="M203.039 237.144C203.881 238.196 205.214 240.215 204.93 242.555C204.456 246.465 199.81 248.445 196.239 249.968C193.925 250.953 186.572 254.088 182.883 250.785C182.577 250.511 181.534 249.55 181.32 248.075C180.905 245.21 183.82 241.814 188.785 239.813C193.537 238.924 198.288 238.033 203.039 237.144Z" fill="black" stroke="black" stroke-miterlimit="10"/>
<path d="M228.342 163.056C214.474 163.657 200.605 164.257 186.737 164.858C185.254 190.259 183.772 215.661 182.289 241.062C183.417 242.11 185.355 243.617 188.129 244.517C193.582 246.285 198.318 244.422 199.697 243.82C201.868 245.338 205.89 247.691 211.405 248.42C221.369 249.735 228.848 244.772 230.779 243.402C229.967 216.62 229.155 189.838 228.342 163.056Z" fill="white" stroke="black" stroke-miterlimit="10" stroke-linecap="round" stroke-linejoin="round"/>
<path d="M205.468 173.863C195.437 173.531 188.378 168.989 185.656 167.019C185.897 158.133 186.137 149.248 186.377 140.363C201.146 140.723 215.915 141.083 230.684 141.443C230.444 149.368 230.204 157.293 229.964 165.218C227.746 167.094 218.709 174.302 205.468 173.863Z" fill="#D800FC" stroke="black" stroke-miterlimit="10" stroke-linecap="round" stroke-linejoin="round"/>
<path d="M178.944 141.378C179.567 136.815 180.766 133.216 181.768 130.755C183.311 126.961 185.063 122.656 189.341 119.076C191.711 117.093 193.9 116.144 195.547 115.429C198.105 114.319 204.928 111.468 213.367 113.367C215.888 113.935 223.049 115.659 227.996 122.317C229.267 124.028 233.135 129.226 232.275 136.244C231.784 140.256 229.956 143.164 228.841 144.664" fill="#D800FC"/>
<path d="M178.944 141.378C179.567 136.815 180.766 133.216 181.768 130.755C183.311 126.961 185.063 122.656 189.341 119.076C191.711 117.093 193.9 116.144 195.547 115.429C198.105 114.319 204.928 111.468 213.367 113.367C215.888 113.935 223.049 115.659 227.996 122.317C229.267 124.028 233.135 129.226 232.275 136.244C231.784 140.256 229.956 143.164 228.841 144.664" stroke="black" stroke-miterlimit="10" stroke-linecap="round" stroke-linejoin="round"/>
<path d="M214.941 108.497C215.009 110.258 215.078 112.018 215.147 113.779C214.435 114.552 213.173 115.729 211.288 116.575C209.74 117.27 207.184 118.416 204.897 117.213C203.121 116.278 202.434 114.415 202.198 113.623C202.316 111.792 202.433 109.961 202.551 108.13C206.681 108.251 210.811 108.374 214.941 108.497Z" fill="#C87844" stroke="black" stroke-miterlimit="10" stroke-linecap="round" stroke-linejoin="round"/>
<path d="M218.603 99.2627C219.501 98.5611 220.634 98.3512 221.515 98.767C222.893 99.418 223.337 101.452 222.493 102.828C221.682 104.15 219.822 104.638 218.319 103.785C215.305 109.883 210.335 113.663 205.804 113.151C203.648 112.907 202.119 111.752 201.819 111.518C197.702 108.31 198.261 101.972 198.478 99.51C198.846 95.3359 200.458 92.0434 201.89 89.8378C208.016 87.7375 214.101 89.2035 216.898 93.1349C218.427 95.2853 218.644 97.7088 218.603 99.2627Z" fill="#C87844" stroke="black" stroke-miterlimit="10" stroke-linecap="round" stroke-linejoin="round"/>
<path d="M220.991 100.949C220.579 100.73 220.074 100.783 219.721 101.08C219.383 101.365 219.242 101.825 219.36 102.256" stroke="black" stroke-miterlimit="10" stroke-linecap="round" stroke-linejoin="round"/>
<path d="M220.302 101.924C219.988 102.034 219.674 102.145 219.36 102.256L220.302 101.924Z" fill="white"/>
<path d="M220.302 101.924C219.988 102.034 219.674 102.145 219.36 102.256" stroke="black" stroke-miterlimit="10" stroke-linecap="round" stroke-linejoin="round"/>
<path d="M208.446 98.3132L210.199 98.6508C210.542 98.717 210.876 98.4904 210.942 98.1482C211.008 97.8054 210.782 97.4713 210.44 97.4057L208.687 97.0681C208.344 97.002 208.01 97.2286 207.944 97.5708C207.877 97.913 208.104 98.2471 208.446 98.3132Z" fill="black"/>
<path d="M203.536 98.5164C201.475 99.976 201.157 102.245 201.908 103.101C202.571 103.857 204.399 103.888 206.034 102.763" stroke="black" stroke-miterlimit="10" stroke-linecap="round" stroke-linejoin="round"/>
<path d="M201.28 96.8611L203.033 97.1987C203.376 97.2648 203.71 97.0382 203.776 96.696C203.843 96.3533 203.616 96.0191 203.274 95.9536L201.521 95.616C201.178 95.5498 200.844 95.7764 200.778 96.1186C200.712 96.4608 200.938 96.7949 201.28 96.8611Z" fill="black"/>
<path d="M201.832 98.6795C202.122 98.6795 202.357 98.4445 202.357 98.1545C202.357 97.8645 202.122 97.6294 201.832 97.6294C201.542 97.6294 201.307 97.8645 201.307 98.1545C201.307 98.4445 201.542 98.6795 201.832 98.6795Z" fill="black"/>
<path d="M209.108 100.122C209.398 100.122 209.633 99.8869 209.633 99.5969C209.633 99.3069 209.398 99.0718 209.108 99.0718C208.818 99.0718 208.583 99.3069 208.583 99.5969C208.583 99.8869 208.818 100.122 209.108 100.122Z" fill="black"/>
<path d="M205.648 105.814C206.229 105.699 206.934 105.504 207.696 105.162C208.159 104.955 208.563 104.729 208.907 104.511" fill="white"/>
<path d="M205.648 105.814C206.229 105.699 206.934 105.504 207.696 105.162C208.159 104.955 208.563 104.729 208.907 104.511" stroke="black" stroke-miterlimit="10" stroke-linecap="round" stroke-linejoin="round"/>
<path d="M195.408 179.399C197.209 180.19 199.861 181.096 203.164 181.351C205.122 181.502 206.849 181.39 208.256 181.194" fill="white"/>
<path d="M195.408 179.399C197.209 180.19 199.861 181.096 203.164 181.351C205.122 181.502 206.849 181.39 208.256 181.194" stroke="black" stroke-miterlimit="10" stroke-linecap="round" stroke-linejoin="round"/>
<path d="M199.109 243.82C199.882 223.02 200.654 202.221 201.426 181.421L199.109 243.82Z" fill="white"/>
<path d="M199.109 243.82C199.882 223.02 200.654 202.221 201.426 181.421" stroke="black" stroke-miterlimit="10" stroke-linecap="round" stroke-linejoin="round"/>
<path d="M215.195 110.639C215.944 111.037 216.769 111.528 217.63 112.138C218.559 112.795 219.347 113.458 220.003 114.074C219.505 115.171 217.708 118.761 213.509 120.817C210.431 122.325 207.586 122.263 206.281 122.151C206.219 120.085 206.158 118.019 206.096 115.953C206.997 116.026 208.64 116.033 210.45 115.26C213.49 113.962 214.836 111.389 215.195 110.639Z" fill="white" stroke="black" stroke-miterlimit="10" stroke-linecap="round" stroke-linejoin="round"/>
<path d="M206.095 115.953C205.215 117.887 204.335 119.821 203.455 121.754C202.803 121.628 201.574 121.285 200.52 120.256C198.149 117.941 198.956 114.395 199.012 114.166C199.973 113.469 200.934 112.772 201.894 112.075C201.934 112.398 202.155 113.927 203.518 115.01C204.567 115.845 205.696 115.939 206.095 115.953Z" fill="white" stroke="black" stroke-miterlimit="10" stroke-linecap="round" stroke-linejoin="round"/>
<path d="M223.361 100.604C223.298 100.434 222.829 99.23 221.515 98.7677C219.978 98.2259 218.691 99.1944 218.603 99.2628C218.506 99.2502 216.889 99.0149 216.194 97.4949C215.52 96.0209 216.327 94.6821 216.389 94.5831C215.391 95.5033 213.935 95.6672 212.841 95.0133C211.93 94.4681 211.395 93.4295 211.443 92.3253C211.085 93.7285 209.764 94.6349 208.432 94.4756C207.28 94.3381 206.311 93.4266 206.067 92.2177C205.461 93.4358 204.195 94.0793 203.056 93.8303C201.897 93.5767 201.361 92.5058 201.288 92.3557C199.588 92.7359 197.896 92.0757 197.142 90.8202C196.145 89.1576 196.854 86.554 199.077 85.4441C199.045 85.2175 198.812 83.3708 200.153 82.0032C201.282 80.8506 203.071 80.5056 204.669 81.1428C205.478 79.7896 206.998 79.0304 208.54 79.2076C209.975 79.3726 211.214 80.3244 211.766 81.6805C212.883 80.7805 214.39 80.5683 215.637 81.1428C217.12 81.8266 217.984 83.5105 217.679 85.2284C219.806 83.6894 222.522 84.4273 223.378 86.0888C224.024 87.3419 223.632 89.161 222.303 90.3894C224.496 89.9443 226.251 91.466 226.281 92.8624C226.305 93.9862 225.216 95.2399 223.593 95.5505C224.646 96.0238 225.292 97.105 225.206 98.2386C225.125 99.3157 224.397 100.25 223.361 100.604Z" fill="black"/>
<path d="M222.584 168.909L218.588 161.895C217.884 160.66 218.319 159.075 219.553 158.371L231.839 151.373C233.074 150.67 234.659 151.104 235.362 152.339L239.358 159.353C240.061 160.587 239.627 162.172 238.392 162.876L226.107 169.874C224.873 170.578 223.287 170.143 222.584 168.909Z" fill="white" stroke="black" stroke-miterlimit="10" stroke-linecap="round" stroke-linejoin="round"/>
<path d="M229.761 164.375L226.147 158.032C225.879 157.56 226.045 156.955 226.516 156.687L232.566 153.24C233.038 152.972 233.643 153.138 233.911 153.609L237.525 159.952C237.794 160.424 237.628 161.029 237.157 161.297L231.106 164.744C230.635 165.013 230.03 164.847 229.761 164.375Z" fill="white" stroke="black" stroke-miterlimit="10" stroke-linecap="round" stroke-linejoin="round"/>
<path d="M225.067 162.17L224.799 161.7L225.229 161.455C225.444 161.333 225.519 161.057 225.397 160.842L224.831 159.848C224.708 159.634 224.433 159.558 224.217 159.68L223.788 159.925L223.551 159.509C223.428 159.294 223.153 159.218 222.938 159.341L221.944 159.907C221.729 160.03 221.654 160.305 221.776 160.521L222.013 160.937L221.556 161.197C221.342 161.319 221.266 161.595 221.388 161.81L221.955 162.804C222.077 163.018 222.353 163.094 222.568 162.972L223.025 162.712L223.293 163.182C223.415 163.396 223.691 163.472 223.906 163.349L224.9 162.783C225.114 162.661 225.19 162.384 225.067 162.17Z" fill="white" stroke="black" stroke-miterlimit="10" stroke-linecap="round" stroke-linejoin="round"/>
<path d="M227.403 167.165C227.915 167.165 228.331 166.75 228.331 166.237C228.331 165.724 227.915 165.309 227.403 165.309C226.89 165.309 226.474 165.724 226.474 166.237C226.474 166.75 226.89 167.165 227.403 167.165Z" fill="white" stroke="black" stroke-miterlimit="10" stroke-linecap="round" stroke-linejoin="round"/>
<path d="M224.291 166.8C224.804 166.8 225.219 166.385 225.219 165.872C225.219 165.359 224.804 164.944 224.291 164.944C223.778 164.944 223.363 165.359 223.363 165.872C223.363 166.385 223.778 166.8 224.291 166.8Z" fill="white" stroke="black" stroke-miterlimit="10" stroke-linecap="round" stroke-linejoin="round"/>
<path d="M185.348 137.474C189.644 138.095 194.503 139.068 199.746 140.594C206.252 142.487 211.843 144.794 216.451 147.035C215.902 147.833 215.266 148.943 214.801 150.357C214.006 152.778 214.1 154.899 214.257 156.144C212.56 156.681 210.013 157.359 206.866 157.704C204.967 157.913 186.216 159.751 180.505 149.393C179.707 147.945 178.675 145.372 178.944 141.377" fill="#D800FC"/>
<path d="M185.348 137.474C189.644 138.095 194.503 139.068 199.746 140.594C206.252 142.487 211.843 144.794 216.451 147.035C215.902 147.833 215.266 148.943 214.801 150.357C214.006 152.778 214.1 154.899 214.257 156.144C212.56 156.681 210.013 157.359 206.866 157.704C204.967 157.913 186.216 159.751 180.505 149.393C179.707 147.945 178.675 145.372 178.944 141.377" stroke="black" stroke-miterlimit="10" stroke-linecap="round" stroke-linejoin="round"/>
<path d="M220.01 147.557C227.648 148.63 231.49 149.833 231.536 151.166C231.559 151.838 230.616 152.544 228.706 153.283C230.34 153.837 231.126 155.322 230.782 156.381C230.481 157.308 229.393 157.666 229.233 157.716C229.674 158.373 229.654 159.236 229.189 159.855C228.692 160.516 227.79 160.761 227.005 160.438C226.822 161.19 226.499 161.596 226.159 161.822C223.416 163.644 215.831 156.226 215.187 155.589C215.209 154.735 215.372 152.853 216.572 150.885C217.735 148.976 219.268 147.978 220.01 147.557Z" fill="#C87844" stroke="black" stroke-miterlimit="10" stroke-linecap="round" stroke-linejoin="round"/>
<path d="M225.835 156.317C226.217 156.581 226.699 156.868 227.283 157.124C228.021 157.447 228.697 157.62 229.234 157.716" fill="#C87844"/>
<path d="M225.835 156.317C226.217 156.581 226.699 156.868 227.283 157.124C228.021 157.447 228.697 157.62 229.234 157.716" stroke="black" stroke-miterlimit="10" stroke-linecap="round" stroke-linejoin="round"/>
<path d="M223.926 158.353C224.33 158.722 224.823 159.124 225.407 159.519C225.978 159.905 226.521 160.205 227.005 160.438" fill="#C87844"/>
<path d="M223.926 158.353C224.33 158.722 224.823 159.124 225.407 159.519C225.978 159.905 226.521 160.205 227.005 160.438" stroke="black" stroke-miterlimit="10" stroke-linecap="round" stroke-linejoin="round"/>
<path d="M230.087 151.744C229.056 152.762 222.754 158.808 215.518 157.401C205.696 155.492 202.974 141.562 202.477 139.017C200.909 130.985 203.122 124.32 204.393 121.216C205.304 121.541 206.541 121.869 208.028 121.954C210.572 122.099 212.597 121.46 213.759 120.988C215.221 122.699 216.797 124.827 218.257 127.403C221.069 132.365 222.345 137.046 222.962 140.46" fill="#D800FC"/>
<path d="M230.087 151.744C229.056 152.762 222.754 158.808 215.518 157.401C205.696 155.492 202.974 141.562 202.477 139.017C200.909 130.985 203.122 124.32 204.393 121.216C205.304 121.541 206.541 121.869 208.028 121.954C210.572 122.099 212.597 121.46 213.759 120.988C215.221 122.699 216.797 124.827 218.257 127.403C221.069 132.365 222.345 137.046 222.962 140.46" stroke="black" stroke-miterlimit="10" stroke-linecap="round" stroke-linejoin="round"/>
<path d="M219.875 115.609C230.308 120.422 236.391 130.796 235.053 140.817C234.35 146.088 231.748 150.099 228.972 152.978" fill="#D800FC"/>
<path d="M219.875 115.609C230.308 120.422 236.391 130.796 235.053 140.817C234.35 146.088 231.748 150.099 228.972 152.978" stroke="black" stroke-miterlimit="10" stroke-linecap="round" stroke-linejoin="round"/>
<path d="M190.438 125.042C189.252 127.573 188.1 130.818 187.571 134.684C187.514 135.106 187.467 135.528 187.467 135.528C187.373 136.376 187.325 137.118 187.299 137.721" stroke="black" stroke-miterlimit="10" stroke-linecap="round" stroke-linejoin="round"/>
<path d="M213.276 121.21C215.122 113.722 215.436 109.707 214.215 109.168C213.6 108.897 212.594 109.509 211.197 111.008C211.291 109.285 210.206 108.002 209.095 107.927C208.122 107.862 207.385 108.739 207.279 108.868C206.833 108.214 206.024 107.911 205.277 108.113C204.479 108.329 203.915 109.075 203.923 109.923C203.157 109.813 202.66 109.962 202.324 110.193C199.611 112.061 203.674 121.862 204.026 122.697C204.827 122.994 206.634 123.543 208.908 123.162C211.112 122.794 212.609 121.743 213.276 121.21Z" fill="#C87844" stroke="black" stroke-miterlimit="10" stroke-linecap="round" stroke-linejoin="round"/>
<path d="M207.313 112.544C207.21 112.091 207.122 111.536 207.103 110.9C207.078 110.094 207.168 109.403 207.279 108.868" fill="#C87844"/>
<path d="M207.313 112.544C207.21 112.091 207.122 111.536 207.103 110.9C207.078 110.094 207.168 109.403 207.279 108.868" stroke="black" stroke-miterlimit="10" stroke-linecap="round" stroke-linejoin="round"/>
<path d="M204.713 113.558C204.52 113.045 204.331 112.439 204.182 111.749C204.037 111.076 203.96 110.46 203.923 109.924" fill="#C87844"/>
<path d="M204.713 113.558C204.52 113.045 204.331 112.439 204.182 111.749C204.037 111.076 203.96 110.46 203.923 109.924" stroke="black" stroke-miterlimit="10" stroke-linecap="round" stroke-linejoin="round"/>
<path d="M224.8 180.919C223.777 180.847 222.274 180.615 220.619 179.874C218.234 178.807 216.754 177.23 216.019 176.32" stroke="black" stroke-miterlimit="10" stroke-linecap="round" stroke-linejoin="round"/>
<path d="M25.9317 215.055L26.3619 216.261C26.6707 217.125 27.63 217.58 28.4944 217.271C29.3588 216.962 29.8137 216.003 29.5049 215.139L29.0747 213.933C28.7659 213.069 27.8066 212.614 26.9422 212.923C26.0778 213.231 25.6229 214.191 25.9317 215.055Z" fill="white" stroke="black" stroke-miterlimit="10" stroke-linecap="round" stroke-linejoin="round"/>
<path d="M26.165 219.422L27.0357 221.861C27.4176 222.931 28.6058 223.494 29.6755 223.112L31.1989 222.568C32.2692 222.186 32.8317 220.998 32.4498 219.928L31.5791 217.489C31.0477 216 29.3942 215.217 27.9053 215.748C26.4169 216.28 25.6336 217.933 26.165 219.422Z" fill="#EBF17A" stroke="black" stroke-miterlimit="10" stroke-linecap="round" stroke-linejoin="round"/>
<path d="M27.2669 221.788C27.2089 221.881 27.1594 221.959 27.1111 222.037C27.0593 222.119 27.0087 222.199 26.9472 222.297C27.076 223.421 27.2048 224.545 27.3336 225.67C27.3888 226.143 27.1738 226.608 26.7775 226.875C26.1961 227.265 25.6146 227.655 25.0332 228.044C24.7807 228.216 24.5967 228.469 24.5156 228.764C24.4345 229.053 24.3505 229.345 24.2832 229.581C24.1993 229.873 23.9871 230.109 23.7041 230.219C23.3637 230.352 22.9553 230.512 22.9507 230.514C22.9461 230.515 22.4061 230.727 21.9978 230.887C21.7148 230.998 21.3962 230.969 21.1368 230.808C21.0224 230.739 20.9074 230.668 20.7924 230.597C20.5065 230.419 20.154 230.407 19.8618 230.549C19.7934 230.58 19.7307 230.622 19.6709 230.671C19.6151 230.717 19.576 230.748 19.5742 230.749C19.5702 230.752 19.4834 230.823 19.3712 230.915C19.0509 231.177 18.9307 231.613 19.0745 232C19.4104 232.916 19.7456 233.831 20.0827 234.747C20.3317 235.425 21.1472 235.695 21.7528 235.3C24.2585 233.665 26.7643 232.03 29.27 230.394C30.3271 231.273 31.3824 232.153 32.4389 233.035C32.9519 233.462 33.7087 233.425 34.1769 232.949C34.8624 232.251 35.5479 231.554 36.2317 230.856C36.5797 230.503 36.693 229.98 36.5233 229.515L35.6043 227.008L34.0803 222.846L33.4005 220.99C33.1584 220.332 32.4337 219.987 31.7718 220.219C30.2696 220.741 28.768 221.264 27.2669 221.788Z" fill="white" stroke="black" stroke-miterlimit="10" stroke-linecap="round" stroke-linejoin="round"/>
<path d="M26.447 227.095C26.3044 226.744 26.1617 226.394 26.0191 226.043C26.4148 225.837 26.8105 225.632 27.2061 225.425C27.2757 225.51 27.3137 225.593 27.3338 225.667C27.4546 226.103 27.0894 226.663 26.447 227.095Z" fill="#C1E2DF"/>
<path d="M27.1115 222.036C27.0597 222.118 27.0091 222.198 26.9476 222.296C27.0764 223.421 27.2052 224.544 27.334 225.669C27.3892 226.142 27.1742 226.607 26.7779 226.874C26.1965 227.265 25.615 227.655 25.0336 228.044C24.7811 228.215 24.5971 228.468 24.516 228.763C24.4349 229.052 24.3509 229.344 24.2836 229.58C24.1997 229.872 23.9875 230.108 23.7045 230.218C23.364 230.351 22.9557 230.511 22.9511 230.513C22.9465 230.515 22.4065 230.726 21.9981 230.886C21.7152 230.997 21.3966 230.969 21.1372 230.807C21.0228 230.738 20.9078 230.667 20.7927 230.596C20.5069 230.419 20.1543 230.407 19.8622 230.549C20.5644 230.918 21.2678 231.288 21.9705 231.657C22.3674 231.866 22.8441 231.853 23.2289 231.623C24.9186 230.613 26.6082 229.601 28.2979 228.592C28.6131 228.403 29.0197 228.478 29.2474 228.766C29.5885 229.198 29.9295 229.63 30.2705 230.062C30.7444 230.662 31.6312 230.728 32.1897 230.205C33.3278 229.138 34.4654 228.073 35.6047 227.008L34.0807 222.845C32.6561 224.241 31.2321 225.64 29.8076 227.036C29.5085 227.33 29.0059 227.216 28.8621 226.823C28.279 225.227 27.6958 223.631 27.1115 222.036Z" fill="#D800FC" stroke="black" stroke-miterlimit="10" stroke-linecap="round" stroke-linejoin="round"/>
<path d="M26.9744 212.911C25.9743 210.178 24.9742 207.444 23.9741 204.711L26.9744 212.911Z" fill="white"/>
<path d="M26.9744 212.911C25.9743 210.178 24.9742 207.444 23.9741 204.711" stroke="black" stroke-miterlimit="10" stroke-linecap="round" stroke-linejoin="round"/>
<path d="M109.296 142.766L127.089 153.659C127.667 154.014 128.425 153.825 128.769 153.24C129.416 152.143 130.062 151.045 130.709 149.947C124.896 146.258 119.084 142.568 113.272 138.879C111.947 140.175 110.622 141.47 109.296 142.766Z" fill="white" stroke="black" stroke-miterlimit="10" stroke-linecap="round" stroke-linejoin="round"/>
<path d="M124.113 124.194C120.093 130.254 116.072 136.314 112.052 142.375C117.737 145.744 123.421 149.112 129.105 152.481C129.647 152.802 130.346 152.615 130.655 152.068C133.762 146.571 136.869 141.072 139.976 135.575C140.269 135.055 140.105 134.397 139.602 134.076C134.44 130.782 129.277 127.488 124.113 124.194Z" fill="#56BBFF" stroke="black" stroke-miterlimit="10" stroke-linecap="round" stroke-linejoin="round"/>
<path d="M124.114 124.194C123.896 124.123 123.098 123.892 122.193 124.256C121.201 124.654 120.785 125.482 120.696 125.672C116.896 131.37 113.096 137.067 109.296 142.766C109.471 142.613 109.999 142.193 110.793 142.137C111.38 142.095 111.835 142.272 112.052 142.374C116.073 136.315 120.094 130.254 124.114 124.194Z" fill="#56BBFF" stroke="black" stroke-miterlimit="10" stroke-linecap="round" stroke-linejoin="round"/>
<path d="M125.826 130.29C124.943 131.607 124.06 132.924 123.177 134.241C125.926 135.986 128.676 137.731 131.425 139.476C132.256 138.133 133.086 136.79 133.916 135.446C131.22 133.728 128.523 132.009 125.826 130.29Z" stroke="black" stroke-miterlimit="10" stroke-linecap="round" stroke-linejoin="round"/>
<path d="M119.049 128.171C119.115 128.082 119.534 127.535 120.29 127.463C120.942 127.401 121.406 127.733 121.512 127.814" stroke="black" stroke-miterlimit="10" stroke-linecap="round" stroke-linejoin="round"/>
<path d="M120.093 130.255C119.965 130.126 119.687 129.879 119.261 129.783C118.432 129.596 117.78 130.144 117.701 130.213" stroke="black" stroke-miterlimit="10" stroke-linecap="round" stroke-linejoin="round"/>
<path d="M114.858 138.146C114.662 138.036 114.333 137.887 113.904 137.852C113.116 137.787 112.533 138.152 112.345 138.282" stroke="black" stroke-miterlimit="10" stroke-linecap="round" stroke-linejoin="round"/>
<path d="M113.436 139.789C113.261 139.715 113.017 139.638 112.721 139.623C111.988 139.585 111.448 139.95 111.262 140.088" stroke="black" stroke-miterlimit="10" stroke-linecap="round" stroke-linejoin="round"/>
<path d="M138.235 141.271C137.966 140.394 137.067 139.274 136.12 139.506C135.41 139.68 134.839 140.571 134.894 141.657C134.135 141.765 133.498 142.244 133.238 142.918C132.974 143.6 133.201 144.217 133.265 144.376C132.267 144.384 131.392 144.842 131.132 145.531C130.694 146.695 132.053 148.398 133.387 148.234C134.114 148.145 134.754 147.511 135.05 146.662C135.317 146.586 135.945 146.366 136.488 145.766C137.004 145.196 137.166 144.587 137.223 144.314C138.15 143.48 138.548 142.296 138.235 141.271Z" fill="#FACDC2" stroke="black" stroke-miterlimit="10" stroke-linecap="round" stroke-linejoin="round"/>
<path d="M135.05 146.662C135.033 146.427 134.947 145.709 134.373 145.085C133.965 144.641 133.502 144.454 133.266 144.376" fill="#FACDC2"/>
<path d="M135.05 146.662C135.033 146.427 134.947 145.709 134.373 145.085C133.965 144.641 133.502 144.454 133.266 144.376" stroke="black" stroke-miterlimit="10" stroke-linecap="round" stroke-linejoin="round"/>
<path d="M137.223 144.314C137.16 143.988 136.953 143.157 136.22 142.453C135.727 141.978 135.202 141.759 134.894 141.658" fill="#FACDC2"/>
<path d="M137.223 144.314C137.16 143.988 136.953 143.157 136.22 142.453C135.727 141.978 135.202 141.759 134.894 141.658" stroke="black" stroke-miterlimit="10" stroke-linecap="round" stroke-linejoin="round"/>
<path d="M171.462 186.717C172.342 186.976 173.388 186.801 174.116 186.12C175.09 185.209 175.183 183.684 174.551 182.638C174.232 182.11 173.784 181.796 173.428 181.614C173.137 181.465 172.788 181.497 172.524 181.691C171.973 182.095 171.273 182.728 170.694 183.662C170.382 184.165 170.17 184.648 170.025 185.071C169.922 185.37 169.991 185.703 170.207 185.934C170.469 186.213 170.88 186.545 171.462 186.717Z" fill="black" stroke="black" stroke-miterlimit="10" stroke-linecap="round" stroke-linejoin="round"/>
<path d="M166.801 192.638C167.681 192.897 168.727 192.722 169.455 192.042C170.429 191.131 170.522 189.605 169.89 188.559C169.571 188.032 169.123 187.717 168.766 187.535C168.475 187.386 168.126 187.419 167.863 187.612C167.312 188.016 166.612 188.649 166.032 189.584C165.721 190.086 165.509 190.57 165.364 190.992C165.261 191.291 165.33 191.625 165.546 191.855C165.808 192.134 166.219 192.467 166.801 192.638Z" fill="black" stroke="black" stroke-miterlimit="10" stroke-linecap="round" stroke-linejoin="round"/>
<path d="M169.98 185.288C169.667 185.475 169.151 185.842 168.742 186.482C168.514 186.839 168.383 187.18 168.305 187.445" stroke="black" stroke-miterlimit="10" stroke-linecap="round" stroke-linejoin="round"/>
<path d="M173.311 181.436C174.101 179.968 174.891 178.501 175.68 177.033" stroke="black" stroke-miterlimit="10" stroke-linecap="round" stroke-linejoin="round"/>
<path d="M165.316 190.941C166.032 189.061 166.749 187.181 167.465 185.301" stroke="black" stroke-miterlimit="10" stroke-linecap="round" stroke-linejoin="round"/>
<defs>
<filter id="filter0_d_7_1304" x="0.905518" y="0" width="252.416" height="271.236" filterUnits="userSpaceOnUse" color-interpolation-filters="sRGB">
<feFlood flood-opacity="0" result="BackgroundImageFix"/>
<feColorMatrix in="SourceAlpha" type="matrix" values="0 0 0 0 0 0 0 0 0 0 0 0 0 0 0 0 0 0 127 0" result="hardAlpha"/>
<feOffset/>
<feGaussianBlur stdDeviation="2.5"/>
<feComposite in2="hardAlpha" operator="out"/>
<feColorMatrix type="matrix" values="0 0 0 0 0 0 0 0 0 0 0 0 0 0 0 0 0 0 0.25 0"/>
<feBlend mode="normal" in2="BackgroundImageFix" result="effect1_dropShadow_7_1304"/>
<feBlend mode="normal" in="SourceGraphic" in2="effect1_dropShadow_7_1304" result="shape"/>
</filter>
</defs>
</svg>
