<svg width="421" height="228" viewBox="0 0 421 228" fill="none" xmlns="http://www.w3.org/2000/svg">
<g filter="url(#filter0_d_7_716)">
<path d="M293.747 214.51C293.907 211.25 294.39 207.991 295.182 204.822C295.904 201.932 296.89 199.093 298.114 196.371C298.606 194.442 298.929 192.464 299.075 190.486C299.152 189.449 299.181 188.397 299.159 187.339C296.315 183.606 294.29 179.451 293.128 174.956C289.431 160.652 295.763 148.881 298.658 144.485L303.377 137.315L304.304 138.133C305.278 137.308 306.3 136.549 307.373 135.855C305.479 134.204 304.146 131.932 303.728 129.351C302.571 122.194 303.202 115.296 305.602 108.85C306.958 105.209 309.006 99.7064 314.73 95.3816C314.94 95.2219 315.161 95.0657 315.399 94.9076C316.644 94.0309 317.986 93.2621 319.399 92.6114C320.602 87.1238 325.562 83 331.481 83C337.727 83 342.906 87.5929 343.728 93.5345C353.454 99.3247 355.548 110.046 356.95 117.223C357.676 120.939 357.962 124.759 357.8 128.575C357.66 131.867 356.056 134.784 353.618 136.715C362.006 142.238 368.036 151.035 370.68 161.417C371.515 161.884 372.277 162.485 372.93 163.202C374.635 165.073 375.457 167.581 375.186 170.083L374.694 174.626C376.402 176.752 377.201 179.521 376.927 182.314C377.058 183.426 377.013 184.556 376.792 185.661C376.628 186.475 376.372 187.263 376.029 188.012C375.692 190.468 374.456 192.688 372.479 194.208C370.831 195.477 368.815 196.147 366.652 196.147C366.435 196.147 366.217 196.14 365.999 196.126L362.641 196.924C363.45 198.72 364.146 200.565 364.723 202.439C365.935 206.38 366.627 210.471 366.778 214.6L367.056 222.187L293.369 222.187L293.747 214.51Z" fill="white"/>
</g>
<path d="M301.692 215.655C301.806 213.326 302.13 210.479 302.912 207.308C303.677 204.207 304.683 201.586 305.642 199.5C321.942 198.877 338.243 198.254 354.543 197.631C355.643 199.652 356.818 202.215 357.75 205.285C358.972 209.312 359.379 212.903 359.478 215.653" fill="white"/>
<path d="M301.692 215.655C301.806 213.326 302.13 210.479 302.912 207.308C303.677 204.207 304.683 201.586 305.642 199.5C321.942 198.877 338.243 198.254 354.543 197.631C355.643 199.652 356.818 202.215 357.75 205.285C358.972 209.312 359.379 212.903 359.478 215.653" stroke="black" stroke-miterlimit="10" stroke-linecap="round" stroke-linejoin="round"/>
<path d="M330.389 212.76C331.621 213.067 334.017 213.499 336.963 212.958C339.279 212.532 341.006 211.675 342.028 211.073" fill="white"/>
<path d="M330.389 212.76C331.621 213.067 334.017 213.499 336.963 212.958C339.279 212.532 341.006 211.675 342.028 211.073" stroke="black" stroke-miterlimit="10" stroke-linecap="round" stroke-linejoin="round"/>
<path d="M336.963 212.958C337.033 213.737 337.103 214.517 337.173 215.298L336.963 212.958Z" fill="white"/>
<path d="M336.963 212.958C337.033 213.737 337.103 214.517 337.173 215.298" stroke="black" stroke-miterlimit="10" stroke-linecap="round" stroke-linejoin="round"/>
<path d="M306.417 181.092C305.717 179.962 304.736 178.211 303.881 175.951C300.745 167.661 299.755 153.852 308.271 145.256C314.434 139.035 322.363 138.28 326.745 137.825C329.559 137.533 339.925 136.793 349.332 142.881C360.311 149.986 366.092 163.872 364.603 178.513C360.53 178.513 356.458 178.513 352.386 178.513C351.791 181.307 351.241 185.749 352.32 190.967C352.87 193.633 353.716 195.872 354.544 197.632C350.578 200.021 343.781 203.394 334.74 204.529C320.872 206.27 310.08 201.695 305.643 199.5C306.226 197.329 306.75 194.685 306.973 191.652C307.28 187.459 306.913 183.85 306.417 181.092Z" fill="#FA0581" stroke="black" stroke-miterlimit="10" stroke-linecap="round" stroke-linejoin="round"/>
<path d="M319.657 101.216C315.667 104.268 314.193 108.284 313.021 111.472C310.617 118.018 310.839 124.135 311.521 128.409C311.798 130.151 313.269 131.45 315.03 131.541C319.108 131.753 323.279 131.913 327.54 132.015C334.2 132.174 340.655 132.181 346.893 132.062C348.872 132.024 350.483 130.457 350.566 128.48C350.678 125.787 350.563 122.461 349.849 118.755C348.572 112.13 346.892 103.409 339.416 99.4071C333.276 96.1211 325.082 97.0675 319.657 101.216Z" fill="black" stroke="black" stroke-miterlimit="10"/>
<path d="M323.653 133.719C325.38 133.354 327.658 133.048 330.327 133.153C333.584 133.282 336.256 133.975 338.132 134.624C336.914 137.766 333.769 139.748 330.44 139.487C327.197 139.234 324.449 136.903 323.653 133.719Z" fill="#FA0581" stroke="black" stroke-miterlimit="10" stroke-linecap="round" stroke-linejoin="round"/>
<path d="M324.177 138.072C324.582 138.584 326.55 140.961 329.999 141.399C334.251 141.939 337.152 139.078 337.486 138.738C337.06 138.147 336.247 136.851 336.015 134.995C335.789 133.187 336.229 131.764 336.488 131.085C332.828 130.863 329.168 130.641 325.508 130.42C325.739 131.126 326.128 132.63 325.784 134.496C325.457 136.267 324.631 137.489 324.177 138.072Z" fill="#F8BA94" stroke="black" stroke-miterlimit="10" stroke-linecap="round" stroke-linejoin="round"/>
<path d="M343.566 117.507C344.65 116.66 346.019 116.406 347.083 116.908C348.747 117.694 349.284 120.151 348.264 121.813C347.285 123.409 345.038 123.998 343.223 122.968C342.907 127.746 340.279 131.849 336.339 133.657C332.632 135.358 329.137 134.397 328.07 134.051C323.389 132.528 319.978 128.022 319.129 122.52C317.43 122.938 315.712 122.453 314.831 121.276C313.382 119.34 314.53 115.974 316.528 115.394C317.84 115.013 319.144 115.944 319.462 116.185C319.653 113.056 319.843 109.926 320.034 106.797C321.741 105.789 325.968 103.606 331.723 103.781C336.719 103.933 340.385 105.788 342.092 106.797C342.583 110.367 343.075 113.937 343.566 117.507Z" fill="#F8BA94" stroke="black" stroke-miterlimit="10" stroke-linecap="round" stroke-linejoin="round"/>
<path d="M346.449 119.543C345.951 119.279 345.342 119.342 344.915 119.701C344.507 120.045 344.336 120.601 344.479 121.121" stroke="black" stroke-miterlimit="10" stroke-linecap="round" stroke-linejoin="round"/>
<path d="M345.618 120.72C345.239 120.854 344.859 120.988 344.48 121.121L345.618 120.72Z" fill="white"/>
<path d="M345.618 120.72C345.239 120.854 344.859 120.988 344.48 121.121" stroke="black" stroke-miterlimit="10" stroke-linecap="round" stroke-linejoin="round"/>
<path d="M326.889 118.148C327.272 118.148 327.583 117.838 327.583 117.455C327.583 117.072 327.272 116.761 326.889 116.761C326.506 116.761 326.196 117.072 326.196 117.455C326.196 117.838 326.506 118.148 326.889 118.148Z" fill="black"/>
<path d="M329.294 126.306C329.708 126.563 330.529 126.996 331.655 127.103C332.887 127.221 333.845 126.888 334.3 126.696" stroke="black" stroke-miterlimit="10" stroke-linecap="round" stroke-linejoin="round"/>
<path d="M336.804 117.323C336.732 117.699 336.978 118.063 337.354 118.136C337.73 118.208 338.093 117.962 338.166 117.586C338.239 117.21 337.992 116.846 337.616 116.773C337.24 116.701 336.877 116.947 336.804 117.323Z" fill="black"/>
<path d="M316.196 118.673C316.694 118.408 317.304 118.472 317.73 118.831C318.138 119.175 318.309 119.731 318.166 120.251" stroke="black" stroke-miterlimit="10" stroke-linecap="round" stroke-linejoin="round"/>
<path d="M317.027 119.85C317.406 119.984 317.786 120.117 318.165 120.251L317.027 119.85Z" fill="white"/>
<path d="M317.027 119.85C317.406 119.984 317.786 120.117 318.165 120.251" stroke="black" stroke-miterlimit="10" stroke-linecap="round" stroke-linejoin="round"/>
<path d="M332.915 119.124C333.012 119.079 333.861 118.698 334.693 119.15C335.437 119.552 335.738 120.386 335.678 121.044C335.587 122.055 334.613 122.95 333.329 123.014" stroke="black" stroke-miterlimit="10" stroke-linecap="round" stroke-linejoin="round"/>
<path d="M324.925 115.609C325.166 115.451 325.659 115.173 326.34 115.122C327.35 115.046 328.083 115.522 328.302 115.677" stroke="black" stroke-miterlimit="10" stroke-linecap="round" stroke-linejoin="round"/>
<path d="M335.659 115.89C335.899 115.732 336.393 115.454 337.073 115.403C338.083 115.328 338.817 115.804 339.035 115.958" stroke="black" stroke-miterlimit="10" stroke-linecap="round" stroke-linejoin="round"/>
<path d="M325.539 106.495C328.93 111.354 332.644 113.913 334.739 112.981C335.162 112.793 335.674 112.394 336.097 111.473C337.317 112.066 338.956 113.073 340.32 114.791C342.553 117.604 342.37 120.205 343.223 120.258C344.452 120.334 346.86 115.049 346.051 109.663C345.874 108.489 344.861 102.61 339.415 99.4071C334.92 96.7639 329.125 96.982 324.333 99.8597C321.836 99.84 320.418 100.629 319.657 101.217C316.217 103.877 315.671 110.606 318.865 118.034C319.204 118.823 320.328 118.822 320.666 118.033C320.832 117.644 320.999 117.255 321.165 116.865C322.646 113.397 324.104 109.94 325.539 106.495Z" fill="black" stroke="black" stroke-miterlimit="10"/>
<path d="M322.614 138.455C322.961 136.876 323.307 135.298 323.654 133.719C324.141 134.256 326.587 136.841 330.667 137.112C334.802 137.388 337.592 135.088 338.133 134.624C338.595 135.983 339.058 137.341 339.521 138.701C339.149 139.244 336.756 142.627 332.361 143.146C328.6 143.59 324.828 141.764 322.614 138.455Z" fill="#FA0581" stroke="black" stroke-miterlimit="10" stroke-linecap="round" stroke-linejoin="round"/>
<path d="M351.367 161.545C352.228 163.198 353.58 166.329 353.718 170.476C353.836 174.029 353.014 176.848 352.386 178.513" stroke="black" stroke-miterlimit="10" stroke-linecap="round" stroke-linejoin="round"/>
<path d="M331.797 100.084C334.504 100.084 336.699 97.8889 336.699 95.1815C336.699 92.4741 334.504 90.2793 331.797 90.2793C329.09 90.2793 326.895 92.4741 326.895 95.1815C326.895 97.8889 329.09 100.084 331.797 100.084Z" fill="black" stroke="black" stroke-miterlimit="10"/>
<path d="M364.704 189.538L356.309 191.558C355.255 191.811 354.266 190.947 354.378 189.868L356.312 171.182C356.382 170.499 356.888 169.941 357.56 169.804L365.987 168.083C367.028 167.871 367.977 168.732 367.864 169.79L365.9 188.177C365.829 188.838 365.35 189.383 364.704 189.538Z" fill="white" stroke="black" stroke-miterlimit="10" stroke-linecap="round" stroke-linejoin="round"/>
<path d="M343.988 184.882C349.72 178.149 353.244 175.171 354.562 175.945C355.227 176.337 355.33 177.683 354.872 179.985C357.7 178.721 359.936 178.486 360.47 179.311C360.962 180.073 359.918 181.609 359.485 182.198C360.67 181.717 361.87 181.803 362.323 182.382C362.891 183.108 362.508 184.897 360.75 186.027C361.386 186.674 361.577 187.233 361.569 187.696C361.508 191.157 350.256 193.382 348.404 193.737C346.243 194.603 334.266 199.163 321.75 193.202C314.179 189.596 310.045 183.87 308.319 181.114C310.745 178.806 314.438 176.115 319.389 175.146C319.991 175.029 320.58 174.943 321.153 174.883C322.86 176.802 325.872 179.695 330.406 181.897C336.072 184.647 341.249 184.928 343.988 184.882Z" fill="#F8BA94" stroke="black" stroke-miterlimit="10" stroke-linecap="round" stroke-linejoin="round"/>
<path d="M356.043 184.627C356.533 184.419 357.108 184.129 357.713 183.722C358.479 183.207 359.062 182.659 359.485 182.198" fill="#FACDC2"/>
<path d="M356.043 184.627C356.533 184.419 357.108 184.129 357.713 183.722C358.479 183.207 359.062 182.659 359.485 182.198" stroke="black" stroke-miterlimit="10" stroke-linecap="round" stroke-linejoin="round"/>
<path d="M356.84 187.725C357.446 187.561 358.137 187.332 358.879 187.008C359.602 186.693 360.227 186.351 360.75 186.027" fill="#FACDC2"/>
<path d="M356.84 187.725C357.446 187.561 358.137 187.332 358.879 187.008C359.602 186.693 360.227 186.351 360.75 186.027" stroke="black" stroke-miterlimit="10" stroke-linecap="round" stroke-linejoin="round"/>
<path d="M368.632 179.409C367.856 178.709 366.323 178.142 365.533 178.923C364.941 179.508 364.906 180.713 365.595 181.741C364.917 182.29 364.574 183.132 364.715 183.942C364.857 184.762 365.439 185.232 365.595 185.35C364.624 185.942 364.036 186.901 364.186 187.726C364.439 189.119 366.764 189.988 367.971 189.047C368.629 188.534 368.883 187.541 368.675 186.538C368.891 186.307 369.376 185.725 369.555 184.822C369.725 183.963 369.528 183.272 369.423 182.973C369.842 181.616 369.538 180.227 368.632 179.409Z" fill="#F8BA94" stroke="black" stroke-miterlimit="10" stroke-linecap="round" stroke-linejoin="round"/>
<path d="M368.676 186.539C368.521 186.32 368.017 185.668 367.091 185.394C366.433 185.199 365.871 185.287 365.595 185.35" fill="#FACDC2"/>
<path d="M368.676 186.539C368.521 186.32 368.017 185.668 367.091 185.394C366.433 185.199 365.871 185.287 365.595 185.35" stroke="black" stroke-miterlimit="10" stroke-linecap="round" stroke-linejoin="round"/>
<path d="M369.424 182.974C369.171 182.692 368.483 182.002 367.356 181.741C366.596 181.566 365.956 181.66 365.595 181.741" fill="#FACDC2"/>
<path d="M369.424 182.974C369.171 182.692 368.483 182.002 367.356 181.741C366.596 181.566 365.956 181.66 365.595 181.741" stroke="black" stroke-miterlimit="10" stroke-linecap="round" stroke-linejoin="round"/>
<path d="M367.307 170.536C364.721 171.063 362.135 171.591 359.549 172.118C359.102 172.209 358.764 172.576 358.709 173.029C358.472 175.002 358.234 176.975 357.997 178.949" fill="white"/>
<path d="M367.307 170.536C364.721 171.063 362.135 171.591 359.549 172.118C359.102 172.209 358.764 172.576 358.709 173.029C358.472 175.002 358.234 176.975 357.997 178.949" stroke="black" stroke-miterlimit="10" stroke-linecap="round" stroke-linejoin="round"/>
<path d="M361.848 174.694C362.134 174.199 362.039 173.609 361.635 173.376C361.232 173.143 360.673 173.355 360.387 173.851C360.101 174.346 360.196 174.936 360.6 175.169C361.003 175.402 361.562 175.19 361.848 174.694Z" fill="white" stroke="black" stroke-miterlimit="10" stroke-linecap="round" stroke-linejoin="round"/>
<path d="M361.265 177.51C361.551 177.015 361.456 176.425 361.052 176.192C360.649 175.959 360.09 176.171 359.804 176.667C359.518 177.162 359.614 177.752 360.017 177.985C360.421 178.218 360.98 178.006 361.265 177.51Z" fill="white" stroke="black" stroke-miterlimit="10" stroke-linecap="round" stroke-linejoin="round"/>
<path d="M305.388 148.818C304.074 150.841 297.671 161.156 300.858 173.658C304.974 189.801 321.415 195.222 323.784 195.96C331.897 198.485 338.99 197.392 342.542 196.585C343.024 192.683 343.506 188.783 343.988 184.882C341.759 184.636 332.501 183.359 325.66 175.326C321.019 169.876 319.792 164.019 319.408 161.362" fill="#FA0581"/>
<path d="M305.388 148.818C304.074 150.841 297.671 161.156 300.858 173.658C304.974 189.801 321.415 195.222 323.784 195.96C331.897 198.485 338.99 197.392 342.542 196.585C343.024 192.683 343.506 188.783 343.988 184.882C341.759 184.636 332.501 183.359 325.66 175.326C321.019 169.876 319.792 164.019 319.408 161.362" stroke="black" stroke-miterlimit="10" stroke-linecap="round" stroke-linejoin="round"/>
<g filter="url(#filter1_d_7_716)">
<path d="M187.439 221.856L187.307 214.626C187.239 210.919 187.493 207.182 188.061 203.52C188.286 202.074 188.56 200.631 188.883 199.199L188.114 198.848L188.658 193.562C189.118 189.105 189.435 184.711 189.606 180.429C185.398 179.023 181.265 175.901 179.209 170.852C177.815 167.428 177.823 164.193 178.259 161.659L178.206 160.774C177.451 148.282 180.753 136.836 187.34 128.718C186.733 122.501 187.678 115.487 190.008 109.578C190.461 108.429 190.914 107.45 191.314 106.586C192.096 104.898 192.66 103.679 193.093 101.499C193.451 99.6991 193.405 98.9424 193.335 97.7969C193.247 96.3577 193.127 94.3867 193.774 91.5187C195.764 82.6996 203.323 72.9639 213.413 72.2908C213.751 72.2682 214.092 72.2568 214.429 72.2568C215.945 72.2568 217.458 72.4802 218.952 72.9225C221.013 72.3095 223.076 72 225.116 72C226.755 72 228.376 72.2042 229.935 72.6072C235.504 74.0468 240.213 77.9816 243.551 83.9858C245.648 87.7581 246.693 91.3868 247.129 93.2147C248.536 99.1087 247.715 103.166 247.056 106.427C246.474 109.305 246.014 111.578 246.843 115.97C247.143 117.554 247.459 118.599 247.795 119.705C248.064 120.592 248.351 121.54 248.59 122.652C258.775 130.629 263.92 144.843 262.266 160.81C263.786 168.948 260.615 176.699 254.413 179.606C254.045 179.779 253.668 179.933 253.285 180.069C253.686 184.049 254.214 188.491 254.866 193.354C255.893 197.29 256.758 201.313 257.437 205.317C257.913 208.12 258.308 210.979 258.612 213.812L259.491 222L187.439 221.856Z" fill="white"/>
</g>
<path d="M230.473 122.878C236.051 123.275 239.894 125.101 242.201 126.531C252.19 132.725 257.047 146.205 255.182 160.945C252.2 160.87 248.486 160.473 244.377 159.295C242.366 158.718 240.562 158.04 238.975 157.344" fill="#D800FC"/>
<path d="M230.473 122.878C236.051 123.275 239.894 125.101 242.201 126.531C252.19 132.725 257.047 146.205 255.182 160.945C252.2 160.87 248.486 160.473 244.377 159.295C242.366 158.718 240.562 158.04 238.975 157.344" stroke="black" stroke-miterlimit="10" stroke-linecap="round" stroke-linejoin="round"/>
<path d="M247.165 172.993C249.507 173.605 251.014 173.046 251.622 172.762C254.833 171.262 256.581 166.408 255.182 160.945C251.581 160.395 247.979 159.844 244.377 159.294C245.306 163.86 246.236 168.427 247.165 172.993Z" fill="#FACDC2" stroke="black" stroke-miterlimit="10" stroke-linecap="round" stroke-linejoin="round"/>
<path d="M194.334 214.631C194.283 211.828 194.426 208.472 195.009 204.726C195.593 200.975 196.478 197.731 197.38 195.075C214.219 194.953 231.058 194.831 247.897 194.709C248.87 198.363 249.765 202.348 250.496 206.639C250.976 209.454 251.344 212.16 251.622 214.743" fill="white"/>
<path d="M194.334 214.631C194.283 211.828 194.426 208.472 195.009 204.726C195.593 200.975 196.478 197.731 197.38 195.075C214.219 194.953 231.058 194.831 247.897 194.709C248.87 198.363 249.765 202.348 250.496 206.639C250.976 209.454 251.344 212.16 251.622 214.743" stroke="black" stroke-miterlimit="10" stroke-linecap="round" stroke-linejoin="round"/>
<path d="M242.196 141.899C243.471 143.435 245.194 145.936 245.956 149.323C246.816 153.15 246.042 156.298 245.853 157.154C244.868 161.61 244.786 171.615 247.908 194.709C243.811 196.606 238.592 198.482 232.385 199.51C215.719 202.271 202.095 197.239 195.664 194.319C196.902 182.358 196.934 173.011 196.697 166.436C196.657 165.342 196.135 149.236 199.118 138.323C199.278 137.739 199.428 137.243 199.56 136.815C201.533 130.455 204.09 125.482 206.071 122.119C216.464 121.829 226.856 121.538 237.249 121.248" fill="#D800FC"/>
<path d="M242.196 141.899C243.471 143.435 245.194 145.936 245.956 149.323C246.816 153.15 246.042 156.298 245.853 157.154C244.868 161.61 244.786 171.615 247.908 194.709C243.811 196.606 238.592 198.482 232.385 199.51C215.719 202.271 202.095 197.239 195.664 194.319C196.902 182.358 196.934 173.011 196.697 166.436C196.657 165.342 196.135 149.236 199.118 138.323C199.278 137.739 199.428 137.243 199.56 136.815C201.533 130.455 204.09 125.482 206.071 122.119C216.464 121.829 226.856 121.538 237.249 121.248" stroke="black" stroke-miterlimit="10" stroke-linecap="round" stroke-linejoin="round"/>
<path d="M217.967 80.3916C220.04 79.3594 223.932 77.847 228.16 78.9357C236.879 81.1799 239.788 92.6207 240.172 94.2247C242.315 103.166 237.651 105.422 239.808 116.794C240.76 121.814 241.937 122.787 241.992 127.351C242.084 134.965 238.924 141.989 236.714 141.911C235.566 141.871 235.51 139.944 233.074 138.817C230.901 137.812 229.748 138.896 228.524 137.907C226.71 136.441 227.371 132.617 227.649 131.006C228.135 128.199 229.067 127.461 229.056 124.859C229.049 123.219 228.674 122.013 228.434 121.232C225.487 111.611 226.276 110.981 223.792 105.145C222.49 102.088 220.493 98.0769 217.422 93.6786C217.603 89.2491 217.785 84.8206 217.967 80.3916Z" fill="#EBF17A" stroke="black" stroke-miterlimit="10" stroke-linecap="round" stroke-linejoin="round"/>
<path d="M212.257 123.706C206.665 123.739 202.71 125.31 200.315 126.587C189.943 132.116 184.218 145.251 185.118 160.081C188.099 160.201 191.831 160.046 196.007 159.139C198.052 158.694 199.896 158.136 201.525 157.544" fill="#D800FC"/>
<path d="M212.257 123.706C206.665 123.739 202.71 125.31 200.315 126.587C189.943 132.116 184.218 145.251 185.118 160.081C188.099 160.201 191.831 160.046 196.007 159.139C198.052 158.694 199.896 158.136 201.525 157.544" stroke="black" stroke-miterlimit="10" stroke-linecap="round" stroke-linejoin="round"/>
<path d="M231.738 112.121C231.357 113.719 231.032 115.507 230.834 117.466C230.391 121.846 230.725 125.667 231.245 128.649" stroke="black" stroke-miterlimit="10" stroke-linecap="round" stroke-linejoin="round"/>
<path d="M237.659 115.985C237.562 117.689 237.427 119.445 237.248 121.248C236.897 124.771 236.415 128.093 235.85 131.199" stroke="black" stroke-miterlimit="10" stroke-linecap="round" stroke-linejoin="round"/>
<path d="M224.378 81.6511C225.741 81.9108 227.444 82.4053 229.23 83.378C233.967 85.9587 236.11 90.1752 236.877 91.9303" stroke="black" stroke-miterlimit="10" stroke-linecap="round" stroke-linejoin="round"/>
<path d="M218.408 79.8064C217.29 79.2698 215.681 78.7103 213.797 78.8357C207.514 79.2529 202.125 86.1036 200.692 92.426C199.809 96.3248 201.093 97.0344 200.044 102.29C199.167 106.685 197.8 108.542 196.546 111.708C192.438 122.085 194.157 134.903 198.266 136.351C200.114 137.003 201.833 135.128 203.605 136.351C205.044 137.344 204.503 138.966 206.274 141.447C207.246 142.809 209.147 144.756 210.157 144.359C210.589 144.19 211.042 143.479 210.4 135.865C209.955 130.593 209.365 126.53 211.166 123.829C211.197 123.782 211.49 123.362 212.077 122.521C214.713 118.743 214.867 118.573 215.022 118.262C215.608 117.081 215.725 114.806 212.341 110.141C215.172 106.339 218.003 102.537 220.835 98.735C221.361 98.2563 221.775 97.7504 222.102 97.2361C226.003 91.0935 219.208 80.9709 218.408 79.8064Z" fill="#EBF17A" stroke="black" stroke-miterlimit="10" stroke-linecap="round" stroke-linejoin="round"/>
<path d="M214.194 83.7454C212.769 84.2245 211.095 84.9827 209.424 86.2121C203.853 90.3116 202.465 96.5958 202.106 98.629" stroke="black" stroke-miterlimit="10" stroke-linecap="round" stroke-linejoin="round"/>
<path d="M202.805 104.615C202.389 106.147 202.022 107.793 201.736 109.549C200.696 115.926 201.073 121.578 201.818 125.996" stroke="black" stroke-miterlimit="10" stroke-linecap="round" stroke-linejoin="round"/>
<path d="M206.998 108.563C206.527 110.328 206.115 112.309 205.847 114.483C205.194 119.782 205.616 124.387 206.259 127.887" stroke="black" stroke-miterlimit="10" stroke-linecap="round" stroke-linejoin="round"/>
<path d="M211.165 123.829C212.502 128.18 216.529 131.046 220.782 130.833C224.363 130.653 227.593 128.315 229.055 124.858C228.796 123.779 228.572 122.565 228.433 121.231C228.169 118.695 228.289 116.46 228.526 114.661C223.361 112.936 218.196 111.212 213.031 109.488C213.559 110.626 215.192 114.516 213.825 119.056C213.153 121.287 211.996 122.878 211.165 123.829Z" fill="#FACDC2" stroke="black" stroke-miterlimit="10" stroke-linecap="round" stroke-linejoin="round"/>
<path d="M234.209 100.436C235.244 99.6268 236.551 99.3845 237.568 99.8647C239.157 100.615 239.67 102.961 238.696 104.548C237.76 106.073 235.615 106.635 233.882 105.651C233.841 110.959 231.022 115.566 226.726 117.437C226.179 117.675 222.68 119.136 218.772 117.737C214.121 116.072 210.92 111.08 210.872 105.224C209.248 105.623 207.608 105.16 206.767 104.036C205.382 102.186 206.48 98.9718 208.387 98.4188C209.64 98.055 210.885 98.944 211.189 99.1739C212.987 98.3766 215.445 96.9991 217.602 94.5764C220.782 91.0057 220.872 87.8502 222.899 87.3279C224.243 86.9815 226.588 87.7506 230.822 93.8698C231.95 96.0586 233.08 98.2473 234.209 100.436Z" fill="#FACDC2" stroke="black" stroke-miterlimit="10" stroke-linecap="round" stroke-linejoin="round"/>
<path d="M236.963 102.381C236.487 102.128 235.905 102.189 235.498 102.532C235.109 102.861 234.945 103.392 235.082 103.888" stroke="black" stroke-miterlimit="10" stroke-linecap="round" stroke-linejoin="round"/>
<path d="M236.169 103.505C235.807 103.633 235.444 103.761 235.082 103.888L236.169 103.505Z" fill="white"/>
<path d="M236.169 103.505C235.807 103.633 235.444 103.761 235.082 103.888" stroke="black" stroke-miterlimit="10" stroke-linecap="round" stroke-linejoin="round"/>
<path d="M219.201 101.417C219.567 101.417 219.863 101.121 219.863 100.755C219.863 100.389 219.567 100.092 219.201 100.092C218.835 100.092 218.538 100.389 218.538 100.755C218.538 101.121 218.835 101.417 219.201 101.417Z" fill="black"/>
<path d="M219.484 108.713C219.851 109 220.586 109.496 221.644 109.713C222.802 109.952 223.746 109.734 224.198 109.598" stroke="black" stroke-miterlimit="10" stroke-linecap="round" stroke-linejoin="round"/>
<path d="M228.669 100.629C228.6 100.989 228.835 101.336 229.194 101.405C229.554 101.474 229.901 101.239 229.97 100.88C230.039 100.52 229.804 100.173 229.445 100.104C229.085 100.035 228.739 100.27 228.669 100.629Z" fill="black"/>
<path d="M208.07 101.55C208.546 101.297 209.128 101.358 209.535 101.701C209.924 102.03 210.088 102.561 209.951 103.057" stroke="black" stroke-miterlimit="10" stroke-linecap="round" stroke-linejoin="round"/>
<path d="M208.864 102.674C209.226 102.802 209.589 102.93 209.951 103.057L208.864 102.674Z" fill="white"/>
<path d="M208.864 102.674C209.226 102.802 209.589 102.93 209.951 103.057" stroke="black" stroke-miterlimit="10" stroke-linecap="round" stroke-linejoin="round"/>
<path d="M223.295 102.85C223.388 102.807 224.199 102.443 224.993 102.875C225.703 103.26 225.991 104.056 225.934 104.684C225.847 105.649 224.917 106.504 223.691 106.565" stroke="black" stroke-miterlimit="10" stroke-linecap="round" stroke-linejoin="round"/>
<path d="M217.325 98.9921C217.555 98.8409 218.027 98.5758 218.676 98.5273C219.64 98.4549 220.341 98.9098 220.55 99.057" stroke="black" stroke-miterlimit="10" stroke-linecap="round" stroke-linejoin="round"/>
<path d="M227.576 99.2611C227.806 99.11 228.277 98.8449 228.926 98.7963C229.891 98.724 230.591 99.1789 230.801 99.326" stroke="black" stroke-miterlimit="10" stroke-linecap="round" stroke-linejoin="round"/>
<path d="M200.719 143.108C199.444 144.644 197.721 147.145 196.96 150.533C196.092 154.394 196.888 157.564 197.063 158.363C197.338 159.616 197.46 161.308 197.332 163.611" fill="#D800FC"/>
<path d="M200.719 143.108C199.444 144.644 197.721 147.145 196.96 150.533C196.092 154.394 196.888 157.564 197.063 158.363C197.338 159.616 197.46 161.308 197.332 163.611" stroke="black" stroke-miterlimit="10" stroke-linecap="round" stroke-linejoin="round"/>
<path d="M218.538 109.263C218.893 108.897 219.247 108.53 219.602 108.164" stroke="black" stroke-miterlimit="10" stroke-linecap="round" stroke-linejoin="round"/>
<path d="M220.782 130.833C221.334 153.991 221.885 177.149 222.437 200.307L220.782 130.833Z" fill="#EBF17A"/>
<path d="M220.782 130.833C221.334 153.991 221.885 177.149 222.437 200.307" stroke="black" stroke-miterlimit="10" stroke-linecap="round" stroke-linejoin="round"/>
<path d="M211.256 154.585C208.969 154.33 205.159 154.196 200.714 155.467C196.627 156.636 193.652 158.522 191.867 159.858C189.863 159.944 187.858 160.03 185.854 160.115C185.545 160.801 184.094 164.201 185.594 167.868C187.171 171.728 191.113 173.678 194.261 173.775C199.449 173.935 204.797 169.133 205.764 162.001C206.19 165.033 208.251 167.292 210.522 167.551C213.693 167.913 216.413 164.509 216.511 161.276C216.602 158.291 214.455 155.465 211.256 154.585Z" fill="#FACDC2" stroke="black" stroke-miterlimit="10" stroke-linecap="round" stroke-linejoin="round"/>
<path d="M234.425 185.164H209.476C207.197 185.164 205.35 183.316 205.35 181.038V149.675C205.35 147.396 207.197 145.549 209.476 145.549H234.425C236.703 145.549 238.551 147.396 238.551 149.675V181.037C238.551 183.316 236.704 185.164 234.425 185.164Z" fill="white" stroke="black" stroke-miterlimit="10" stroke-linecap="round" stroke-linejoin="round"/>
<path d="M250.119 162.305C247.989 161.638 245.628 161.018 243.053 160.515C241.608 160.233 240.217 160.011 238.888 159.839C238.76 161.001 238.633 162.164 238.505 163.326C235.491 163.598 233.473 164.465 233.412 165.423C233.355 166.308 234.979 167.119 235.629 167.414C234.39 167.57 233.407 168.216 233.298 168.925C233.16 169.815 234.34 171.158 236.378 171.282C236.145 172.136 236.249 172.704 236.477 173.095C238.181 176.016 248.834 172.542 250.582 171.96C250.789 171.785 253.04 169.8 252.732 166.704C252.461 163.981 250.421 162.514 250.119 162.305Z" fill="#FACDC2" stroke="black" stroke-miterlimit="10" stroke-linecap="round" stroke-linejoin="round"/>
<path d="M239.723 167.843C239.206 167.9 238.578 167.927 237.868 167.868C236.968 167.795 236.21 167.606 235.629 167.415" fill="#FACDC2"/>
<path d="M239.723 167.843C239.206 167.9 238.578 167.927 237.868 167.868C236.968 167.795 236.21 167.606 235.629 167.415" stroke="black" stroke-miterlimit="10" stroke-linecap="round" stroke-linejoin="round"/>
<path d="M240.522 170.864C239.927 171.013 239.228 171.148 238.441 171.226C237.674 171.302 236.979 171.309 236.378 171.283" fill="#FACDC2"/>
<path d="M240.522 170.864C239.927 171.013 239.228 171.148 238.441 171.226C237.674 171.302 236.979 171.309 236.378 171.283" stroke="black" stroke-miterlimit="10" stroke-linecap="round" stroke-linejoin="round"/>
<path d="M207.825 147.572C216.754 147.609 225.683 147.646 234.612 147.684L207.825 147.572Z" fill="white"/>
<path d="M207.825 147.572C216.754 147.609 225.683 147.646 234.612 147.684" stroke="black" stroke-miterlimit="10" stroke-linecap="round" stroke-linejoin="round"/>
<path d="M210.858 153.616C211.75 153.616 212.473 152.893 212.473 152.001C212.473 151.109 211.75 150.386 210.858 150.386C209.966 150.386 209.243 151.109 209.243 152.001C209.243 152.893 209.966 153.616 210.858 153.616Z" fill="white" stroke="black" stroke-miterlimit="10" stroke-linecap="round" stroke-linejoin="round"/>
<path d="M216.732 209.903C218.756 209.985 220.939 209.997 223.26 209.903C225.333 209.82 227.288 209.661 229.112 209.453" fill="white"/>
<path d="M216.732 209.903C218.756 209.985 220.939 209.997 223.26 209.903C225.333 209.82 227.288 209.661 229.112 209.453" stroke="black" stroke-miterlimit="10" stroke-linecap="round" stroke-linejoin="round"/>
<path d="M223.372 215.981C223.334 213.955 223.297 211.929 223.26 209.903L223.372 215.981Z" fill="white"/>
<path d="M223.372 215.981C223.334 213.955 223.297 211.929 223.26 209.903" stroke="black" stroke-miterlimit="10" stroke-linecap="round" stroke-linejoin="round"/>
<g filter="url(#filter2_d_7_716)">
<path d="M129.976 66.9686C116.504 66.9686 104.662 58.3528 100.51 45.5289C95.2466 29.2786 104.186 11.7761 120.436 6.51276C123.537 5.50868 126.749 5 129.985 5C143.457 5 155.298 13.6158 159.452 26.4396C164.714 42.6899 155.775 60.1925 139.525 65.4558C136.424 66.4599 133.211 66.9686 129.976 66.9686Z" fill="white"/>
</g>
<path d="M129.98 59.8448C143.158 59.8448 153.841 49.1622 153.841 35.9846C153.841 22.8071 143.158 12.1245 129.98 12.1245C116.803 12.1245 106.12 22.8071 106.12 35.9846C106.12 49.1622 116.803 59.8448 129.98 59.8448Z" fill="white" stroke="black" stroke-miterlimit="10" stroke-linecap="round" stroke-linejoin="round"/>
<path d="M118.77 41.7125L118.463 40.7644L119.411 40.4574C119.869 40.3093 120.12 39.8177 119.972 39.3603L119.783 38.7781C119.635 38.3202 119.144 38.0696 118.686 38.2177L117.738 38.5247L117.431 37.5766C117.282 37.1187 116.791 36.8681 116.333 37.0162L115.751 37.2046C115.293 37.3526 115.043 37.8442 115.191 38.3017L115.498 39.2497L114.55 39.5567C114.092 39.7048 113.841 40.1964 113.989 40.6538L114.178 41.2361C114.326 41.694 114.817 41.9445 115.275 41.7965L116.223 41.4895L116.53 42.4375C116.678 42.8954 117.17 43.146 117.627 42.9979L118.209 42.8096C118.667 42.6615 118.918 42.1704 118.77 41.7125Z" fill="white" stroke="black" stroke-miterlimit="10" stroke-linecap="round" stroke-linejoin="round"/>
<path d="M143.588 47.2961L127.902 51.5677C126.487 51.9535 125.026 51.1179 124.641 49.7019L118.713 27.9349C118.327 26.5189 119.163 25.0584 120.579 24.6731L136.264 20.4015C137.68 20.0157 139.14 20.8513 139.526 22.2673L145.453 44.0343C145.839 45.4498 145.004 46.9103 143.588 47.2961Z" fill="white" stroke="black" stroke-miterlimit="10" stroke-linecap="round" stroke-linejoin="round"/>
<path d="M125.887 28.6433L122.806 29.4822C121.8 29.756 120.762 29.1629 120.488 28.1569L120.472 28.1004C120.199 27.0945 120.792 26.0572 121.798 25.7829L124.879 24.944C125.885 24.6702 126.922 25.2633 127.196 26.2693L127.212 26.3257C127.486 27.3317 126.893 28.3695 125.887 28.6433Z" fill="white" stroke="black" stroke-miterlimit="10" stroke-linecap="round" stroke-linejoin="round"/>
<path d="M129.211 26.6624C129.669 26.6624 130.04 26.2912 130.04 25.8334C130.04 25.3755 129.669 25.0044 129.211 25.0044C128.753 25.0044 128.382 25.3755 128.382 25.8334C128.382 26.2912 128.753 26.6624 129.211 26.6624Z" fill="white" stroke="black" stroke-miterlimit="10" stroke-linecap="round" stroke-linejoin="round"/>
<path d="M131.907 25.9282C132.365 25.9282 132.736 25.5571 132.736 25.0992C132.736 24.6414 132.365 24.2703 131.907 24.2703C131.449 24.2703 131.078 24.6414 131.078 25.0992C131.078 25.5571 131.449 25.9282 131.907 25.9282Z" fill="white" stroke="black" stroke-miterlimit="10" stroke-linecap="round" stroke-linejoin="round"/>
<path d="M134.424 24.1992C134.187 24.2637 133.94 24.1228 133.876 23.8855C133.811 23.6487 133.952 23.402 134.189 23.3374C134.426 23.2729 134.673 23.4138 134.738 23.6511C134.802 23.8879 134.661 24.1346 134.424 24.1992Z" fill="white" stroke="black" stroke-miterlimit="10" stroke-linecap="round" stroke-linejoin="round"/>
<path d="M135.849 23.8261C135.613 23.8906 135.366 23.7497 135.301 23.5125C135.236 23.2757 135.377 23.0289 135.614 22.9644C135.851 22.8998 136.098 23.0408 136.162 23.278C136.227 23.5148 136.087 23.7616 135.849 23.8261Z" fill="white" stroke="black" stroke-miterlimit="10" stroke-linecap="round" stroke-linejoin="round"/>
<path d="M134.781 25.5087C134.544 25.5733 134.298 25.4323 134.233 25.1951C134.168 24.9583 134.309 24.7115 134.547 24.647C134.783 24.5825 135.03 24.7234 135.095 24.9607C135.159 25.1974 135.018 25.4442 134.781 25.5087Z" fill="white" stroke="black" stroke-miterlimit="10" stroke-linecap="round" stroke-linejoin="round"/>
<path d="M136.206 25.1357C135.969 25.2002 135.722 25.0593 135.658 24.822C135.593 24.5852 135.734 24.3385 135.972 24.274C136.208 24.2094 136.455 24.3503 136.52 24.5876C136.584 24.8244 136.443 25.0711 136.206 25.1357Z" fill="white" stroke="black" stroke-miterlimit="10" stroke-linecap="round" stroke-linejoin="round"/>
<path d="M132.024 42.1969C135.356 42.1969 138.057 39.4958 138.057 36.1639C138.057 32.8319 135.356 30.1309 132.024 30.1309C128.692 30.1309 125.991 32.8319 125.991 36.1639C125.991 39.4958 128.692 42.1969 132.024 42.1969Z" fill="white" stroke="black" stroke-miterlimit="10" stroke-linecap="round" stroke-linejoin="round"/>
<path d="M137.266 23.4404C137.03 23.5049 136.783 23.364 136.718 23.1267C136.653 22.8899 136.794 22.6432 137.031 22.5786C137.268 22.5141 137.515 22.655 137.58 22.8923C137.645 23.1291 137.503 23.3758 137.266 23.4404Z" fill="white" stroke="black" stroke-miterlimit="10" stroke-linecap="round" stroke-linejoin="round"/>
<path d="M137.623 24.7499C137.386 24.8145 137.14 24.6735 137.075 24.4363C137.01 24.1995 137.151 23.9527 137.389 23.8882C137.625 23.8237 137.872 23.9646 137.937 24.2019C138.001 24.4387 137.86 24.6854 137.623 24.7499Z" fill="white" stroke="black" stroke-miterlimit="10" stroke-linecap="round" stroke-linejoin="round"/>
<path d="M132.024 40.0758C134.185 40.0758 135.936 38.3244 135.936 36.1639C135.936 34.0034 134.185 32.252 132.024 32.252C129.864 32.252 128.112 34.0034 128.112 36.1639C128.112 38.3244 129.864 40.0758 132.024 40.0758Z" fill="black" stroke="black" stroke-miterlimit="10"/>
<path d="M124.287 48.4022L145.1 42.7346" stroke="black" stroke-miterlimit="10"/>
<g filter="url(#filter3_d_7_716)">
<path d="M35.9786 117.968C22.1512 117.968 9.88923 108.66 6.15952 95.3322C3.92977 87.3637 4.93622 79.0041 8.99429 71.7929C13.0524 64.5816 19.6752 59.3824 27.6437 57.1521C30.3755 56.3877 33.1889 56 36.0047 56C49.8321 56 62.0937 65.3081 65.8234 78.6359C70.4266 95.085 60.7892 112.212 44.3396 116.816C41.6078 117.58 38.7949 117.968 35.9786 117.968Z" fill="white"/>
</g>
<path d="M35.9914 110.844C49.169 110.844 59.8515 100.162 59.8515 86.9841C59.8515 73.8066 49.169 63.124 35.9914 63.124C22.8138 63.124 12.1313 73.8066 12.1313 86.9841C12.1313 100.162 22.8138 110.844 35.9914 110.844Z" fill="white" stroke="black" stroke-miterlimit="10" stroke-linecap="round" stroke-linejoin="round"/>
<path d="M22.714 81.7367L21.7426 81.5123L21.9671 80.541C22.0753 80.0721 21.7835 79.6043 21.3146 79.4961L20.7186 79.3585C20.2498 79.2503 19.7819 79.5421 19.6738 80.0109L19.4493 80.9823L18.478 80.7578C18.0092 80.6496 17.5413 80.9415 17.4331 81.4103L17.2955 82.0063C17.1873 82.4751 17.4791 82.943 17.9479 83.0512L18.9193 83.2756L18.6948 84.2469C18.5866 84.7158 18.8785 85.1836 19.3473 85.2918L19.9433 85.4294C20.4121 85.5376 20.88 85.2458 20.9882 84.777L21.2126 83.8056L22.1839 84.0301C22.6528 84.1383 23.1206 83.8464 23.2288 83.3776L23.3664 82.7816C23.4751 82.3128 23.1828 81.8449 22.714 81.7367Z" fill="white" stroke="black" stroke-miterlimit="10" stroke-linecap="round" stroke-linejoin="round"/>
<path d="M29.5504 97.7443L31.363 86.8878C31.3915 86.7161 31.5011 86.5913 31.6079 86.6088L45.0595 88.8552C45.1658 88.8727 45.2289 89.0265 45.2004 89.1983L43.3877 100.055" stroke="black" stroke-miterlimit="10" stroke-linecap="round" stroke-linejoin="round"/>
<path d="M45.0027 88.846L31.3798 86.5712C31.2417 86.5479 31.1487 86.4179 31.172 86.2798L32.3649 79.1359C32.3881 78.9983 32.5182 78.9049 32.6562 78.9281L46.2791 81.2029C46.4168 81.2262 46.5102 81.3562 46.487 81.4943L45.294 88.6381C45.2708 88.7758 45.1403 88.8688 45.0027 88.846Z" stroke="black" stroke-miterlimit="10" stroke-linecap="round" stroke-linejoin="round"/>
<path d="M45.2847 82.2659L33.2509 80.2563C32.6744 80.16 32.2848 79.6147 32.3811 79.0377L33.3088 73.4826C33.4051 72.906 33.9504 72.5164 34.5274 72.6128L46.5611 74.6224C47.1377 74.7187 47.5272 75.2639 47.4309 75.8409L46.5032 81.3961C46.4064 81.9731 45.8612 82.3622 45.2847 82.2659Z" fill="#EBF17A" stroke="black" stroke-miterlimit="10" stroke-linecap="round" stroke-linejoin="round"/>
<path d="M45.9733 95.1139C40.0067 94.0724 34.0402 93.0308 28.0731 91.9893C29.1023 90.1068 30.132 88.2244 31.1613 86.3416L45.2834 88.6999C45.5135 90.8381 45.7432 92.9758 45.9733 95.1139Z" fill="#EBF17A" stroke="black" stroke-miterlimit="10" stroke-linecap="round" stroke-linejoin="round"/>
<path d="M46.1449 82.4776L32.5225 80.2028C32.3844 80.1795 32.2914 80.0495 32.3147 79.9114L33.5076 72.7676C33.5308 72.6295 33.6609 72.5365 33.7989 72.5597L47.4214 74.8346C47.5595 74.8578 47.6525 74.9878 47.6292 75.1259L46.4363 82.2698C46.413 82.4074 46.283 82.5004 46.1449 82.4776Z" stroke="black" stroke-miterlimit="10" stroke-linecap="round" stroke-linejoin="round"/>
<path d="M26.5548 101.082L28.0097 92.3703C28.0329 92.2322 28.1629 92.1392 28.301 92.1625L45.7239 95.0718C45.8619 95.095 45.9549 95.225 45.9317 95.3631L44.4768 104.075" stroke="black" stroke-miterlimit="10" stroke-linecap="round" stroke-linejoin="round"/>
<g filter="url(#filter4_d_7_716)">
<path d="M270.026 73.0506C287.16 73.0506 301.051 59.1601 301.051 42.0253C301.051 24.8905 287.16 11 270.026 11C252.891 11 239 24.8905 239 42.0253C239 59.1601 252.891 73.0506 270.026 73.0506Z" fill="white"/>
</g>
<path d="M270.026 65.9328C283.23 65.9328 293.933 55.229 293.933 42.0252C293.933 28.8215 283.23 18.1177 270.026 18.1177C256.822 18.1177 246.118 28.8215 246.118 42.0252C246.118 55.229 256.822 65.9328 270.026 65.9328Z" fill="white" stroke="black" stroke-miterlimit="10" stroke-linecap="round" stroke-linejoin="round"/>
<path d="M258.631 33.3773L257.754 32.8985L258.233 32.0221C258.464 31.5988 258.309 31.0688 257.886 30.8372L257.348 30.5435C256.924 30.3124 256.394 30.4681 256.163 30.8909L255.684 31.7673L254.808 31.2885C254.384 31.0574 253.854 31.2131 253.623 31.6359L253.329 32.174C253.098 32.5972 253.254 33.1273 253.676 33.3588L254.553 33.8376L254.074 34.714C253.843 35.1373 253.999 35.6674 254.421 35.8984L254.959 36.1922C255.383 36.4233 255.913 36.2676 256.144 35.8448L256.623 34.9684L257.5 35.4472C257.923 35.6783 258.453 35.5226 258.684 35.0998L258.978 34.5617C259.21 34.1389 259.054 33.6084 258.631 33.3773Z" fill="white" stroke="black" stroke-miterlimit="10" stroke-linecap="round" stroke-linejoin="round"/>
<path d="M257.885 46.1684L274.881 56.5741C275.434 56.9124 276.157 56.7321 276.486 56.1736C277.103 55.1254 277.721 54.0772 278.338 53.029C272.786 49.5047 267.234 45.98 261.682 42.4558C260.417 43.6929 259.151 44.9309 257.885 46.1684Z" fill="white" stroke="black" stroke-miterlimit="10" stroke-linecap="round" stroke-linejoin="round"/>
<path d="M272.039 28.428C268.199 34.2166 264.358 40.0052 260.518 45.7939C265.948 49.012 271.378 52.2302 276.807 55.4479C277.325 55.7544 277.992 55.576 278.288 55.0531C281.256 49.8016 284.223 44.5502 287.191 39.2987C287.471 38.8023 287.315 38.1731 286.834 37.8666C281.903 34.7205 276.971 31.5745 272.039 28.428Z" fill="#56BBFF" stroke="black" stroke-miterlimit="10" stroke-linecap="round" stroke-linejoin="round"/>
<path d="M272.039 28.428C271.831 28.3602 271.068 28.1395 270.203 28.4869C269.256 28.867 268.859 29.6585 268.773 29.8397C265.144 35.2824 261.514 40.7256 257.885 46.1683C258.052 46.0226 258.555 45.6217 259.314 45.5676C259.876 45.5277 260.31 45.6967 260.518 45.7939C264.358 40.0053 268.199 34.2167 272.039 28.428Z" fill="#56BBFF" stroke="black" stroke-miterlimit="10" stroke-linecap="round" stroke-linejoin="round"/>
<path d="M273.674 34.2507C272.831 35.5087 271.987 36.7666 271.144 38.0246C273.77 39.6915 276.396 41.358 279.023 43.025C279.816 41.7419 280.609 40.4588 281.403 39.1757C278.826 37.5344 276.25 35.8926 273.674 34.2507Z" stroke="black" stroke-miterlimit="10" stroke-linecap="round" stroke-linejoin="round"/>
<path d="M267.202 32.2265C267.265 32.142 267.665 31.6196 268.387 31.5503C269.01 31.491 269.453 31.8084 269.555 31.8858" stroke="black" stroke-miterlimit="10" stroke-linecap="round" stroke-linejoin="round"/>
<path d="M268.198 34.2175C268.077 34.0937 267.81 33.8583 267.404 33.7663C266.612 33.5874 265.989 34.1112 265.914 34.1767" stroke="black" stroke-miterlimit="10" stroke-linecap="round" stroke-linejoin="round"/>
<path d="M263.198 41.7547C263.011 41.6499 262.697 41.5075 262.287 41.4743C261.535 41.4126 260.978 41.7609 260.798 41.8852" stroke="black" stroke-miterlimit="10" stroke-linecap="round" stroke-linejoin="round"/>
<path d="M261.84 43.324C261.673 43.2533 261.44 43.1802 261.158 43.1655C260.456 43.129 259.941 43.4773 259.764 43.6101" stroke="black" stroke-miterlimit="10" stroke-linecap="round" stroke-linejoin="round"/>
<g filter="url(#filter5_d_7_716)">
<path d="M414.864 62.5723C417.677 45.2387 405.906 28.9066 388.572 26.0935C371.239 23.2804 354.907 35.0516 352.094 52.3852C349.281 69.7188 361.052 86.051 378.385 88.8641C395.719 91.6772 412.05 79.9059 414.864 62.5723Z" fill="white"/>
</g>
<path d="M383.475 82.1574C397.104 82.1574 408.153 71.1088 408.153 57.4797C408.153 43.8506 397.104 32.802 383.475 32.802C369.846 32.802 358.797 43.8506 358.797 57.4797C358.797 71.1088 369.846 82.1574 383.475 82.1574Z" fill="white" stroke="black" stroke-miterlimit="10" stroke-linecap="round" stroke-linejoin="round"/>
<path d="M380.961 66.6447L380.261 65.8879L381.018 65.188C381.383 64.8501 381.405 64.2802 381.067 63.9148L380.638 63.4503C380.3 63.0849 379.73 63.0626 379.365 63.4005L378.608 64.1004L377.908 63.3435C377.57 62.9781 377 62.9558 376.635 63.2937L376.17 63.7231C375.805 64.061 375.783 64.6309 376.121 64.9963L376.821 65.7531L376.064 66.453C375.698 66.7909 375.676 67.3608 376.014 67.7262L376.443 68.1907C376.781 68.5561 377.351 68.5784 377.716 68.2405L378.473 67.5406L379.173 68.2975C379.511 68.6629 380.081 68.6852 380.446 68.3473L380.911 67.9179C381.276 67.5805 381.298 67.0101 380.961 66.6447Z" fill="white" stroke="black" stroke-miterlimit="10" stroke-linecap="round" stroke-linejoin="round"/>
<path d="M375.127 59.9939L376.322 59.089C377.179 58.4403 377.35 57.2085 376.701 56.3515C376.052 55.4945 374.82 55.3241 373.963 55.9728L372.768 56.8777C371.911 57.5264 371.74 58.7582 372.39 59.6152C373.038 60.4722 374.27 60.6425 375.127 59.9939Z" fill="white" stroke="black" stroke-miterlimit="10" stroke-linecap="round" stroke-linejoin="round"/>
<path d="M379.923 58.196L382.34 56.3653C383.401 55.5619 383.612 54.0373 382.809 52.9763L381.665 51.4659C380.862 50.4049 379.337 50.1942 378.276 50.9976L375.858 52.8282C374.382 53.9457 374.089 56.0682 375.206 57.5445C376.324 59.0207 378.446 59.3139 379.923 58.196Z" fill="#EBF17A" stroke="black" stroke-miterlimit="10" stroke-linecap="round" stroke-linejoin="round"/>
<path d="M382.177 56.1333C382.301 56.1655 382.406 56.1935 382.509 56.2201C382.619 56.249 382.727 56.2775 382.858 56.3117C384.069 55.7717 385.278 55.2331 386.489 54.6931C386.998 54.4648 387.593 54.5417 388.03 54.89C388.671 55.402 389.312 55.914 389.95 56.4275C390.23 56.6495 390.578 56.7653 390.936 56.7525C391.287 56.7416 391.643 56.7321 391.93 56.7245C392.286 56.7155 392.624 56.8692 392.847 57.1473C393.116 57.4804 393.437 57.8804 393.441 57.8852C393.445 57.8899 393.871 58.4185 394.193 58.8185C394.417 59.0952 394.497 59.462 394.408 59.8079C394.371 59.9602 394.332 60.1135 394.293 60.2672C394.196 60.6488 394.306 61.0469 394.568 61.3235C394.627 61.3885 394.695 61.444 394.771 61.4943C394.843 61.5408 394.891 61.5731 394.892 61.575C394.897 61.5783 395.006 61.6505 395.148 61.7435C395.554 62.0087 396.083 61.9893 396.465 61.6932C397.37 60.9956 398.274 60.2995 399.179 59.6005C399.849 59.0838 399.864 58.0773 399.209 57.5402C396.5 55.3171 393.793 53.0925 391.084 50.8694C391.695 49.3795 392.307 47.8904 392.92 46.4009C393.216 45.6778 392.908 44.845 392.212 44.4896C391.192 43.97 390.172 43.4489 389.153 42.9303C388.635 42.666 388.011 42.7234 387.551 43.0769L385.075 44.985L380.961 48.1519L379.127 49.564C378.477 50.0661 378.347 50.9966 378.838 51.6552C379.952 53.1476 381.063 54.6409 382.177 56.1333Z" fill="white" stroke="black" stroke-miterlimit="10" stroke-linecap="round" stroke-linejoin="round"/>
<path d="M388.395 55.1813C388.053 55.4641 387.712 55.7469 387.37 56.0292C387.001 55.6596 386.632 55.2899 386.262 54.9208C386.334 54.813 386.412 54.7419 386.488 54.6925C386.932 54.405 387.686 54.6161 388.395 55.1813Z" fill="#C1E2DF"/>
<path d="M382.51 56.2197C382.62 56.2487 382.727 56.2771 382.858 56.3113C384.069 55.7713 385.278 55.2327 386.489 54.6927C386.998 54.4645 387.593 54.5414 388.031 54.8896C388.671 55.4017 389.312 55.9137 389.951 56.4271C390.23 56.6492 390.578 56.7649 390.936 56.7521C391.288 56.7412 391.644 56.7317 391.931 56.7241C392.286 56.7151 392.624 56.8689 392.847 57.1469C393.116 57.48 393.438 57.8801 393.442 57.8848C393.445 57.8896 393.871 58.4182 394.194 58.8182C394.418 59.0948 394.497 59.4616 394.409 59.8075C394.371 59.9599 394.332 60.1131 394.294 60.2669C394.196 60.6484 394.307 61.0465 394.569 61.3231C394.735 60.4088 394.9 59.4929 395.065 58.5781C395.159 58.0613 394.977 57.5337 394.584 57.1844C392.861 55.6527 391.137 54.1209 389.415 52.5882C389.093 52.3021 389.033 51.8224 389.275 51.4665C389.637 50.9336 390 50.4007 390.362 49.8674C390.866 49.1266 390.629 48.1126 389.848 47.6732C388.256 46.7773 386.665 45.8814 385.074 44.9836L380.961 48.1506C383.022 49.2505 385.084 50.3495 387.146 51.4489C387.578 51.68 387.629 52.2808 387.24 52.5802C385.664 53.793 384.086 55.0059 382.51 56.2197Z" fill="#D800FC" stroke="black" stroke-miterlimit="10" stroke-linecap="round" stroke-linejoin="round"/>
<path d="M372.365 59.5835C369.663 61.6624 366.962 63.7412 364.26 65.8205L372.365 59.5835Z" fill="white"/>
<path d="M372.365 59.5835C369.663 61.6624 366.962 63.7412 364.26 65.8205" stroke="black" stroke-miterlimit="10" stroke-linecap="round" stroke-linejoin="round"/>
<g filter="url(#filter6_d_7_716)">
<path d="M77.0321 219.781L78.2362 198.204L77.1219 198.001C75.2003 199.579 72.7714 200.435 70.164 200.435C69.5069 200.435 68.8512 200.38 68.2014 200.271C67.8374 200.306 67.471 200.323 67.1033 200.323C66.1987 200.323 65.2946 200.215 64.4163 200.001C63.4338 199.761 62.4919 199.393 61.6136 198.908C58.9464 198.512 56.5745 197.114 55.0778 195.003C54.8184 194.637 54.5875 194.253 54.3861 193.854L52.2742 193.469C48.7093 192.82 45.7269 190.429 44.2988 187.076L34.8751 164.944C33.4452 161.586 33.783 157.762 35.7792 154.715C37.7801 151.661 41.1335 149.837 44.7491 149.837C45.2813 149.837 45.8205 149.877 46.3509 149.956L65.3462 152.794C66.5743 150.684 67.7646 148.563 68.9046 146.453C69.8894 144.631 70.8032 142.881 71.687 141.189C76.7003 131.593 81.0297 123.304 90.7262 117.329C93.0879 115.874 95.0777 114.982 96.1274 114.522C94.6542 110.96 93.9925 106.845 94.2749 102.484C93.8118 100.157 93.5736 97.7722 93.5657 95.3765C93.5464 89.3495 95.8569 83.6866 100.072 79.4305C104.178 75.2839 109.591 73 115.312 73C116.381 73 117.463 73.0821 118.528 73.2435C122.261 73.8108 125.645 75.334 128.313 77.649C130.554 79.5924 132.064 81.8596 133.078 84.1124C135.724 84.5433 138.156 86.0624 139.82 88.3467C141.727 90.9641 142.447 94.2503 141.797 97.3626C141.185 100.295 139.406 102.769 137 104.353C136.76 106.93 136.236 109.368 135.441 111.618C138.297 112.61 141.363 113.999 144.419 115.944C147.031 117.366 149.277 119.154 151.268 121.396C160.132 130.134 164.627 142.474 163.93 156.181C163.698 160.732 163.348 167.61 158.627 174.486C157.298 176.422 155.733 178.177 153.953 179.733L153.522 194.05L151.631 195.659L152.619 222L77.0321 219.781Z" fill="white"/>
</g>
<path d="M145.481 214.623C145.14 205.595 144.8 196.567 144.459 187.538C124.784 188.39 105.109 189.241 85.4338 190.093C85.0079 197.674 84.5819 205.254 84.1564 212.835" fill="white"/>
<path d="M145.481 214.623C145.14 205.595 144.8 196.567 144.459 187.538C124.784 188.39 105.109 189.241 85.4338 190.093C85.0079 197.674 84.5819 205.254 84.1564 212.835" stroke="black" stroke-miterlimit="10" stroke-linecap="round" stroke-linejoin="round"/>
<path d="M72.8313 192.199C73.7757 191.237 74.5901 189.291 73.6254 188.231C72.903 187.436 71.3527 187.325 69.9893 188.158C69.3177 187.254 68.2522 186.767 67.2005 186.904C66.1349 187.042 65.4976 187.768 65.3371 187.962C64.6262 186.678 63.4224 185.869 62.3498 186.017C60.5406 186.268 59.2946 189.217 60.4425 190.825C61.0674 191.7 62.3337 192.082 63.6379 191.868C63.9242 192.159 64.6475 192.817 65.8028 193.096C66.9003 193.362 67.8012 193.145 68.1925 193.027C69.9199 193.639 71.7278 193.323 72.8313 192.199Z" fill="#EC9B48" stroke="black" stroke-miterlimit="10" stroke-linecap="round" stroke-linejoin="round"/>
<path d="M63.6379 191.868C63.9283 191.681 64.7955 191.066 65.1988 189.888C65.4855 189.05 65.4027 188.32 65.3366 187.962" stroke="black" stroke-miterlimit="10" stroke-linecap="round" stroke-linejoin="round"/>
<path d="M68.1926 193.026C68.569 192.716 69.4968 191.866 69.8931 190.426C70.1605 189.457 70.0744 188.626 69.9889 188.157" stroke="black" stroke-miterlimit="10" stroke-linecap="round" stroke-linejoin="round"/>
<path d="M103.32 209.002C105.984 209.834 109.866 210.694 114.562 210.535C117.347 210.441 119.764 210.01 121.717 209.513" fill="white"/>
<path d="M103.32 209.002C105.984 209.834 109.866 210.694 114.562 210.535C117.347 210.441 119.764 210.01 121.717 209.513" stroke="black" stroke-miterlimit="10" stroke-linecap="round" stroke-linejoin="round"/>
<path d="M111.667 216.895C111.788 214.771 111.91 212.648 112.031 210.525L111.667 216.895Z" fill="white"/>
<path d="M111.667 216.895C111.788 214.771 111.91 212.648 112.031 210.525" stroke="black" stroke-miterlimit="10" stroke-linecap="round" stroke-linejoin="round"/>
<path d="M133.982 190.103C134.894 188.806 135.807 187.509 136.719 186.212L133.982 190.103Z" fill="#EBF17A"/>
<path d="M133.982 190.103C134.894 188.806 135.807 187.509 136.719 186.212" stroke="black" stroke-miterlimit="10" stroke-linecap="round" stroke-linejoin="round"/>
<path d="M115.329 192.912C114.076 191.939 112.824 190.966 111.571 189.993L115.329 192.912Z" fill="#EBF17A"/>
<path d="M115.329 192.912C114.076 191.939 112.824 190.966 111.571 189.993" stroke="black" stroke-miterlimit="10" stroke-linecap="round" stroke-linejoin="round"/>
<path d="M112.193 201.83C97.9609 201.359 87.9475 194.915 84.0852 192.121C84.4261 179.515 84.7665 166.909 85.1073 154.304C106.06 154.815 127.013 155.326 147.965 155.837C147.625 167.08 147.284 178.323 146.943 189.565C143.798 192.227 130.977 202.452 112.193 201.83Z" fill="#8EE897" stroke="black" stroke-miterlimit="10" stroke-linecap="round" stroke-linejoin="round"/>
<path d="M62.3752 169.312C68.0644 160.941 72.1847 153.809 74.9522 148.721C81.4872 136.707 84.7941 128.152 94.381 122.283C96.4248 121.032 98.1342 120.282 99.1054 119.86C109.949 115.15 119.814 116.292 124.386 116.934C134.504 118.356 141.341 119.316 146.498 125.213C154.319 134.157 151.709 146.952 151.212 149.39C149.834 156.144 146.594 160.933 144.588 163.465C144.612 166.934 144.636 170.404 144.66 173.873" fill="#8EE897"/>
<path d="M62.3752 169.312C68.0644 160.941 72.1847 153.809 74.9522 148.721C81.4872 136.707 84.7941 128.152 94.381 122.283C96.4248 121.032 98.1342 120.282 99.1054 119.86C109.949 115.15 119.814 116.292 124.386 116.934C134.504 118.356 141.341 119.316 146.498 125.213C154.319 134.157 151.709 146.952 151.212 149.39C149.834 156.144 146.594 160.933 144.588 163.465C144.612 166.934 144.636 170.404 144.66 173.873" stroke="black" stroke-miterlimit="10" stroke-linecap="round" stroke-linejoin="round"/>
<path d="M91.1272 192.294C100.019 188.53 108.912 184.767 117.804 181.003C120.004 180.072 119.616 176.843 117.258 176.459C106.303 174.678 95.3479 172.897 84.3928 171.115C86.6378 178.175 88.8822 185.235 91.1272 192.294Z" fill="white" stroke="black" stroke-miterlimit="10" stroke-linecap="round" stroke-linejoin="round"/>
<path d="M103.548 165.883C92.3955 169.63 86.9714 172.484 87.2771 174.443C87.3988 175.221 88.4241 175.858 90.3532 176.355C88.9032 176.804 87.865 177.786 87.8844 178.658C87.9084 179.752 89.6058 181.108 92.0709 180.824C91.9728 181.896 92.2179 182.553 92.574 182.972C95.2334 186.105 107.242 179.685 109.209 178.618C109.465 177.696 110.126 174.854 108.844 171.633C107.364 167.91 104.319 166.271 103.548 165.883Z" fill="#EC9B48" stroke="black" stroke-miterlimit="10" stroke-linecap="round" stroke-linejoin="round"/>
<path d="M95.3416 175.996C94.7353 176.174 93.9889 176.34 93.1272 176.421C92.0353 176.524 91.0881 176.459 90.3532 176.355" fill="white"/>
<path d="M95.3416 175.996C94.7353 176.174 93.9889 176.34 93.1272 176.421C92.0353 176.524 91.0881 176.459 90.3532 176.355" stroke="black" stroke-miterlimit="10" stroke-linecap="round" stroke-linejoin="round"/>
<path d="M96.9403 179.441C96.26 179.746 95.4529 180.056 94.5279 180.317C93.6261 180.571 92.7959 180.727 92.0712 180.823" fill="white"/>
<path d="M96.9403 179.441C96.26 179.746 95.4529 180.056 94.5279 180.317C93.6261 180.571 92.7959 180.727 92.0712 180.823" stroke="black" stroke-miterlimit="10" stroke-linecap="round" stroke-linejoin="round"/>
<path d="M41.081 161.11C44.2338 168.466 47.3861 175.822 50.5389 183.179C51.0504 184.372 52.1266 185.229 53.404 185.46C65.9783 187.738 78.5525 190.016 91.1272 192.294C93.978 192.811 96.3635 190.125 95.5139 187.355C93.1686 179.707 90.8233 172.059 88.478 164.412C88.0409 162.986 86.8232 161.939 85.3483 161.72C71.9666 159.733 58.5853 157.748 45.2036 155.761C42.2099 155.317 39.8887 158.328 41.081 161.11Z" fill="white" stroke="black" stroke-miterlimit="10" stroke-linecap="round" stroke-linejoin="round"/>
<path d="M122.596 115.163C125.736 115.297 137.13 116.165 146.498 125.213C158.233 136.547 157.457 151.704 157.301 154.75C157.095 158.763 156.818 164.178 153.2 169.414C147.959 176.998 139.349 178.969 133.009 180.373C122.704 182.655 113.666 181.221 107.623 179.558C108.03 178.418 108.505 176.575 108.279 174.337C107.789 169.49 104.386 166.565 103.547 165.883C106.995 163.68 110.777 161.454 114.898 159.286C121.261 155.939 127.323 153.313 132.869 151.239" fill="#8EE897"/>
<path d="M122.596 115.163C125.736 115.297 137.13 116.165 146.498 125.213C158.233 136.547 157.457 151.704 157.301 154.75C157.095 158.763 156.818 164.178 153.2 169.414C147.959 176.998 139.349 178.969 133.009 180.373C122.704 182.655 113.666 181.221 107.623 179.558C108.03 178.418 108.505 176.575 108.279 174.337C107.789 169.49 104.386 166.565 103.547 165.883C106.995 163.68 110.777 161.454 114.898 159.286C121.261 155.939 127.323 153.313 132.869 151.239" stroke="black" stroke-miterlimit="10" stroke-linecap="round" stroke-linejoin="round"/>
<path d="M125.631 109.096C125.707 111.036 125.782 112.977 125.857 114.918C125.901 116.045 125.447 117.139 124.598 117.883C123.576 118.78 122.202 119.769 120.448 120.556C118.251 121.541 114.626 123.168 111.381 121.46C109.358 120.396 108.331 118.481 107.832 117.186C107.64 116.688 107.566 116.154 107.601 115.622C107.751 113.273 107.903 110.923 108.053 108.574C113.913 108.748 119.771 108.922 125.631 109.096Z" fill="#EC9B48" stroke="black" stroke-miterlimit="10" stroke-linecap="round" stroke-linejoin="round"/>
<path d="M128.328 92.1227C129.192 90.757 130.606 89.9356 131.982 90.0711C134.133 90.2829 135.698 92.7883 135.227 95.03C134.775 97.1829 132.521 98.722 130.107 98.3002C128.991 107.885 124.156 115.308 117.857 116.786C114.86 117.49 112.266 116.676 111.753 116.507C104.836 114.224 102.544 105.709 101.558 102.059C100.833 99.3709 100.554 96.805 100.546 94.4551C100.516 85.2501 108.526 77.8942 117.627 79.2673C120.048 79.6327 122.235 80.5739 123.954 82.0552C127.799 85.369 128.251 90.4777 128.328 92.1227Z" fill="#EC9B48" stroke="black" stroke-miterlimit="10" stroke-linecap="round" stroke-linejoin="round"/>
<path d="M132.322 93.2359C131.666 93.1402 131.017 93.4514 130.688 94.017C130.372 94.5586 130.403 95.2417 130.767 95.7602" stroke="black" stroke-miterlimit="10" stroke-linecap="round" stroke-linejoin="round"/>
<path d="M131.868 94.8667C131.501 95.1645 131.134 95.4624 130.767 95.7602L131.868 94.8667Z" fill="white"/>
<path d="M131.868 94.8667C131.501 95.1645 131.134 95.4624 130.767 95.7602" stroke="black" stroke-miterlimit="10" stroke-linecap="round" stroke-linejoin="round"/>
<path d="M114.305 95.7016L116.808 95.3159C117.297 95.2405 117.636 94.7784 117.561 94.2896C117.485 93.8003 117.023 93.4617 116.534 93.5371L114.031 93.9228C113.542 93.9982 113.203 94.4602 113.278 94.9491C113.354 95.4384 113.816 95.777 114.305 95.7016Z" fill="black"/>
<path d="M104.039 97.182L106.542 96.7963C107.032 96.7209 107.37 96.2589 107.295 95.7701C107.219 95.2807 106.757 94.9422 106.269 95.0176L103.765 95.4033C103.276 95.4787 102.937 95.9407 103.013 96.4296C103.088 96.9189 103.55 97.2574 104.039 97.182Z" fill="black"/>
<path d="M105.392 99.3913C105.803 99.3913 106.137 99.0579 106.137 98.6467C106.137 98.2355 105.803 97.9021 105.392 97.9021C104.981 97.9021 104.647 98.2355 104.647 98.6467C104.647 99.0579 104.981 99.3913 105.392 99.3913Z" fill="black"/>
<path d="M112.998 109.255C113.508 109.139 114.462 108.85 115.403 108.082C116.433 107.242 116.914 106.264 117.117 105.773" stroke="black" stroke-miterlimit="10" stroke-linecap="round" stroke-linejoin="round"/>
<path d="M115.802 97.8452C116.213 97.8452 116.546 97.5118 116.546 97.1006C116.546 96.6893 116.213 96.356 115.802 96.356C115.391 96.356 115.057 96.6893 115.057 97.1006C115.057 97.5118 115.391 97.8452 115.802 97.8452Z" fill="black"/>
<path d="M129.289 91.7258C129.345 91.1917 129.079 90.7569 128.733 90.67C128.511 90.614 128.305 90.7148 128.213 90.7689C124.819 101.563 121.991 104 119.978 104.096C119.244 104.13 114.632 104.05 112.394 104.731C112.034 104.841 110.537 105.314 108.466 105.842C105.783 106.527 105.368 106.481 105.132 106.435C102.852 105.992 101.718 102.521 101.322 101.078C100.597 108.009 103.07 114.368 107.831 117.186C110.54 118.788 113.474 118.94 114.395 118.959C114.395 118.959 119.471 119.063 124.096 115.548C129.814 111.202 131.933 101.697 129.289 91.7258ZM117.995 107.219C116.656 108.921 114.816 110.228 112.616 110.409C110.653 110.57 110.67 107.513 112.616 107.353C113.951 107.243 115.059 106.043 115.834 105.059C116.347 104.406 117.465 104.529 117.995 105.059C118.626 105.691 118.504 106.571 117.995 107.219Z" fill="black" stroke="black" stroke-miterlimit="10" stroke-linecap="round" stroke-linejoin="round"/>
<path d="M109.962 97.5215C109.352 98.0533 107.059 100.172 107.17 103.064C107.192 103.628 107.214 104.533 107.855 105.219C108.785 106.213 110.417 106.124 111.431 105.769C112.878 105.261 113.553 104.038 113.728 103.694" fill="#EC9B48"/>
<path d="M109.962 97.5215C109.352 98.0533 107.059 100.172 107.17 103.064C107.192 103.628 107.214 104.533 107.855 105.219C108.785 106.213 110.417 106.124 111.431 105.769C112.878 105.261 113.553 104.038 113.728 103.694" stroke="black" stroke-miterlimit="10" stroke-linecap="round" stroke-linejoin="round"/>
<path d="M63.6591 172.18C64.9554 171.325 66.8882 171.967 67.9764 173.617C69.0647 175.265 68.8954 177.296 67.5995 178.151C66.3031 179.007 64.3704 178.363 63.2821 176.714C62.1939 175.065 62.3627 173.035 63.6591 172.18Z" fill="black" stroke="black" stroke-miterlimit="10" stroke-linecap="round" stroke-linejoin="round"/>
<path d="M96.388 135.966C95.9056 139.885 94.8909 144.857 92.7199 150.305C91.3741 153.682 89.8497 156.573 88.385 158.975" stroke="black" stroke-miterlimit="10" stroke-linecap="round" stroke-linejoin="round"/>
<path d="M109.504 138.522C109.578 139.633 109.652 140.745 109.727 141.856L109.504 138.522Z" fill="#EBF17A"/>
<path d="M109.504 138.522C109.578 139.633 109.652 140.745 109.727 141.856" stroke="black" stroke-miterlimit="10" stroke-linecap="round" stroke-linejoin="round"/>
<path d="M127.956 133.853C126.919 134.817 125.881 135.78 124.844 136.743L127.956 133.853Z" fill="#EBF17A"/>
<path d="M127.956 133.853C126.919 134.817 125.881 135.78 124.844 136.743" stroke="black" stroke-miterlimit="10" stroke-linecap="round" stroke-linejoin="round"/>
<path d="M143.962 140.301C143.592 141.56 143.221 142.82 142.851 144.08L143.962 140.301Z" fill="#EBF17A"/>
<path d="M143.962 140.301C143.592 141.56 143.221 142.82 142.851 144.08" stroke="black" stroke-miterlimit="10" stroke-linecap="round" stroke-linejoin="round"/>
<path d="M141.74 158.085C143.296 158.678 144.852 159.271 146.408 159.863L141.74 158.085Z" fill="#EBF17A"/>
<path d="M141.74 158.085C143.296 158.678 144.852 159.271 146.408 159.863" stroke="black" stroke-miterlimit="10" stroke-linecap="round" stroke-linejoin="round"/>
<path d="M131.735 161.864C130.774 163.126 129.813 164.387 128.852 165.649L131.735 161.864Z" fill="#EBF17A"/>
<path d="M131.735 161.864C130.774 163.126 129.813 164.387 128.852 165.649" stroke="black" stroke-miterlimit="10" stroke-linecap="round" stroke-linejoin="round"/>
<path d="M123.508 177.033C122.526 175.788 121.545 174.542 120.563 173.297L123.508 177.033Z" fill="#EBF17A"/>
<path d="M123.508 177.033C122.526 175.788 121.545 174.542 120.563 173.297" stroke="black" stroke-miterlimit="10" stroke-linecap="round" stroke-linejoin="round"/>
<path d="M102.101 157.792C103.483 157.014 104.865 156.236 106.247 155.458L102.101 157.792Z" fill="#EBF17A"/>
<path d="M102.101 157.792C103.483 157.014 104.865 156.236 106.247 155.458" stroke="black" stroke-miterlimit="10" stroke-linecap="round" stroke-linejoin="round"/>
<path d="M79.9397 149.527C81.3216 148.749 82.7035 147.971 84.0855 147.193L79.9397 149.527Z" fill="#EBF17A"/>
<path d="M79.9397 149.527C81.3216 148.749 82.7035 147.971 84.0855 147.193" stroke="black" stroke-miterlimit="10" stroke-linecap="round" stroke-linejoin="round"/>
<defs>
<filter id="filter0_d_7_716" x="287" y="78" width="95" height="149.188" filterUnits="userSpaceOnUse" color-interpolation-filters="sRGB">
<feFlood flood-opacity="0" result="BackgroundImageFix"/>
<feColorMatrix in="SourceAlpha" type="matrix" values="0 0 0 0 0 0 0 0 0 0 0 0 0 0 0 0 0 0 127 0" result="hardAlpha"/>
<feOffset/>
<feGaussianBlur stdDeviation="2.5"/>
<feComposite in2="hardAlpha" operator="out"/>
<feColorMatrix type="matrix" values="0 0 0 0 0 0 0 0 0 0 0 0 0 0 0 0 0 0 0.25 0"/>
<feBlend mode="normal" in2="BackgroundImageFix" result="effect1_dropShadow_7_716"/>
<feBlend mode="normal" in="SourceGraphic" in2="effect1_dropShadow_7_716" result="shape"/>
</filter>
<filter id="filter1_d_7_716" x="173" y="67" width="94.6428" height="160" filterUnits="userSpaceOnUse" color-interpolation-filters="sRGB">
<feFlood flood-opacity="0" result="BackgroundImageFix"/>
<feColorMatrix in="SourceAlpha" type="matrix" values="0 0 0 0 0 0 0 0 0 0 0 0 0 0 0 0 0 0 127 0" result="hardAlpha"/>
<feOffset/>
<feGaussianBlur stdDeviation="2.5"/>
<feComposite in2="hardAlpha" operator="out"/>
<feColorMatrix type="matrix" values="0 0 0 0 0 0 0 0 0 0 0 0 0 0 0 0 0 0 0.25 0"/>
<feBlend mode="normal" in2="BackgroundImageFix" result="effect1_dropShadow_7_716"/>
<feBlend mode="normal" in="SourceGraphic" in2="effect1_dropShadow_7_716" result="shape"/>
</filter>
<filter id="filter2_d_7_716" x="93.9997" y="0" width="71.9615" height="71.9685" filterUnits="userSpaceOnUse" color-interpolation-filters="sRGB">
<feFlood flood-opacity="0" result="BackgroundImageFix"/>
<feColorMatrix in="SourceAlpha" type="matrix" values="0 0 0 0 0 0 0 0 0 0 0 0 0 0 0 0 0 0 127 0" result="hardAlpha"/>
<feOffset/>
<feGaussianBlur stdDeviation="2.5"/>
<feComposite in2="hardAlpha" operator="out"/>
<feColorMatrix type="matrix" values="0 0 0 0 0 0 0 0 0 0 0 0 0 0 0 0 0 0 0.25 0"/>
<feBlend mode="normal" in2="BackgroundImageFix" result="effect1_dropShadow_7_716"/>
<feBlend mode="normal" in="SourceGraphic" in2="effect1_dropShadow_7_716" result="shape"/>
</filter>
<filter id="filter3_d_7_716" x="-0.000366211" y="51" width="71.9733" height="71.968" filterUnits="userSpaceOnUse" color-interpolation-filters="sRGB">
<feFlood flood-opacity="0" result="BackgroundImageFix"/>
<feColorMatrix in="SourceAlpha" type="matrix" values="0 0 0 0 0 0 0 0 0 0 0 0 0 0 0 0 0 0 127 0" result="hardAlpha"/>
<feOffset/>
<feGaussianBlur stdDeviation="2.5"/>
<feComposite in2="hardAlpha" operator="out"/>
<feColorMatrix type="matrix" values="0 0 0 0 0 0 0 0 0 0 0 0 0 0 0 0 0 0 0.25 0"/>
<feBlend mode="normal" in2="BackgroundImageFix" result="effect1_dropShadow_7_716"/>
<feBlend mode="normal" in="SourceGraphic" in2="effect1_dropShadow_7_716" result="shape"/>
</filter>
<filter id="filter4_d_7_716" x="234" y="6" width="72.0507" height="72.0505" filterUnits="userSpaceOnUse" color-interpolation-filters="sRGB">
<feFlood flood-opacity="0" result="BackgroundImageFix"/>
<feColorMatrix in="SourceAlpha" type="matrix" values="0 0 0 0 0 0 0 0 0 0 0 0 0 0 0 0 0 0 127 0" result="hardAlpha"/>
<feOffset/>
<feGaussianBlur stdDeviation="2.5"/>
<feComposite in2="hardAlpha" operator="out"/>
<feColorMatrix type="matrix" values="0 0 0 0 0 0 0 0 0 0 0 0 0 0 0 0 0 0 0.25 0"/>
<feBlend mode="normal" in2="BackgroundImageFix" result="effect1_dropShadow_7_716"/>
<feBlend mode="normal" in="SourceGraphic" in2="effect1_dropShadow_7_716" result="shape"/>
</filter>
<filter id="filter5_d_7_716" x="346.678" y="20.678" width="73.6006" height="73.6016" filterUnits="userSpaceOnUse" color-interpolation-filters="sRGB">
<feFlood flood-opacity="0" result="BackgroundImageFix"/>
<feColorMatrix in="SourceAlpha" type="matrix" values="0 0 0 0 0 0 0 0 0 0 0 0 0 0 0 0 0 0 127 0" result="hardAlpha"/>
<feOffset/>
<feGaussianBlur stdDeviation="2.5"/>
<feComposite in2="hardAlpha" operator="out"/>
<feColorMatrix type="matrix" values="0 0 0 0 0 0 0 0 0 0 0 0 0 0 0 0 0 0 0.25 0"/>
<feBlend mode="normal" in2="BackgroundImageFix" result="effect1_dropShadow_7_716"/>
<feBlend mode="normal" in="SourceGraphic" in2="effect1_dropShadow_7_716" result="shape"/>
</filter>
<filter id="filter6_d_7_716" x="29.0002" y="68" width="140" height="159" filterUnits="userSpaceOnUse" color-interpolation-filters="sRGB">
<feFlood flood-opacity="0" result="BackgroundImageFix"/>
<feColorMatrix in="SourceAlpha" type="matrix" values="0 0 0 0 0 0 0 0 0 0 0 0 0 0 0 0 0 0 127 0" result="hardAlpha"/>
<feOffset/>
<feGaussianBlur stdDeviation="2.5"/>
<feComposite in2="hardAlpha" operator="out"/>
<feColorMatrix type="matrix" values="0 0 0 0 0 0 0 0 0 0 0 0 0 0 0 0 0 0 0.25 0"/>
<feBlend mode="normal" in2="BackgroundImageFix" result="effect1_dropShadow_7_716"/>
<feBlend mode="normal" in="SourceGraphic" in2="effect1_dropShadow_7_716" result="shape"/>
</filter>
</defs>
</svg>
