<svg width="38" height="38" viewBox="0 0 38 38" fill="none" xmlns="http://www.w3.org/2000/svg">
<path d="M18.6711 6.10352e-05C18.8936 6.10352e-05 19.1162 6.10352e-05 19.3377 6.10352e-05C19.4042 0.00961384 19.4706 0.0234126 19.5381 0.0276583C19.8219 0.0425182 20.1056 0.0457024 20.3883 0.0690537C20.8007 0.103019 21.2131 0.136985 21.6224 0.19324C22.7626 0.349269 23.8807 0.611441 24.9724 0.977631C26.7117 1.56035 28.3351 2.37871 29.8392 3.43482C31.0185 4.2638 32.0933 5.21059 33.0584 6.28475C33.6639 6.95875 34.2218 7.6699 34.7292 8.42139C35.7207 9.89146 36.4886 11.4709 37.0413 13.1564C37.3198 14.0077 37.5392 14.8738 37.6889 15.7579C37.8324 16.6028 37.9495 17.452 37.9495 18.3128C37.9495 18.386 37.9674 18.4593 37.9769 18.5336V19.7266C37.9674 19.8062 37.9526 19.8858 37.9484 19.9654C37.9337 20.2318 37.9284 20.4993 37.9104 20.7657C37.8693 21.393 37.7754 22.0129 37.6636 22.6307C37.4664 23.7154 37.171 24.7726 36.7881 25.8054C36.323 27.0621 35.7302 28.2551 35.0129 29.3845C34.2113 30.6455 33.2778 31.7992 32.2051 32.8394C31.8718 33.1632 31.5311 33.4795 31.1767 33.7777C30.1504 34.6417 29.0449 35.39 27.8615 36.0194C26.7497 36.6107 25.5916 37.0872 24.3849 37.4439C23.6676 37.6562 22.9398 37.8271 22.2036 37.9544C22.1329 37.9672 22.0591 37.9894 21.9715 37.9449C21.9673 37.8759 21.9599 37.8026 21.9599 37.7305C21.9599 33.4487 21.9599 29.1669 21.9599 24.8862C21.9599 24.8363 21.962 24.7864 21.9641 24.7376C21.9673 24.6718 22.0021 24.6325 22.0665 24.6261C22.1403 24.6198 22.2141 24.6166 22.288 24.6166C23.5474 24.6166 24.8078 24.6166 26.0673 24.6166C26.1348 24.6166 26.2033 24.6155 26.2708 24.6102C26.3246 24.606 26.3637 24.5762 26.3784 24.5232C26.39 24.4818 26.4006 24.4393 26.408 24.3958C26.4449 24.1623 26.4807 23.9298 26.5166 23.6963C26.7244 22.3335 26.9311 20.9695 27.1389 19.6067C27.1558 19.4963 27.1748 19.3859 27.1843 19.2744C27.1927 19.181 27.1632 19.1481 27.0725 19.1396C27.005 19.1333 26.9364 19.1354 26.8689 19.1354C25.3563 19.1354 23.8427 19.1354 22.3301 19.1354C22.2742 19.1354 22.2194 19.1354 22.1635 19.1354C21.9831 19.1301 21.9652 19.112 21.9599 18.9284C21.9589 18.8849 21.9599 18.8414 21.9599 18.7979C21.9599 18.3754 21.9599 17.953 21.9599 17.5305C21.9599 16.7907 21.9599 16.052 21.9631 15.3121C21.9652 14.9099 22.0517 14.5235 22.2046 14.152C22.3998 13.6786 22.7067 13.3008 23.1381 13.0248C23.4883 12.8008 23.8722 12.666 24.2783 12.6076C24.5705 12.5662 24.868 12.5429 25.1633 12.5386C25.8236 12.5291 26.485 12.5355 27.1453 12.5355C27.3443 12.5355 27.4438 12.4364 27.4438 12.2383C27.4438 10.9338 27.4438 9.62823 27.4438 8.32374C27.4438 8.24307 27.4438 8.1624 27.4438 8.08173C27.4406 7.88643 27.4269 7.86733 27.2413 7.84079C26.8868 7.78984 26.5324 7.73571 26.177 7.69644C25.7413 7.64761 25.3047 7.61259 24.869 7.57331C24.3342 7.52449 23.7974 7.50326 23.2605 7.5022C22.8396 7.5022 22.4219 7.52237 22.0042 7.57331C21.2195 7.66884 20.4642 7.86627 19.7459 8.19955C18.9253 8.57954 18.2228 9.11556 17.6437 9.81504C17.0309 10.5527 16.6311 11.3997 16.3759 12.3211C16.1533 13.1224 16.0541 13.9408 16.0499 14.7708C16.0436 16.0944 16.0478 17.418 16.0478 18.7416C16.0478 18.7979 16.0478 18.8531 16.0478 18.9093C16.0447 19.1237 16.032 19.1354 15.8115 19.1386C15.7556 19.1386 15.7008 19.1386 15.6449 19.1386C14.2621 19.1386 12.8782 19.1386 11.4953 19.1386C11.2348 19.1386 11.2316 19.1407 11.2316 19.3933C11.2316 21.046 11.2316 22.6996 11.2316 24.3523C11.2316 24.3767 11.2316 24.4022 11.2316 24.4266C11.238 24.5943 11.258 24.6134 11.431 24.6187C11.4869 24.6208 11.5418 24.6187 11.5977 24.6187C12.9562 24.6187 14.3148 24.6187 15.6734 24.6187C15.7356 24.6187 15.7968 24.6166 15.859 24.6208C16.0172 24.6293 16.0415 24.6537 16.0478 24.8076C16.0499 24.8639 16.0489 24.9191 16.0489 24.9753C16.0489 29.2072 16.0489 33.4391 16.0489 37.671C16.0489 37.7273 16.051 37.7835 16.0468 37.8387C16.0436 37.8801 16.0309 37.9205 16.0193 37.9767C15.9318 37.9682 15.8527 37.965 15.7757 37.9512C15.1354 37.843 14.5036 37.6997 13.8792 37.5224C12.8666 37.2358 11.8825 36.8707 10.931 36.4185C9.9005 35.9292 8.9206 35.355 7.99239 34.6895C7.21712 34.1333 6.48615 33.5219 5.80264 32.8553C5.55055 32.6091 5.309 32.3501 5.06851 32.0922C4.41454 31.3938 3.82702 30.6433 3.29119 29.8505C2.57077 28.7827 1.95899 27.6565 1.46746 26.4635C0.913693 25.1208 0.513926 23.7335 0.276599 22.2984C0.177448 21.6977 0.102559 21.0937 0.0635322 20.4855C0.0550939 20.3571 0.0213399 20.2297 0.000244141 20.1013C0.000244141 19.4421 0.000244141 18.7841 0.000244141 18.1249C0.0223947 18.0029 0.0561481 17.8829 0.0645864 17.7598C0.0972849 17.2323 0.160572 16.709 0.238626 16.1868C0.375749 15.2697 0.584598 14.3685 0.854625 13.4823C1.17106 12.4463 1.5761 11.4454 2.06236 10.4795C2.45896 9.69191 2.91147 8.93618 3.4146 8.21229C3.9536 7.43745 4.54006 6.70082 5.18981 6.01727C5.86488 5.30611 6.57791 4.63848 7.35107 4.03559C8.31515 3.28304 9.34041 2.62708 10.4268 2.06984C11.0871 1.73124 11.7675 1.43617 12.4647 1.18036C14.4002 0.471332 16.3948 0.070115 18.458 0.0308424C18.5308 0.029781 18.6036 0.0127982 18.6764 0.00430682L18.6711 6.10352e-05Z" fill="white"/>
</svg>
