<svg width="38" height="38" viewBox="0 0 38 38" fill="none" xmlns="http://www.w3.org/2000/svg">
<path fill-rule="evenodd" clip-rule="evenodd" d="M37.9769 18.9878C37.9769 29.4748 29.4755 37.9763 18.9886 37.9763C8.5016 37.9763 0.000244141 29.4748 0.000244141 18.9878C0.000244141 8.50088 8.5016 6.10352e-05 18.9886 6.10352e-05C29.4755 6.10352e-05 37.9769 8.50088 37.9769 18.9878ZM19.558 17.5832C19.5448 17.6097 19.5183 17.6362 19.5183 17.6362L19.4918 17.5967H19.4653V17.4777V15.8744C19.4653 15.7286 19.4653 15.7282 19.3328 15.7282H15.9273C15.7948 15.7282 15.7948 15.7286 15.7948 15.8744V15.8744V28.6211C15.7948 28.7095 15.839 28.7538 15.9273 28.7538H19.5713H19.6375C19.664 28.7405 19.7038 28.7143 19.7038 28.6878V28.5817V21.9032C19.7038 21.5455 19.7568 21.2009 19.8761 20.8564C20.1146 20.2071 20.4856 19.6902 21.1216 19.3987C21.7577 19.1072 22.4334 19.0414 23.1092 19.2136C23.9175 19.4124 24.4608 19.9154 24.7126 20.7237C24.8053 21.0418 24.8451 21.3733 24.8451 21.7046C24.8318 23.997 24.8318 26.3026 24.8318 28.6082L24.8317 28.6451C24.8313 28.7118 24.8311 28.743 24.8466 28.7572C24.8602 28.7698 24.8859 28.7692 24.9343 28.7681C24.9505 28.7678 24.9692 28.7674 24.9908 28.7674H28.6083C28.7143 28.7674 28.7673 28.7183 28.7673 28.6211V20.5122C28.7673 19.9424 28.6878 19.3859 28.489 18.8558C28.2638 18.2463 27.9988 17.6629 27.588 17.1594C27.0977 16.5763 26.4617 16.1659 25.7594 15.8744C24.6993 15.4504 23.5995 15.3969 22.4997 15.6751C21.3071 15.9799 20.3001 16.5894 19.558 17.5832ZM13.5288 22.2745V28.6482C13.5288 28.7365 13.4846 28.7808 13.3962 28.7808H9.65954C9.55353 28.7808 9.52702 28.7542 9.52702 28.6482V15.8879C9.52702 15.7554 9.52703 15.7553 9.65954 15.7553H13.3962C13.5288 15.7553 13.5288 15.7554 13.5288 15.8879V22.2616V22.2745ZM11.5279 13.7935C12.8 13.7935 13.8203 12.7736 13.8203 11.4882C13.8203 10.2162 12.7867 9.19588 11.5146 9.19588C10.2558 9.19588 9.22225 10.2291 9.22225 11.5012C9.22225 12.7732 10.2558 13.7935 11.5279 13.7935Z" fill="white"/>
</svg>
