<svg width="39" height="38" viewBox="0 0 39 38" fill="none" xmlns="http://www.w3.org/2000/svg">
<path d="M19.2386 37.9763C29.7255 37.9763 38.2269 29.4748 38.2269 18.9878C38.2269 8.50088 29.7255 6.10352e-05 19.2386 6.10352e-05C8.7516 6.10352e-05 0.250244 8.50088 0.250244 18.9878C0.250244 29.4748 8.7516 37.9763 19.2386 37.9763Z" fill="white"/>
<path d="M17.2502 22.1429L23.7377 18.5001L17.2502 14.8572V22.1429ZM31.7002 12.6351C31.8627 13.2058 31.9752 13.9708 32.0502 14.9422C32.1377 15.9136 32.1752 16.7515 32.1752 17.4801L32.2502 18.5001C32.2502 21.1593 32.0502 23.1143 31.7002 24.3651C31.3877 25.4579 30.6627 26.1622 29.5377 26.4658C28.9502 26.6236 27.8752 26.7329 26.2252 26.8058C24.6002 26.8908 23.1127 26.9272 21.7377 26.9272L19.7502 27.0001C14.5127 27.0001 11.2502 26.8058 9.96274 26.4658C8.83774 26.1622 8.11274 25.4579 7.80024 24.3651C7.63774 23.7943 7.52524 23.0293 7.45024 22.0579C7.36274 21.0865 7.32524 20.2486 7.32524 19.5201L7.25024 18.5001C7.25024 15.8408 7.45024 13.8858 7.80024 12.6351C8.11274 11.5422 8.83774 10.8379 9.96274 10.5343C10.5502 10.3765 11.6252 10.2672 13.2752 10.1943C14.9002 10.1093 16.3877 10.0729 17.7627 10.0729L19.7502 10.0001C24.9877 10.0001 28.2502 10.1943 29.5377 10.5343C30.6627 10.8379 31.3877 11.5422 31.7002 12.6351Z" fill="black"/>
</svg>
