<svg width="197" height="7" viewBox="0 0 197 7" fill="none" xmlns="http://www.w3.org/2000/svg">
<path d="M9.60964 4.04883C7.44248 3.92863 5.264 3.85505 3.11421 3.66356C2.30048 3.5909 1.38939 3.34776 0.808911 3.00454C-0.411673 2.28383 -0.253154 1.50689 1.29956 1.09147C3.10968 0.607484 5.06322 0.0572381 6.97599 0.0261609C12.6788 -0.0656996 18.3915 0.112536 24.1011 0.129446C29.6862 0.146355 35.2713 0.0846566 40.8564 0.0750593C51.896 0.0558645 62.9356 0.0403316 73.976 0.0394176C83.644 0.0385035 93.3128 0.0371291 102.98 0.0773466C109.567 0.104768 116.153 0.237302 122.74 0.263352C137.365 0.322307 151.992 0.265184 166.614 0.408687C176.149 0.502375 185.701 0.676952 195.153 1.59601C195.915 1.67005 197.179 1.47262 196.979 2.34826C196.811 3.08132 196.095 3.37519 194.731 3.35782C181.178 3.18598 167.621 3.0475 154.065 2.93599C148.183 2.88755 142.299 2.89577 136.417 2.92959C128.599 2.97438 120.782 3.10509 112.965 3.13114C105.499 3.15582 98.0261 2.97575 90.5667 3.106C84.3128 3.21523 78.0748 3.64939 71.8285 3.92543C67.6489 4.11007 63.4648 4.26134 59.2852 4.44324C53.0932 4.71288 46.9027 5.0008 40.7108 5.27135C37.834 5.39703 34.9384 5.41897 32.0806 5.62965C26.922 6.01035 21.7815 6.48382 16.6418 6.95134C15.6122 7.04503 14.917 7.04641 13.9719 6.55694C13.1091 6.10998 11.5564 6.13968 10.2981 5.99115C9.87535 5.94134 9.38546 6.05376 8.99067 5.97515C8.4419 5.86547 7.95427 5.64519 7.44022 5.47244C7.76782 5.18498 8.03126 4.85638 8.4419 4.62239C8.77479 4.43273 9.2843 4.35731 9.71608 4.23072C9.6806 4.16994 9.64437 4.10961 9.60964 4.04883Z" fill="black"/>
</svg>
