<svg width="397" height="26" viewBox="0 0 397 26" fill="none" xmlns="http://www.w3.org/2000/svg">
<path d="M396.537 4.66008C397.122 4.78009 396.912 3.40863 397 3.1626C396.02 3.46646 396.561 5.01685 396.537 4.66008Z" fill="#56BBFF"/>
<path d="M386.861 7.77304L387.032 7.21387L385.606 8.58533L386.861 7.77304Z" fill="#56BBFF"/>
<path d="M377.813 7.74807C378.668 10.0846 381.092 7.37111 382.704 8.20195L382.969 8.73439L383.697 6.85449C381.738 7.15181 379.193 8.39998 377.813 7.74807Z" fill="#56BBFF"/>
<path d="M372.989 2.69434C373.287 3.60374 371.945 3.47772 374.114 2.9791C374.005 2.87981 373.974 2.82253 373.91 2.74889C373.715 2.76144 373.446 2.7598 372.989 2.69434Z" fill="#56BBFF"/>
<path d="M373.91 2.74851C373.287 1.98476 374.863 2.68304 373.91 2.74851V2.74851Z" fill="#56BBFF"/>
<path d="M369.51 3.26944L370.765 2.45769C370.503 1.92034 369.386 1.79923 369.801 1.40918C368.513 1.85379 368.778 2.38732 369.51 3.26944Z" fill="#56BBFF"/>
<path d="M368.32 4.97485L368.97 4.63116C368.856 4.4064 368.684 4.32785 368.32 4.97485Z" fill="#56BBFF"/>
<path d="M370.349 3.90576L368.97 4.63132C369.152 5.00883 369.172 5.76602 369.604 4.36946C369.49 5.06119 369.763 4.39619 370.349 3.90576Z" fill="#56BBFF"/>
<path d="M371.131 4.26214C371.835 4.77058 372.744 5.09026 371.484 5.89874C373.886 5.57742 373.531 3.93483 371.131 4.26214Z" fill="#56BBFF"/>
<path d="M377.351 10.1645L378.292 10.8486L379.106 10.0652C378.7 10.4542 377.292 9.4324 377.351 10.1645Z" fill="#56BBFF"/>
<path d="M361.691 2.06006C361.613 2.55704 362.113 3.38515 362.207 4.02124L363.134 3.45062C362.657 3.11021 361.754 2.79652 361.691 2.06006Z" fill="#56BBFF"/>
<path d="M362.207 4.02051L360.82 4.87426C362.059 4.97464 362.285 4.56877 362.207 4.02051Z" fill="#56BBFF"/>
<path d="M368.096 7.56849L370.375 5.77588L367.657 7.59249L368.096 7.56849Z" fill="#56BBFF"/>
<path d="M356.394 1.99775L357.18 0.84668L355.779 2.58528L356.394 1.99775Z" fill="#56BBFF"/>
<path d="M352.879 2.19904C353.462 1.24654 352.082 0.586445 352.697 0C351.742 0.16966 350.927 0.989048 350.193 1.72442C350.973 1.31364 351.804 1.41893 352.879 2.19904Z" fill="#56BBFF"/>
<path d="M348.962 2.79663C349.351 2.56805 349.755 2.15891 350.194 1.72412C349.779 1.94506 349.372 2.26147 348.962 2.79663Z" fill="#56BBFF"/>
<path d="M358.457 4.62796C358.349 4.32738 358.143 3.54072 357.365 3.2085L357.911 4.60669C358.077 4.61542 358.266 4.62142 358.457 4.62796Z" fill="#56BBFF"/>
<path d="M357.93 4.65204L357.911 4.60731C357.319 4.57676 356.908 4.54512 356.733 4.5293C356.883 4.54184 357.244 4.57676 357.93 4.65204Z" fill="#56BBFF"/>
<path d="M358.595 4.63445C358.544 4.63116 358.507 4.62842 358.457 4.62842C358.51 4.76663 358.541 4.81325 358.595 4.63445Z" fill="#56BBFF"/>
<path d="M364.46 6.30322C363.645 7.08497 361.946 7.92399 363.59 9.11598C364.175 8.15912 363.234 7.47993 364.46 6.30322Z" fill="#56BBFF"/>
<path d="M359.272 6.38324L360.745 6.70292C360.717 6.33359 360.451 5.79516 360.855 5.40674L359.272 6.38324Z" fill="#56BBFF"/>
<path d="M358.551 6.82758L359.272 6.38352L358.726 6.26514L358.551 6.82758Z" fill="#56BBFF"/>
<path d="M351.485 4.10575C350.849 4.71457 350.152 4.76585 349.366 4.86295C350.209 5.1379 351.08 5.28629 351.908 5.28356C352.024 4.84386 352.388 4.05611 351.485 4.10575Z" fill="#56BBFF"/>
<path d="M354.618 4.49414C354.573 4.52595 354.517 4.54241 354.476 4.57422C354.563 4.69323 354.633 4.73162 354.618 4.49414Z" fill="#56BBFF"/>
<path d="M341.624 4.85352C341.667 4.93044 341.704 5.0259 341.748 5.10773C341.758 5.0259 341.765 4.94789 341.777 4.86606L341.624 4.85352Z" fill="#56BBFF"/>
<path d="M352.049 5.54405C352.682 5.81409 353.061 5.47204 353.422 5.04053C352.949 5.18127 352.446 5.27238 351.908 5.28383C351.855 5.48132 351.846 5.61224 352.049 5.54405Z" fill="#56BBFF"/>
<path d="M346.802 3.4502C347.132 3.74261 347.506 3.99028 347.899 4.21885C347.576 3.77588 346.918 3.08579 346.802 3.4502Z" fill="#56BBFF"/>
<path d="M354.262 4.18683C354.293 4.16446 354.322 4.13882 354.357 4.12464C354.149 3.82405 354.175 3.97134 354.262 4.18683Z" fill="#56BBFF"/>
<path d="M354.262 4.18701C353.936 4.38831 353.68 4.73363 353.422 5.04022C353.808 4.93002 354.166 4.78 354.476 4.57379C354.397 4.47505 354.319 4.32449 354.262 4.18701Z" fill="#56BBFF"/>
<path d="M339.279 13.8326C339.391 12.5364 341.056 11.3379 342.494 12.7284C343.909 11.7568 342.984 7.49242 341.748 5.10791C341.704 5.67363 341.704 6.19624 340.248 6.96162C340.758 7.66972 343.479 8.61731 342.25 9.7902C340.322 10.4585 340.67 9.33141 339.733 8.64568C340.53 10.2615 337.279 10.9969 337.699 13.3716L339.39 12.5359C339.422 12.9057 338.809 13.4954 339.279 13.8326Z" fill="#56BBFF"/>
<path d="M344.522 5.24052L345.121 5.07905C344.438 4.85374 343.95 4.33549 343.049 3.3208C342.053 3.95362 341.845 4.43477 341.777 4.86629L344.727 5.04686L344.522 5.24052Z" fill="#56BBFF"/>
<path d="M347.811 5.07403C347.343 6.48532 345.905 7.08485 346.786 8.61125C348.544 8.5136 348.018 7.43345 349.068 6.82136C346.231 7.17105 349.883 6.03525 347.833 5.23605C348.391 4.99656 348.892 4.92292 349.366 4.86345C348.854 4.6927 348.362 4.47994 347.898 4.21973C347.924 4.25137 347.942 4.27592 347.963 4.30756L347.976 4.30319C347.976 4.31247 347.973 4.31574 347.973 4.32556C348.096 4.50122 348.136 4.60815 347.998 4.50613C347.989 4.52359 347.954 4.53014 347.939 4.53504C347.92 4.73144 347.868 4.90273 347.811 5.06748C346.989 4.77671 347.682 4.70143 347.939 4.53504C347.948 4.46631 347.971 4.39921 347.973 4.32556C347.971 4.31792 347.967 4.31247 347.963 4.30756L345.121 5.08003C345.723 5.27533 346.476 5.23551 347.811 5.07403Z" fill="#56BBFF"/>
<path d="M362.074 12.1496C361.985 12.0247 361.99 11.9243 361.983 11.8218C361.799 11.9947 361.73 12.1131 362.074 12.1496Z" fill="#56BBFF"/>
<path d="M360.905 11.2977C361.112 11.1008 361.284 10.5367 361.956 10.6823C362.538 11.1057 361.953 11.3582 361.983 11.8219C362.388 11.4483 363.4 10.81 362.131 10.1248L361.929 10.3168C360.785 9.83239 359.315 8.07251 359.515 7.87939C359.849 9.14775 360.143 10.0522 360.905 11.2977Z" fill="#56BBFF"/>
<path d="M354.276 8.54541L351.91 9.23769L353.115 10.4586L353.054 9.72485C354.4 10.0129 354.109 9.11003 354.276 8.54541Z" fill="#56BBFF"/>
<path d="M341.353 4.15195L341.667 2.66211L340.3 4.76567L341.353 4.15195Z" fill="#56BBFF"/>
<path d="M338.278 4.33085L338.391 3.03467L337.579 3.81587L338.278 4.33085Z" fill="#56BBFF"/>
<path d="M164.721 20.4028L164.025 20.7705C164.354 20.6565 164.566 20.5338 164.721 20.4028Z" fill="#56BBFF"/>
<path d="M169.756 20.4908L169.879 19.853C169.646 20.2049 169.55 20.4635 169.756 20.4908Z" fill="#56BBFF"/>
<path d="M262.742 4.47673C261.729 3.26674 260.598 1.39066 260.72 2.84777L261.031 4.26724C261.739 4.01302 262.281 4.17123 262.742 4.47673Z" fill="#56BBFF"/>
<path d="M211.011 12.9547C211.108 13.0922 211.208 13.2405 211.308 13.3862C211.554 12.9007 211.785 12.4495 211.992 12.0278C211.697 12.3191 211.362 12.629 211.011 12.9547Z" fill="#56BBFF"/>
<path d="M210.297 18.8315L208.961 17.9155C209.261 18.2352 209.691 18.5407 210.297 18.8315Z" fill="#56BBFF"/>
<path d="M137.224 21.9087L136.413 23.3549C137.682 23.3467 137.123 22.6184 137.224 21.9087Z" fill="#56BBFF"/>
<path d="M306.778 4.85355C305.903 4.29929 305.208 4.06581 304.597 3.99707C305.65 4.81209 306.499 6.03463 306.778 4.85355Z" fill="#56BBFF"/>
<path d="M166.702 5.33301C166.276 5.5905 166.095 5.87963 166.107 6.19604C166.545 5.95328 166.793 5.68106 166.702 5.33301Z" fill="#56BBFF"/>
<path d="M302.072 4.00205C302.226 4.14389 302.378 4.21591 302.534 4.33592C303.173 4.09807 303.816 3.90604 304.597 3.99715C303.819 3.38943 302.928 3.01574 302.072 4.00205Z" fill="#56BBFF"/>
<path d="M37.4999 20.7317C37.4274 20.6678 37.3401 20.6373 37.2741 20.562C37.2523 20.754 37.3527 20.7639 37.4999 20.7317Z" fill="#56BBFF"/>
<path d="M8.44788 6.40216C8.73373 6.31433 9.20071 6.3127 9.64095 6.2936C9.42601 6.19595 9.06651 6.20523 8.44788 6.40216Z" fill="#56BBFF"/>
<path d="M325.903 3.7107C326.007 3.55413 326.555 3.61796 325.903 3.7107V3.7107Z" fill="#56BBFF"/>
<path d="M329.075 9.32715C328.937 9.48699 328.831 9.68993 328.814 10.0178C328.868 9.67574 328.959 9.45862 329.075 9.32715Z" fill="#56BBFF"/>
<path d="M295.575 12.8404C295.556 12.8404 295.541 12.8354 295.518 12.8354C295.714 13.1152 295.68 13.062 295.575 12.8404Z" fill="#56BBFF"/>
<path d="M326.884 4.35675C326.639 4.18218 326.357 4.03707 326.05 3.93506C326.185 4.04471 326.439 4.18218 326.884 4.35675Z" fill="#56BBFF"/>
<path d="M326.752 3.68486C326.977 3.74869 327.154 3.78415 327.322 3.82233C327.405 3.58612 327.332 3.43719 326.752 3.68486Z" fill="#56BBFF"/>
<path d="M324.994 3.7878C325.367 3.76543 325.715 3.83254 326.05 3.9351C325.922 3.83908 325.869 3.75889 325.903 3.71143C325.712 3.73325 325.442 3.76216 324.994 3.7878Z" fill="#56BBFF"/>
<path d="M90.9326 16.9316C90.8895 16.8869 90.8399 16.858 90.793 16.7969C90.1351 17.3866 90.4237 17.2928 90.9326 16.9316Z" fill="#56BBFF"/>
<path d="M245.765 19.2231C245.796 19.2089 245.812 19.1719 245.839 19.1545C245.809 19.1404 245.771 19.1208 245.743 19.105L245.765 19.2231Z" fill="#56BBFF"/>
<path d="M243.422 20.2812C244.42 18.5137 244.987 18.7308 245.743 19.105L244.968 15.0103L243.422 20.2812Z" fill="#56BBFF"/>
<path d="M152.666 20.8119L154.311 22.0873C152.325 24.1876 150.888 23.4632 152.433 25.258C152.666 20.8119 158.828 24.8024 159.057 20.3607L160.141 21.2958C159.83 21.2527 159.781 21.5145 159.473 21.4698C161.582 23.5985 161.04 18.2555 163.758 18.8883C164.705 19.2288 165.366 19.8747 164.72 20.4016L166.831 19.3024C167.445 19.3886 167.295 20.1605 166.684 20.076L169.902 19.7214L169.878 19.8523C170.338 19.154 171.379 18.0771 171.886 17.6178C172.704 18.2555 171.476 18.0897 171.686 18.6439L173.468 17.5665C174.194 18.7187 172.717 19.8359 171.485 19.6717C173.15 24.1096 172.964 18.5528 176.557 21.1452L174.874 21.7093C175.959 24.2313 177.272 23.317 179.175 24.8897C178.724 24.0682 175.365 20.9275 177.3 19.8201C177.845 20.1556 178.563 20.3155 179.607 19.4202C179.617 21.0006 180.635 20.6128 181.911 20.5228L181.824 22.6165C183.202 22.0121 183.093 20.9461 183.904 20.0034C185.441 20.2096 185.759 21.832 186.121 23.1986C188.581 23.5314 184.422 20.5986 187.334 20.2036C189.38 21.0045 190.817 20.1491 193.265 18.896C194.697 19.6172 193.015 20.1763 193.529 20.7759L194.798 19.1055C195.109 19.1453 195.008 19.6586 194.957 19.9178C196.027 19.2702 195.046 17.8257 196.727 17.2567C197.18 14.9502 200.18 20.627 202.261 18.0079C202.774 18.6025 202.013 19.2909 202.17 20.1016C205.026 18.3837 204.618 18.8534 206.963 16.5409L208.961 17.9151C207.493 16.3429 209.368 14.4821 211.011 12.9541C210.49 12.1952 210.045 11.5302 209.747 11.2138L212.368 10.09C212.684 10.4337 212.42 11.1527 211.991 12.0272C212.169 11.8548 212.339 11.6835 212.472 11.5253C213.409 12.2989 212.923 13.5072 212.251 14.6769C211.932 14.2644 211.615 13.8231 211.307 13.385C210.659 14.6572 210.054 16.0652 210.189 17.291C210.359 17.0499 210.687 16.8421 211.048 16.7253C210.879 17.0701 210.77 17.3789 210.849 17.5883C210.938 17.8087 211.211 17.3456 211.64 16.8115L212.235 19.1447L212.38 18.2179L215.809 19.6788C218.263 17.3292 220.397 13.8711 224.292 12.9072C223.326 14.6185 224.084 15.7024 224.032 17.7307C222.969 15.5841 221.015 18.6434 218.997 18.207C220.05 18.4323 219.818 19.399 219.551 19.7366L223.15 17.7836C223.069 19.4426 223.915 19.0269 224.855 19.7126C224.144 16.4346 227.539 17.5294 229.003 16.524C229.095 17.6254 228.743 18.7487 226.956 18.4836C228.928 20.951 229.504 14.6332 231.439 16.7302C231.003 16.7575 230.768 16.5884 230.595 17.1476C231.614 16.1694 234.106 16.9441 233.52 17.9031L233.085 17.9255C235.981 18.3139 241.903 17.9495 242.335 15.1651C242.364 15.5246 241.955 18.5212 241.78 19.0842L246.949 9.71689C246.494 12.1079 248.242 17.8027 245.84 19.1529C246.529 19.4933 247.382 19.891 248.837 19.0471C248.366 18.7067 247.664 15.5901 248.307 15.3713C250.072 18.034 249.532 16.7951 251.708 19.0646C251.003 18.5518 251.786 14.8023 252.9 14.9218C252.726 15.4826 252.993 18.6232 252.586 19.0133L255.36 15.3326C254.667 15.9959 255.237 18.4525 255.858 19.4928C255.57 18.7716 258.257 19.5599 258.996 19.1955L257.82 18.3423C260.952 18.8982 260.914 13.1657 264.021 13.3588C263.645 14.1199 263.092 18.0384 264.672 18.5021C265.396 16.6162 267.879 9.43376 270.628 7.98265L271.156 9.06007L273.265 7.83263C271.951 10.6694 268.265 16.6386 266.252 18.9609C267.424 19.8141 266.579 20.2314 268.334 20.1338C268.954 21.1441 267.377 21.6662 266.861 21.7257L270.947 22.3776C270.765 20.1753 274.072 20.1703 273.916 18.3374L269.478 20.6182C269.298 18.4225 272.045 14.3724 274.94 14.7609C275.676 15.6364 274.389 18.6778 274.449 19.4115C274.825 18.6538 277.198 17.9653 277.464 18.5021L276.236 19.6783C277.848 20.5058 278.867 16.7613 280.804 18.8616C281.472 19.0024 282.8 21.6951 282.916 20.3929C281.826 17.8818 281.612 10.1146 282.339 8.22868C282.573 8.39779 285.85 10.629 286.614 11.8696C287.715 13.8384 284.961 16.5622 285.898 18.2528C285.938 17.6516 286.547 16.9103 286.8 16.6719C287.502 17.1852 286.509 18.5338 288.035 18.2621C288.29 16.0309 291.139 18.4508 288.757 16.3762C290.249 15.7385 290.342 16.835 292.095 16.7373C291.537 15.2955 293.669 11.8303 295.164 11.1947C295.075 11.7621 295.411 12.5002 295.574 12.8379C298.633 13.0392 300.275 14.0522 303.129 14.0713C303.391 14.6114 304.768 15.2655 304.182 16.2256C304.592 15.8306 304.969 15.0745 305.849 15.0205C307.552 16.9495 303.887 15.3211 305.185 17.6385C305.296 16.3424 307.461 15.8503 308.714 15.0396C308.329 13.037 305.819 14.6561 304.563 15.4646C304.557 12.7026 306.742 9.81018 309.724 8.53309C312.094 7.84736 310.751 10.3181 311.163 9.92528C315.614 10.4081 314.954 5.1017 318.651 7.09507C320.117 8.85495 318.717 10.5968 319.043 11.8657C317.112 12.5324 316.079 10.7485 314.771 10.8189L316.382 11.6513C315.768 12.2361 314.479 12.6802 313.777 12.1707C315.006 13.7516 321.297 12.4745 324.731 13.9338C325.341 13.3441 326.394 12.7337 325.896 12.0256L324.809 12.2716C323.81 10.8521 326.854 10.3088 325.479 9.64597C326.937 8.64874 328.57 7.08089 330.622 7.88282L331.008 9.89037C330.964 9.30392 329.667 8.69456 329.09 9.30556C329.945 8.41689 332.236 12.0223 333.174 9.39502L331.735 8.00447C333.199 6.99578 335.008 4.86549 336.826 5.4983C335.998 3.51639 336.406 5.72524 335.115 3.40619C336.235 6.29096 330.462 3.28454 332.262 6.3166C330.936 3.62495 329.967 5.17534 328.234 2.8803C328.287 3.54203 328.848 4.14593 327.321 3.82025C327.252 4.01391 327.089 4.2594 326.986 4.40342C326.94 4.38596 326.923 4.37451 326.883 4.35378C326.914 4.37942 326.937 4.40833 326.967 4.43179C326.901 4.53107 326.895 4.55181 326.999 4.45907C327.363 4.7482 327.657 5.09679 327.777 5.46612C327.019 6.98596 324.591 6.93796 323.77 7.72407C322.865 7.4093 324.149 6.96523 323.655 6.25877L322.428 7.43494C322.307 5.96419 320.021 4.9926 322.156 4.1312L320.235 4.06574C319.104 3.2409 317.548 2.91303 316.589 3.53166C315.683 3.21362 314.3 5.15898 315.09 4.00791L312.077 4.91895L312.05 4.55126C309.077 4.36578 305.931 6.98542 302.533 4.3325C301.533 4.70346 300.499 5.15734 298.825 4.74001L298.499 3.46784C297.214 3.9119 294.641 2.19566 294.089 3.52075C292.702 0.0991858 287.853 2.77392 285.594 2.16675L285.509 3.82734C283.954 3.73296 282.463 4.2043 280.532 4.87094L280.651 6.33787C278.987 7.54295 276.372 5.29427 273.739 5.44484C273.918 4.88403 274.586 5.03078 275.058 5.36956C271.913 2.05491 268.422 7.78135 265.569 5.36628C264.858 5.90036 264.343 5.71815 263.845 5.34882C263.912 5.34555 263.971 5.31828 264.022 5.27191C263.949 5.25445 263.841 5.25118 263.73 5.25445C263.416 5.00187 263.093 4.70837 262.742 4.47325C263.04 4.82948 263.325 5.12352 263.573 5.25936C263.025 5.28991 262.194 5.47212 261.379 5.8398L261.032 4.26377C260.966 4.2845 260.912 4.28122 260.843 4.3085C260.044 3.72696 260.2 5.05478 260.627 6.24077C260.217 6.49989 259.841 6.81139 259.549 7.19163C258.9 4.64727 257.411 8.04865 256.524 5.33464C255.975 6.6581 252.427 6.33023 251.993 9.11408C251.965 8.7513 251.725 8.57891 252.165 8.55655C251.256 8.2385 250.348 7.92209 249.533 8.70656L249.147 6.70229L247.164 9.39721C245.959 8.17577 245.459 7.46657 246.655 5.92381C243.766 8.29578 244.311 6.81739 241.853 9.16808L241.973 7.87245C241.095 7.92209 239.69 9.65743 239.16 8.58655C237.195 6.12403 229.437 8.24614 224.393 5.95764C225.371 9.77253 222.048 4.2474 221.848 7.20417C221.554 6.30296 220.852 5.79289 221.668 5.00841C219.094 5.8949 217.8 3.57749 216.023 6.07111C215.729 5.16498 216.574 4.74765 216.312 4.21248C216.105 4.40778 215.494 4.99696 215.226 4.45852C214.964 3.92117 215.603 3.70078 216.011 3.30745C213.381 3.45911 213.115 6.24022 212.924 8.85004C211.591 7.61441 210.926 7.78898 209.964 9.50031C209.5 8.6471 208.726 7.75352 210.36 7.44694C209.441 7.32201 204.745 6.19549 204.651 8.2876C204.363 7.7568 203.366 8.13267 203.124 8.37379C201.061 8.24886 200.88 8.06066 198.855 8.25868L199.416 8.60073C198.616 11.1244 197.733 9.16318 196.1 9.46704L196.146 9.20791C192.402 7.38747 194.53 10.0808 190.836 8.00283L191.037 9.57232C190.693 12.9492 187.764 7.58113 185.621 8.87241L186.394 9.76871C185.224 10.9247 183.122 5.17698 181.946 4.75529C181.69 4.46125 182.351 4.28395 182.709 4.06683C179.63 2.07564 182.31 6.12348 180.016 6.60137C179.593 5.4923 180.561 3.78043 179.017 3.57421C178.248 2.67627 174.539 7.17526 172.432 5.04769C172.897 5.90254 173.358 6.75575 172.292 7.39838C170.659 7.70388 167.877 4.16666 166.402 6.86158C166.194 6.62809 166.116 6.40442 166.108 6.19167C164.859 6.88667 162.051 7.3471 161.299 8.80803C160.145 3.38492 153.538 11.4451 153.565 6.44425L149.725 6.71156L149.826 6.20149C147.371 5.87035 146.503 7.06943 145.64 8.2696C145.073 7.92919 145.487 7.46276 145.534 7.20036C141.948 6.19167 141.591 6.40443 138.584 8.89586L138.271 7.27346C137.456 8.21668 133.086 4.7291 129.569 6.62155C129.603 6.4377 129.677 6.12293 129.956 5.89436C125.999 7.79826 120.482 1.39373 119.031 7.30237L116.42 8.75839C119.799 9.21718 115.917 11.3224 117.306 12.3038C115.977 12.6502 113.871 10.5215 115.504 10.2182L115.76 10.5139C116.36 7.43439 111.561 9.4223 111.652 7.32528C105.003 7.47694 98.5229 5.77161 92.2952 5.64069L93.0125 8.03502L90.8402 7.89755C90.2702 7.34001 90.0749 6.02419 91.6247 6.12348C90.8097 4.7662 89.0258 7.25982 88.9816 7.7808C85.9474 6.81085 90.167 4.98878 89.2364 4.93095L87.9729 5.10988L88.2577 5.38974C87.2337 6.36788 87.1426 7.40493 85.2796 7.28655C84.1013 6.80757 84.6752 5.8098 84.211 5.7176C84.2137 5.54794 84.0571 5.4683 83.4996 5.64887L80.7627 5.44429L81.857 7.3351C80.6437 8.26687 79.2832 7.23582 80.5461 9.37757C78.6924 6.07547 70.337 8.19158 69.1985 7.16708C67.4997 8.54454 65.8228 8.52109 63.7448 8.3547C64.2614 8.74803 64.5702 10.8734 62.7787 10.6132C63.4339 6.22768 59.4973 8.70929 58.0495 5.55449C59.3435 7.6466 52.9553 6.07111 54.9863 9.04207C53.491 8.68747 54.8952 7.40057 53.7611 6.36842C50.2026 8.0672 45.9185 5.26427 41.5199 5.83762C41.4512 6.41316 42.1882 7.29364 41.2444 8.15012L38.9221 5.27191C38.0531 5.55449 38.1223 8.59473 36.5349 6.597C36.7591 7.08143 37.0935 7.8119 36.5109 7.99574C27.8937 5.19062 18.9022 10.2941 10.1508 5.0226C11.3363 6.13821 10.5463 6.24895 9.64129 6.29041C10.2299 6.55718 9.6282 7.71261 9.74385 8.49272L6.08007 6.32532C5.41234 8.49108 2.1517 6.47207 1.76929 8.54182L2.92963 8.16977C1.38687 10.6137 5.08884 13.6005 4.86299 16.7362C6.59068 13.9584 9.41872 20.8501 12.2527 16.8737C12.8785 17.5131 11.7192 17.8835 12.0536 18.6107C12.7721 17.2665 13.6395 16.9866 15.2477 17.5894L15.066 17.9222C19.5836 17.5943 21.5202 18.9194 26.5953 19.8016L26.2194 18.2512C27.3099 18.4585 27.5396 18.9445 28.0502 19.333C29.3017 16.9823 24.9871 19.2004 26.1278 16.608C27.5745 19.7628 33.8181 16.656 34.7957 20.2407C36.4732 20.2598 34.3036 18.4459 35.9811 18.4667L36.4257 19.4366L36.8496 18.1868C37.9494 18.393 38.5042 19.6063 38.5457 20.4278C38.2789 20.3302 37.7868 20.658 37.501 20.7284C38.9275 21.8713 41.5226 20.3384 42.0125 20.711L40.4005 20.1131C44.9791 19.2053 50.5692 20.4791 54.9929 18.507L54.6574 17.7749C58.0353 16.4215 57.3627 18.579 61.0717 17.9522L60.937 18.1268C61.6789 17.398 62.6707 17.0303 63.6854 17.1132C62.7487 17.9697 65.4474 18.7787 64.2189 19.7263C67.8816 18.2735 66.0306 18.585 68.45 15.8667L69.0081 17.0799C69.8324 15.9823 69.9011 15.4035 71.7538 15.0887C70.2345 16.1307 72.9359 16.9381 71.2344 18.3155C75.1213 20.9701 77.0056 15.6353 78.7889 19.5173C80.5739 16.158 75.4252 17.6522 76.4251 16.9326C75.5883 15.835 77.8986 14.4215 79.1184 14.7592C80.36 14.834 81.2296 19.0564 84.3528 18.9925C84.0418 18.9767 84.0211 19.2309 83.7107 19.2162C84.8798 20.0727 86.0008 18.0559 87.4345 19.4481C88.2381 17.4165 89.2964 19.5648 89.5277 16.9741L86.6626 17.5736C88.2866 16.8961 89.8097 13.864 92.4856 15.3342C92.2772 15.8568 91.4807 16.5442 90.9341 16.9277C91.7164 17.6915 92.4408 16.4209 93.252 17.2054C93.0207 19.7994 89.7704 17.7695 88.0302 19.7465C88.8698 20.8413 91.3219 17.8687 90.4474 20.6766C91.7044 17.1061 93.5248 21.1272 95.6404 18.4006L95.5007 19.9543C95.8357 19.7099 96.529 18.9762 97.1449 19.016L96.0299 21.0301C97.7423 19.3122 99.3314 22.5325 100.973 21.5975C97.5344 21.6455 100.202 19.7257 98.7477 18.5927C102.989 16.5137 101.187 22.6558 105.936 21.9106C105.293 22.1293 103.522 20.9772 104.528 20.2582C105.432 20.5779 106.626 21.1741 107.181 21.9891C110.327 21.6662 106.697 20.3913 108.036 19.4372C109.108 21.3296 109.581 18.6669 110.96 18.0608L110.97 19.6401C114.556 20.6531 111.921 16.3495 115.149 17.5736L113.784 19.7634L115.467 19.1977L115.12 20.9941C116.951 19.6614 117.521 20.0067 119.315 20.5102C118.898 19.3979 119.549 17.6445 121.137 17.5949C122.22 18.5332 120.531 19.0956 122.782 18.8703C122.274 19.8583 121.717 21.0983 120.737 19.6439C120.637 20.1589 120.236 20.6351 120.132 21.1436C121.299 22.2221 123.064 21.3896 123.879 21.3754C123.565 21.316 123.19 21.2314 122.998 21.0061L126.261 18.818C126.775 19.411 126.367 19.8872 125.964 20.3536C126.625 20.1829 127.082 19.4573 128.054 19.3215C127.802 20.6051 127.862 21.9297 126.487 22.5341L129.596 21.1097C129.804 21.6673 131.191 22.6427 130.788 23.1157C132.512 23.8701 135.016 20.6253 137.301 21.6209C137.42 21.3716 137.659 21.1337 138.144 20.9499C140.292 21.2407 142.195 22.8151 144.74 21.0552L146.184 23.3568C148.178 22.8342 144.229 20.4578 147.549 19.5899C149.899 18.8562 148.426 21.5527 149.25 22.1937C150.419 21.0334 152.451 18.6729 154.61 20.5457C153.894 20.9815 153.333 20.6411 152.666 20.8119ZM177.253 19.7923C176.777 20.1234 175.827 21.1463 175.479 20.214C176.022 18.405 176.441 19.2713 177.253 19.7923ZM214.631 15.9899C214.277 16.5126 213.729 16.2534 213.111 15.6555C213.559 15.5268 214.067 15.5857 214.631 15.9899ZM318.753 4.99587C318.733 5.02151 318.719 5.0406 318.702 5.07224C317.64 4.45688 318.017 4.69965 318.753 4.99587ZM320.96 5.68105C321.181 5.46066 321.166 5.2419 321.073 5.02096C320.919 5.42084 320.423 5.44757 319.859 5.33573C320.015 5.74979 320.301 6.03456 320.96 5.68105ZM83.9655 6.30296L84.3948 6.71538C83.4248 7.1709 83.6965 6.76011 83.9655 6.30296Z" fill="#56BBFF"/>
<path d="M210.393 18.1511C210.258 17.8843 210.221 17.5903 210.189 17.293C210.002 17.5581 209.998 17.8647 210.393 18.1511Z" fill="#56BBFF"/>
<path d="M137.374 21.641C137.349 21.6284 137.325 21.6334 137.299 21.6235C137.259 21.7179 137.237 21.8139 137.224 21.9083L137.374 21.641Z" fill="#56BBFF"/>
<path d="M286.775 19.0699C286.32 18.843 286.067 18.5538 285.899 18.2549C285.874 18.6411 286.08 18.9673 286.775 19.0699Z" fill="#56BBFF"/>
<path d="M332.655 2.99756L331.241 3.40834C331.924 3.33033 332.169 3.67565 332.514 3.92605C332.482 3.55727 332.212 3.0232 332.655 2.99756Z" fill="#56BBFF"/>
<path d="M344.925 12.7697C345.131 12.576 345.363 12.749 345.567 12.5526L345.51 11.8188C344.63 11.8663 344.015 12.4582 344.925 12.7697Z" fill="#56BBFF"/>
<path d="M333.963 8.24472C334.075 9.57309 334.962 9.12248 335.952 8.8759C335.892 8.88081 335.836 8.89173 335.777 8.8759C336.069 7.01728 335.014 7.63264 333.963 8.24472Z" fill="#56BBFF"/>
<path d="M336.182 8.83179C336.487 8.7696 336.798 8.73469 337.097 8.79851C337.213 8.05332 336.726 8.64303 336.182 8.83179Z" fill="#56BBFF"/>
<path d="M323.759 4.80067C324.229 5.14272 324.053 3.10189 324.319 3.6436C324.844 1.953 321.189 5.68934 323.759 4.80067Z" fill="#56BBFF"/>
<path d="M334.765 12.6208L334.41 10.981L333.855 12.3028L334.765 12.6208Z" fill="#56BBFF"/>
<path d="M326.946 11.4172L328.529 11.8711C328.505 11.5962 328.706 11.4347 328.952 11.312C327.978 11.2574 326.909 10.9312 326.946 11.4172Z" fill="#56BBFF"/>
<path d="M328.952 11.3122C329.46 11.3438 329.943 11.3089 330.226 11.0405C329.951 11.058 329.36 11.112 328.952 11.3122Z" fill="#56BBFF"/>
<path d="M332.602 13.1134L332.134 12.7714L331.017 12.6514L332.602 13.1134Z" fill="#56BBFF"/>
<path d="M309.937 11.1011L308.211 11.5713C308.035 12.1338 308.505 12.4775 309.149 12.2538C309.562 11.8615 310.203 11.6444 309.937 11.1011Z" fill="#56BBFF"/>
<path d="M315.16 15.5922C314.693 15.2518 314.661 14.8858 314.398 14.3457L314.346 16.3789L315.16 15.5922Z" fill="#56BBFF"/>
<path d="M310.124 16.0669C309.952 16.631 307.618 17.686 309.806 17.5584C309.982 16.9987 311.711 16.53 310.124 16.0669Z" fill="#56BBFF"/>
<path d="M284.105 13.4951L284.544 13.4695L284.481 10.1357L284.105 13.4951Z" fill="#56BBFF"/>
<path d="M261.172 21.4707C263.218 22.2699 261.658 19.414 263.507 20.4107C263.987 19.623 261.995 19.5973 262.488 18.9165C261.253 19.7479 260.605 19.2782 261.172 21.4707Z" fill="#56BBFF"/>
<path d="M262.488 18.9165C262.686 18.7855 262.896 18.6257 263.119 18.4097C262.761 18.6175 262.593 18.7774 262.488 18.9165Z" fill="#56BBFF"/>
<path d="M3.62691 4.61254L2.31055 3.91699L3.16048 5.03751L3.62691 4.61254Z" fill="#56BBFF"/>
<path d="M1.10058 7.08474L0.790716 4.96045L0.000244141 6.8829C0.298104 6.78907 0.874729 6.60522 1.10058 7.08474Z" fill="#56BBFF"/>
<path d="M180.909 24.0719L181.009 23.5602C180.805 23.0076 180.498 22.9656 179.881 22.8794L180.909 24.0719Z" fill="#56BBFF"/>
<path d="M163.063 22.4823L163.37 22.5248L162.796 20.604L163.063 22.4823Z" fill="#56BBFF"/>
<path d="M148.085 24.9326C148.696 25.0122 149.415 24.584 150.029 24.6653C148.697 25.0122 147.92 22.5366 148.085 24.9326Z" fill="#56BBFF"/>
</svg>
