<svg width="307" height="266" viewBox="0 0 307 266" fill="none" xmlns="http://www.w3.org/2000/svg">
<g filter="url(#filter0_d_247_3)">
<path d="M200.995 5C195.479 5 190.99 9.48846 190.99 15.0057V18.1307C190.609 18.1014 190.228 18.0861 189.849 18.0861C188.818 18.0861 187.786 18.1961 186.783 18.4135C185.746 18.6377 184.744 18.9723 183.785 19.4143C182.856 18.2746 181.637 17.3676 180.22 16.8241C178.781 16.2717 177.273 15.9807 175.736 15.9586L175.549 15.9573C173.173 15.9573 171.217 16.591 169.759 17.3135C168.344 16.3393 166.7 15.7074 164.971 15.477C164.584 15.4251 164.19 15.399 163.8 15.399C160.74 15.399 157.838 17.0271 156.225 19.6479L152.618 25.5093C151.96 24.8819 151.189 24.3623 150.328 23.9835C148.942 23.3733 147.475 23.0282 145.968 22.9565C145.772 22.9471 145.58 22.943 145.39 22.943C144.688 22.943 143.994 23.0025 143.31 23.1207V22.2557C143.31 18.9723 141.348 16.0628 138.313 14.8438C136.84 14.252 135.291 13.9138 133.711 13.838C133.483 13.8276 133.259 13.8222 133.039 13.8222C131.252 13.8222 129.496 14.1578 127.817 14.8212C127.426 14.9764 127.052 15.1586 126.698 15.3656C125.89 14.6196 124.921 14.0333 123.832 13.6648C122.184 13.1065 120.479 12.7691 118.733 12.6568C117.673 8.26982 113.714 5.00091 109.006 5.00091C103.489 5.00091 99.0002 9.48937 99.0002 15.0066V117.481C99.0002 122.998 103.489 127.486 109.006 127.486C114.523 127.486 119.012 122.998 119.012 117.481V112.631H190.989V117.481C190.989 122.998 195.477 127.486 200.995 127.486C206.512 127.486 211 122.998 211 117.481V15.0066C211.001 9.48892 206.513 5 200.995 5Z" fill="white"/>
</g>
<path d="M150.326 53.3872L145.306 50.2977L161.987 23.1933C162.427 22.4794 163.242 22.0703 164.072 22.1817C164.696 22.2652 165.431 22.492 166.115 23.0265C166.491 23.3196 166.776 23.6462 166.992 23.9628C167.46 24.6497 167.454 25.5566 167.018 26.2647C161.454 35.3057 155.89 44.3467 150.326 53.3872Z" fill="#8EE897" stroke="black" stroke-miterlimit="10" stroke-linecap="round" stroke-linejoin="round"/>
<path d="M199.135 53.751L191.141 55.6628L184.643 28.489C184.435 27.6194 184.732 26.7219 185.396 26.2597C186.086 25.7789 187.028 25.2823 188.213 25.0261C189.261 24.7993 190.209 24.8236 190.971 24.931C191.766 25.0437 192.43 25.7126 192.637 26.5754L199.135 53.751Z" fill="#FA0581" stroke="black" stroke-miterlimit="10" stroke-linecap="round" stroke-linejoin="round"/>
<path d="M197.537 52.2068H112.248V57.4755H197.537V52.2068Z" fill="white" stroke="black" stroke-miterlimit="10" stroke-linecap="round" stroke-linejoin="round"/>
<path d="M122.504 52.2069H112.416V21.2387C112.416 20.7092 112.754 20.2415 113.255 20.0719C114.295 19.7201 115.742 19.3765 117.482 19.3792C119.202 19.3819 120.633 19.7228 121.665 20.0719C122.167 20.2415 122.504 20.7092 122.504 21.2387V52.2069Z" fill="#EBF17A" stroke="black" stroke-miterlimit="10" stroke-linecap="round" stroke-linejoin="round"/>
<path d="M197.537 100.597H112.248V105.865H197.537V100.597Z" fill="white" stroke="black" stroke-miterlimit="10" stroke-linecap="round" stroke-linejoin="round"/>
<path d="M122.244 100.597H112.248V63.5858C112.248 63.1663 112.467 62.7807 112.826 62.5638C113.763 61.9987 115.519 61.1814 117.786 61.3253C119.53 61.4358 120.868 62.0713 121.679 62.5687C122.032 62.7848 122.243 63.1686 122.243 63.5822V100.597H122.244Z" fill="#FA0581" stroke="black" stroke-miterlimit="10" stroke-linecap="round" stroke-linejoin="round"/>
<path d="M132.24 100.597H122.244V71.7262C122.244 71.3993 122.463 71.098 122.822 70.9293C123.759 70.4886 125.515 69.8509 127.781 69.9632C129.526 70.0494 130.864 70.545 131.675 70.9334C132.028 71.102 132.239 71.4011 132.239 71.724V100.597H132.24Z" fill="#8EE897" stroke="black" stroke-miterlimit="10" stroke-linecap="round" stroke-linejoin="round"/>
<path d="M137.847 100.597H132.24V80.953C132.589 80.7081 133.776 79.9446 135.415 80.07C136.617 80.162 137.469 80.6856 137.847 80.953C137.847 87.5008 137.847 94.049 137.847 100.597Z" fill="white" stroke="black" stroke-miterlimit="10" stroke-linecap="round" stroke-linejoin="round"/>
<path d="M143.588 100.597H137.847V69.3877C137.847 68.8298 138.168 68.3256 138.669 68.0811C139.149 67.8475 139.798 67.6297 140.582 67.6072C141.505 67.5805 142.262 67.8336 142.796 68.0979C143.285 68.3396 143.588 68.8434 143.588 69.3891V100.597Z" fill="#EBF17A" stroke="black" stroke-miterlimit="10" stroke-linecap="round" stroke-linejoin="round"/>
<path d="M162.063 100.597H149.094V69.0851C149.094 68.6187 149.406 68.2133 149.856 68.0875C151.397 67.6554 153.493 67.2558 155.984 67.3031C158.114 67.3437 159.926 67.7005 161.319 68.092C161.761 68.2165 162.063 68.6251 162.063 69.0846L162.063 100.597Z" fill="#D800FC" stroke="black" stroke-miterlimit="10" stroke-linecap="round" stroke-linejoin="round"/>
<path d="M149.093 100.597H143.588V87.0168C143.588 86.6461 143.784 86.2988 144.108 86.1198C144.657 85.8171 145.548 85.4635 146.662 85.5411C147.461 85.597 148.102 85.8559 148.548 86.1013C148.882 86.2853 149.093 86.6317 149.093 87.0132L149.093 100.597Z" fill="white" stroke="black" stroke-miterlimit="10" stroke-linecap="round" stroke-linejoin="round"/>
<path d="M171.08 100.597H162.063V74.2941C162.845 73.8652 164.732 72.969 167.23 73.1458C168.999 73.2708 170.335 73.8805 171.08 74.2941V100.597Z" fill="white" stroke="black" stroke-miterlimit="10" stroke-linecap="round" stroke-linejoin="round"/>
<path d="M177.288 100.597H170.85C170.697 100.597 170.573 100.473 170.573 100.32V68.2885C170.573 67.6174 170.945 66.9955 171.546 66.6969C172.309 66.3176 173.444 65.9473 174.795 66.121C175.518 66.2134 176.126 66.4389 176.603 66.6825C177.197 66.9855 177.564 67.6021 177.564 68.2691V100.32C177.564 100.473 177.441 100.597 177.288 100.597Z" fill="white" stroke="black" stroke-miterlimit="10" stroke-linecap="round" stroke-linejoin="round"/>
<path d="M184.556 100.597H177.564V78.1444C177.84 77.8954 179.216 76.7066 181.279 76.7936C183.068 76.8689 184.235 77.8548 184.556 78.1444V100.597Z" fill="white" stroke="black" stroke-miterlimit="10" stroke-linecap="round" stroke-linejoin="round"/>
<path d="M192.864 100.597H183.846V67.9759C183.846 67.5447 184.094 67.1537 184.485 66.9724C185.418 66.5394 186.944 66.0199 188.845 66.1209C190.274 66.1971 191.429 66.599 192.223 66.9692C192.614 67.1519 192.864 67.542 192.864 67.9736V100.597Z" fill="white" stroke="black" stroke-miterlimit="10" stroke-linecap="round" stroke-linejoin="round"/>
<path d="M197.424 100.597H192.864V82.3998C192.917 82.3308 193.91 81.077 195.465 81.2515C196.646 81.3841 197.309 82.246 197.424 82.3998V100.597Z" fill="white" stroke="black" stroke-miterlimit="10" stroke-linecap="round" stroke-linejoin="round"/>
<path d="M112.248 74.8092C112.673 74.5747 114.704 73.5076 117.65 73.6488C120.153 73.7688 121.77 74.6866 122.243 74.9766" stroke="black" stroke-miterlimit="10" stroke-linecap="round" stroke-linejoin="round"/>
<path d="M112.248 76.8293C112.673 76.5947 114.704 75.5276 117.65 75.6688C120.153 75.7888 121.77 76.7066 122.243 76.9966" stroke="black" stroke-miterlimit="10" stroke-linecap="round" stroke-linejoin="round"/>
<path d="M112.248 95.0737C112.673 94.8391 114.704 93.772 117.65 93.9132C120.153 94.0332 121.77 94.951 122.243 95.241" stroke="black" stroke-miterlimit="10" stroke-linecap="round" stroke-linejoin="round"/>
<path d="M112.248 97.0937C112.673 96.8591 114.704 95.7921 117.65 95.9332C120.153 96.0532 121.77 96.971 122.243 97.261" stroke="black" stroke-miterlimit="10" stroke-linecap="round" stroke-linejoin="round"/>
<path d="M132.24 97.7247C132.47 97.6322 133.567 97.2105 135.16 97.266C136.512 97.3134 137.386 97.676 137.643 97.7905" stroke="black" stroke-miterlimit="10" stroke-linecap="round" stroke-linejoin="round"/>
<path d="M132.342 85.9937C132.572 85.9013 133.67 85.4796 135.262 85.535C136.615 85.5824 137.489 85.945 137.745 86.0596" stroke="black" stroke-miterlimit="10" stroke-linecap="round" stroke-linejoin="round"/>
<path d="M137.965 74.0872C138.195 73.9947 139.293 73.5731 140.886 73.6285C142.238 73.6759 143.112 74.0385 143.368 74.1531" stroke="black" stroke-miterlimit="10" stroke-linecap="round" stroke-linejoin="round"/>
<path d="M149.523 78.1065C150.067 77.9396 152.661 77.182 156.417 77.3105C159.608 77.4196 161.664 78.1011 162.267 78.3162" stroke="black" stroke-miterlimit="10" stroke-linecap="round" stroke-linejoin="round"/>
<path d="M149.207 93.9718C149.75 93.8049 152.345 93.0472 156.101 93.1757C159.291 93.2849 161.348 93.9664 161.95 94.1815" stroke="black" stroke-miterlimit="10" stroke-linecap="round" stroke-linejoin="round"/>
<path d="M171.074 98.061C171.352 97.9004 172.674 97.1702 174.584 97.2812C176.206 97.3755 177.25 98.0186 177.556 98.2216" stroke="black" stroke-miterlimit="10" stroke-linecap="round" stroke-linejoin="round"/>
<path d="M170.828 95.1601C171.105 94.9996 172.427 94.2694 174.337 94.3803C175.96 94.4746 177.004 95.1177 177.31 95.3207" stroke="black" stroke-miterlimit="10" stroke-linecap="round" stroke-linejoin="round"/>
<path d="M171.083 77.6452C171.361 77.4847 172.683 76.7545 174.593 76.8654C176.215 76.9597 177.259 77.6028 177.565 77.8058" stroke="black" stroke-miterlimit="10" stroke-linecap="round" stroke-linejoin="round"/>
<path d="M170.837 74.7443C171.114 74.5838 172.436 73.8536 174.346 73.9645C175.969 74.0588 177.013 74.7019 177.319 74.9049" stroke="black" stroke-miterlimit="10" stroke-linecap="round" stroke-linejoin="round"/>
<path d="M177.82 98.063C178.074 97.9024 179.286 97.1713 181.036 97.2809C182.523 97.3743 183.48 98.017 183.759 98.2195" stroke="black" stroke-miterlimit="10" stroke-linecap="round" stroke-linejoin="round"/>
<path d="M177.597 95.1621C177.851 95.0015 179.063 94.2704 180.813 94.38C182.3 94.4734 183.256 95.1161 183.536 95.3186" stroke="black" stroke-miterlimit="10" stroke-linecap="round" stroke-linejoin="round"/>
<path d="M177.942 84.551C178.195 84.3905 179.407 83.6594 181.158 83.769C182.644 83.8623 183.601 84.505 183.88 84.7075" stroke="black" stroke-miterlimit="10" stroke-linecap="round" stroke-linejoin="round"/>
<path d="M177.718 81.6506C177.971 81.4901 179.183 80.759 180.934 80.8686C182.42 80.9619 183.377 81.6046 183.656 81.8071" stroke="black" stroke-miterlimit="10" stroke-linecap="round" stroke-linejoin="round"/>
<path d="M129.524 52.2069H122.504V29.3168C122.504 28.8423 122.774 28.4062 123.204 28.2064C123.925 27.8708 125.035 27.5078 126.398 27.5863C127.411 27.6449 128.24 27.929 128.834 28.2082C129.26 28.4085 129.524 28.8432 129.524 29.3136L129.524 52.2069Z" fill="#D800FC" stroke="black" stroke-miterlimit="10" stroke-linecap="round" stroke-linejoin="round"/>
<path d="M136.545 52.2067H129.524V22.2573C129.524 21.7499 129.835 21.2976 130.307 21.1109C131.044 20.8199 132.106 20.5335 133.389 20.5944C134.365 20.6409 135.18 20.875 135.791 21.1203C136.251 21.3048 136.545 21.759 136.545 22.2542V52.2067H136.545Z" fill="white" stroke="black" stroke-miterlimit="10" stroke-linecap="round" stroke-linejoin="round"/>
<path d="M142.44 52.2068H136.546V37.2743C136.546 36.7769 136.845 36.3322 137.303 36.1382C137.858 35.9033 138.634 35.6786 139.57 35.6917C140.445 35.7039 141.171 35.9195 141.699 36.145C142.15 36.338 142.439 36.7832 142.439 37.2743L142.44 52.2068Z" fill="white" stroke="black" stroke-miterlimit="10" stroke-linecap="round" stroke-linejoin="round"/>
<path d="M148.333 52.2069H142.439V31.3044C142.439 30.8222 142.716 30.3766 143.158 30.1827C143.75 29.922 144.608 29.6649 145.648 29.7141C146.446 29.752 147.11 29.9586 147.605 30.1764C148.05 30.3726 148.333 30.8168 148.333 31.3034V52.2069Z" fill="white" stroke="black" stroke-miterlimit="10" stroke-linecap="round" stroke-linejoin="round"/>
<path d="M172.115 52.1643H166.221V28.5597C166.221 27.9306 166.608 27.3691 167.195 27.1431C167.73 26.9375 168.43 26.762 169.256 26.7751C170.013 26.7873 170.657 26.9546 171.157 27.149C171.737 27.3745 172.115 27.9365 172.115 28.5593V52.1643Z" fill="white" stroke="black" stroke-miterlimit="10" stroke-linecap="round" stroke-linejoin="round"/>
<path d="M178.983 52.2067H172.115V23.7443C172.584 23.439 173.858 22.6971 175.639 22.7228C176.493 22.735 177.222 22.9203 177.795 23.1395C178.516 23.4165 178.982 24.1218 178.982 24.8949L178.983 52.2067Z" fill="#EBF17A" stroke="black" stroke-miterlimit="10" stroke-linecap="round" stroke-linejoin="round"/>
<path d="M185.85 52.2068H178.983V34.1556C178.983 33.3329 179.51 32.5906 180.298 32.3547C180.884 32.1797 181.603 32.043 182.428 32.0439C183.243 32.0453 183.955 32.181 184.536 32.3547C185.324 32.5901 185.851 33.3329 185.851 34.1547L185.85 52.2068Z" fill="white" stroke="black" stroke-miterlimit="10" stroke-linecap="round" stroke-linejoin="round"/>
<path d="M112.462 42.1303C112.888 41.8958 114.918 40.8287 117.865 40.9698C120.368 41.0898 121.984 42.0076 122.458 42.2976" stroke="black" stroke-miterlimit="10" stroke-linecap="round" stroke-linejoin="round"/>
<path d="M112.462 44.1508C112.888 43.9163 114.918 42.8492 117.865 42.9903C120.368 43.1103 121.984 44.0281 122.458 44.3181" stroke="black" stroke-miterlimit="10" stroke-linecap="round" stroke-linejoin="round"/>
<path d="M112.248 27.9635C112.673 27.729 114.704 26.6619 117.65 26.8031C120.153 26.9231 121.77 27.8409 122.243 28.1309" stroke="black" stroke-miterlimit="10" stroke-linecap="round" stroke-linejoin="round"/>
<path d="M112.248 29.9843C112.673 29.7498 114.704 28.6827 117.65 28.8238C120.153 28.9438 121.77 29.8616 122.243 30.1516" stroke="black" stroke-miterlimit="10" stroke-linecap="round" stroke-linejoin="round"/>
<path d="M158.898 28.4774C159.212 28.3597 160.693 27.8455 162.077 28.6776C163.253 29.3844 163.634 30.626 163.736 31.0089" stroke="black" stroke-miterlimit="10" stroke-linecap="round" stroke-linejoin="round"/>
<path d="M129.708 47.2758C130 47.1585 131.388 46.625 133.404 46.6953C135.116 46.7553 136.221 47.2145 136.545 47.3592" stroke="black" stroke-miterlimit="10" stroke-linecap="round" stroke-linejoin="round"/>
<path d="M129.708 30.975C130 30.8578 131.388 30.3242 133.404 30.3945C135.116 30.4545 136.221 30.9137 136.545 31.0585" stroke="black" stroke-miterlimit="10" stroke-linecap="round" stroke-linejoin="round"/>
<path d="M150.816 41.6716C151.131 41.5539 152.611 41.0398 153.995 41.8723C155.172 42.5791 155.552 43.8207 155.654 44.2036" stroke="black" stroke-miterlimit="10" stroke-linecap="round" stroke-linejoin="round"/>
<path d="M109.008 120.72C107.218 120.72 105.767 119.269 105.767 117.48V15.0056C105.767 13.216 107.218 11.7651 109.008 11.7651C110.797 11.7651 112.248 13.216 112.248 15.0056V117.48C112.248 119.269 110.797 120.72 109.008 120.72Z" fill="white" stroke="black" stroke-miterlimit="10" stroke-linecap="round" stroke-linejoin="round"/>
<path d="M200.995 120.72C199.206 120.72 197.755 119.269 197.755 117.48V15.0056C197.755 13.216 199.206 11.7651 200.995 11.7651C202.785 11.7651 204.236 13.216 204.236 15.0056V117.48C204.236 119.269 202.785 120.72 200.995 120.72Z" fill="white" stroke="black" stroke-miterlimit="10" stroke-linecap="round" stroke-linejoin="round"/>
<path d="M150.349 53.507L145.33 50.4176L162.011 23.3132C162.451 22.5993 163.266 22.1902 164.096 22.3016C164.72 22.385 165.455 22.6119 166.139 23.1463C166.515 23.4395 166.8 23.766 167.016 24.0826C167.484 24.7695 167.478 25.6765 167.042 26.3846C161.478 35.4256 155.914 44.4665 150.349 53.507Z" fill="#8EE897" stroke="black" stroke-miterlimit="10" stroke-linecap="round" stroke-linejoin="round"/>
<path d="M199.159 53.8709L191.165 55.7827L184.667 28.6089C184.459 27.7393 184.756 26.8418 185.42 26.3795C186.11 25.8987 187.051 25.4022 188.237 25.146C189.285 24.9192 190.233 24.9435 190.995 25.0509C191.79 25.1636 192.454 25.8325 192.661 26.6952L199.159 53.8709Z" fill="#FA0581" stroke="black" stroke-miterlimit="10" stroke-linecap="round" stroke-linejoin="round"/>
<path d="M197.561 52.3267H112.271V57.5954H197.561V52.3267Z" fill="white" stroke="black" stroke-miterlimit="10" stroke-linecap="round" stroke-linejoin="round"/>
<path d="M122.527 52.3268H112.44V21.3586C112.44 20.8291 112.777 20.3613 113.279 20.1918C114.318 19.84 115.766 19.4963 117.505 19.499C119.225 19.5017 120.657 19.8427 121.688 20.1918C122.19 20.3613 122.527 20.8291 122.527 21.3586V52.3268Z" fill="#EBF17A" stroke="black" stroke-miterlimit="10" stroke-linecap="round" stroke-linejoin="round"/>
<path d="M197.561 100.717H112.271V105.985H197.561V100.717Z" fill="white" stroke="black" stroke-miterlimit="10" stroke-linecap="round" stroke-linejoin="round"/>
<path d="M122.268 100.717H112.271V63.7056C112.271 63.2862 112.491 62.9006 112.85 62.6837C113.787 62.1185 115.543 61.3013 117.809 61.4452C119.554 61.5557 120.892 62.1911 121.703 62.6886C122.056 62.9046 122.267 63.2885 122.267 63.702V100.717H122.268Z" fill="#FA0581" stroke="black" stroke-miterlimit="10" stroke-linecap="round" stroke-linejoin="round"/>
<path d="M132.263 100.717H122.267V71.8461C122.267 71.5191 122.487 71.2178 122.846 71.0492C123.782 70.6085 125.539 69.9708 127.805 70.0831C129.549 70.1693 130.887 70.6649 131.699 71.0532C132.051 71.2219 132.263 71.5209 132.263 71.8439V100.717H132.263Z" fill="#8EE897" stroke="black" stroke-miterlimit="10" stroke-linecap="round" stroke-linejoin="round"/>
<path d="M137.871 100.717H132.263V81.0729C132.613 80.828 133.8 80.0644 135.439 80.1898C136.64 80.2818 137.493 80.8055 137.871 81.0729C137.871 87.6207 137.871 94.1689 137.871 100.717Z" fill="white" stroke="black" stroke-miterlimit="10" stroke-linecap="round" stroke-linejoin="round"/>
<path d="M143.612 100.717H137.871V69.5076C137.871 68.9497 138.192 68.4455 138.693 68.201C139.173 67.9674 139.822 67.7496 140.606 67.727C141.529 67.7004 142.286 67.9534 142.82 68.2177C143.309 68.4595 143.612 68.9632 143.612 69.509V100.717Z" fill="#EBF17A" stroke="black" stroke-miterlimit="10" stroke-linecap="round" stroke-linejoin="round"/>
<path d="M162.087 100.717H149.118V69.205C149.118 68.7386 149.43 68.3332 149.88 68.2073C151.421 67.7753 153.517 67.3757 156.008 67.423C158.138 67.4636 159.95 67.8204 161.342 68.2118C161.785 68.3363 162.087 68.7449 162.087 69.2045L162.087 100.717Z" fill="#D800FC" stroke="black" stroke-miterlimit="10" stroke-linecap="round" stroke-linejoin="round"/>
<path d="M149.117 100.717H143.612V87.1367C143.612 86.766 143.808 86.4187 144.132 86.2397C144.681 85.937 145.572 85.5834 146.685 85.661C147.485 85.7169 148.126 85.9758 148.572 86.2212C148.906 86.4052 149.117 86.7516 149.117 87.1331L149.117 100.717Z" fill="white" stroke="black" stroke-miterlimit="10" stroke-linecap="round" stroke-linejoin="round"/>
<path d="M171.104 100.716H162.086V74.414C162.868 73.9851 164.755 73.0889 167.254 73.2657C169.022 73.3906 170.358 74.0004 171.104 74.414V100.716Z" fill="white" stroke="black" stroke-miterlimit="10" stroke-linecap="round" stroke-linejoin="round"/>
<path d="M177.312 100.717H170.873C170.721 100.717 170.597 100.593 170.597 100.44V68.4084C170.597 67.7373 170.969 67.1153 171.57 66.8168C172.333 66.4375 173.467 66.0672 174.819 66.2408C175.542 66.3333 176.149 66.5588 176.626 66.8023C177.221 67.1054 177.588 67.722 177.588 68.389V100.44C177.588 100.593 177.464 100.717 177.312 100.717Z" fill="white" stroke="black" stroke-miterlimit="10" stroke-linecap="round" stroke-linejoin="round"/>
<path d="M184.579 100.716H177.588V78.2643C177.863 78.0153 179.239 76.8264 181.303 76.9135C183.091 76.9888 184.259 77.9747 184.579 78.2643V100.716Z" fill="white" stroke="black" stroke-miterlimit="10" stroke-linecap="round" stroke-linejoin="round"/>
<path d="M192.888 100.716H183.87V68.0958C183.87 67.6646 184.118 67.2736 184.509 67.0923C185.442 66.6593 186.968 66.1397 188.869 66.2408C190.298 66.317 191.453 66.7188 192.247 67.0891C192.638 67.2718 192.888 67.6619 192.888 68.0935V100.716Z" fill="white" stroke="black" stroke-miterlimit="10" stroke-linecap="round" stroke-linejoin="round"/>
<path d="M197.447 100.717H192.888V82.5197C192.941 82.4507 193.933 81.1968 195.488 81.3714C196.67 81.504 197.333 82.3659 197.447 82.5197V100.717Z" fill="white" stroke="black" stroke-miterlimit="10" stroke-linecap="round" stroke-linejoin="round"/>
<path d="M112.271 74.9291C112.697 74.6946 114.728 73.6275 117.674 73.7687C120.177 73.8886 121.794 74.8064 122.267 75.0964" stroke="black" stroke-miterlimit="10" stroke-linecap="round" stroke-linejoin="round"/>
<path d="M112.271 76.9491C112.697 76.7146 114.728 75.6475 117.674 75.7887C120.177 75.9087 121.794 76.8265 122.267 77.1165" stroke="black" stroke-miterlimit="10" stroke-linecap="round" stroke-linejoin="round"/>
<path d="M112.271 95.1935C112.697 94.959 114.728 93.8919 117.674 94.0331C120.177 94.153 121.794 95.0709 122.267 95.3609" stroke="black" stroke-miterlimit="10" stroke-linecap="round" stroke-linejoin="round"/>
<path d="M112.271 97.2135C112.697 96.979 114.728 95.9119 117.674 96.0531C120.177 96.1731 121.794 97.0909 122.267 97.3809" stroke="black" stroke-miterlimit="10" stroke-linecap="round" stroke-linejoin="round"/>
<path d="M132.263 97.8446C132.493 97.7521 133.591 97.3304 135.184 97.3859C136.536 97.4332 137.41 97.7958 137.667 97.9104" stroke="black" stroke-miterlimit="10" stroke-linecap="round" stroke-linejoin="round"/>
<path d="M132.366 86.1138C132.596 86.0214 133.694 85.5997 135.286 85.6552C136.639 85.7025 137.513 86.0651 137.769 86.1797" stroke="black" stroke-miterlimit="10" stroke-linecap="round" stroke-linejoin="round"/>
<path d="M137.989 74.2071C138.219 74.1146 139.317 73.6929 140.909 73.7484C142.262 73.7958 143.136 74.1584 143.392 74.2729" stroke="black" stroke-miterlimit="10" stroke-linecap="round" stroke-linejoin="round"/>
<path d="M149.547 78.2264C150.091 78.0595 152.685 77.3018 156.441 77.4304C159.632 77.5395 161.688 78.221 162.29 78.4361" stroke="black" stroke-miterlimit="10" stroke-linecap="round" stroke-linejoin="round"/>
<path d="M149.23 94.0916C149.774 93.9247 152.369 93.1671 156.125 93.2956C159.315 93.4048 161.372 94.0862 161.974 94.3014" stroke="black" stroke-miterlimit="10" stroke-linecap="round" stroke-linejoin="round"/>
<path d="M171.098 98.1809C171.376 98.0203 172.697 97.2901 174.607 97.4011C176.23 97.4953 177.274 98.1385 177.58 98.3414" stroke="black" stroke-miterlimit="10" stroke-linecap="round" stroke-linejoin="round"/>
<path d="M170.852 95.28C171.129 95.1194 172.451 94.3892 174.361 94.5002C175.984 94.5944 177.028 95.2376 177.334 95.4406" stroke="black" stroke-miterlimit="10" stroke-linecap="round" stroke-linejoin="round"/>
<path d="M171.107 77.7651C171.384 77.6045 172.706 76.8743 174.616 76.9853C176.239 77.0796 177.283 77.7227 177.589 77.9256" stroke="black" stroke-miterlimit="10" stroke-linecap="round" stroke-linejoin="round"/>
<path d="M170.861 74.8642C171.138 74.7037 172.46 73.9735 174.37 74.0844C175.993 74.1787 177.037 74.8218 177.342 75.0248" stroke="black" stroke-miterlimit="10" stroke-linecap="round" stroke-linejoin="round"/>
<path d="M177.845 98.1828C178.099 98.0223 179.31 97.2912 181.061 97.4008C182.547 97.4942 183.504 98.1368 183.784 98.3393" stroke="black" stroke-miterlimit="10" stroke-linecap="round" stroke-linejoin="round"/>
<path d="M177.621 95.282C177.875 95.1214 179.086 94.3903 180.837 94.4999C182.323 94.5933 183.28 95.236 183.56 95.4385" stroke="black" stroke-miterlimit="10" stroke-linecap="round" stroke-linejoin="round"/>
<path d="M177.965 84.6709C178.219 84.5103 179.431 83.7792 181.181 83.8888C182.668 83.9822 183.624 84.6249 183.904 84.8274" stroke="black" stroke-miterlimit="10" stroke-linecap="round" stroke-linejoin="round"/>
<path d="M177.741 81.7705C177.995 81.6099 179.207 80.8788 180.957 80.9884C182.444 81.0818 183.4 81.7245 183.68 81.927" stroke="black" stroke-miterlimit="10" stroke-linecap="round" stroke-linejoin="round"/>
<path d="M129.548 52.3268H122.527V29.4367C122.527 28.9622 122.798 28.5261 123.228 28.3263C123.949 27.9907 125.059 27.6277 126.421 27.7061C127.435 27.7648 128.264 28.0489 128.858 28.3281C129.284 28.5283 129.548 28.9631 129.548 29.4335L129.548 52.3268Z" fill="#D800FC" stroke="black" stroke-miterlimit="10" stroke-linecap="round" stroke-linejoin="round"/>
<path d="M136.569 52.3268H129.548V22.3774C129.548 21.87 129.859 21.4177 130.331 21.231C131.068 20.9401 132.13 20.6537 133.412 20.7146C134.388 20.761 135.204 20.9951 135.815 21.2404C136.275 21.4249 136.569 21.8791 136.569 22.3743V52.3268H136.569Z" fill="white" stroke="black" stroke-miterlimit="10" stroke-linecap="round" stroke-linejoin="round"/>
<path d="M142.464 52.3267H136.569V37.3942C136.569 36.8967 136.869 36.452 137.327 36.2581C137.882 36.0231 138.658 35.7985 139.593 35.8116C140.469 35.8238 141.195 36.0393 141.723 36.2648C142.174 36.4579 142.463 36.903 142.463 37.3942L142.464 52.3267Z" fill="white" stroke="black" stroke-miterlimit="10" stroke-linecap="round" stroke-linejoin="round"/>
<path d="M148.357 52.3268H142.463V31.4242C142.463 30.9421 142.74 30.4965 143.182 30.3026C143.774 30.0419 144.632 29.7848 145.672 29.834C146.47 29.8719 147.134 30.0784 147.628 30.2963C148.074 30.4925 148.357 30.9367 148.357 31.4233V52.3268Z" fill="white" stroke="black" stroke-miterlimit="10" stroke-linecap="round" stroke-linejoin="round"/>
<path d="M172.139 52.2844H166.245V28.6799C166.245 28.0507 166.632 27.4892 167.219 27.2632C167.754 27.0576 168.454 26.8821 169.28 26.8952C170.037 26.9074 170.681 27.0747 171.181 27.2691C171.761 27.4946 172.139 28.0566 172.139 28.6794V52.2844Z" fill="white" stroke="black" stroke-miterlimit="10" stroke-linecap="round" stroke-linejoin="round"/>
<path d="M179.007 52.3266H172.139V23.8642C172.608 23.5589 173.882 22.817 175.663 22.8427C176.517 22.8549 177.246 23.0402 177.819 23.2594C178.54 23.5363 179.006 24.2417 179.006 25.0148L179.007 52.3266Z" fill="#EBF17A" stroke="black" stroke-miterlimit="10" stroke-linecap="round" stroke-linejoin="round"/>
<path d="M185.874 52.3267H179.007V34.2755C179.007 33.4528 179.534 32.7104 180.322 32.4746C180.908 32.2996 181.627 32.1629 182.452 32.1638C183.267 32.1652 183.979 32.3009 184.56 32.4746C185.348 32.71 185.875 33.4528 185.875 34.2746L185.874 52.3267Z" fill="white" stroke="black" stroke-miterlimit="10" stroke-linecap="round" stroke-linejoin="round"/>
<path d="M112.486 42.2502C112.911 42.0156 114.942 40.9485 117.889 41.0897C120.391 41.2097 122.008 42.1275 122.482 42.4175" stroke="black" stroke-miterlimit="10" stroke-linecap="round" stroke-linejoin="round"/>
<path d="M112.486 44.2707C112.911 44.0361 114.942 42.9691 117.889 43.1102C120.391 43.2302 122.008 44.148 122.482 44.438" stroke="black" stroke-miterlimit="10" stroke-linecap="round" stroke-linejoin="round"/>
<path d="M112.271 28.0837C112.697 27.8491 114.728 26.782 117.674 26.9232C120.177 27.0432 121.794 27.961 122.267 28.251" stroke="black" stroke-miterlimit="10" stroke-linecap="round" stroke-linejoin="round"/>
<path d="M112.271 30.1042C112.697 29.8696 114.728 28.8026 117.674 28.9437C120.177 29.0637 121.794 29.9815 122.267 30.2715" stroke="black" stroke-miterlimit="10" stroke-linecap="round" stroke-linejoin="round"/>
<path d="M158.922 28.5973C159.237 28.4795 160.717 27.9654 162.102 28.7975C163.278 29.5042 163.658 30.7459 163.76 31.1288" stroke="black" stroke-miterlimit="10" stroke-linecap="round" stroke-linejoin="round"/>
<path d="M129.732 47.3959C130.024 47.2786 131.412 46.7451 133.427 46.8154C135.139 46.8754 136.245 47.3346 136.569 47.4794" stroke="black" stroke-miterlimit="10" stroke-linecap="round" stroke-linejoin="round"/>
<path d="M129.732 31.0949C130.024 30.9776 131.412 30.4441 133.427 30.5144C135.139 30.5744 136.245 31.0336 136.569 31.1783" stroke="black" stroke-miterlimit="10" stroke-linecap="round" stroke-linejoin="round"/>
<path d="M150.84 41.7915C151.155 41.6738 152.635 41.1596 154.019 41.9922C155.195 42.6989 155.576 43.9406 155.678 44.3235" stroke="black" stroke-miterlimit="10" stroke-linecap="round" stroke-linejoin="round"/>
<path d="M109.031 120.84C107.242 120.84 105.791 119.389 105.791 117.6V15.1255C105.791 13.3359 107.242 11.885 109.031 11.885C110.821 11.885 112.272 13.3359 112.272 15.1255V117.6C112.271 119.389 110.821 120.84 109.031 120.84Z" fill="white" stroke="black" stroke-miterlimit="10" stroke-linecap="round" stroke-linejoin="round"/>
<path d="M201.019 120.84C199.23 120.84 197.779 119.389 197.779 117.6V15.1255C197.779 13.3359 199.23 11.885 201.019 11.885C202.809 11.885 204.26 13.3359 204.26 15.1255V117.6C204.26 119.389 202.809 120.84 201.019 120.84Z" fill="white" stroke="black" stroke-miterlimit="10" stroke-linecap="round" stroke-linejoin="round"/>
<g filter="url(#filter1_d_247_3)">
<path d="M229.65 259.66L229.794 255.525L222.84 255.282L223.02 250.119L216.271 249.822L216.128 253.941L204.976 253.552V257.849H183.404V248.379L179.355 248.202L179 233.851L197.141 216.149L197.623 202.318C195.367 200.621 193.958 197.944 194.022 194.938L194.152 188.861C192.288 186.695 191.43 183.758 191.768 180.804C191.613 179.648 191.648 178.469 191.877 177.317C192.053 176.427 192.341 175.568 192.732 174.76C192.917 173.045 193.543 171.446 194.553 170.123L194.565 169.545C194.671 164.645 198.735 160.806 203.818 160.806L204.023 160.808L204.496 160.818C205.413 159.228 206.306 157.636 207.166 156.054C208.111 154.315 208.989 152.647 209.837 151.033C214.649 141.881 218.805 133.976 228.113 128.277C230.383 126.888 232.292 126.038 233.298 125.6C231.884 122.203 231.249 118.278 231.52 114.119C231.076 111.901 230.847 109.626 230.839 107.341C230.821 101.593 233.039 96.1917 237.085 92.133C241.027 88.1782 246.223 86 251.715 86C252.741 86 253.78 86.0783 254.803 86.2323C258.385 86.7724 261.633 88.2251 264.196 90.4338C266.347 92.2873 267.797 94.4492 268.77 96.5982C271.311 97.0096 273.645 98.4583 275.242 100.637C277.072 103.133 277.764 106.267 277.14 109.235C276.552 112.032 274.845 114.391 272.535 115.902C272.28 118.63 271.687 121.195 270.777 123.533C276.388 124.918 283.402 127.802 289.583 133.772C298.222 142.116 302.608 153.965 301.932 167.136C301.71 171.476 301.374 178.035 296.842 184.594C294.75 187.621 292.012 190.201 288.673 192.297L288.395 201.448L286.283 203.236L286.251 243.492L256.779 240.341L255.936 251.564L251.523 251.37L251.208 260.413L229.65 259.66Z" fill="white"/>
</g>
<path d="M279.583 236.224C279.594 222.64 279.605 209.056 279.615 195.473C260.796 196.288 241.977 197.102 223.159 197.917C222.163 208.569 221.168 219.22 220.172 229.872" fill="white"/>
<path d="M279.583 236.224C279.594 222.64 279.605 209.056 279.615 195.473C260.796 196.288 241.977 197.102 223.159 197.917C222.163 208.569 221.168 219.22 220.172 229.872" stroke="black" stroke-miterlimit="10" stroke-linecap="round" stroke-linejoin="round"/>
<path d="M248.576 210.137C234.964 209.686 225.386 203.523 221.692 200.85C222.018 188.793 222.344 176.736 222.67 164.679C242.711 165.168 262.752 165.656 282.793 166.145C282.467 176.899 282.141 187.653 281.815 198.406C278.806 200.952 266.543 210.732 248.576 210.137Z" fill="#8EE897" stroke="black" stroke-miterlimit="10" stroke-linecap="round" stroke-linejoin="round"/>
<path d="M200.927 179.033C206.368 171.027 210.309 164.205 212.956 159.339C219.207 147.848 222.37 139.665 231.54 134.051C233.494 132.854 235.13 132.137 236.058 131.733C246.43 127.229 255.866 128.321 260.239 128.936C269.916 130.295 276.457 131.214 281.389 136.854C288.869 145.408 286.373 157.647 285.897 159.979C284.579 166.438 281.481 171.019 279.562 173.441C279.585 176.759 279.608 180.078 279.631 183.396" fill="#8EE897"/>
<path d="M200.927 179.033C206.368 171.027 210.309 164.205 212.956 159.339C219.207 147.848 222.37 139.665 231.54 134.051C233.494 132.854 235.13 132.137 236.058 131.733C246.43 127.229 255.866 128.321 260.239 128.936C269.916 130.295 276.457 131.214 281.389 136.854C288.869 145.408 286.373 157.647 285.897 159.979C284.579 166.438 281.481 171.019 279.562 173.441C279.585 176.759 279.608 180.078 279.631 183.396" stroke="black" stroke-miterlimit="10" stroke-linecap="round" stroke-linejoin="round"/>
<path d="M262.073 129.046C265.077 129.174 275.975 130.005 284.935 138.659C296.16 149.5 295.417 163.997 295.268 166.911C295.071 170.749 294.806 175.929 291.345 180.936C285.986 188.691 276.088 190.731 272.033 191.419C265.102 192.594 259.21 191.469 255.422 190.349C256.012 189.74 257.733 187.808 258.102 184.756C258.529 181.23 256.854 178.661 256.418 178.032C257.639 176.328 259.08 174.526 260.776 172.703C264.614 168.576 268.563 165.63 271.899 163.553" fill="#8EE897"/>
<path d="M262.073 129.046C265.077 129.174 275.975 130.005 284.935 138.659C296.16 149.5 295.417 163.997 295.268 166.911C295.071 170.749 294.806 175.929 291.345 180.936C285.986 188.691 276.088 190.731 272.033 191.419C265.102 192.594 259.21 191.469 255.422 190.349C256.012 189.74 257.733 187.808 258.102 184.756C258.529 181.23 256.854 178.661 256.418 178.032C257.639 176.328 259.08 174.526 260.776 172.703C264.614 168.576 268.563 165.63 271.899 163.553" stroke="black" stroke-miterlimit="10" stroke-linecap="round" stroke-linejoin="round"/>
<path d="M261.43 121.438C261.502 123.294 261.575 125.15 261.647 127.007C261.689 128.085 261.254 129.131 260.442 129.843C259.464 130.701 258.15 131.647 256.473 132.399C254.371 133.342 250.904 134.898 247.8 133.265C245.865 132.246 244.883 130.415 244.405 129.176C244.222 128.7 244.152 128.189 244.184 127.68C244.328 125.433 244.473 123.186 244.617 120.939C250.222 121.105 255.826 121.272 261.43 121.438Z" fill="#EC9B48" stroke="black" stroke-miterlimit="10" stroke-linecap="round" stroke-linejoin="round"/>
<path d="M264.01 105.204C264.836 103.897 266.189 103.112 267.505 103.241C269.563 103.444 271.06 105.84 270.609 107.984C270.176 110.044 268.021 111.516 265.711 111.112C264.644 120.28 260.02 127.38 253.995 128.794C251.128 129.467 248.647 128.688 248.157 128.526C241.541 126.343 239.348 118.199 238.405 114.707C237.711 112.136 237.444 109.682 237.437 107.434C237.409 98.6305 245.07 91.5947 253.776 92.9081C256.091 93.2575 258.182 94.1578 259.827 95.5747C263.504 98.7438 263.936 103.63 264.01 105.204Z" fill="#EC9B48" stroke="black" stroke-miterlimit="10" stroke-linecap="round" stroke-linejoin="round"/>
<path d="M267.83 106.268C267.203 106.177 266.583 106.475 266.267 107.016C265.965 107.534 265.995 108.187 266.343 108.683" stroke="black" stroke-miterlimit="10" stroke-linecap="round" stroke-linejoin="round"/>
<path d="M267.396 107.828C267.045 108.113 266.694 108.398 266.343 108.683L267.396 107.828Z" fill="white"/>
<path d="M267.396 107.828C267.045 108.113 266.694 108.398 266.343 108.683" stroke="black" stroke-miterlimit="10" stroke-linecap="round" stroke-linejoin="round"/>
<path d="M250.597 108.627L252.992 108.258C253.46 108.186 253.784 107.744 253.712 107.276C253.639 106.808 253.198 106.484 252.73 106.556L250.335 106.925C249.868 106.997 249.544 107.439 249.616 107.907C249.687 108.375 250.129 108.699 250.597 108.627Z" fill="black"/>
<path d="M240.778 110.043L243.172 109.674C243.64 109.602 243.964 109.16 243.892 108.692C243.82 108.224 243.378 107.9 242.91 107.972L240.516 108.341C240.048 108.413 239.724 108.855 239.796 109.323C239.868 109.791 240.31 110.115 240.778 110.043Z" fill="black"/>
<path d="M242.072 112.156C242.466 112.156 242.785 111.837 242.785 111.444C242.785 111.05 242.466 110.731 242.072 110.731C241.679 110.731 241.36 111.05 241.36 111.444C241.36 111.837 241.679 112.156 242.072 112.156Z" fill="black"/>
<path d="M249.347 121.591C249.835 121.48 250.747 121.204 251.647 120.469C252.633 119.665 253.093 118.73 253.286 118.26" stroke="black" stroke-miterlimit="10" stroke-linecap="round" stroke-linejoin="round"/>
<path d="M252.029 110.677C252.422 110.677 252.741 110.358 252.741 109.965C252.741 109.572 252.422 109.253 252.029 109.253C251.635 109.253 251.317 109.572 251.317 109.965C251.317 110.358 251.635 110.677 252.029 110.677Z" fill="black"/>
<path d="M264.929 104.824C264.982 104.313 264.728 103.897 264.398 103.814C264.185 103.761 263.988 103.857 263.9 103.909C260.654 114.234 257.948 116.565 256.023 116.656C255.322 116.689 250.91 116.612 248.769 117.263C248.425 117.368 246.993 117.821 245.013 118.327C242.446 118.981 242.049 118.937 241.823 118.894C239.642 118.469 238.558 115.149 238.179 113.77C237.485 120.399 239.851 126.482 244.405 129.176C246.996 130.708 249.803 130.854 250.683 130.872C250.683 130.872 255.538 130.972 259.962 127.61C265.431 123.453 267.458 114.361 264.929 104.824ZM254.126 119.643C252.846 121.271 251.086 122.521 248.982 122.694C247.104 122.848 247.121 119.924 248.982 119.771C250.259 119.666 251.319 118.518 252.06 117.577C252.55 116.953 253.619 117.07 254.126 117.577C254.731 118.181 254.614 119.024 254.126 119.643Z" fill="black" stroke="black" stroke-miterlimit="10" stroke-linecap="round" stroke-linejoin="round"/>
<path d="M246.444 110.367C245.86 110.876 243.667 112.903 243.773 115.669C243.793 116.208 243.815 117.074 244.428 117.73C245.318 118.68 246.878 118.596 247.848 118.256C249.233 117.77 249.878 116.601 250.045 116.272" fill="#EC9B48"/>
<path d="M246.444 110.367C245.86 110.876 243.667 112.903 243.773 115.669C243.793 116.208 243.815 117.074 244.428 117.73C245.318 118.68 246.878 118.596 247.848 118.256C249.233 117.77 249.878 116.601 250.045 116.272" stroke="black" stroke-miterlimit="10" stroke-linecap="round" stroke-linejoin="round"/>
<path d="M240.267 216.002C242.815 216.799 246.528 217.621 251.02 217.469C253.684 217.379 255.996 216.967 257.864 216.491" fill="white"/>
<path d="M240.267 216.002C242.815 216.799 246.528 217.621 251.02 217.469C253.684 217.379 255.996 216.967 257.864 216.491" stroke="black" stroke-miterlimit="10" stroke-linecap="round" stroke-linejoin="round"/>
<path d="M248.25 223.552C248.366 221.521 248.483 219.49 248.599 217.459L248.25 223.552Z" fill="white"/>
<path d="M248.25 223.552C248.366 221.521 248.483 219.49 248.599 217.459" stroke="black" stroke-miterlimit="10" stroke-linecap="round" stroke-linejoin="round"/>
<path d="M233.46 147.139C232.998 150.888 232.028 155.644 229.951 160.854C228.664 164.084 227.206 166.85 225.805 169.146" stroke="black" stroke-miterlimit="10" stroke-linecap="round" stroke-linejoin="round"/>
<path d="M246.005 149.583C246.076 150.647 246.147 151.71 246.218 152.773L246.005 149.583Z" fill="#EBF17A"/>
<path d="M246.005 149.583C246.076 150.647 246.147 151.71 246.218 152.773" stroke="black" stroke-miterlimit="10" stroke-linecap="round" stroke-linejoin="round"/>
<path d="M263.654 145.118C262.661 146.04 261.669 146.961 260.677 147.883L263.654 145.118Z" fill="#EBF17A"/>
<path d="M263.654 145.118C262.661 146.04 261.669 146.961 260.677 147.883" stroke="black" stroke-miterlimit="10" stroke-linecap="round" stroke-linejoin="round"/>
<path d="M278.964 151.285C278.609 152.49 278.255 153.695 277.901 154.9L278.964 151.285Z" fill="#EBF17A"/>
<path d="M278.964 151.285C278.609 152.49 278.255 153.695 277.901 154.9" stroke="black" stroke-miterlimit="10" stroke-linecap="round" stroke-linejoin="round"/>
<path d="M269.594 197.926C270.467 196.685 271.339 195.445 272.212 194.204L269.594 197.926Z" fill="#EBF17A"/>
<path d="M269.594 197.926C270.467 196.685 271.339 195.445 272.212 194.204" stroke="black" stroke-miterlimit="10" stroke-linecap="round" stroke-linejoin="round"/>
<path d="M251.753 200.613C250.555 199.682 249.357 198.752 248.159 197.821L251.753 200.613Z" fill="#EBF17A"/>
<path d="M251.753 200.613C250.555 199.682 249.357 198.752 248.159 197.821" stroke="black" stroke-miterlimit="10" stroke-linecap="round" stroke-linejoin="round"/>
<path d="M238.925 168.016C240.246 167.272 241.568 166.528 242.89 165.784L238.925 168.016Z" fill="#EBF17A"/>
<path d="M238.925 168.016C240.246 167.272 241.568 166.528 242.89 165.784" stroke="black" stroke-miterlimit="10" stroke-linecap="round" stroke-linejoin="round"/>
<path d="M217.727 160.11C219.049 159.366 220.37 158.622 221.692 157.877L217.727 160.11Z" fill="#EBF17A"/>
<path d="M217.727 160.11C219.049 159.366 220.37 158.622 221.692 157.877" stroke="black" stroke-miterlimit="10" stroke-linecap="round" stroke-linejoin="round"/>
<path d="M210.016 188.938L204.706 188.752L203.449 224.774L208.758 224.959L210.016 188.938Z" fill="#EBF17A" stroke="black" stroke-miterlimit="10" stroke-linecap="round" stroke-linejoin="round"/>
<path d="M244.019 190.51L238.709 190.325L237.451 226.346L242.761 226.532L244.019 190.51Z" fill="#EBF17A" stroke="black" stroke-miterlimit="10" stroke-linecap="round" stroke-linejoin="round"/>
<path d="M201.161 169.801C200.984 178.095 200.803 186.558 200.618 195.194C200.59 196.516 201.741 197.626 203.211 197.691C217.532 198.321 232.021 198.958 246.681 199.603C248.236 199.671 249.483 198.602 249.458 197.224C249.29 188.244 249.126 179.45 248.965 170.838C248.94 169.549 247.701 168.477 246.204 168.445C231.928 168.146 217.809 167.85 203.845 167.556C202.393 167.526 201.188 168.533 201.161 169.801Z" fill="#EBF17A" stroke="black" stroke-miterlimit="10" stroke-linecap="round" stroke-linejoin="round"/>
<path d="M256.418 178.032C250.3 173.735 246.683 172.109 245.569 173.153C244.948 173.735 245.105 175.149 246.041 177.392C242.867 176.639 240.508 176.833 240.118 177.792C239.758 178.676 241.138 180.06 241.702 180.585C240.382 180.32 239.157 180.643 238.803 181.33C238.357 182.192 239.103 183.968 241.143 184.793C240.612 185.586 240.524 186.202 240.623 186.68C241.364 190.247 253.438 190.345 255.422 190.349C256.012 189.74 257.733 187.808 258.103 184.756C258.529 181.23 256.855 178.662 256.418 178.032Z" fill="#EC9B48" stroke="black" stroke-miterlimit="10" stroke-linecap="round" stroke-linejoin="round"/>
<path d="M245.738 182.423C245.19 182.304 244.539 182.117 243.834 181.814C242.94 181.431 242.23 180.979 241.702 180.585" fill="white"/>
<path d="M245.738 182.423C245.19 182.304 244.539 182.117 243.834 181.814C242.94 181.431 242.23 180.979 241.702 180.585" stroke="black" stroke-miterlimit="10" stroke-linecap="round" stroke-linejoin="round"/>
<path d="M245.52 185.784C244.861 185.732 244.101 185.631 243.27 185.442C242.46 185.257 241.748 185.026 241.143 184.793" fill="white"/>
<path d="M245.52 185.784C244.861 185.732 244.101 185.631 243.27 185.442C242.46 185.257 241.748 185.026 241.143 184.793" stroke="black" stroke-miterlimit="10" stroke-linecap="round" stroke-linejoin="round"/>
<path d="M229.664 248.996L230.534 224.1L238.829 224.39L237.96 249.286" fill="#EBF17A"/>
<path d="M229.664 248.996L230.534 224.1L238.829 224.39L237.96 249.286" stroke="black" stroke-miterlimit="10" stroke-linecap="round" stroke-linejoin="round"/>
<path d="M201.394 246.903L202.263 222.007L210.559 222.297L209.69 247.192" fill="#EBF17A"/>
<path d="M201.394 246.903L202.263 222.007L210.559 222.297L209.69 247.192" stroke="black" stroke-miterlimit="10" stroke-linecap="round" stroke-linejoin="round"/>
<path d="M199.405 184.915C200.292 185.716 202.046 186.364 202.949 185.47C203.626 184.801 203.667 183.423 202.879 182.246C203.655 181.617 204.046 180.655 203.886 179.729C203.723 178.79 203.057 178.252 202.879 178.117C203.989 177.44 204.661 176.343 204.49 175.399C204.201 173.805 201.541 172.811 200.16 173.888C199.408 174.474 199.116 175.611 199.354 176.758C199.108 177.023 198.552 177.688 198.348 178.722C198.153 179.704 198.379 180.494 198.498 180.836C198.02 182.389 198.368 183.979 199.405 184.915Z" fill="#EC9B48" stroke="black" stroke-miterlimit="10" stroke-linecap="round" stroke-linejoin="round"/>
<path d="M199.354 176.758C199.532 177.008 200.108 177.754 201.167 178.067C201.921 178.29 202.564 178.189 202.879 178.117" stroke="black" stroke-miterlimit="10" stroke-linecap="round" stroke-linejoin="round"/>
<path d="M198.498 180.837C198.787 181.159 199.575 181.949 200.865 182.246C201.734 182.447 202.466 182.34 202.879 182.246" stroke="black" stroke-miterlimit="10" stroke-linecap="round" stroke-linejoin="round"/>
<path d="M243.339 238.722C243.446 232.99 243.552 227.257 243.658 221.525L243.339 238.722Z" fill="white"/>
<path d="M243.339 238.722C243.446 232.99 243.552 227.257 243.658 221.525" stroke="black" stroke-miterlimit="10" stroke-linecap="round" stroke-linejoin="round"/>
<path d="M185.667 236.693C191.862 230.648 198.057 224.604 204.251 218.559C217.177 219.089 230.103 219.619 243.03 220.149C245.402 226.652 247.774 233.154 250.147 239.657C228.654 238.669 207.16 237.681 185.667 236.693Z" fill="#EBF17A" stroke="black" stroke-miterlimit="10" stroke-linecap="round" stroke-linejoin="round"/>
<path d="M190.001 251.328V239.657H198.302V251.328" fill="#EBF17A"/>
<path d="M190.001 251.328V239.657H198.302V251.328" stroke="black" stroke-miterlimit="10" stroke-linecap="round" stroke-linejoin="round"/>
<path d="M236.475 253.375L236.882 241.711L245.177 242.001L244.77 253.664" fill="#EBF17A"/>
<path d="M236.475 253.375L236.882 241.711L245.177 242.001L244.77 253.664" stroke="black" stroke-miterlimit="10" stroke-linecap="round" stroke-linejoin="round"/>
<path d="M185.667 236.693C185.71 238.448 185.753 240.203 185.797 241.958C207.119 242.894 228.441 243.831 249.763 244.767C249.891 243.064 250.019 241.361 250.147 239.658C228.654 238.669 207.16 237.681 185.667 236.693Z" fill="#EBF17A" stroke="black" stroke-miterlimit="10" stroke-linecap="round" stroke-linejoin="round"/>
<g filter="url(#filter2_d_247_3)">
<path d="M18.9229 238.856L18.7929 231.731C18.7237 227.952 18.9828 224.144 19.5624 220.411C19.8032 218.859 20.101 217.312 20.4534 215.777L19.6393 215.407L20.1774 210.2C20.6308 205.807 20.9489 201.473 21.1282 197.239C16.6185 197.05 12.6139 195.43 9.77529 192.629C5.18625 188.1 3.79837 180.508 6.07572 172.658C6.54222 168.078 8.7717 153.607 18.7721 143.066C18.2906 136.91 19.2724 130.045 21.5435 124.293C22.0047 123.125 22.4673 122.127 22.8753 121.246C23.6845 119.499 24.2695 118.238 24.7205 115.972C25.0942 114.094 25.0434 113.261 24.9728 112.109C24.8839 110.653 24.7616 108.658 25.4161 105.761C27.4329 96.8325 35.0844 86.9763 45.2921 86.2976C45.6305 86.2748 45.9752 86.2637 46.316 86.2637C47.8687 86.2637 49.4195 86.4959 50.9504 86.957C53.0654 86.3209 55.1798 86 57.2691 86C58.9258 86 60.5641 86.206 62.1395 86.6128C67.7713 88.0666 72.5368 92.0477 75.9202 98.1259C78.053 101.957 79.1165 105.644 79.5603 107.502C80.9878 113.475 80.1534 117.595 79.4824 120.905C78.8791 123.882 78.403 126.234 79.2639 130.785C79.5738 132.421 79.9001 133.498 80.2462 134.637C80.5286 135.568 80.8307 136.563 81.0782 137.739C89.9309 144.657 95.2016 156.485 95.3664 170.116C95.524 171.786 95.596 173.447 95.5801 175.057C95.582 178.85 95.0416 188.176 90.0614 193.927C88.4555 195.783 86.7259 196.954 85.9703 197.418C86.3677 201.231 86.8757 205.445 87.4882 210.012C88.5416 214.042 89.4277 218.158 90.1233 222.253C90.6101 225.121 91.0148 228.041 91.3256 230.933L92.1923 239L18.9229 238.856Z" fill="white"/>
</g>
<path d="M41.7281 209.595L38.3122 207.623C38.1758 207.544 38.1289 207.37 38.2077 207.233L40.1798 203.818C40.2587 203.681 40.4329 203.634 40.5693 203.713L43.9851 205.685C44.1216 205.764 44.1685 205.938 44.0896 206.075L42.1176 209.491C42.0387 209.627 41.8645 209.674 41.7281 209.595Z" stroke="black" stroke-miterlimit="10" stroke-linecap="round" stroke-linejoin="round"/>
<path d="M35.0183 128.545C35.3662 128.389 36.4838 127.835 37.1341 126.537C37.9972 124.815 37.3479 123.159 37.2425 122.902C37.2444 123.076 37.2996 125.062 38.9243 126.103C39.8377 126.689 40.7769 126.673 41.1484 126.645C40.7831 126.914 40.1392 127.464 39.6839 128.381C39.0467 129.665 39.1783 130.865 39.2499 131.311C39.2925 131.575 38.7941 129.601 37.5681 128.815C36.7282 128.277 35.701 128.391 35.0183 128.545Z" stroke="black" stroke-miterlimit="10" stroke-linecap="round" stroke-linejoin="round"/>
<path d="M43.5279 181.036C44.8418 181.036 45.9069 179.971 45.9069 178.657C45.9069 177.343 44.8418 176.278 43.5279 176.278C42.214 176.278 41.1489 177.343 41.1489 178.657C41.1489 179.971 42.214 181.036 43.5279 181.036Z" stroke="black" stroke-miterlimit="10" stroke-linecap="round" stroke-linejoin="round"/>
<path d="M62.725 137.602C68.3843 138.005 72.284 139.857 74.6238 141.308C84.7586 147.593 89.6869 161.269 87.7942 176.224C84.7678 176.148 81.0002 175.745 76.832 174.55C74.7917 173.964 72.9614 173.277 71.3507 172.57" fill="#D800FC"/>
<path d="M62.725 137.602C68.3843 138.005 72.284 139.857 74.6238 141.308C84.7586 147.593 89.6869 161.269 87.7942 176.224C84.7678 176.148 81.0002 175.745 76.832 174.55C74.7917 173.964 72.9614 173.277 71.3507 172.57" stroke="black" stroke-miterlimit="10" stroke-linecap="round" stroke-linejoin="round"/>
<path d="M79.66 188.448C80.8401 188.554 81.7792 188.373 82.5272 188.08C86.944 186.346 89.1237 178.964 88.1894 169.736C84.9023 170.616 81.6156 171.497 78.3285 172.377C77.743 173.784 77.0831 175.871 76.9878 178.453C76.8083 183.284 78.7151 186.9 79.66 188.448Z" fill="#FACDC2" stroke="black" stroke-miterlimit="10" stroke-linecap="round" stroke-linejoin="round"/>
<path d="M26.0596 230.692C26.0079 227.849 26.153 224.444 26.7447 220.643C27.3369 216.838 28.2354 213.547 29.1503 210.852C46.2344 210.728 63.3184 210.604 80.403 210.48C81.3905 214.187 82.2986 218.23 83.0403 222.584C83.5266 225.44 83.9001 228.186 84.1822 230.806" fill="white"/>
<path d="M26.0596 230.692C26.0079 227.849 26.153 224.444 26.7447 220.643C27.3369 216.838 28.2354 213.547 29.1503 210.852C46.2344 210.728 63.3184 210.604 80.403 210.48C81.3905 214.187 82.2986 218.23 83.0403 222.584C83.5266 225.44 83.9001 228.186 84.1822 230.806" stroke="black" stroke-miterlimit="10" stroke-linecap="round" stroke-linejoin="round"/>
<path d="M74.6193 156.901C75.9131 158.458 77.6611 160.996 78.4333 164.433C79.3057 168.316 78.5204 171.51 78.3288 172.378C77.3297 176.899 77.246 187.049 80.4141 210.48C76.2566 212.405 70.9625 214.308 64.665 215.351C47.756 218.153 33.9335 213.048 27.4076 210.085C28.6646 197.95 28.696 188.467 28.4555 181.796C28.4154 180.687 27.8856 164.345 30.9124 153.273C31.074 152.682 31.226 152.178 31.3605 151.744C33.3626 145.291 35.9574 140.245 37.9667 136.833C48.5108 136.539 59.0545 136.244 69.5986 135.95" fill="#D800FC"/>
<path d="M74.6193 156.901C75.9131 158.458 77.6611 160.996 78.4333 164.433C79.3057 168.316 78.5204 171.51 78.3288 172.378C77.3297 176.899 77.246 187.049 80.4141 210.48C76.2566 212.405 70.9625 214.308 64.665 215.351C47.756 218.153 33.9335 213.048 27.4076 210.085C28.6646 197.95 28.696 188.467 28.4555 181.796C28.4154 180.687 27.8856 164.345 30.9124 153.273C31.074 152.682 31.226 152.178 31.3605 151.744C33.3626 145.291 35.9574 140.245 37.9667 136.833C48.5108 136.539 59.0545 136.244 69.5986 135.95" stroke="black" stroke-miterlimit="10" stroke-linecap="round" stroke-linejoin="round"/>
<path d="M50.0364 94.497C52.1386 93.45 56.0881 91.9157 60.3773 93.0198C69.2237 95.2967 72.175 106.904 72.565 108.531C74.7389 117.603 70.0065 119.892 72.1953 131.429C73.1615 136.522 74.3557 137.51 74.4113 142.14C74.5042 149.866 71.2978 156.991 69.0563 156.913C67.8917 156.872 67.8351 154.917 65.3627 153.773C63.1579 152.754 61.9885 153.854 60.7465 152.85C58.9055 151.363 59.5766 147.483 59.8591 145.849C60.3517 143.001 61.2971 142.252 61.2864 139.612C61.2796 137.948 60.8984 136.725 60.6555 135.933C57.6659 126.171 58.4657 125.533 55.9449 119.611C54.6246 116.51 52.5983 112.44 49.4819 107.977C49.6668 103.484 49.8516 98.9908 50.0364 94.497Z" fill="#EBF17A" stroke="black" stroke-miterlimit="10" stroke-linecap="round" stroke-linejoin="round"/>
<path d="M44.2433 138.443C40.6107 138.559 36.3757 139.288 32.1282 141.365C15.4385 149.528 13.3923 171.266 13.2336 173.276C16.3108 174.291 21.5478 175.508 27.7578 174.391C29.9026 174.006 31.7774 173.411 33.3562 172.774" fill="#D800FC"/>
<path d="M44.2433 138.443C40.6107 138.559 36.3757 139.288 32.1282 141.365C15.4385 149.528 13.3923 171.266 13.2336 173.276C16.3108 174.291 21.5478 175.508 27.7578 174.391C29.9026 174.006 31.7774 173.411 33.3562 172.774" stroke="black" stroke-miterlimit="10" stroke-linecap="round" stroke-linejoin="round"/>
<path d="M64.0086 126.688C63.6216 128.31 63.2921 130.124 63.0908 132.111C62.6413 136.555 62.9805 140.432 63.5078 143.457" stroke="black" stroke-miterlimit="10" stroke-linecap="round" stroke-linejoin="round"/>
<path d="M70.0161 130.61C69.9178 132.338 69.7809 134.119 69.599 135.949C69.2434 139.523 68.7538 142.893 68.1809 146.044" stroke="black" stroke-miterlimit="10" stroke-linecap="round" stroke-linejoin="round"/>
<path d="M56.5415 95.7747C57.9243 96.0383 59.6521 96.5396 61.464 97.5266C66.2699 100.145 68.4442 104.423 69.2232 106.203" stroke="black" stroke-miterlimit="10" stroke-linecap="round" stroke-linejoin="round"/>
<path d="M50.4833 93.9032C49.3497 93.3589 47.7173 92.7913 45.8052 92.9181C39.4307 93.3414 33.9629 100.292 32.51 106.706C31.6139 110.662 32.9164 111.382 31.8525 116.714C30.9627 121.173 29.5751 123.057 28.3036 126.269C24.1349 136.797 25.8796 149.802 30.0483 151.271C31.9231 151.932 33.6673 150.031 35.4648 151.271C36.925 152.279 36.3763 153.924 38.1732 156.442C39.1593 157.824 41.0883 159.799 42.1126 159.397C42.5509 159.225 43.0106 158.504 42.3589 150.779C41.9075 145.43 41.3085 141.308 43.1364 138.568C43.1683 138.52 43.4659 138.094 44.0605 137.241C46.7351 133.408 46.8919 133.236 47.0482 132.92C47.6433 131.722 47.7618 129.413 44.3285 124.681C47.201 120.823 50.0736 116.966 52.9461 113.108C53.4797 112.623 53.9002 112.109 54.2316 111.588C58.1903 105.355 51.2962 95.0852 50.4833 93.9032Z" fill="#EBF17A" stroke="black" stroke-miterlimit="10" stroke-linecap="round" stroke-linejoin="round"/>
<path d="M46.2083 97.8997C44.7631 98.3859 43.0649 99.1552 41.3696 100.403C35.7174 104.562 34.3095 110.937 33.9442 113" stroke="black" stroke-miterlimit="10" stroke-linecap="round" stroke-linejoin="round"/>
<path d="M34.6531 119.074C34.2317 120.628 33.8591 122.298 33.5684 124.08C32.5126 130.55 32.8958 136.284 33.6516 140.766" stroke="black" stroke-miterlimit="10" stroke-linecap="round" stroke-linejoin="round"/>
<path d="M38.9085 123.079C38.43 124.87 38.0125 126.88 37.7406 129.086C37.0772 134.461 37.5059 139.133 38.1576 142.685" stroke="black" stroke-miterlimit="10" stroke-linecap="round" stroke-linejoin="round"/>
<path d="M43.1355 138.568C44.4912 142.983 48.5776 145.89 52.8924 145.674C56.526 145.491 59.8025 143.119 61.2864 139.612C61.0237 138.517 60.7963 137.286 60.6555 135.933C60.3874 133.359 60.5094 131.091 60.7503 129.266C55.5099 127.516 50.2696 125.767 45.0287 124.018C45.5648 125.172 47.2214 129.119 45.8338 133.725C45.1526 135.989 43.9788 137.602 43.1355 138.568Z" fill="#FACDC2" stroke="black" stroke-miterlimit="10" stroke-linecap="round" stroke-linejoin="round"/>
<path d="M66.5159 114.834C67.5663 114.013 68.8925 113.767 69.923 114.254C71.5356 115.016 72.0557 117.396 71.0677 119.006C70.1189 120.553 67.9412 121.124 66.183 120.125C66.1419 125.51 63.282 130.184 58.9231 132.083C58.3682 132.325 54.8178 133.807 50.8538 132.387C46.1345 130.698 42.887 125.633 42.8377 119.691C41.1907 120.096 39.5264 119.626 38.6729 118.486C37.2683 116.609 38.3816 113.348 40.3169 112.787C41.5884 112.418 42.8512 113.32 43.1599 113.553C44.9835 112.744 47.4776 111.346 49.6665 108.888C52.8927 105.265 52.9836 102.064 55.0399 101.534C56.4033 101.183 58.7833 101.963 63.0782 108.172C64.2244 110.392 65.3702 112.613 66.5159 114.834Z" fill="#FACDC2" stroke="black" stroke-miterlimit="10" stroke-linecap="round" stroke-linejoin="round"/>
<path d="M69.3096 116.807C68.8267 116.551 68.2364 116.612 67.8232 116.96C67.4279 117.293 67.2625 117.832 67.4008 118.336" stroke="black" stroke-miterlimit="10" stroke-linecap="round" stroke-linejoin="round"/>
<path d="M68.504 117.948C68.1363 118.077 67.7686 118.207 67.4009 118.336L68.504 117.948Z" fill="white"/>
<path d="M68.504 117.948C68.1363 118.077 67.7686 118.207 67.4009 118.336" stroke="black" stroke-miterlimit="10" stroke-linecap="round" stroke-linejoin="round"/>
<path d="M52.5191 115.955C52.8902 115.955 53.1911 115.654 53.1911 115.283C53.1911 114.912 52.8902 114.611 52.5191 114.611C52.1479 114.611 51.847 114.912 51.847 115.283C51.847 115.654 52.1479 115.955 52.5191 115.955Z" fill="black"/>
<path d="M53.0483 123.507C53.4204 123.797 54.1655 124.3 55.2396 124.521C56.4143 124.763 57.3723 124.542 57.831 124.405" stroke="black" stroke-miterlimit="10" stroke-linecap="round" stroke-linejoin="round"/>
<path d="M62.1256 115.156C62.0555 115.52 62.294 115.873 62.6583 115.943C63.0227 116.013 63.3749 115.774 63.4455 115.41C63.5157 115.046 63.2772 114.693 62.9128 114.623C62.548 114.553 62.1958 114.791 62.1256 115.156Z" fill="black"/>
<path d="M39.9955 115.964C40.4783 115.708 41.0686 115.769 41.4818 116.117C41.8771 116.45 42.0426 116.989 41.9042 117.493" stroke="black" stroke-miterlimit="10" stroke-linecap="round" stroke-linejoin="round"/>
<path d="M40.801 117.104C41.1687 117.234 41.5364 117.363 41.9041 117.493L40.801 117.104Z" fill="white"/>
<path d="M40.801 117.104C41.1687 117.234 41.5364 117.363 41.9041 117.493" stroke="black" stroke-miterlimit="10" stroke-linecap="round" stroke-linejoin="round"/>
<path d="M57.4501 117.68C57.5439 117.636 58.3665 117.268 59.173 117.705C59.8934 118.095 60.1857 118.903 60.1276 119.541C60.0386 120.52 59.0951 121.387 57.8512 121.45" stroke="black" stroke-miterlimit="10" stroke-linecap="round" stroke-linejoin="round"/>
<path d="M50.6169 113.494C50.8497 113.341 51.3282 113.072 51.9871 113.023C52.9659 112.949 53.6762 113.411 53.8886 113.56" stroke="black" stroke-miterlimit="10" stroke-linecap="round" stroke-linejoin="round"/>
<path d="M61.0165 113.767C61.2492 113.614 61.7277 113.345 62.3867 113.296C63.3655 113.222 64.0758 113.684 64.2882 113.833" stroke="black" stroke-miterlimit="10" stroke-linecap="round" stroke-linejoin="round"/>
<path d="M32.538 158.127C31.2442 159.685 29.4962 162.223 28.724 165.66C27.8439 169.577 28.6509 172.794 28.8285 173.605C29.1072 174.876 29.232 176.592 29.1014 178.929" fill="#D800FC"/>
<path d="M32.538 158.127C31.2442 159.685 29.4962 162.223 28.724 165.66C27.8439 169.577 28.6509 172.794 28.8285 173.605C29.1072 174.876 29.232 176.592 29.1014 178.929" stroke="black" stroke-miterlimit="10" stroke-linecap="round" stroke-linejoin="round"/>
<path d="M52.0887 124.064C52.4482 123.693 52.8082 123.321 53.1682 122.949" stroke="black" stroke-miterlimit="10" stroke-linecap="round" stroke-linejoin="round"/>
<path d="M52.8929 145.674C53.6927 169.169 54.4925 192.664 55.2918 216.159L52.8929 145.674Z" fill="#EBF17A"/>
<path d="M52.8929 145.674C53.6927 169.169 54.4925 192.664 55.2918 216.159" stroke="black" stroke-miterlimit="10" stroke-linecap="round" stroke-linejoin="round"/>
<path d="M27.1532 184.47L54.239 201.054C55.1201 201.593 56.2725 201.306 56.797 200.416C57.7811 198.745 58.7652 197.074 59.7493 195.404C50.901 189.787 42.0532 184.17 33.205 178.553C31.1879 180.526 29.1703 182.498 27.1532 184.47Z" fill="white" stroke="black" stroke-miterlimit="10" stroke-linecap="round" stroke-linejoin="round"/>
<path d="M49.7103 156.198C43.5898 165.424 37.4693 174.649 31.3489 183.875C40.0027 189.003 48.656 194.132 57.3098 199.26C58.1337 199.749 59.1982 199.465 59.6694 198.631C64.3989 190.262 69.1288 181.892 73.8582 173.523C74.3053 172.732 74.0552 171.73 73.2893 171.241C65.4294 166.227 57.5701 161.212 49.7103 156.198Z" fill="#8EE897" stroke="black" stroke-miterlimit="10" stroke-linecap="round" stroke-linejoin="round"/>
<path d="M49.7105 156.198C49.3791 156.091 48.1637 155.739 46.7857 156.292C45.2761 156.898 44.6428 158.159 44.5064 158.448C38.7217 167.122 32.9375 175.797 27.1533 184.471C27.4189 184.239 28.2226 183.6 29.4317 183.514C30.3263 183.45 31.0182 183.719 31.3491 183.875C37.4696 174.649 43.59 165.424 49.7105 156.198Z" fill="#8EE897" stroke="black" stroke-miterlimit="10" stroke-linecap="round" stroke-linejoin="round"/>
<path d="M52.3164 165.478C50.9723 167.483 49.6283 169.488 48.2842 171.493C52.4698 174.149 56.6549 176.806 60.8406 179.462C62.1048 177.417 63.3691 175.372 64.6333 173.327C60.5275 170.711 56.4217 168.094 52.3164 165.478Z" stroke="black" stroke-miterlimit="10" stroke-linecap="round" stroke-linejoin="round"/>
<path d="M42.0013 162.252C42.101 162.117 42.7387 161.284 43.8902 161.174C44.883 161.079 45.5885 161.586 45.751 161.709" stroke="black" stroke-miterlimit="10" stroke-linecap="round" stroke-linejoin="round"/>
<path d="M43.5888 165.425C43.3953 165.228 42.971 164.853 42.3231 164.706C41.0618 164.421 40.069 165.257 39.949 165.361" stroke="black" stroke-miterlimit="10" stroke-linecap="round" stroke-linejoin="round"/>
<path d="M35.62 177.437C35.3219 177.27 34.8212 177.043 34.1685 176.99C32.9691 176.892 32.0817 177.447 31.7948 177.645" stroke="black" stroke-miterlimit="10" stroke-linecap="round" stroke-linejoin="round"/>
<path d="M33.4555 179.938C33.1894 179.825 32.8183 179.709 32.3679 179.685C31.2507 179.627 30.4292 180.182 30.1466 180.394" stroke="black" stroke-miterlimit="10" stroke-linecap="round" stroke-linejoin="round"/>
<path d="M48.7831 225.896C50.8374 225.979 53.0519 225.991 55.4062 225.896C57.5099 225.811 59.4936 225.649 61.3443 225.439" fill="white"/>
<path d="M48.7831 225.896C50.8374 225.979 53.0519 225.991 55.4062 225.896C57.5099 225.811 59.4936 225.649 61.3443 225.439" stroke="black" stroke-miterlimit="10" stroke-linecap="round" stroke-linejoin="round"/>
<path d="M55.5202 232.062C55.482 230.007 55.4442 227.952 55.406 225.896L55.5202 232.062Z" fill="white"/>
<path d="M55.5202 232.062C55.482 230.007 55.4442 227.952 55.406 225.896" stroke="black" stroke-miterlimit="10" stroke-linecap="round" stroke-linejoin="round"/>
<path d="M77.941 179.815C76.9418 179.906 75.9427 179.997 74.9441 180.088C70.2302 176.039 67.4046 174.383 66.4684 175.122C65.881 175.586 66.0373 176.992 66.9372 179.34C63.7802 178.59 61.4327 178.784 61.0441 179.737C60.6856 180.618 62.0592 181.994 62.62 182.517C61.3069 182.253 60.0881 182.575 59.7349 183.259C59.2917 184.117 60.0344 185.884 62.0636 186.704C61.5227 187.501 61.4361 188.112 61.5464 188.581C62.305 191.816 73.198 191.725 76.0337 191.667C77.2264 191.787 79.7171 191.86 82.1638 190.441C82.1638 190.441 83.4982 189.668 84.6527 188.338C88.3385 184.093 88.3999 175.353 88.3985 174.23" fill="#FACDC2"/>
<path d="M77.941 179.815C76.9418 179.906 75.9427 179.997 74.9441 180.088C70.2302 176.039 67.4046 174.383 66.4684 175.122C65.881 175.586 66.0373 176.992 66.9372 179.34C63.7802 178.59 61.4327 178.784 61.0441 179.737C60.6856 180.618 62.0592 181.994 62.62 182.517C61.3069 182.253 60.0881 182.575 59.7349 183.259C59.2917 184.117 60.0344 185.884 62.0636 186.704C61.5227 187.501 61.4361 188.112 61.5464 188.581C62.305 191.816 73.198 191.725 76.0337 191.667C77.2264 191.787 79.7171 191.86 82.1638 190.441C82.1638 190.441 83.4982 189.668 84.6527 188.338C88.3385 184.093 88.3999 175.353 88.3985 174.23" stroke="black" stroke-miterlimit="10" stroke-linecap="round" stroke-linejoin="round"/>
<path d="M66.6354 184.345C66.0906 184.227 65.4423 184.041 64.7403 183.74C63.851 183.358 63.1446 182.908 62.6191 182.517" fill="#FACDC2"/>
<path d="M66.6354 184.345C66.0906 184.227 65.4423 184.041 64.7403 183.74C63.851 183.358 63.1446 182.908 62.6191 182.517" stroke="black" stroke-miterlimit="10" stroke-linecap="round" stroke-linejoin="round"/>
<path d="M66.419 187.689C65.7635 187.638 65.0072 187.537 64.1804 187.349C63.3743 187.165 62.6655 186.935 62.0636 186.704" fill="#FACDC2"/>
<path d="M66.419 187.689C65.7635 187.638 65.0072 187.537 64.1804 187.349C63.3743 187.165 62.6655 186.935 62.0636 186.704" stroke="black" stroke-miterlimit="10" stroke-linecap="round" stroke-linejoin="round"/>
<path d="M33.3556 172.774C39.1078 167.068 42.4966 164.59 43.5233 165.341C44.0918 165.757 43.9355 167.163 43.0545 169.559C46.2115 168.809 48.559 169.003 48.9475 169.957C49.306 170.837 47.9325 172.214 47.3717 172.736C48.6848 172.472 49.9036 172.794 50.2568 173.478C50.6999 174.336 49.9573 176.103 47.9281 176.923C48.5014 177.766 48.5551 178.37 48.4458 178.8C47.69 181.764 37.9051 181.405 36.8464 181.359C29.7777 190.188 19.2045 190.893 14.8684 186.627C11.9403 183.745 11.5972 178.34 13.2336 173.276C15.4964 172.67 18.2504 172.129 21.4074 171.914C26.2191 171.585 30.3176 172.123 33.3556 172.774Z" fill="#FACDC2" stroke="black" stroke-miterlimit="10" stroke-linecap="round" stroke-linejoin="round"/>
<path d="M43.3552 174.565C43.9 174.446 44.5483 174.26 45.2504 173.959C46.1397 173.578 46.8461 173.127 47.3715 172.736" fill="#FACDC2"/>
<path d="M43.3552 174.565C43.9 174.446 44.5483 174.26 45.2504 173.959C46.1397 173.578 46.8461 173.127 47.3715 172.736" stroke="black" stroke-miterlimit="10" stroke-linecap="round" stroke-linejoin="round"/>
<path d="M43.5719 177.908C44.2275 177.858 44.9837 177.756 45.8106 177.568C46.6167 177.384 47.3255 177.154 47.9274 176.923" fill="#FACDC2"/>
<path d="M43.5719 177.908C44.2275 177.858 44.9837 177.756 45.8106 177.568C46.6167 177.384 47.3255 177.154 47.9274 176.923" stroke="black" stroke-miterlimit="10" stroke-linecap="round" stroke-linejoin="round"/>
<defs>
<filter id="filter0_d_247_3" x="94.0002" y="0" width="122" height="132.486" filterUnits="userSpaceOnUse" color-interpolation-filters="sRGB">
<feFlood flood-opacity="0" result="BackgroundImageFix"/>
<feColorMatrix in="SourceAlpha" type="matrix" values="0 0 0 0 0 0 0 0 0 0 0 0 0 0 0 0 0 0 127 0" result="hardAlpha"/>
<feOffset/>
<feGaussianBlur stdDeviation="2.5"/>
<feComposite in2="hardAlpha" operator="out"/>
<feColorMatrix type="matrix" values="0 0 0 0 0 0 0 0 0 0 0 0 0 0 0 0 0 0 0.25 0"/>
<feBlend mode="normal" in2="BackgroundImageFix" result="effect1_dropShadow_247_3"/>
<feBlend mode="normal" in="SourceGraphic" in2="effect1_dropShadow_247_3" result="shape"/>
</filter>
<filter id="filter1_d_247_3" x="174" y="81" width="133" height="184.413" filterUnits="userSpaceOnUse" color-interpolation-filters="sRGB">
<feFlood flood-opacity="0" result="BackgroundImageFix"/>
<feColorMatrix in="SourceAlpha" type="matrix" values="0 0 0 0 0 0 0 0 0 0 0 0 0 0 0 0 0 0 127 0" result="hardAlpha"/>
<feOffset/>
<feGaussianBlur stdDeviation="2.5"/>
<feComposite in2="hardAlpha" operator="out"/>
<feColorMatrix type="matrix" values="0 0 0 0 0 0 0 0 0 0 0 0 0 0 0 0 0 0 0.25 0"/>
<feBlend mode="normal" in2="BackgroundImageFix" result="effect1_dropShadow_247_3"/>
<feBlend mode="normal" in="SourceGraphic" in2="effect1_dropShadow_247_3" result="shape"/>
</filter>
<filter id="filter2_d_247_3" x="0.00012207" y="81" width="100.582" height="163" filterUnits="userSpaceOnUse" color-interpolation-filters="sRGB">
<feFlood flood-opacity="0" result="BackgroundImageFix"/>
<feColorMatrix in="SourceAlpha" type="matrix" values="0 0 0 0 0 0 0 0 0 0 0 0 0 0 0 0 0 0 127 0" result="hardAlpha"/>
<feOffset/>
<feGaussianBlur stdDeviation="2.5"/>
<feComposite in2="hardAlpha" operator="out"/>
<feColorMatrix type="matrix" values="0 0 0 0 0 0 0 0 0 0 0 0 0 0 0 0 0 0 0.25 0"/>
<feBlend mode="normal" in2="BackgroundImageFix" result="effect1_dropShadow_247_3"/>
<feBlend mode="normal" in="SourceGraphic" in2="effect1_dropShadow_247_3" result="shape"/>
</filter>
</defs>
</svg>
