<svg width="272" height="188" viewBox="0 0 272 188" fill="none" xmlns="http://www.w3.org/2000/svg">
<g filter="url(#filter0_d_7_894)">
<path d="M151.915 178.1L151.33 170.291L145.001 169.933L157.608 147.718L153.238 128.508C152.776 126.479 153.256 124.383 154.553 122.757C155.852 121.13 157.788 120.197 159.866 120.197C159.982 120.197 160.098 120.2 160.216 120.206L183.646 121.395C185.054 114.372 187.807 108.153 191.858 102.862C195.449 98.1723 199.235 95.314 201.173 94.0278C203.434 92.5272 205.87 91.276 208.434 90.2982C206.929 88.7058 205.727 86.7997 204.899 84.6763C203.766 84.297 202.764 83.5989 202.016 82.6796C200.821 82.0092 199.817 81.0532 199.096 79.8777C197.872 77.8823 197.563 75.4195 198.247 73.1208C198.651 71.7644 199.388 70.5675 200.362 69.6446C199.792 67.2775 199.682 64.7565 199.925 62.6518C200.649 56.409 204.649 50.7732 210.366 47.9439C212.971 46.6541 215.799 46 218.769 46C222.84 46 226.919 47.2828 230.378 49.6325C232.713 50.1264 236.549 51.4668 239.32 55.0872C242.459 59.1871 243.113 64.7758 241.258 69.8594C241.64 70.4646 241.957 71.1305 242.196 71.844C243.118 74.5995 242.71 77.5248 241.105 79.6693C240.698 80.2129 240.222 80.6984 239.687 81.1177C238.957 82.7056 237.579 83.9365 235.894 84.4705C235.119 86.2089 234.124 87.798 232.938 89.1934C233.459 89.3391 233.973 89.4954 234.479 89.6616C239.328 89.766 244.019 90.386 248.079 91.4609C256.248 93.6241 261.834 97.5438 264.682 103.111C267.98 109.557 266.877 116.41 264.645 127.969C263.845 132.11 263.031 135.177 262.378 137.641C261.698 140.208 261.16 142.236 260.88 144.505C260.741 145.63 260.685 146.778 260.665 147.627L262.267 147.687L262.891 161.029L226.002 181.893L151.915 178.1Z" fill="white"/>
</g>
<path d="M233.806 94.2083C238.166 94.2671 255.322 94.9079 260.59 105.204C263.199 110.304 262.236 116.279 260.138 127.141C258.533 135.451 256.937 139.027 256.325 143.981C256.011 146.523 256.067 149.079 256.067 149.079C256.059 150.593 256.112 151.904 256.177 152.947C250.874 153.731 245.571 154.515 240.268 155.299" fill="white"/>
<path d="M233.806 94.2083C238.166 94.2671 255.322 94.9079 260.59 105.204C263.199 110.304 262.236 116.279 260.138 127.141C258.533 135.451 256.937 139.027 256.325 143.981C256.011 146.523 256.067 149.079 256.067 149.079C256.059 150.593 256.112 151.904 256.177 152.947C250.874 153.731 245.571 154.515 240.268 155.299" stroke="#444444" stroke-miterlimit="10" stroke-linecap="round" stroke-linejoin="round"/>
<path d="M195.827 140.564C197.544 139.44 199.26 138.317 200.977 137.194C201.276 139.711 201.405 143.314 200.528 147.49C199.945 150.265 199.067 152.58 198.231 154.373C202.326 156.84 209.346 160.324 218.683 161.496C233.006 163.294 244.151 158.569 248.733 156.302C248.131 154.061 247.589 151.33 247.359 148.197C247.042 143.866 247.421 140.14 247.933 137.291C248.713 136.071 249.724 134.279 250.552 131.982C254.118 122.087 252.296 108.341 243.094 99.8549C236.965 94.2022 229.911 93.0515 226.94 92.6074C225.22 92.3503 214.122 90.8539 203.613 97.8289C202.61 98.4951 198.932 101.017 195.389 105.644C186.27 117.554 186.764 132.017 187.247 137.533C184.156 140.096 181.066 142.659 177.975 145.222" fill="#EBF17A"/>
<path d="M195.827 140.564C197.544 139.44 199.26 138.317 200.977 137.194C201.276 139.711 201.405 143.314 200.528 147.49C199.945 150.265 199.067 152.58 198.231 154.373C202.326 156.84 209.346 160.324 218.683 161.496C233.006 163.294 244.151 158.569 248.733 156.302C248.131 154.061 247.589 151.33 247.359 148.197C247.042 143.866 247.421 140.14 247.933 137.291C248.713 136.071 249.724 134.279 250.552 131.982C254.118 122.087 252.296 108.341 243.094 99.8549C236.965 94.2022 229.911 93.0515 226.94 92.6074C225.22 92.3503 214.122 90.8539 203.613 97.8289C202.61 98.4951 198.932 101.017 195.389 105.644C186.27 117.554 186.764 132.017 187.247 137.533C184.156 140.096 181.066 142.659 177.975 145.222" stroke="black" stroke-miterlimit="10" stroke-linecap="round" stroke-linejoin="round"/>
<path d="M230.059 95.171C227.345 102.757 224.535 112.986 223.446 125.3C222.113 140.383 223.854 153.045 225.79 161.891C223.671 161.92 221.282 161.823 218.683 161.496C214.58 160.982 211.058 160.036 208.224 159.053C206.538 149.918 205.21 137.019 207.043 121.814C208.421 110.38 211.206 100.797 213.94 93.4661C215.542 92.8829 218.819 91.9376 222.918 92.5347C226.235 93.0183 228.684 94.3069 230.059 95.171Z" fill="white" stroke="black" stroke-miterlimit="10" stroke-linecap="round" stroke-linejoin="round"/>
<path d="M228.071 91.2279C227.653 91.7565 225.62 94.2114 222.057 94.664C217.667 95.2218 214.67 92.2666 214.326 91.9149C214.765 91.3048 215.605 89.9659 215.845 88.0492C216.078 86.1825 215.624 84.7123 215.357 84.0115C219.136 83.7825 222.916 83.5532 226.696 83.3242C226.457 84.0537 226.056 85.6069 226.411 87.5336C226.749 89.3637 227.602 90.6257 228.071 91.2279Z" fill="#FACDC2" stroke="black" stroke-miterlimit="10" stroke-linecap="round" stroke-linejoin="round"/>
<path d="M207.743 73.0957C206.624 72.2204 205.21 71.9589 204.111 72.4778C202.393 73.2897 201.838 75.8267 202.891 77.5428C203.903 79.1913 206.223 79.7992 208.097 78.7357C208.424 83.6703 211.138 87.9071 215.208 89.7743C219.036 91.5311 222.645 90.5394 223.747 90.1807C228.581 88.608 232.104 83.9545 232.98 78.2732C234.735 78.7046 236.509 78.2038 237.419 76.9882C238.916 74.988 237.73 71.5121 235.667 70.9135C234.312 70.5204 232.966 71.4816 232.637 71.7302C232.44 68.4984 232.242 65.2668 232.045 62.035C230.282 60.9944 225.917 58.7389 219.974 58.92C214.814 59.0768 211.029 60.9926 209.266 62.035C208.758 65.7221 208.251 69.4089 207.743 73.0957Z" fill="#FACDC2" stroke="black" stroke-miterlimit="10" stroke-linecap="round" stroke-linejoin="round"/>
<path d="M204.765 75.1987C205.28 74.9256 205.909 74.9911 206.35 75.3619C206.771 75.717 206.948 76.2914 206.8 76.8282" stroke="black" stroke-miterlimit="10" stroke-linecap="round" stroke-linejoin="round"/>
<path d="M205.623 76.4146C206.015 76.5524 206.407 76.6906 206.799 76.8285L205.623 76.4146Z" fill="white"/>
<path d="M205.623 76.4146C206.015 76.5524 206.407 76.6906 206.799 76.8285" stroke="black" stroke-miterlimit="10" stroke-linecap="round" stroke-linejoin="round"/>
<path d="M222.313 75.9627C222.709 75.9627 223.029 75.6421 223.029 75.2465C223.029 74.8509 222.709 74.5303 222.313 74.5303C221.917 74.5303 221.597 74.8509 221.597 75.2465C221.597 75.6421 221.917 75.9627 222.313 75.9627Z" fill="black"/>
<path d="M220.56 84.242C219.242 84.6978 217.748 83.9578 217.309 82.5856C217.957 82.6125 218.992 82.5727 220.165 82.1503C221.034 81.8368 221.695 81.4156 222.143 81.0759C222.547 82.3971 221.825 83.8045 220.56 84.242Z" stroke="black" stroke-miterlimit="10" stroke-linecap="round" stroke-linejoin="round"/>
<path d="M212.074 75.1111C212.149 75.4997 211.894 75.875 211.506 75.9499C211.118 76.0247 210.742 75.7704 210.667 75.3821C210.593 74.9938 210.847 74.6182 211.235 74.5433C211.623 74.4685 211.999 74.7228 212.074 75.1111Z" fill="black"/>
<path d="M235.46 75.3671C234.945 75.0941 234.316 75.1596 233.875 75.5303C233.454 75.8854 233.277 76.4599 233.425 76.9966" stroke="black" stroke-miterlimit="10" stroke-linecap="round" stroke-linejoin="round"/>
<path d="M234.601 76.5828C234.209 76.7206 233.817 76.8588 233.425 76.9967L234.601 76.5828Z" fill="white"/>
<path d="M234.601 76.5828C234.209 76.7206 233.817 76.8588 233.425 76.9967" stroke="black" stroke-miterlimit="10" stroke-linecap="round" stroke-linejoin="round"/>
<path d="M216.258 75.7366C215.234 76.4519 215.115 77.8503 215.806 78.6055C216.382 79.2363 217.473 79.3621 218.312 78.7835" stroke="black" stroke-miterlimit="10" stroke-linecap="round" stroke-linejoin="round"/>
<path d="M224.595 71.1341C224.347 70.9706 223.837 70.684 223.135 70.6312C222.091 70.553 221.334 71.0445 221.108 71.2044" stroke="black" stroke-miterlimit="10" stroke-linecap="round" stroke-linejoin="round"/>
<path d="M213.51 71.4249C213.262 71.2613 212.751 70.9747 212.049 70.9219C211.006 70.8438 210.249 71.3353 210.023 71.4952" stroke="black" stroke-miterlimit="10" stroke-linecap="round" stroke-linejoin="round"/>
<path d="M212.405 98.5806C211.662 99.9793 210.666 102.003 209.698 104.525C207.369 110.597 205.924 117.676 207.484 118.417C207.983 118.653 208.346 118.032 209.396 118.215C211.099 118.512 211.565 120.387 212.416 120.329C213.685 120.243 214.329 116.001 214.329 116.001C214.829 112.704 215.468 107.54 215.839 100.298C214.694 99.7252 213.549 99.1529 212.405 98.5806Z" fill="white" stroke="black" stroke-miterlimit="10" stroke-linecap="round" stroke-linejoin="round"/>
<path d="M219.863 101.877C220.048 102.625 220.311 103.751 220.57 105.129C221.601 110.605 221.996 116.991 220.772 117.309C220.133 117.476 219.665 115.828 218.384 115.862C217.342 115.889 217.136 116.992 215.437 117.611C215.109 117.73 213.533 118.266 212.92 117.611C212.464 117.124 212.737 116.19 212.816 115.899C213.298 114.116 213.808 109.36 214.374 100.578C216.204 101.011 218.033 101.444 219.863 101.877Z" fill="white" stroke="black" stroke-miterlimit="10" stroke-linecap="round" stroke-linejoin="round"/>
<path d="M225.301 91.4394C226.541 90.5442 227.206 89.4997 227.918 89.7281C228.411 89.8862 228.363 90.4727 229.126 91.8422C229.97 93.3561 230.449 93.3938 230.607 94.104C230.919 95.5117 229.393 96.9629 228.321 97.9824C227.336 98.9195 225.168 100.925 221.577 101.606C219.971 101.911 217.647 102.351 215.235 101.103C213.215 100.058 212.253 98.4078 211.712 97.4791C211.144 96.5059 210.457 95.3274 210.909 94.4654C211.327 93.6677 212.292 93.9574 213.02 93.0502C213.939 91.9067 213.115 90.5626 213.725 90.1309C214.705 89.437 216.793 92.9397 220.268 93.0502C221.63 93.0933 223.653 92.6293 225.301 91.4394Z" fill="white" stroke="black" stroke-miterlimit="10" stroke-linecap="round" stroke-linejoin="round"/>
<path d="M229.126 91.842C228.294 92.7541 226.679 94.2635 224.194 95.1638C222.881 95.6396 221.689 95.813 220.771 95.8682" fill="white"/>
<path d="M229.126 91.842C228.294 92.7541 226.679 94.2635 224.194 95.1638C222.881 95.6396 221.689 95.813 220.771 95.8682" stroke="black" stroke-miterlimit="10" stroke-linecap="round" stroke-linejoin="round"/>
<path d="M213.021 93.0498C213.609 93.7461 214.475 94.6838 215.638 95.6671C217.196 96.9834 218.099 97.7283 219.463 97.9823C220.054 98.0924 221.327 98.221 222.986 97.4791" fill="white"/>
<path d="M213.021 93.0498C213.609 93.7461 214.475 94.6838 215.638 95.6671C217.196 96.9834 218.099 97.7283 219.463 97.9823C220.054 98.0924 221.327 98.221 222.986 97.4791" stroke="black" stroke-miterlimit="10" stroke-linecap="round" stroke-linejoin="round"/>
<path d="M217.349 105.834C217.462 107.19 217.513 108.71 217.45 110.363C217.401 111.63 217.292 112.808 217.148 113.887" fill="white"/>
<path d="M217.349 105.834C217.462 107.19 217.513 108.71 217.45 110.363C217.401 111.63 217.292 112.808 217.148 113.887" stroke="black" stroke-miterlimit="10" stroke-linecap="round" stroke-linejoin="round"/>
<path d="M212.014 107.042C211.935 108.45 211.782 110.003 211.511 111.672C211.235 113.373 210.883 114.922 210.505 116.303" fill="white"/>
<path d="M212.014 107.042C211.935 108.45 211.782 110.003 211.511 111.672C211.235 113.373 210.883 114.922 210.505 116.303" stroke="black" stroke-miterlimit="10" stroke-linecap="round" stroke-linejoin="round"/>
<path d="M201.511 117.105C200.622 118.812 199.226 122.046 199.083 126.329C198.962 129.997 199.811 132.909 200.459 134.628" stroke="black" stroke-miterlimit="10" stroke-linecap="round" stroke-linejoin="round"/>
<path d="M227.208 63.0534C225.3 67.1188 221.885 68.878 219.81 68.0359C219.547 67.9294 218.33 67.3858 217.645 65.2175C217.07 65.9964 216.236 67.0449 215.129 68.1871C212.566 70.8312 209.871 73.6038 207.742 73.0958C205.173 72.4824 203.895 67.1966 204.358 63.2045C204.89 58.6186 207.895 54.2168 212.31 52.031C217.407 49.5082 223.703 50.2736 228.517 53.9435C229.451 54.0639 233.204 54.6558 235.664 57.8692C238.362 61.3934 238.404 66.6345 235.666 70.9136C234.555 73.1018 232.93 74.4571 231.587 74.2266C230.327 74.0105 229.675 72.4616 228.819 70.3512C228.164 68.7371 227.393 66.281 227.208 63.0534Z" fill="#EAEAEA" stroke="black" stroke-miterlimit="10" stroke-linecap="round" stroke-linejoin="round"/>
<path d="M219.3 75.7742C219.793 77.0785 220.964 78.1851 222.457 78.4422C224.455 78.7861 226.388 77.4997 227.075 75.7742C227.421 74.9044 227.391 74.0726 227.285 73.4735C227.199 72.9844 226.839 72.591 226.363 72.4492C225.368 72.1526 223.959 71.8853 222.295 72.0404C221.4 72.1237 220.62 72.3116 219.975 72.5222C219.518 72.6715 219.177 73.0613 219.097 73.535C218.999 74.1095 218.974 74.9126 219.3 75.7742Z" stroke="black" stroke-miterlimit="10" stroke-linecap="round" stroke-linejoin="round"/>
<path d="M207.852 75.5591C208.345 76.8634 209.516 77.97 211.01 78.2271C213.007 78.571 214.94 77.2846 215.627 75.5591C215.973 74.6893 215.944 73.8576 215.837 73.2584C215.751 72.7693 215.391 72.3759 214.915 72.2341C213.92 71.9375 212.511 71.6702 210.847 71.8253C209.952 71.9086 209.172 72.0965 208.527 72.3071C208.071 72.4565 207.73 72.8463 207.649 73.3199C207.552 73.8941 207.527 74.6975 207.852 75.5591Z" stroke="black" stroke-miterlimit="10" stroke-linecap="round" stroke-linejoin="round"/>
<path d="M219.672 72.6681C219.159 72.4609 218.24 72.1727 217.089 72.2636C216.447 72.3142 215.915 72.4684 215.522 72.6187" stroke="black" stroke-miterlimit="10" stroke-linecap="round" stroke-linejoin="round"/>
<path d="M227.395 73.1697C230.151 72.4176 232.907 71.6657 235.664 70.9136" stroke="black" stroke-miterlimit="10" stroke-linecap="round" stroke-linejoin="round"/>
<path d="M233.945 80.2663C234.895 80.2663 235.665 79.4966 235.665 78.5472C235.665 77.5978 234.895 76.8281 233.945 76.8281C232.996 76.8281 232.226 77.5978 232.226 78.5472C232.226 79.4966 232.996 80.2663 233.945 80.2663Z" fill="#EBF17A" stroke="black" stroke-miterlimit="10" stroke-linecap="round" stroke-linejoin="round"/>
<path d="M206.799 80.5026C207.749 80.5026 208.518 79.733 208.518 78.7836C208.518 77.8341 207.749 77.0645 206.799 77.0645C205.85 77.0645 205.08 77.8341 205.08 78.7836C205.08 79.733 205.85 80.5026 206.799 80.5026Z" fill="#EBF17A" stroke="black" stroke-miterlimit="10" stroke-linecap="round" stroke-linejoin="round"/>
<path d="M215.677 62.8264C214.637 64.2692 213.597 65.7119 212.556 67.1549L215.677 62.8264Z" fill="white"/>
<path d="M215.677 62.8264C214.637 64.2692 213.597 65.7119 212.556 67.1549" stroke="black" stroke-miterlimit="10" stroke-linecap="round" stroke-linejoin="round"/>
<path d="M226.246 54.4714C226.298 55.1647 226.616 60.4674 223.227 62.7257C222.825 62.9933 222.328 63.2467 221.717 63.4305" fill="#EAEAEA"/>
<path d="M226.246 54.4714C226.298 55.1647 226.616 60.4674 223.227 62.7257C222.825 62.9933 222.328 63.2467 221.717 63.4305" stroke="black" stroke-miterlimit="10" stroke-linecap="round" stroke-linejoin="round"/>
<path d="M216.482 57.0886C215.223 58.0676 213.576 59.568 212.053 61.7191C210.757 63.5496 209.947 65.2919 209.436 66.6516" fill="#EAEAEA"/>
<path d="M216.482 57.0886C215.223 58.0676 213.576 59.568 212.053 61.7191C210.757 63.5496 209.947 65.2919 209.436 66.6516" stroke="black" stroke-miterlimit="10" stroke-linecap="round" stroke-linejoin="round"/>
<path d="M222.622 53.7666C222.589 54.7155 222.373 57.0512 220.689 59.2135C219.839 60.3057 218.89 60.9981 218.193 61.4168" fill="#EAEAEA"/>
<path d="M222.622 53.7666C222.589 54.7155 222.373 57.0512 220.689 59.2135C219.839 60.3057 218.89 60.9981 218.193 61.4168" stroke="black" stroke-miterlimit="10" stroke-linecap="round" stroke-linejoin="round"/>
<path d="M229.97 55.478C230.014 56.998 230.156 58.7267 230.473 60.6118C230.858 62.8923 231.411 64.8854 231.983 66.5508" fill="white"/>
<path d="M229.97 55.478C230.014 56.998 230.156 58.7267 230.473 60.6118C230.858 62.8923 231.411 64.8854 231.983 66.5508" stroke="black" stroke-miterlimit="10" stroke-linecap="round" stroke-linejoin="round"/>
<path d="M232.487 59.8064C232.819 61.1475 233.217 62.5612 233.695 64.0341C234.051 65.1287 234.423 66.1693 234.803 67.1546" fill="white"/>
<path d="M232.487 59.8064C232.819 61.1475 233.217 62.5612 233.695 64.0341C234.051 65.1287 234.423 66.1693 234.803 67.1546" stroke="black" stroke-miterlimit="10" stroke-linecap="round" stroke-linejoin="round"/>
<path d="M152.084 173.611C176.342 174.853 200.599 176.095 224.856 177.337C235.963 171.055 247.07 164.773 258.177 158.491C258.077 156.355 257.977 154.219 257.877 152.083" fill="white"/>
<path d="M152.084 173.611C176.342 174.853 200.599 176.095 224.856 177.337C235.963 171.055 247.07 164.773 258.177 158.491C258.077 156.355 257.977 154.219 257.877 152.083" stroke="#444444" stroke-miterlimit="10" stroke-linecap="round" stroke-linejoin="round"/>
<path d="M219.603 52.6594C218.252 52.9304 215.54 53.668 212.959 55.8807C209.557 58.7957 208.531 62.4294 208.228 63.7322" fill="#EAEAEA"/>
<path d="M219.603 52.6594C218.252 52.9304 215.54 53.668 212.959 55.8807C209.557 58.7957 208.531 62.4294 208.228 63.7322" stroke="black" stroke-miterlimit="10" stroke-linecap="round" stroke-linejoin="round"/>
<path d="M233.506 102.809C233.251 104.529 232.997 106.25 232.742 107.97C231.913 108.225 231.085 108.479 230.257 108.734C230.831 109.371 231.404 110.008 231.977 110.645C230.83 112.939 229.684 115.232 228.537 117.526C228.027 118.991 227.517 120.456 227.008 121.921" stroke="black" stroke-miterlimit="10" stroke-linecap="round" stroke-linejoin="round"/>
<path d="M162.348 148.456C194.191 149.665 226.034 150.874 257.877 152.083C246.749 158.032 235.62 163.98 224.492 169.928C200.485 168.571 176.479 167.214 152.472 165.857" fill="white"/>
<path d="M162.348 148.456C194.191 149.665 226.034 150.874 257.877 152.083C246.749 158.032 235.62 163.98 224.492 169.928C200.485 168.571 176.479 167.214 152.472 165.857" stroke="#444444" stroke-miterlimit="10" stroke-linecap="round" stroke-linejoin="round"/>
<path d="M205.411 101.089C205.156 102.809 204.901 104.53 204.646 106.25C205.156 106.823 205.666 107.396 206.175 107.97C205.283 108.798 204.391 109.626 203.5 110.454C203.818 112.493 204.137 114.531 204.455 116.57" stroke="black" stroke-miterlimit="10" stroke-linecap="round" stroke-linejoin="round"/>
<path d="M208.606 161.886C216.481 158.553 224.355 155.22 232.23 151.887C232.069 150.546 231.908 149.205 231.747 147.863C221.34 147.739 210.934 147.615 200.527 147.49C203.22 152.288 205.913 157.087 208.606 161.886Z" fill="white" stroke="black" stroke-miterlimit="10" stroke-linecap="round" stroke-linejoin="round"/>
<path d="M220.001 142.159C210.125 145.477 205.322 148.004 205.593 149.739C205.7 150.428 206.608 150.992 208.317 151.431C207.033 151.829 206.114 152.699 206.131 153.471C206.152 154.44 207.655 155.64 209.838 155.389C209.751 156.338 209.968 156.92 210.284 157.291C212.638 160.065 223.272 154.38 225.015 153.435C225.241 152.619 225.826 150.102 224.692 147.25C223.38 143.954 220.684 142.502 220.001 142.159Z" fill="#FACDC2" stroke="black" stroke-miterlimit="10" stroke-linecap="round" stroke-linejoin="round"/>
<path d="M212.734 151.114C212.197 151.272 211.537 151.418 210.773 151.491C209.807 151.582 208.968 151.524 208.317 151.431" fill="white"/>
<path d="M212.734 151.114C212.197 151.272 211.537 151.418 210.773 151.491C209.807 151.582 208.968 151.524 208.317 151.431" stroke="black" stroke-miterlimit="10" stroke-linecap="round" stroke-linejoin="round"/>
<path d="M214.149 154.165C213.547 154.435 212.832 154.709 212.013 154.94C211.214 155.165 210.479 155.304 209.837 155.389" fill="white"/>
<path d="M214.149 154.165C213.547 154.435 212.832 154.709 212.013 154.94C211.214 155.165 210.479 155.304 209.837 155.389" stroke="black" stroke-miterlimit="10" stroke-linecap="round" stroke-linejoin="round"/>
<path d="M233.806 94.2083C238.158 95.6676 241.337 97.6781 243.572 99.4458C257.336 110.338 257.055 128.565 256.968 133.324C256.857 139.428 255.588 142.142 254.461 143.839C251.718 147.969 247.522 149.521 242.611 151.261C238.643 152.668 232.144 154.421 223.609 154.269C223.97 153.258 224.391 151.626 224.19 149.646C223.756 145.352 220.743 142.763 220 142.159C223.053 140.208 226.402 138.237 230.052 136.317C235.687 133.352 241.055 131.027 245.966 129.191" fill="#EBF17A"/>
<path d="M233.806 94.2083C238.158 95.6676 241.337 97.6781 243.572 99.4458C257.336 110.338 257.055 128.565 256.968 133.324C256.857 139.428 255.588 142.142 254.461 143.839C251.718 147.969 247.522 149.521 242.611 151.261C238.643 152.668 232.144 154.421 223.609 154.269C223.97 153.258 224.391 151.626 224.19 149.646C223.756 145.352 220.743 142.763 220 142.159C223.053 140.208 226.402 138.237 230.052 136.317C235.687 133.352 241.055 131.027 245.966 129.191" stroke="black" stroke-miterlimit="10" stroke-linecap="round" stroke-linejoin="round"/>
<path d="M157.588 127.535C159.867 137.553 162.146 147.572 164.426 157.59C164.66 158.622 165.549 159.374 166.605 159.436C180.606 160.252 194.607 161.069 208.607 161.886C206.605 150.819 204.603 139.751 202.601 128.684C202.412 127.644 201.532 126.87 200.476 126.816C186.958 126.13 173.441 125.443 159.923 124.757C158.416 124.68 157.253 126.064 157.588 127.535Z" fill="white" stroke="black" stroke-miterlimit="10" stroke-linecap="round" stroke-linejoin="round"/>
<path d="M185.261 146.243C186.785 144.719 186.669 142.132 185.002 140.465C183.335 138.798 180.748 138.682 179.224 140.206C177.7 141.73 177.816 144.317 179.483 145.984C181.15 147.651 183.737 147.767 185.261 146.243Z" fill="black" stroke="black" stroke-miterlimit="10"/>
<g filter="url(#filter1_d_7_894)">
<path d="M15.3858 181.945L15.2978 177.134C15.2307 173.46 15.4831 169.757 16.0484 166.127C16.3843 163.969 16.8335 161.821 17.3907 159.701L16.2927 159.203L16.6911 155.657C17.3671 149.642 17.7524 143.536 17.8385 137.474C17.191 136.833 16.5637 136.169 15.9581 135.484C15.3233 135.575 14.6856 135.651 14.0482 135.709L10.6556 136.019L9.17683 132.95C6.96901 128.366 2.33926 116.267 7.01746 102.946C8.3741 99.0819 10.375 95.49 12.9783 92.2382C11.3696 85.357 13.2176 75.0297 17.7812 67.1818C18.383 66.147 18.9503 65.2902 19.499 64.4616C20.6209 62.7671 21.5071 61.4285 22.3979 58.963C23.162 56.8479 23.2573 55.7764 23.3673 54.5359C23.491 53.1413 23.6449 51.4056 24.6096 48.9372C27.4395 41.6959 35.1132 34 43.7608 34C44.1631 34 44.5688 34.0167 44.9665 34.0498C46.8195 34.2049 48.622 34.7464 50.3446 35.6637C51.59 35.445 52.8209 35.3347 54.025 35.3347C56.5055 35.3347 58.863 35.8019 61.0321 36.7228C65.823 38.7577 69.5347 42.9727 71.7665 48.9113C73.276 52.9292 73.7278 56.7254 73.8518 58.1711C74.3351 63.8118 73.0386 67.3619 71.8945 70.4942C70.8423 73.3754 69.8484 76.0966 70.0428 81.2452C70.0451 81.3077 70.0477 81.3699 70.0504 81.4318C70.6842 81.7618 71.3029 82.1141 71.9036 82.4863C77.6776 86.0668 82.1011 91.5769 84.8487 98.5611L86.206 98.4537C86.4542 98.4337 86.7059 98.4239 86.9544 98.4239C89.6841 98.4239 92.3237 99.6313 94.0146 101.653C95.5235 103.458 96.1586 105.773 95.7572 108.005L93.2764 121.796C94.6752 123.812 95.1565 126.422 94.6026 128.96C94.7044 130.063 94.6078 131.18 94.3135 132.254C94.0454 133.233 93.6476 134.064 93.2099 134.756C92.91 136.97 91.7694 138.911 89.9836 140.109C89.983 140.109 89.982 140.11 89.9813 140.111L89.2716 144.055C88.6505 147.509 85.7182 150.104 81.975 150.51L79.3652 150.794C79.5652 152.393 79.78 154.042 80.0078 155.732C81.0724 159.776 81.9668 163.909 82.6674 168.022C83.1519 170.866 83.5543 173.764 83.8633 176.634L84.45 182.081L15.3858 181.945Z" fill="white"/>
</g>
<path d="M57.2871 82.179C63.0096 82.5865 66.9532 84.4595 69.3191 85.9268C79.5673 92.2814 84.5506 106.111 82.6368 121.233C79.5768 121.156 75.7668 120.749 71.5518 119.54C69.4884 118.948 67.6377 118.253 66.0094 117.538" fill="#D800FC"/>
<path d="M57.2871 82.179C63.0096 82.5865 66.9532 84.4595 69.3191 85.9268C79.5673 92.2814 84.5506 106.111 82.6368 121.233C79.5768 121.156 75.7668 120.749 71.5518 119.54C69.4884 118.948 67.6377 118.253 66.0094 117.538" stroke="black" stroke-miterlimit="10" stroke-linecap="round" stroke-linejoin="round"/>
<path d="M74.4119 133.594C75.6052 133.701 76.555 133.518 77.3112 133.221C81.7772 131.469 83.9815 124.003 83.0367 114.672C79.7128 115.562 76.389 116.453 73.0651 117.343C72.4732 118.766 71.8057 120.876 71.7091 123.486C71.5284 128.372 73.456 132.028 74.4119 133.594Z" fill="#FACDC2" stroke="black" stroke-miterlimit="10" stroke-linecap="round" stroke-linejoin="round"/>
<path d="M20.211 176.311C20.1582 173.436 20.3056 169.993 20.9037 166.15C21.5028 162.302 22.4109 158.974 23.3364 156.248C40.612 156.123 57.8873 155.998 75.1629 155.873C76.1614 159.622 77.08 163.71 77.83 168.113C78.3221 171.001 78.6992 173.777 78.9847 176.427" fill="white"/>
<path d="M20.211 176.311C20.1582 173.436 20.3056 169.993 20.9037 166.15C21.5028 162.302 22.4109 158.974 23.3364 156.248C40.612 156.123 57.8873 155.998 75.1629 155.873C76.1614 159.622 77.08 163.71 77.83 168.113C78.3221 171.001 78.6992 173.777 78.9847 176.427" stroke="black" stroke-miterlimit="10" stroke-linecap="round" stroke-linejoin="round"/>
<path d="M69.3137 101.693C70.6219 103.268 72.3898 105.835 73.1706 109.31C74.0528 113.236 73.2586 116.466 73.0648 117.344C72.0542 121.915 71.9697 132.18 75.1734 155.873C70.9696 157.819 65.616 159.743 59.2479 160.798C42.1497 163.631 28.1724 158.469 21.5735 155.473C22.5059 147.179 23.0389 137.552 22.6336 126.867C22.1379 113.811 20.3613 102.352 18.2687 92.8766C19.6842 91.4528 21.2252 89.9986 22.8991 88.5379C26.1257 85.7224 29.2917 83.367 32.2509 81.4007C42.9129 81.1028 53.5748 80.8049 64.2368 80.5073" fill="#D800FC"/>
<path d="M69.3137 101.693C70.6219 103.268 72.3898 105.835 73.1706 109.31C74.0528 113.236 73.2586 116.466 73.0648 117.344C72.0542 121.915 71.9697 132.18 75.1734 155.873C70.9696 157.819 65.616 159.743 59.2479 160.798C42.1497 163.631 28.1724 158.469 21.5735 155.473C22.5059 147.179 23.0389 137.552 22.6336 126.867C22.1379 113.811 20.3613 102.352 18.2687 92.8766C19.6842 91.4528 21.2252 89.9986 22.8991 88.5379C26.1257 85.7224 29.2917 83.367 32.2509 81.4007C42.9129 81.1028 53.5748 80.8049 64.2368 80.5073" stroke="black" stroke-miterlimit="10" stroke-linecap="round" stroke-linejoin="round"/>
<path d="M49.7394 89.8955C52.0182 96.1625 53.5448 101.462 54.5417 105.276C56.2738 111.902 57.1426 115.306 57.2828 119.765C57.4851 126.196 56.0309 130.159 54.9332 134.841C53.5219 140.86 52.3155 149.703 53.6273 161.463" stroke="black" stroke-miterlimit="10" stroke-linecap="round" stroke-linejoin="round"/>
<path d="M48.4154 172.053C50.4942 172.021 52.7305 171.907 55.102 171.677C57.2208 171.472 59.2145 171.196 61.0711 170.879" fill="white"/>
<path d="M48.4154 172.053C50.4942 172.021 52.7305 171.907 55.102 171.677C57.2208 171.472 59.2145 171.196 61.0711 170.879" stroke="black" stroke-miterlimit="10" stroke-linecap="round" stroke-linejoin="round"/>
<path d="M54.8005 177.904C54.7622 175.826 54.7236 173.747 54.6849 171.669L54.8005 177.904Z" fill="white"/>
<path d="M54.8005 177.904C54.7622 175.826 54.7236 173.747 54.6849 171.669" stroke="black" stroke-miterlimit="10" stroke-linecap="round" stroke-linejoin="round"/>
<path d="M48.5534 40.4268C50.8136 39.6967 54.9935 38.7585 59.1158 40.5096C67.6175 44.1206 68.8176 56.1719 68.9623 57.8576C69.7677 67.2559 64.6907 68.8309 65.1389 80.6973C65.337 85.9353 66.3819 87.1033 65.7393 91.7406C64.6668 99.4794 60.3861 106.121 58.1563 105.704C56.9981 105.487 57.2361 103.524 54.9369 102.008C52.8862 100.655 51.5509 101.579 50.4604 100.388C48.65 98.4112 50.3824 93.8859 50.6293 93.2537C52.4335 88.6381 55.4967 88.1064 55.8326 84.2103C55.8879 83.5693 56.0019 82.0264 55.1949 80.49C54.2481 78.6875 53.1236 78.969 52.1614 77.4012C51.0693 75.6213 52.1084 74.3743 51.5142 70.4203C51.3456 69.2977 51.0935 68.056 50.6732 66.4286C49.821 63.1283 48.4087 58.7533 45.9658 53.8213C46.8281 49.3569 47.6908 44.8919 48.5534 40.4268Z" fill="#EBF17A" stroke="black" stroke-miterlimit="10" stroke-linecap="round" stroke-linejoin="round"/>
<path d="M60.4398 74.6831C59.8083 76.2457 59.205 78.0106 58.7041 79.967C57.5841 84.343 57.3389 88.2705 57.4096 91.375" stroke="black" stroke-miterlimit="10" stroke-linecap="round" stroke-linejoin="round"/>
<path d="M63.0828 81.0283C63.2812 82.895 63.3712 86.0404 62.2431 89.6773C61.3287 92.624 59.9524 94.8049 58.9196 96.1842" stroke="black" stroke-miterlimit="10" stroke-linecap="round" stroke-linejoin="round"/>
<path d="M54.8644 42.6858C56.2073 43.1579 57.8592 43.9197 59.5219 45.1801C63.9324 48.5229 65.4609 53.1284 65.9713 55.0262" stroke="black" stroke-miterlimit="10" stroke-linecap="round" stroke-linejoin="round"/>
<path d="M49.0897 39.9004C48.0381 39.1851 46.4916 38.3715 44.5604 38.2098C38.1229 37.6716 31.6075 43.7962 29.1869 49.9908C27.694 53.8109 28.888 54.7272 27.0196 59.8978C25.4574 64.2218 23.7855 65.8973 22.0298 68.9167C16.2735 78.8149 16.0561 92.0805 20.0027 94.1789C21.7777 95.1228 23.8084 93.4846 25.4188 94.9961C26.727 96.2237 25.9301 97.7863 27.347 100.575C27.5857 101.044 29.236 104.268 30.8404 104.123C33.1582 103.913 34.4006 96.7587 34.7012 95.0288C35.555 90.1116 35.2027 85.8368 37.4786 83.1549C37.6629 82.9378 38.1072 82.4448 38.6081 81.6686C38.9531 81.1337 40.1726 79.2051 40.4446 76.885C40.8637 73.3137 38.8435 70.473 38.2928 69.7453C41.7466 66.3216 45.2011 62.8982 48.6549 59.4745C49.2619 59.0692 49.7595 58.6194 50.1697 58.1477C55.0682 52.5135 49.7238 41.2046 49.0897 39.9004Z" fill="#EBF17A" stroke="black" stroke-miterlimit="10" stroke-linecap="round" stroke-linejoin="round"/>
<path d="M44.2124 43.2515C42.6937 43.5196 40.8797 44.0326 38.9966 45.0242C32.7176 48.3304 30.3484 54.4932 29.672 56.5007" stroke="black" stroke-miterlimit="10" stroke-linecap="round" stroke-linejoin="round"/>
<path d="M29.4643 62.6804C28.8086 64.17 28.1843 65.7843 27.6248 67.522C25.5934 73.8315 25.1115 79.6228 25.1914 84.2185" stroke="black" stroke-miterlimit="10" stroke-linecap="round" stroke-linejoin="round"/>
<path d="M33.1147 67.3262C32.366 69.0452 31.6454 70.9915 31.0407 73.1561C29.5666 78.4311 29.2906 83.1672 29.4065 86.8165" stroke="black" stroke-miterlimit="10" stroke-linecap="round" stroke-linejoin="round"/>
<path d="M37.4785 83.1548C38.8496 87.6189 42.9817 90.5594 47.3446 90.3404C51.0188 90.1561 54.3321 87.7574 55.8325 84.2106C55.5667 83.1041 55.3372 81.8587 55.1948 80.4903C54.924 77.8883 55.0468 75.5951 55.2904 73.749C49.9911 71.9798 44.6919 70.211 39.393 68.4419C39.9351 69.609 41.6103 73.6007 40.2072 78.2579C39.5181 80.5473 38.3313 82.1789 37.4785 83.1548Z" fill="#FACDC2" stroke="black" stroke-miterlimit="10" stroke-linecap="round" stroke-linejoin="round"/>
<path d="M61.9628 63.2468C63.1368 62.5842 64.4999 62.5387 65.4572 63.181C66.9546 64.1857 67.1157 66.6439 65.8851 68.1053C64.7029 69.5088 62.4398 69.7507 60.832 68.4877C59.9786 73.8655 56.4144 78.1077 51.7696 79.3484C51.1781 79.5065 47.4047 80.4526 43.6553 78.4357C39.1912 76.0344 36.7084 70.4808 37.5553 64.5324C35.8477 64.6885 34.2544 63.9676 33.5728 62.6987C32.4515 60.6104 34.0566 57.5177 36.0762 57.2483C37.4031 57.0711 38.5296 58.1633 38.8033 58.4432C40.7485 57.9096 43.4536 56.8881 46.0127 54.7609C49.7851 51.6252 50.3586 48.4376 52.4948 48.2179C53.911 48.0726 56.1732 49.2112 59.5307 56.0671C60.3416 58.4602 61.1522 60.8536 61.9628 63.2468Z" fill="#FACDC2" stroke="black" stroke-miterlimit="10" stroke-linecap="round" stroke-linejoin="round"/>
<path d="M64.4586 65.6412C64.0147 65.3122 63.4149 65.2847 62.9494 65.5702C62.5038 65.8435 62.257 66.3575 62.3195 66.882" stroke="black" stroke-miterlimit="10" stroke-linecap="round" stroke-linejoin="round"/>
<path d="M63.4812 66.6602C63.0939 66.7341 62.7067 66.8081 62.3197 66.8821L63.4812 66.6602Z" fill="white"/>
<path d="M63.4812 66.6602C63.0939 66.7341 62.7067 66.8081 62.3197 66.8821" stroke="black" stroke-miterlimit="10" stroke-linecap="round" stroke-linejoin="round"/>
<path d="M47.9005 62.264C48.2758 62.264 48.5801 61.9598 48.5801 61.5844C48.5801 61.2091 48.2758 60.9048 47.9005 60.9048C47.5251 60.9048 47.2208 61.2091 47.2208 61.5844C47.2208 61.9598 47.5251 62.264 47.9005 62.264Z" fill="black"/>
<path d="M47.1885 69.8872C47.5168 70.2342 48.186 70.8494 49.2264 71.2324C50.3643 71.6514 51.3556 71.5752 51.8349 71.5067" stroke="black" stroke-miterlimit="10" stroke-linecap="round" stroke-linejoin="round"/>
<path d="M57.5245 62.9063C57.3995 63.2602 57.5847 63.6485 57.9386 63.7735C58.2925 63.8986 58.6808 63.7133 58.8059 63.3594C58.9309 63.0055 58.7456 62.6172 58.3917 62.4922C58.0378 62.3671 57.6496 62.5524 57.5245 62.9063Z" fill="black"/>
<path d="M35.2755 60.3764C35.7967 60.1931 36.3781 60.3437 36.7386 60.7539C37.0836 61.1467 37.1677 61.7105 36.9533 62.193" stroke="black" stroke-miterlimit="10" stroke-linecap="round" stroke-linejoin="round"/>
<path d="M35.9087 61.6384C36.2567 61.8234 36.605 62.0084 36.953 62.193L35.9087 61.6384Z" fill="white"/>
<path d="M35.9087 61.6384C36.2567 61.8234 36.605 62.0084 36.953 62.193" stroke="black" stroke-miterlimit="10" stroke-linecap="round" stroke-linejoin="round"/>
<path d="M52.4689 64.7252C52.5694 64.6954 53.4475 64.4509 54.1883 65.0097C54.8496 65.509 55.0198 66.3608 54.8656 66.989C54.6286 67.9551 53.5545 68.6799 52.3016 68.5545" stroke="black" stroke-miterlimit="10" stroke-linecap="round" stroke-linejoin="round"/>
<path d="M54.9886 130.811C61.2451 123.462 65.092 120.211 66.5309 121.057C67.2567 121.484 67.3693 122.954 66.8687 125.467C69.9559 124.087 72.3971 123.83 72.9795 124.731C73.5177 125.563 72.3778 127.239 71.9047 127.882C73.1979 127.358 74.5083 127.451 75.0027 128.082C75.6227 128.875 75.205 130.828 73.2863 132.062C73.9803 132.767 74.1888 133.378 74.18 133.883C74.1135 137.661 61.8314 140.09 59.8102 140.477C57.4514 141.423 44.377 146.401 30.7153 139.894C22.4501 135.957 17.9385 129.707 16.0535 126.698C18.7013 124.179 22.7339 121.242 28.1376 120.184C28.7946 120.056 29.4376 119.962 30.0638 119.897C31.9266 121.992 35.2144 125.15 40.1644 127.554C46.3472 130.556 51.9987 130.863 54.9886 130.811Z" fill="#FACDC2" stroke="black" stroke-miterlimit="10" stroke-linecap="round" stroke-linejoin="round"/>
<path d="M68.1475 130.534C68.6824 130.307 69.31 129.99 69.9703 129.546C70.8067 128.983 71.4428 128.385 71.9048 127.882" fill="#FACDC2"/>
<path d="M68.1475 130.534C68.6824 130.307 69.31 129.99 69.9703 129.546C70.8067 128.983 71.4428 128.385 71.9048 127.882" stroke="black" stroke-miterlimit="10" stroke-linecap="round" stroke-linejoin="round"/>
<path d="M69.0176 133.916C69.6792 133.736 70.4338 133.486 71.2437 133.133C72.0334 132.789 72.715 132.416 73.2862 132.062" fill="#FACDC2"/>
<path d="M69.0176 133.916C69.6792 133.736 70.4338 133.486 71.2437 133.133C72.0334 132.789 72.715 132.416 73.2862 132.062" stroke="black" stroke-miterlimit="10" stroke-linecap="round" stroke-linejoin="round"/>
<path d="M46.2675 59.5094C46.5235 59.3909 47.0424 59.1945 47.7086 59.2442C48.6986 59.3186 49.3389 59.8869 49.5284 60.0686" stroke="black" stroke-miterlimit="10" stroke-linecap="round" stroke-linejoin="round"/>
<path d="M56.6254 61.351C56.8814 61.2325 57.4003 61.036 58.0665 61.0858C59.0565 61.1601 59.6968 61.7284 59.8864 61.9101" stroke="black" stroke-miterlimit="10" stroke-linecap="round" stroke-linejoin="round"/>
<path d="M46.1448 70.3002C46.5605 69.9827 46.9763 69.6655 47.3924 69.3479" stroke="black" stroke-miterlimit="10" stroke-linecap="round" stroke-linejoin="round"/>
<path d="M81.4478 144.895L61.141 147.105C58.5914 147.382 56.3079 145.455 56.6795 143.34L63.1203 106.691C63.3557 105.352 64.6207 104.353 66.2451 104.225L86.5964 102.615C89.1129 102.416 91.3005 104.329 90.9272 106.402L84.4419 142.451C84.2088 143.746 83.01 144.725 81.4478 144.895Z" fill="white" stroke="black" stroke-miterlimit="10" stroke-linecap="round" stroke-linejoin="round"/>
<path d="M83.4064 106.221C78.2823 106.623 73.1579 107.024 68.0338 107.426C67.0026 107.507 66.1527 108.267 65.9579 109.283C65.1594 113.445 64.361 117.607 63.5625 121.77" fill="white"/>
<path d="M83.4064 106.221C78.2823 106.623 73.1579 107.024 68.0338 107.426C67.0026 107.507 66.1527 108.267 65.9579 109.283C65.1594 113.445 64.361 117.607 63.5625 121.77" stroke="black" stroke-miterlimit="10" stroke-linecap="round" stroke-linejoin="round"/>
<path d="M70.8386 112.679C71.4226 111.964 71.4238 110.999 70.8413 110.523C70.2589 110.047 69.3133 110.241 68.7293 110.956C68.1453 111.671 68.1441 112.636 68.7265 113.112C69.309 113.588 70.2546 113.394 70.8386 112.679Z" fill="white" stroke="black" stroke-miterlimit="10" stroke-linecap="round" stroke-linejoin="round"/>
<path d="M88.9191 123.463C88.0241 122.531 86.1826 121.696 85.1389 122.59C84.3571 123.26 84.2069 124.742 84.966 126.072C84.0805 126.69 83.5839 127.698 83.6854 128.71C83.7882 129.735 84.4652 130.366 84.6469 130.525C83.3969 131.17 82.5873 132.301 82.699 133.333C82.8875 135.074 85.6791 136.351 87.2521 135.297C88.1085 134.723 88.5105 133.52 88.3429 132.264C88.6297 131.998 89.2799 131.323 89.5807 130.224C89.8665 129.18 89.6845 128.31 89.5814 127.932C90.2172 126.294 89.9651 124.552 88.9191 123.463Z" fill="#FACDC2" stroke="black" stroke-miterlimit="10" stroke-linecap="round" stroke-linejoin="round"/>
<path d="M88.3428 132.264C88.1709 131.981 87.6069 131.132 86.4892 130.712C85.694 130.413 84.9924 130.472 84.6467 130.525" fill="#FACDC2"/>
<path d="M88.3428 132.264C88.1709 131.981 87.6069 131.132 86.4892 130.712C85.694 130.413 84.9924 130.472 84.6467 130.525" stroke="black" stroke-miterlimit="10" stroke-linecap="round" stroke-linejoin="round"/>
<path d="M89.5814 127.932C89.2946 127.562 88.5063 126.649 87.1382 126.228C86.2163 125.945 85.4178 126.004 84.9661 126.072" fill="#FACDC2"/>
<path d="M89.5814 127.932C89.2946 127.562 88.5063 126.649 87.1382 126.228C86.2163 125.945 85.4178 126.004 84.9661 126.072" stroke="black" stroke-miterlimit="10" stroke-linecap="round" stroke-linejoin="round"/>
<path d="M18.2691 92.8762C16.132 95.2111 13.4102 98.8387 11.6541 103.839C7.31511 116.195 12.2601 127.295 13.6043 130.085C16.8669 129.787 22.2146 128.805 27.524 125.267C29.3576 124.045 30.8567 122.738 32.0644 121.511" fill="#D800FC"/>
<path d="M18.2691 92.8762C16.132 95.2111 13.4102 98.8387 11.6541 103.839C7.31511 116.195 12.2601 127.295 13.6043 130.085C16.8669 129.787 22.2146 128.805 27.524 125.267C29.3576 124.045 30.8567 122.738 32.0644 121.511" stroke="black" stroke-miterlimit="10" stroke-linecap="round" stroke-linejoin="round"/>
<path d="M30.7847 112.651C31.0741 113.806 31.6025 115.343 32.6121 116.958C33.1719 117.854 33.7644 118.589 34.3089 119.177C33.5605 119.955 32.8121 120.733 32.0637 121.511" fill="#D800FC"/>
<path d="M30.7847 112.651C31.0741 113.806 31.6025 115.343 32.6121 116.958C33.1719 117.854 33.7644 118.589 34.3089 119.177C33.5605 119.955 32.8121 120.733 32.0637 121.511" stroke="black" stroke-miterlimit="10" stroke-linecap="round" stroke-linejoin="round"/>
<g filter="url(#filter2_d_7_894)">
<path d="M96.3374 79.4341C91.7405 79.4341 88.0007 75.6943 88.0007 71.0973V13.3368C88.0007 8.73979 91.7405 5 96.3374 5H175.723C180.32 5 184.061 8.73979 184.061 13.3368V71.0973C184.061 75.6943 180.321 79.4341 175.723 79.4341H96.3374Z" fill="white"/>
</g>
<path d="M175.724 74.9398H96.3376C94.2155 74.9398 92.4951 73.2194 92.4951 71.0972V13.3367C92.4951 11.2145 94.2155 9.49414 96.3376 9.49414H175.724C177.846 9.49414 179.567 11.2145 179.567 13.3367V71.0972C179.566 73.2194 177.846 74.9398 175.724 74.9398Z" fill="white" stroke="black" stroke-miterlimit="10" stroke-linecap="round" stroke-linejoin="round"/>
<path d="M122.351 51.0213L146.661 48.9291C147.452 48.861 148.033 48.1579 147.951 47.3684C147.799 45.8868 147.646 44.4049 147.493 42.9233C139.461 43.4833 131.429 44.0436 123.397 44.6035C123.048 46.7428 122.699 48.882 122.351 51.0213Z" fill="white" stroke="black" stroke-miterlimit="10" stroke-linecap="round" stroke-linejoin="round"/>
<path d="M123.413 23.2552C123.833 31.7501 124.254 40.245 124.674 48.7399C132.363 47.9666 140.052 47.1937 147.742 46.4204C148.474 46.3466 149.003 45.686 148.914 44.9552C148.024 37.6237 147.133 30.2925 146.243 22.9609C146.159 22.2679 145.547 21.7619 144.851 21.8089C137.705 22.291 130.559 22.7731 123.413 23.2552Z" fill="#56BBFF" stroke="black" stroke-miterlimit="10" stroke-linecap="round" stroke-linejoin="round"/>
<path d="M123.413 23.2551C123.159 23.3393 122.247 23.6758 121.646 24.6462C120.989 25.7089 121.172 26.778 121.22 27.0182C121.597 35.0191 121.974 43.02 122.351 51.0211C122.41 50.7566 122.615 49.9953 123.324 49.3906C123.848 48.9433 124.398 48.7944 124.674 48.7399C124.254 40.245 123.833 31.7501 123.413 23.2551Z" fill="#56BBFF" stroke="black" stroke-miterlimit="10" stroke-linecap="round" stroke-linejoin="round"/>
<path d="M129.255 27.8059C129.337 29.6584 129.42 31.5109 129.503 33.3634C133.302 33.0982 137.101 32.8328 140.9 32.5676C140.75 30.7268 140.599 28.886 140.449 27.0452C136.718 27.2986 132.986 27.5521 129.255 27.8059Z" stroke="black" stroke-miterlimit="10" stroke-linecap="round" stroke-linejoin="round"/>
<path d="M121.405 30.513C121.405 30.3842 121.42 29.5788 122.082 28.9858C122.653 28.4744 123.319 28.4663 123.476 28.4684" stroke="black" stroke-miterlimit="10" stroke-linecap="round" stroke-linejoin="round"/>
<path d="M123.833 31.7517C123.624 31.7178 123.19 31.6791 122.723 31.8841C121.813 32.2832 121.58 33.2518 121.553 33.3711" stroke="black" stroke-miterlimit="10" stroke-linecap="round" stroke-linejoin="round"/>
<path d="M124.381 42.8125C124.12 42.8452 123.707 42.9329 123.279 43.1975C122.493 43.6837 122.197 44.4316 122.11 44.6845" stroke="black" stroke-miterlimit="10" stroke-linecap="round" stroke-linejoin="round"/>
<path d="M124.183 45.3457C123.967 45.3975 123.684 45.4946 123.395 45.6855C122.677 46.1589 122.423 46.8767 122.344 47.1362" stroke="black" stroke-miterlimit="10" stroke-linecap="round" stroke-linejoin="round"/>
<path d="M92.4949 18.5193C121.519 18.572 150.542 18.6247 179.566 18.6775L92.4949 18.5193Z" fill="white"/>
<path d="M92.4949 18.5193C121.519 18.572 150.542 18.6247 179.566 18.6775" stroke="black" stroke-miterlimit="10" stroke-linecap="round" stroke-linejoin="round"/>
<path d="M98.591 15.5901C99.378 15.5901 100.016 14.9522 100.016 14.1652C100.016 13.3782 99.378 12.7402 98.591 12.7402C97.804 12.7402 97.166 13.3782 97.166 14.1652C97.166 14.9522 97.804 15.5901 98.591 15.5901Z" fill="#FA0581" stroke="black" stroke-miterlimit="10" stroke-linecap="round" stroke-linejoin="round"/>
<path d="M103.661 15.5901C104.448 15.5901 105.086 14.9522 105.086 14.1652C105.086 13.3782 104.448 12.7402 103.661 12.7402C102.874 12.7402 102.236 13.3782 102.236 14.1652C102.236 14.9522 102.874 15.5901 103.661 15.5901Z" fill="#EBF17A" stroke="black" stroke-miterlimit="10" stroke-linecap="round" stroke-linejoin="round"/>
<path d="M108.341 15.5901C109.128 15.5901 109.766 14.9522 109.766 14.1652C109.766 13.3782 109.128 12.7402 108.341 12.7402C107.554 12.7402 106.916 13.3782 106.916 14.1652C106.916 14.9522 107.554 15.5901 108.341 15.5901Z" fill="#8EE897" stroke="black" stroke-miterlimit="10" stroke-linecap="round" stroke-linejoin="round"/>
<path d="M116.314 55.77C119.883 56.3273 123.453 56.8846 127.023 57.4419C131.661 56.4088 134.181 56.3345 134.581 57.2187C134.804 57.7118 134.368 58.5034 133.272 59.5931C135.319 59.9233 136.656 60.6118 136.652 61.2694C136.648 61.8767 135.501 62.3531 135.042 62.5242C135.882 62.6896 136.522 63.1779 136.563 63.6678C136.615 64.2823 135.744 65.1434 134.346 65.1311C134.464 65.7262 134.366 66.1091 134.192 66.3652C132.888 68.2798 125.775 65.3975 124.608 64.9169C121.703 65.1533 118.797 65.3894 115.891 65.6258" fill="#FACDC2"/>
<path d="M116.314 55.77C119.883 56.3273 123.453 56.8846 127.023 57.4419C131.661 56.4088 134.181 56.3345 134.581 57.2187C134.804 57.7118 134.368 58.5034 133.272 59.5931C135.319 59.9233 136.656 60.6118 136.652 61.2694C136.648 61.8767 135.501 62.3531 135.042 62.5242C135.882 62.6896 136.522 63.1779 136.563 63.6678C136.615 64.2823 135.744 65.1434 134.346 65.1311C134.464 65.7262 134.366 66.1091 134.192 66.3652C132.888 68.2798 125.775 65.3975 124.608 64.9169C121.703 65.1533 118.797 65.3894 115.891 65.6258" stroke="black" stroke-miterlimit="10" stroke-linecap="round" stroke-linejoin="round"/>
<path d="M132.225 62.6207C132.575 62.6842 133.003 62.7328 133.491 62.7268C134.109 62.7193 134.636 62.6264 135.042 62.5239" fill="#FACDC2"/>
<path d="M132.225 62.6207C132.575 62.6842 133.003 62.7328 133.491 62.7268C134.109 62.7193 134.636 62.6264 135.042 62.5239" stroke="black" stroke-miterlimit="10" stroke-linecap="round" stroke-linejoin="round"/>
<path d="M131.534 64.647C131.933 64.7773 132.404 64.9028 132.938 64.9939C133.459 65.0826 133.934 65.1207 134.345 65.1311" fill="#FACDC2"/>
<path d="M131.534 64.647C131.933 64.7773 132.404 64.9028 132.938 64.9939C133.459 65.0826 133.934 65.1207 134.345 65.1311" stroke="black" stroke-miterlimit="10" stroke-linecap="round" stroke-linejoin="round"/>
<path d="M132.325 58.0331C131.342 58.8151 130.654 60.3009 131.046 60.7988C131.327 61.1568 132.144 60.9759 132.562 60.8833C133.55 60.6646 134.203 60.095 134.51 59.7858C134.821 59.838 135.469 59.9928 136.054 60.5204C136.057 60.5231 136.06 60.5255 136.063 60.5282C136.525 60.9477 136.492 61.6991 136.001 62.0838C135.993 62.0904 135.984 62.0973 135.975 62.1039C135.606 62.3846 135.24 62.4847 135.043 62.5243C135.882 62.6897 136.522 63.178 136.564 63.6679C136.615 64.2824 135.745 65.1435 134.346 65.1312L133.972 66.7911C134.614 66.907 135.733 67.023 137.057 66.6961C138.66 66.3009 139.728 65.4638 140.234 65.0084C141.116 62.9731 140.937 60.6819 139.67 59.0955C137.803 56.7585 134.106 56.6159 132.325 58.0331Z" fill="#FACDC2" stroke="black" stroke-miterlimit="10" stroke-linecap="round" stroke-linejoin="round"/>
<path d="M154.491 67.5419C151.652 67.8957 147.743 67.9916 143.351 66.8542C141.942 66.4893 140.664 66.0444 139.524 65.5716C139.877 65.0757 140.447 64.1164 140.54 62.8167C140.745 59.9518 138.444 58.0555 138.191 57.8542C139.532 57.3472 141.03 56.8714 142.678 56.4828C146.936 55.4791 150.737 55.403 153.683 55.6119" fill="#EBF17A"/>
<path d="M154.491 67.5419C151.652 67.8957 147.743 67.9916 143.351 66.8542C141.942 66.4893 140.664 66.0444 139.524 65.5716C139.877 65.0757 140.447 64.1164 140.54 62.8167C140.745 59.9518 138.444 58.0555 138.191 57.8542C139.532 57.3472 141.03 56.8714 142.678 56.4828C146.936 55.4791 150.737 55.403 153.683 55.6119" stroke="black" stroke-miterlimit="10" stroke-linecap="round" stroke-linejoin="round"/>
<defs>
<filter id="filter0_d_7_894" x="140.001" y="41" width="131.758" height="145.893" filterUnits="userSpaceOnUse" color-interpolation-filters="sRGB">
<feFlood flood-opacity="0" result="BackgroundImageFix"/>
<feColorMatrix in="SourceAlpha" type="matrix" values="0 0 0 0 0 0 0 0 0 0 0 0 0 0 0 0 0 0 127 0" result="hardAlpha"/>
<feOffset/>
<feGaussianBlur stdDeviation="2.5"/>
<feComposite in2="hardAlpha" operator="out"/>
<feColorMatrix type="matrix" values="0 0 0 0 0 0 0 0 0 0 0 0 0 0 0 0 0 0 0.25 0"/>
<feBlend mode="normal" in2="BackgroundImageFix" result="effect1_dropShadow_7_894"/>
<feBlend mode="normal" in="SourceGraphic" in2="effect1_dropShadow_7_894" result="shape"/>
</filter>
<filter id="filter1_d_7_894" x="0.000610352" y="29" width="100.874" height="158.082" filterUnits="userSpaceOnUse" color-interpolation-filters="sRGB">
<feFlood flood-opacity="0" result="BackgroundImageFix"/>
<feColorMatrix in="SourceAlpha" type="matrix" values="0 0 0 0 0 0 0 0 0 0 0 0 0 0 0 0 0 0 127 0" result="hardAlpha"/>
<feOffset/>
<feGaussianBlur stdDeviation="2.5"/>
<feComposite in2="hardAlpha" operator="out"/>
<feColorMatrix type="matrix" values="0 0 0 0 0 0 0 0 0 0 0 0 0 0 0 0 0 0 0.25 0"/>
<feBlend mode="normal" in2="BackgroundImageFix" result="effect1_dropShadow_7_894"/>
<feBlend mode="normal" in="SourceGraphic" in2="effect1_dropShadow_7_894" result="shape"/>
</filter>
<filter id="filter2_d_7_894" x="83.0007" y="0" width="106.06" height="84.4341" filterUnits="userSpaceOnUse" color-interpolation-filters="sRGB">
<feFlood flood-opacity="0" result="BackgroundImageFix"/>
<feColorMatrix in="SourceAlpha" type="matrix" values="0 0 0 0 0 0 0 0 0 0 0 0 0 0 0 0 0 0 127 0" result="hardAlpha"/>
<feOffset/>
<feGaussianBlur stdDeviation="2.5"/>
<feComposite in2="hardAlpha" operator="out"/>
<feColorMatrix type="matrix" values="0 0 0 0 0 0 0 0 0 0 0 0 0 0 0 0 0 0 0.25 0"/>
<feBlend mode="normal" in2="BackgroundImageFix" result="effect1_dropShadow_7_894"/>
<feBlend mode="normal" in="SourceGraphic" in2="effect1_dropShadow_7_894" result="shape"/>
</filter>
</defs>
</svg>
