<svg width="1024" height="1029" viewBox="0 0 1024 1029" fill="none" xmlns="http://www.w3.org/2000/svg">
<path fill-rule="evenodd" clip-rule="evenodd" d="M813.48 19.0122C839.491 20.601 941.208 25.0635 1033 26.8382L1033 26.8551L1033 399.163C1032.33 399.176 1031.67 399.189 1031 399.202L1031 1188L-0.000784351 1188L-0.000749294 386L3.69212 386C2.45701 385.198 1.22606 384.407 0.000227372 383.629L0.000242289 42.3714C5.80249 38.6889 11.7186 34.7116 17.656 30.7199C40.7425 15.1991 64.1494 -0.5372 82.428 0.0140312C99.3387 0.517564 123.767 12.8205 149.024 25.5404C177.179 39.7199 206.362 54.4174 227.306 53.865C246.598 53.3562 277.656 42.3832 308.886 31.3496C341.975 19.6591 375.258 7.90046 394.941 8.44828C413.732 8.97126 453.405 17.6402 492.594 26.2033C533.197 35.0756 573.281 43.8343 589.08 43.3011C601.551 42.8802 634.534 38.5366 671.816 33.6268C727.369 26.3109 792.468 17.7378 813.48 19.0122ZM178.698 386L284.056 386C261.866 378.491 241.432 372.509 227.306 372.136C213.728 371.778 196.682 377.832 178.698 386ZM559.632 386L622.343 386C607.306 384.168 595.486 382.916 589.08 382.7C582.7 382.488 572.363 383.789 559.632 386Z" fill="black"/>
</svg>
