<svg width="39" height="38" viewBox="0 0 39 38" fill="none" xmlns="http://www.w3.org/2000/svg">
<path fill-rule="evenodd" clip-rule="evenodd" d="M38.2503 18.9878C38.2503 29.4748 29.749 37.9763 19.262 37.9763C8.77504 37.9763 0.273682 29.4748 0.273682 18.9878C0.273682 8.50088 8.77504 6.10352e-05 19.262 6.10352e-05C29.749 6.10352e-05 38.2503 8.50088 38.2503 18.9878ZM14.4257 28.9124H24.112C24.2113 28.8944 24.3121 28.8794 24.4135 28.8643H24.4135C24.6096 28.8351 24.8076 28.8057 24.9998 28.7533C27.226 28.1305 28.5908 26.6994 29.0943 24.4468C29.1299 24.2689 29.1548 24.0804 29.1787 23.9003L29.1787 23.9002L29.187 23.8373V14.1509C29.169 14.0515 29.154 13.9505 29.1389 13.849L29.1389 13.849L29.1389 13.849C29.1098 13.653 29.0804 13.4553 29.028 13.2632C28.4053 11.0371 26.9742 9.67246 24.7215 9.16893C24.5396 9.13254 24.3465 9.10691 24.1627 9.0825L24.1626 9.08249L24.112 9.07576H14.4257C14.3264 9.09381 14.2256 9.10881 14.1243 9.12388L14.1243 9.12388L14.1242 9.12389C13.9281 9.15306 13.7301 9.1825 13.5379 9.23492C11.3118 9.85771 9.94696 11.2888 9.44344 13.5414C9.40784 13.7194 9.38286 13.908 9.359 14.0882L9.359 14.0882L9.35068 14.1509V23.8373C9.36876 23.9367 9.38376 24.0377 9.39883 24.1391L9.39883 24.1392L9.39883 24.1392C9.42793 24.3351 9.4573 24.5329 9.50968 24.725C10.1325 26.9511 11.5635 28.3164 13.8162 28.8199C13.992 28.8551 14.1782 28.8797 14.3564 28.9032L14.4257 28.9124ZM19.2755 27.15H19.249H14.969C14.1342 27.15 13.3657 26.9512 12.6899 26.4609C11.6431 25.7056 11.1263 24.659 11.1263 23.3604V14.6413C11.1395 12.932 12.0936 11.5669 13.6704 11.0368C14.068 10.9043 14.5185 10.8382 14.9557 10.8382H23.6217C25.3311 10.8382 26.7092 11.7792 27.2392 13.3693C27.3717 13.7801 27.438 14.2435 27.438 14.6808V23.3203C27.438 25.0297 26.4839 26.3948 24.9071 26.9513C24.4698 27.1103 24.0193 27.15 23.5687 27.15H19.2755ZM24.3773 18.9885C24.3773 21.7977 22.0716 24.1038 19.2625 24.1038C16.4533 24.1038 14.1477 21.7844 14.1477 18.9885C14.1477 16.1794 16.4401 13.8875 19.2492 13.8875C22.0584 13.8875 24.364 16.193 24.364 19.0021L24.3773 18.9885ZM22.6149 18.9885C22.6149 17.1467 21.1176 15.6364 19.2625 15.6364C17.4206 15.6364 15.91 17.1334 15.91 18.9885C15.91 20.8304 17.4074 22.3413 19.2625 22.3413C21.1043 22.3413 22.6149 20.8436 22.6149 18.9885ZM25.8748 13.6882C25.9013 12.9991 25.3315 12.4161 24.6159 12.3896V12.4032C23.9004 12.3767 23.3174 12.9461 23.2909 13.6616C23.2776 14.3374 23.8474 14.9337 24.5364 14.9602C25.252 14.9734 25.8483 14.417 25.8748 13.6882Z" fill="white"/>
</svg>
