<svg xmlns="http://www.w3.org/2000/svg" width="162" height="147" fill="none" xmlns:v="https://vecta.io/nano"><style><![CDATA[.B{fill:#fff}.C{stroke-linejoin:round}.D{stroke-miterlimit:10}.E{stroke-width:.75}.F{stroke-linecap:round}.G{stroke:#1e1818}.H{stroke:#000}.I{fill:#1e1818}.J{fill:#eb9}.K{fill:#8ee897}.L{fill:#be7b4e}.M{fill:#d800fc}.N{fill:#eaeaea}.O{fill:#fa0581}.P{fill:#ebf17a}]]></style><g filter="url(#A)"><path d="M114.982 119.673l-69.002-1.799c-1.392-.036-2.492-1.195-2.455-2.587l2.681-102.831c.036-1.392 1.195-2.492 2.587-2.455l69.003 1.799c1.392.036 2.491 1.195 2.455 2.587l-2.681 102.83c-.038 1.392-1.195 2.492-2.587 2.456z" class="B"/><path d="M75.263 112.919l-25.085-.654a1.09 1.09 0 0 1-1.061-1.118l2.459-94.315a1.09 1.09 0 0 1 1.118-1.061l25.085.654a1.09 1.09 0 0 1 1.061 1.118l-2.459 94.315a1.09 1.09 0 0 1-1.118 1.062z" class="B"/><path d="M111.077 114.006l-24.915-.649a1.09 1.09 0 0 1-1.061-1.118l2.459-94.315a1.09 1.09 0 0 1 1.118-1.061l24.915.649a1.09 1.09 0 0 1 1.061 1.118l-2.459 94.315a1.09 1.09 0 0 1-1.118 1.061z" class="B"/><use href="#B" class="B"/><use href="#C" class="B"/><use href="#D" class="B"/><use href="#B" x="38.224" y="2.944" class="B"/><use href="#C" x="38.225" y="2.944" class="B"/><path d="M99.616 35.819l4.628-5.782-4.628 5.782z" class="B"/><path d="M128.294 84.33c2.796-3.055 7.206-3.461 9.947-1.363 2.02 1.547 2.95 4.316 2.445 7.076.553-.221 3.713-1.422 6.79.177 3.121 1.621 5.274 5.664 3.927 9.086-1.138 2.888-4.196 3.884-4.708 4.041.62.466 2.075 1.696 2.317 3.567.396 3.059-2.868 5.454-3.663 6.04-4.696 3.461-10.974 2.273-16.863 1.159-5.677-1.075-8.515-1.614-10.542-3.561-6.099-5.871-5.175-20.051 2.385-24.687 2.703-1.661 5.723-1.772 7.965-1.535z" class="B"/><path d="M34.162 82.43c-2.633-3.197-7.016-3.832-9.862-1.88-2.098 1.44-3.171 4.157-2.811 6.939-.54-.249-3.633-1.614-6.789-.177-3.202 1.456-5.562 5.382-4.395 8.87.985 2.943 3.988 4.097 4.49 4.281-.643.433-2.16 1.585-2.5 3.441-.555 3.035 2.58 5.596 3.344 6.223 4.509 3.701 10.841 2.841 16.78 2.036 5.726-.778 8.588-1.168 10.713-3.007 6.397-5.545 6.213-19.754-1.095-24.778-2.611-1.799-5.623-2.068-7.875-1.948z" class="B"/><path d="M70.135 88.318l2.888 37.893c.829.445 2.618 1.259 4.996 1.195a9.97 9.97 0 0 0 3.99-.96c.715.417 1.786.918 3.16 1.146 2.752.457 4.949-.478 5.825-.912l4.968-37.602-2.056-7.584-22.852.211-.919 6.614z" class="B"/><path d="M71.052 81.706c.303-5.128 1.233-19.378 2.93-24.785a4.68 4.68 0 0 1 .608-1.249c2.394-3.491 9.748-4.196 13.958-1.289 3.259 2.251 3.816 6.08 4.9 13.661a67.92 67.92 0 0 1 .495 14.695 20.98 20.98 0 0 1-11.258 2.929c-5.979-.173-10.133-2.875-11.633-3.962z" class="B"/><path d="M85.06 52.88c3.809-.098 6.179 1.007 7.505 1.846 7.817 4.96 7.016 18.382 6.732 23.129a44.69 44.69 0 0 1-1.363 8.58c-.781.034-1.854.001-3.081-.289a11.27 11.27 0 0 1-3.094-1.235l.279-6.665.172-9.553" class="B"/><path d="M89.337 43.953c.462-.341 1.036-.434 1.476-.212.687.347.883 1.378.441 2.061-.427.656-1.371.878-2.117.428-.183 1.992-1.325 3.676-2.991 4.387-1.566.67-3.014.232-3.457.073-1.937-.686-3.312-2.605-3.607-4.91-.715.156-1.425-.065-1.78-.567-.584-.824-.068-2.216.772-2.437.553-.145 1.086.258 1.216.363l.341-3.913 4.913-1.131c1.255-.349 2.232-.667 3.118-.174.678.377 1.01 1.064 1.178 1.546l.498 4.487z" class="B"/><path d="M90.517 44.835c-.206-.116-.46-.097-.642.049-.175.138-.252.369-.198.589" class="B"/><path d="M82.904 52.737c-3.799-.296-6.223.684-7.591 1.453-8.391 4.731-8.035 18.763-7.928 22.747a41.03 41.03 0 0 0 1.389 9.528c.873-.169 1.887-.424 2.986-.825 1.086-.395 2.016-.84 2.787-1.266l.069-6.67.326-9.549" class="B"/><path d="M74.548 84.374a13.34 13.34 0 0 1-2.198 2.407c-.792.679-1.563 1.175-2.215 1.538l-.699-2.028a18.09 18.09 0 0 0 2.326-.652c1.091-.387 2.022-.837 2.787-1.266z" class="B"/><path d="M90.159 45.316l-.48.155.48-.155z" class="B"/><use href="#E" class="B"/><path d="M83.895 47.629c.141.004.32-.005.522-.048.267-.057.478-.153.623-.234" class="B"/><use href="#F" class="B"/><use href="#G" class="B"/><use href="#H" class="B"/><path d="M78.231 44.642l.471.18-.471-.18z" class="B"/><path d="M79.287 43.138a7.02 7.02 0 0 0 1.253 2.336c.474.582.968.997 1.369 1.282.131 1.321.658 2.158 1.139 2.16.398.001.712-.574.797-.733l.88.153c.009.147.047.413.244.578.344.291.98.11 1.354-.173.489-.367.405-.813.882-1.795.276-.566.421-.662.808-1.278.355-.568.823-1.426 1.219-2.626l.319 5.353a3.67 3.67 0 0 1-1.923 3.45c-.656.353-1.455.652-2.394.765-1.873.224-3.428-.398-4.53-1.092a3.66 3.66 0 0 1-1.696-3.297l.279-5.082z" class="B"/><path d="M83.206 45.71c-.184.063-.415.143-.69.309-.661.402-.645.745-1.298 1.184-.471.319-.782.346-.77.478.016.186.687.317 1.197.3 1.042-.035 1.881-.697 2.436-1.296.345.253 1.05.687 1.975.683.84-.003 1.722-.367 1.706-.625-.012-.201-.559-.174-1.649-.646-.823-.358-.81-.504-1.284-.582-.707-.118-1.362.105-1.624.195z" class="B"/><path d="M83.688 42.788c-.728 1.378-.969 2.505-.592 2.789.188.142.593.121.883.023a1.31 1.31 0 0 0 .582-.4" class="B"/><path d="M87.299 37.968c-.55-.105-.906.281-1.531.59-.88.436-1.734.446-2.222.452-1.004.011-1.138-.276-1.892-.106-.25.057-.921.207-1.342.775-.189.256-.258.58-.393 1.227-.129.615-.124.863-.271 1.734-.118.689-.177 1.033-.258 1.035-.143.004-.298-.918-.36-1.619l-.007-.09c-.078-1.036.118-2.234.132-2.311.273-1.679-.413-1.883-.036-2.89.505-1.346 2.079-1.922 2.705-2.15.296-.109 1.413-.488 2.852-.277.592.087 1.681.26 2.659 1.122.538.475.854.983 1.03 1.322a2.15 2.15 0 0 1 .873.474c.154.141.594.579.794 2.767 0 0 .145 1.579-.301 3.181-.058.205-.158.496-.352.532-.142.026-.274-.097-.296-.119-.382-.358.161-.994-.021-1.848-.248-1.161-.953-1.16-1.025-2.206-.037-.527.112-.969-.203-1.31-.195-.216-.455-.269-.534-.285z" class="B"/><use href="#I" class="B"/><path d="M86.394 42.173l-.994-.026c-.194-.005-.347-.167-.342-.361s.167-.347.361-.342l.994.026c.194.005.347.167.342.36s-.167.347-.361.342z" class="B"/><path d="M79.052 37.812a4.16 4.16 0 0 0 .683.719c.416.345.826.546 1.126.665" class="B"/><path d="M87.66 37.919l.705-1.14-.705 1.14z" class="B"/><path d="M91.758 84.911c.462.728 1.131 1.626 2.07 2.519.756.719 1.499 1.255 2.132 1.652l1.055-2.608c-.625-.037-1.36-.129-2.161-.325-1.298-.322-2.338-.807-3.096-1.237z" class="B"/><use href="#J" class="B"/><use href="#K" class="B"/><path d="M77.143 53.425c.663.692 2.507 2.43 5.433 2.945 4.474.786 7.797-1.934 8.286-2.346" class="B"/><path d="M73.058 55.874c1.44 1.162 4.293 3.122 8.368 3.852 6.908 1.237 12.261-1.972 13.625-2.844" class="B"/><use href="#L" class="B"/><use href="#M" class="B"/><path d="M68.106 66.507c.692.512 1.744 1.173 3.143 1.653 1.478.507 2.779.62 3.663.627 1.494.688 3.427 1.39 5.747 1.793 4.909.852 8.986-.085 11.284-.817 1.025-.015 2.387-.139 3.931-.574 1.363-.386 2.471-.904 3.299-1.367" class="B"/><path d="M67.567 70.638c.728.568 1.888 1.335 3.468 1.873 1.472.501 2.77.617 3.663.627 1.511.688 3.442 1.385 5.747 1.793 5.077.898 9.307-.069 11.696-.829.945-.037 2.157-.175 3.517-.562 1.623-.463 2.896-1.126 3.79-1.681" class="B"/><path d="M67.403 75.219a13.69 13.69 0 0 0 3.143 1.654c1.611.595 3.048.781 4.069.832 1.446.622 3.239 1.227 5.343 1.589 5.252.9 9.625-.202 12.079-1.048a12.66 12.66 0 0 0 3.135-.345c1.901-.456 3.327-1.267 4.225-1.884" class="B"/><path d="M67.722 79.419c.631.4 1.448.835 2.451 1.179 1.776.606 3.353.659 4.391.603 1.303.692 2.986 1.396 5.021 1.817 5.623 1.165 10.298-.587 12.332-1.506.739.136 1.729.235 2.883.113a10.22 10.22 0 0 0 4.302-1.482" class="B"/><path d="M91.969 83.546c.602.264 1.446.549 2.483.655 1.865.191 3.352-.302 4.128-.626" class="B"/><use href="#N" class="B"/><path d="M81.396 128.524c-.309 1.046-2.75 1.133-3.343 1.155-1.748.064-4.529-.407-4.721-1.572-.186-1.137 2.098-2.961 4.323-2.788 2.126.164 4.056 2.138 3.74 3.205z" class="B"/><path d="M90.255 129.009c-.315 1.05-2.74 1.133-3.343 1.155-1.772.061-4.542-.432-4.721-1.572-.179-1.146 2.242-3.021 4.538-2.747 2.009.24 3.84 2.113 3.525 3.164z" class="B"/><path d="M35.35 126.425c-.495.587-1.285 1.718-1.159 3.054.212 2.236 2.83 3.434 4.842 4.353 1.304.596 5.447 2.492 7.598.664.179-.151.787-.683.931-1.521.279-1.626-1.331-3.605-4.13-4.819l-8.082-1.731z" class="B"/><path d="M44.89 123.624c-.495.587-1.285 1.719-1.159 3.055.212 2.235 2.83 3.433 4.842 4.352 1.304.596 5.447 2.492 7.598.665.179-.152.787-.683.931-1.521.279-1.627-1.331-3.605-4.13-4.819l-8.082-1.732z" class="B"/><path d="M31.572 81.032l23.682 1.644 1.402 43.49c-.658.581-1.785 1.411-3.378 1.882-3.133.926-5.805-.206-6.582-.568-1.261.834-3.587 2.114-6.739 2.447-5.697.601-9.886-2.337-10.966-3.147l2.582-45.748z" class="B"/><use href="#O" class="B"/><path d="M60.042 69.412c-.116-.87-.336-2.189-.769-3.757-.766-2.782-1.744-6.43-4.825-9.106-1.338-1.161-2.586-1.754-3.481-2.17-1.441-.671-5.286-2.396-10.123-1.439-1.446.286-5.552 1.162-8.47 4.883-.786 1-3.033 3.867-2.645 7.872.283 2.919 1.819 4.922 2.513 5.722" class="B"/><path d="M40.019 50.14l-.195 3.007c.394.45 1.096 1.14 2.156 1.65.873.419 2.312 1.111 3.633.458 1.026-.505 1.445-1.558 1.592-2.006l-.119-3.135-7.067.026z" class="B"/><path d="M38.07 44.825c-.5-.413-1.144-.551-1.651-.325-.795.35-1.079 1.502-.618 2.3.442.765 1.495 1.071 2.364.607 1.626 3.52 4.403 5.747 6.992 5.523a4.71 4.71 0 0 0 2.296-.871c2.394-1.767 2.169-5.386 2.081-6.792-.148-2.384-1.016-4.284-1.801-5.563-3.459-1.288-6.949-.542-8.601 1.656-.904 1.2-1.064 2.578-1.062 3.465z" class="B"/><path d="M36.684 45.749c.238-.118.525-.08.721.094.187.166.261.432.187.676" class="B"/><path d="M37.061 46.316l.532.204-.532-.204z" class="B"/><path d="M43.874 44.433l-1.01.167a.36.36 0 0 1-.412-.295l-.002-.006a.36.36 0 0 1 .295-.412l1.01-.167a.36.36 0 0 1 .411.294l.002.006a.36.36 0 0 1-.295.412z" class="B"/><path d="M46.666 44.622c1.153.863 1.301 2.16.86 2.637-.389.42-1.432.412-2.347-.255" class="B"/><path d="M47.979 43.713l-1.01.167a.36.36 0 0 1-.411-.295l-.002-.006a.36.36 0 0 1 .295-.411l1.01-.167a.36.36 0 0 1 .412.295l.002.006a.36.36 0 0 1-.295.412z" class="B"/><use href="#P" class="B"/><path d="M45.639 48.252c-.053-.118-.191-.11-1.046-.251-.893-.147-1.017-.201-1.095-.111-.227.261.205 1.445.966 1.508.69.059 1.319-.828 1.175-1.146z" class="B"/><use href="#P" x="-4.168" y="0.714" class="B"/><path d="M50.095 90.833a13.58 13.58 0 0 1-4.449.997c-1.118.057-2.101-.032-2.898-.166" class="B"/><path d="M47.03 127.487l-.394-35.591.394 35.591z" class="B"/><path d="M39.841 51.357a12.73 12.73 0 0 0-2.792 1.886c.267.633 1.238 2.706 3.601 3.94 1.732.904 3.355.911 4.1.866l.197-3.529c-.514.028-1.452.007-2.471-.459-1.711-.785-2.441-2.271-2.635-2.704z" class="B"/><path d="M44.949 54.52l1.419 3.346c.374-.062 1.078-.239 1.694-.811 1.385-1.284.978-3.317.949-3.447L47.4 52.374c-.027.184-.176 1.052-.968 1.648a2.53 2.53 0 0 1-1.483.499z" class="B"/><path d="M35.339 45.517c.038-.095.323-.776 1.079-1.019.883-.285 1.602.284 1.651.325.055-.006.98-.115 1.399-.971.405-.83-.033-1.604-.068-1.662.556.539 1.383.655 2.015.297.527-.296.848-.88.837-1.51.184.806.922 1.342 1.683 1.27.658-.062 1.224-.566 1.383-1.252.328.704 1.039 1.089 1.691.963.663-.127.985-.73 1.029-.813.964.241 1.937-.109 2.386-.814.594-.932.227-2.427-1.023-3.093.022-.129.181-1.178-.561-1.977-.627-.674-1.64-.896-2.561-.557-.442-.782-1.297-1.239-2.177-1.16-.82.073-1.54.597-1.874 1.361-.623-.529-1.479-.672-2.198-.364-.855.367-1.373 1.314-1.225 2.297-1.189-.909-2.748-.529-3.261.406-.387.704-.19 1.747.549 2.468-1.243-.286-2.267.554-2.304 1.35-.03.64.572 1.37 1.491 1.571a1.56 1.56 0 0 0-.959 1.507c.031.619.43 1.162 1.017 1.378z" class="B"/><path d="M57.236 71.39a20.12 20.12 0 0 0 4.151-2.332c3.616-2.641 5.529-5.907 6.473-7.888a7.41 7.41 0 0 1-1.751-1.183 7.54 7.54 0 0 1-1.896-2.717 57.63 57.63 0 0 0-4.104 1.303c-1.325.477-2.56.977-3.704 1.481" class="B"/><path d="M64.214 57.267c1.784-4.02 3.044-5.936 3.782-5.754.372.092.611.721.718 1.884 1.171-1.001 2.203-1.43 2.574-1.112.342.295.062 1.173-.062 1.515.497-.397 1.081-.524 1.379-.314.373.265.443 1.173-.235 1.96.383.219.556.458.625.68.57 1.79-4.684 4.786-5.134 5.04a5.44 5.44 0 0 1-2.362-1.496c-.863-.934-1.172-1.931-1.285-2.404z" class="B"/><use href="#Q" class="B"/><path d="M70.744 56.81a7.52 7.52 0 0 0 .872-.63 7.33 7.33 0 0 0 .754-.732" class="B"/><path d="M37.102 54.12c-6.017 2.588-9.638 8.41-9.024 14.139.729 6.8 7.057 10.091 7.685 10.406 6.048 3.021 12.095.377 14.257-.564 4.191-1.825 6.769-4.674 8.032-6.297a7.4 7.4 0 0 1-1.453-1.536c-.838-1.187-1.14-2.359-1.262-3.063-1.268-.191-2.774-.311-4.46-.24-3.248.137-5.897.931-7.734 1.663" class="B"/><use href="#R" class="B"/><path d="M55.336 67.204c2.613-3.536 4.258-5.136 4.939-4.796.343.171.441.835.292 1.993 1.359-.724 2.462-.917 2.755-.526.271.36-.196 1.159-.39 1.466.571-.278 1.169-.278 1.414-.006.307.341.178 1.242-.656 1.863.327.296.442.568.464.8.168 1.869-5.609 3.655-6.104 3.806a5.43 5.43 0 0 1-2.715-4.598z" class="B"/><path d="M61.307 66.664a4.96 4.96 0 0 0 .797-.506c.363-.282.634-.574.828-.817" class="B"/><path d="M61.809 68.176a7.11 7.11 0 0 0 .987-.425 7.23 7.23 0 0 0 .894-.55" class="B"/><path d="M33.325 91.263a7.04 7.04 0 0 0 2.398-.533c1.374-.573 2.241-1.449 2.674-1.957" class="B"/><path d="M112.956 131.418c-.836 1.009-2.336 2.483-4.52 3.133-1.565.465-2.354.171-2.602.065-.777-.332-1.441-1.037-1.613-1.715-.379-1.485 1.386-3.69 4.619-4.991 1.174.106 5.233.535 5.416 1.869.043.311-.099.847-1.3 1.639z" class="B"/><path d="M119.273 133.044c-.836 1.008-2.335 2.482-4.52 3.132-1.565.465-2.354.172-2.602.066-.777-.332-1.441-1.038-1.613-1.715-.378-1.486 1.386-3.69 4.619-4.991 2.036-1.511 4.374-.984 5.008.173.472.862.099 2.249-.892 3.335z" class="B"/><path d="M127.402 90.781c-.277-1.261-.654-2.288-.968-3.02l-18.725-1.204a15.63 15.63 0 0 0-1.305 2.9s-.616 1.855-.766 3.956c-.193 2.702-.28 16.055-.09 34.304.538.482 2.226 1.861 4.709 1.948a7.21 7.21 0 0 0 2.88-.498c.713.355 1.52.688 2.425.954 3.869 1.143 7.335.434 9.292-.158l2.548-39.182z" class="B"/><path d="M100.867 71.104c-.878-1.946-1.562-2.874-2.053-2.781-.264.05-.473.396-.625 1.038-.587-.718-1.152-1.081-1.406-.933-.235.137-.161.688-.125.905-.252-.289-.585-.427-.783-.333-.249.118-.387.648-.07 1.186-.256.087-.383.212-.443.336-.449.934 2.259 3.04 2.707 3.385.348-.085.97-.287 1.572-.799.863-.737 1.141-1.653 1.227-2.004z" class="B"/><path d="M97.44 70.31l-.427-.477-.356-.498" class="B"/><path d="M96.621 71.166l-.551-.652-.268-.328" class="B"/><path d="M132.404 108.105c.007-.393-.373-.673-.747-.555l-1.161.345-.046.012c.228-1.573.36-4.203-.676-7.157a14.92 14.92 0 0 0-2.506-4.47l-.544 1.916a12.63 12.63 0 0 1 1.184 2.011c1.474 3.127 1.343 6.19 1.057 8.079-3.231.747-6.253.956-8.908.892.268-2.546.767-5.389 1.645-8.422l1.32-3.929c.788-.28 1.065-1.038.853-1.427-.165-.305-.674-.467-1.207-.33l-.853 1.563c-2.245 4.41-3.136 8.803-3.398 12.584l-1.368.032a.71.71 0 0 0-.693.713l.109 19.885a1.07 1.07 0 0 0 1.15 1.058 68.71 68.71 0 0 0 7.241-.946c2.356-.437 4.524-.965 6.488-1.531.451-.129.762-.54.769-1.008l.291-19.314z" class="B"/><path d="M116.816 92.595c-.474.106-1.397.247-2.521.01-.882-.187-1.537-.533-1.922-.774" class="B"/><path d="M114.295 92.605l-1.156 36.56 1.156-36.56z" class="B"/><path d="M126.284 80.655a11.25 11.25 0 0 0 1.023-1.943c1.283-3.144 1.801-8.424-1.375-11.802-2.299-2.446-5.327-2.814-7.002-3.031-1.711-.223-5.402-.701-8.704 1.711-3.94 2.877-4.26 7.632-4.295 8.346l-5.096-2.887c-.138.386-.511 1.256-1.407 1.95a4.24 4.24 0 0 1-1.627.773c.426 1.197 2.094 5.431 6.518 7.627 1.707.847 3.322 1.143 4.509 1.24a8.83 8.83 0 0 1-.276 1.726 8.9 8.9 0 0 1-.872 2.143c1.496.955 4.067 2.315 7.518 2.839 5.295.805 9.474-.84 11.196-1.635-.202-.838-.377-1.856-.431-3.019a16.34 16.34 0 0 1 .321-4.039z" class="B"/><path d="M123.165 49.907c1.498 1.208 2.022 2.762 2.439 3.995.855 2.532.71 4.872.406 6.502-.125.664-.699 1.147-1.377 1.165l-4.797.057-7.413-.176c-.759-.035-1.359-.65-1.372-1.408a16.19 16.19 0 0 1 .372-3.718c.554-2.525 1.286-5.849 4.189-7.307 2.387-1.197 5.516-.753 7.553.891z" class="B"/><path d="M120.156 62.337a10.39 10.39 0 0 0-2.551-.283c-1.249.016-2.28.256-3.004.486a2.93 2.93 0 0 0 2.897 1.94c1.245-.065 2.32-.932 2.658-2.143z" class="B"/><path d="M119.911 64c-.161.191-.938 1.083-2.263 1.216-1.634.164-2.716-.96-2.84-1.095a3.12 3.12 0 0 0 .601-1.419 3.14 3.14 0 0 0-.141-1.502l4.213-.146a3.18 3.18 0 0 0-.146 1.558 3.14 3.14 0 0 0 .576 1.387z" class="B"/><path d="M112.766 58.024c.119.751.496 3.166 2.531 4.162 1.403.689 2.75.356 3.163.233 1.808-.536 3.16-2.228 3.54-4.327.648.177 1.31.008 1.658-.434.576-.728.168-2.028-.591-2.27-.5-.16-1.007.184-1.131.273l-.126-3.601c-.299-.243-2.056-1.631-4.447-1.272-1.525.229-2.535 1.052-2.94 1.425-.404.514-2.134 2.826-1.657 5.811z" class="B"/><path d="M111.872 57.139l.431.165-.431-.165z" class="B"/><path d="M118.157 56.455c.146.004.268-.112.272-.258s-.112-.268-.258-.272-.268.112-.272.258.112.268.258.272z" class="B"/><path d="M117.309 58.396c-.1-.057-.27.337-.788.54-.553.217-.982.014-1.019.124-.051.153.667.822 1.273.578.589-.237.675-1.161.534-1.242z" class="B"/><path d="M114.387 55.776c.013.147-.094.276-.239.289s-.276-.094-.289-.239.094-.276.239-.289.274.094.289.239z" class="B"/><path d="M123.162 56.648a.53.53 0 0 0-.59.045c-.159.127-.23.34-.181.54" class="B"/><path d="M122.832 57.09l-.439.143.439-.143z" class="B"/><path d="M115.803 56.606a.79.79 0 0 0-.679-.055c-.299.126-.444.434-.445.686-.002.389.337.766.824.837" class="B"/><path d="M118.979 55.557a1.13 1.13 0 0 0-.522-.237c-.382-.066-.679.089-.769.14" class="B"/><use href="#S" class="B"/><path d="M119.398 51.882c-1.346 1.828-2.796 2.77-3.589 2.392-.159-.076-.353-.235-.505-.592-.474.215-1.111.584-1.651 1.23-.882 1.054-.839 2.054-1.166 2.066-.473.016-1.342-2.031-.979-4.086.08-.447.527-2.69 2.645-3.862 1.747-.968 3.965-.825 5.772.323.956.017 1.491.334 1.777.567 1.29 1.053 1.433 3.636.134 6.45-.137.299-.567.288-.689-.018l-.18-.452-1.569-4.017z" class="B"/><path d="M120.507 64.162l-.351-1.825c-.191.202-1.155 1.167-2.72 1.23-1.587.064-2.633-.845-2.835-1.027l-.572 1.547c.137.212 1.02 1.532 2.698 1.774 1.435.208 2.898-.453 3.78-1.699z" class="B"/><path d="M109.262 72.72c-.655 1.406-.893 2.609-.989 3.398-.053.431-.113.948-.058 1.63.09 1.117.4 1.616.596 2.454.157.677.263 1.672-.029 2.996" class="B"/><use href="#T" class="B"/><path d="M119.769 122.683l.873.267a.93.93 0 0 1 .616 1.159l-.043.138a.93.93 0 0 1-1.159.617l-.873-.267a.93.93 0 0 1-.616-1.159l.043-.138c.15-.487.67-.765 1.159-.617z" class="B"/><path d="M122.341 122.686l1.689.516c.605.185.949.83.764 1.434l-.335 1.1c-.185.605-.83.949-1.434.764l-1.69-.516c-.841-.257-1.319-1.155-1.062-1.996l.072-.239c.257-.841 1.154-1.32 1.996-1.063z" class="B"/><path d="M123.907 123.316l.146-.1.151-.105 2.03.137c.286.021.558-.122.707-.366l.653-1.078c.096-.155.242-.273.416-.329l.484-.162a.58.58 0 0 0 .366-.365l.155-.46c0-.004.112-.332.198-.581a.58.58 0 0 0-.071-.514l-.136-.201a.58.58 0 0 1-.055-.556c.016-.04.039-.079.067-.118l.043-.061c.002-.002.041-.057.093-.125a.58.58 0 0 1 .641-.209l1.675.526c.414.13.598.612.378.986l-2.728 4.64 1.67 1.824a.77.77 0 0 1-.002 1.043l-1.196 1.289a.77.77 0 0 1-.795.212l-5.193-1.63c-.401-.127-.629-.55-.507-.953l.81-2.744z" class="B"/><path d="M127.065 122.676l-.642-.227-.337.728c.053.039.104.059.148.07.264.061.59-.173.831-.571z" class="B"/><path d="M124.053 123.216l.151-.105 2.03.137c.286.021.558-.122.707-.366l.653-1.078c.096-.155.242-.273.416-.329l.484-.162a.58.58 0 0 0 .366-.365l.155-.46c0-.004.112-.332.198-.581a.58.58 0 0 0-.071-.514l-.136-.201a.58.58 0 0 1-.055-.556l.723 1.232c.137.231.143.517.015.754l-1.674 3.122c-.105.195-.049.435.132.564l.804.577c.373.268.438.797.14 1.145l-1.819 2.135-2.536-.795 2.391-2.677c.167-.187.086-.485-.154-.561l-2.92-.916z" class="B"/><path d="M118.583 123.389l-2.159-.676 2.159.676z" class="B"/><path d="M118.112 112.413l.849 17.09-.849-17.09z" class="B"/><path d="M131.295 109.405l-1.407 15.965 1.407-15.965z" class="B"/><path d="M124.415 94.305c-.979.123-1.502.527-1.749.765-.208.203-.504.562-.41.722.054.092.2.06.502.154a2.07 2.07 0 0 1 .459.207c-.636.66-.664 1.428-.369 1.684.218.19.652.133 1.048-.065-.334.332-.323.849-.051 1.115.297.295.886.266 1.192-.161.007.036.07.333.349.466.237.115.534.065.742-.129.355.28.618.321.805.28 1.219-.26 1.25-4.261 1.251-4.887l-.562-4.158-3.809-1.289.602 5.294z" class="B"/><path d="M124.255 97.418l-.485.519.485-.519z" class="B"/><path d="M125.343 98.183l-.306.547.306-.547z" class="B"/><path d="M126.321 98.592l-.193.476.193-.476z" class="B"/><path d="M121.752 64.42c2.474.822 4.016 2.005 4.91 2.841 6.759 6.307 4.122 18.354 3.535 21.03-.593 2.71-1.427 4.839-2.015 6.17l-4.506-.995.413-10.161.332-7.045" class="B"/><path d="M80.479 118.773L83.292 10.9m-25.5 31.258l11.392-13.767m-6.047 11.127l4.282-4.75m-6.028-1.892l4.629-5.782m29.997 18.008l11.392-13.767m-6.046 11.127l4.282-4.75m-6.028-1.894l4.628-5.782M85.06 52.88c3.809-.098 6.179 1.007 7.505 1.846 7.817 4.96 7.016 18.382 6.732 23.129a44.69 44.69 0 0 1-1.363 8.58c-.781.034-1.854.001-3.081-.289a11.27 11.27 0 0 1-3.094-1.235l.279-6.665.172-9.553m-1.694-23.859c-.206-.116-.46-.097-.642.049-.175.138-.252.369-.198.589m-6.773 7.264c-3.799-.296-6.223.684-7.591 1.453-8.391 4.731-8.035 18.763-7.928 22.747a41.03 41.03 0 0 0 1.389 9.528c.873-.169 1.887-.424 2.986-.825 1.086-.395 2.016-.84 2.787-1.266l.069-6.67m0 0l.326-9.549m-.326 9.549c-1.021-.051-2.458-.237-4.069-.832-1.341-.495-2.39-1.123-3.143-1.653m7.212 2.485c1.446.622 3.239 1.227 5.343 1.589 5.252.9 9.625-.202 12.079-1.048.846.013 1.923-.055 3.135-.345 1.901-.456 3.327-1.267 4.225-1.884m-9.238-30.699l-.48.155m-5.784 2.158c.141.004.32-.005.522-.048.267-.057.478-.153.623-.234m-7.143-3.205c.211-.105.464-.072.639.083.167.147.233.382.167.598l-.471-.18m5.457-1.854c-.728 1.378-.969 2.505-.592 2.789.188.142.593.121.883.023a1.31 1.31 0 0 0 .582-.4m-5.509-7.389a4.16 4.16 0 0 0 .683.719c.416.345.826.546 1.126.665m6.799-1.276l.705-1.14m-5.6 53.221l-.77 36.446m-1.645-36.5c.752.006 1.526.027 2.318.06a71.93 71.93 0 0 1 2.703.166m-8.227-36.749c.663.692 2.507 2.43 5.433 2.945 4.474.786 7.797-1.934 8.286-2.346m-17.804 1.85c1.44 1.162 4.293 3.122 8.368 3.852 6.908 1.237 12.261-1.972 13.625-2.844M70.905 59.16c1.848 1.298 5.572 3.527 10.767 4.148 7.517.897 13.197-2.162 15.07-3.28m-27.577 2.988c2.475 1.403 7.264 3.684 13.713 4.091 7.245.458 12.803-1.689 15.435-2.91m-30.206 2.311a11.62 11.62 0 0 0 3.143 1.654c1.478.507 2.779.62 3.663.627 1.494.688 3.427 1.39 5.747 1.793 4.909.852 8.986-.085 11.284-.817 1.025-.015 2.387-.139 3.931-.574 1.364-.386 2.471-.904 3.299-1.367m-31.605 2.816c.728.568 1.888 1.335 3.468 1.873 1.472.501 2.77.617 3.663.627 1.511.688 3.442 1.385 5.747 1.793 5.077.898 9.307-.069 11.696-.829.945-.037 2.157-.175 3.517-.562 1.623-.463 2.896-1.126 3.79-1.681m-31.727 7.561c.631.4 1.448.835 2.451 1.179 1.776.606 3.353.659 4.391.603 1.303.692 2.986 1.396 5.021 1.817 5.623 1.165 10.298-.587 12.332-1.506.739.136 1.729.235 2.883.113a10.22 10.22 0 0 0 4.302-1.482m-7.133 3.403c.602.264 1.446.549 2.483.655 1.865.191 3.352-.302 4.128-.626m-30.519-.266c.63.216 1.465.429 2.459.493 1.693.106 3.06-.272 3.882-.576m-14.36-13.816c-.116-.87-.336-2.189-.769-3.757-.766-2.782-1.744-6.43-4.825-9.106-1.338-1.161-2.586-1.754-3.481-2.17-1.441-.671-5.286-2.396-10.123-1.439-1.446.286-5.552 1.162-8.47 4.883-.786 1-3.033 3.867-2.645 7.872.283 2.919 1.819 4.922 2.513 5.722m4.444-25.667c.238-.118.525-.08.721.094.187.166.261.432.187.676l-.532-.204m9.605-1.694c1.153.863 1.301 2.16.86 2.637-.389.42-1.432.412-2.347-.255m4.916 43.829a13.58 13.58 0 0 1-4.449.997c-1.118.057-2.101-.032-2.898-.166m4.283 35.822l-.394-35.591m10.6-20.506a20.12 20.12 0 0 0 4.151-2.332c3.616-2.641 5.529-5.907 6.473-7.888a7.41 7.41 0 0 1-1.751-1.183 7.54 7.54 0 0 1-1.896-2.717 57.63 57.63 0 0 0-4.104 1.303c-1.325.477-2.56.977-3.704 1.481m15.964-4.605c.678-.787.608-1.695.235-1.96-.297-.211-.881-.083-1.379.314.124-.343.404-1.221.062-1.515-.371-.318-1.403.11-2.574 1.112-.107-1.163-.346-1.791-.718-1.884-.738-.183-1.999 1.734-3.782 5.754.114.473.422 1.47 1.285 2.404a5.44 5.44 0 0 0 2.362 1.496c.45-.253 5.704-3.25 5.134-5.04-.07-.222-.242-.461-.625-.68zm0 0a7.33 7.33 0 0 1-.754.732 7.52 7.52 0 0 1-.872.63m-.816-1.364a4.94 4.94 0 0 0 .668-.667c.293-.353.494-.698.631-.976m-34.125.317c-6.017 2.588-9.638 8.41-9.024 14.139.729 6.8 7.057 10.091 7.685 10.406 6.048 3.021 12.095.377 14.257-.564 4.191-1.825 6.769-4.674 8.032-6.297a7.4 7.4 0 0 1-1.453-1.536c-.838-1.187-1.14-2.359-1.262-3.063m0 0c-1.268-.191-2.774-.311-4.46-.24-3.248.137-5.897.931-7.734 1.663m12.194-1.423a18.27 18.27 0 0 0-.109-1.734c-.245-2.212-.852-4.077-1.491-5.538m1.6 7.272c2.613-3.536 4.258-5.136 4.939-4.796.343.171.441.835.292 1.993 1.359-.724 2.462-.917 2.755-.526.271.36-.196 1.159-.39 1.466.571-.278 1.169-.278 1.414-.006.307.341.178 1.242-.656 1.863.327.296.442.568.464.8.168 1.869-5.609 3.655-6.104 3.806a5.43 5.43 0 0 1-2.715-4.598zm5.971-.54c.236-.12.511-.284.797-.505a4.95 4.95 0 0 0 .828-.817m-1.123 2.834a7.11 7.11 0 0 0 .987-.425 7.23 7.23 0 0 0 .894-.55M33.325 91.263a7.04 7.04 0 0 0 2.398-.533c1.374-.573 2.241-1.449 2.674-1.957M97.44 70.31c-.136-.137-.282-.295-.427-.477-.138-.175-.256-.341-.356-.498m-.036 1.832l-.551-.652-.268-.328m21.014 22.409c-.474.106-1.397.247-2.521.01m0 0c-.882-.187-1.537-.533-1.922-.774m1.922.774l-1.156 36.56m7.017-66.828a10.39 10.39 0 0 0-2.551-.283c-1.249.016-2.28.256-3.004.486m5.555-.203c-.338 1.211-1.413 2.078-2.658 2.143a2.93 2.93 0 0 1-2.897-1.94m5.555-.203l.351 1.825c-.882 1.246-2.345 1.907-3.78 1.699-1.678-.241-2.561-1.561-2.698-1.774l.572-1.547m5.555-.203c-.191.202-1.155 1.167-2.72 1.23-1.587.064-2.633-.845-2.835-1.027m-2.729-5.401l.431.165m10.859-.657a.53.53 0 0 0-.59.045c-.159.127-.23.34-.181.54m.441-.143l-.439.143m-6.59-.627a.79.79 0 0 0-.679-.055c-.299.126-.444.434-.445.686-.002.389.337.766.824.837m3.476-2.517a1.13 1.13 0 0 0-.522-.237c-.382-.066-.679.089-.769.14m-2.813-.188c-.086-.07-.264-.193-.522-.237-.382-.066-.679.089-.769.14m-4.322 17.545c-.655 1.406-.893 2.609-.989 3.398-.053.431-.113.948-.058 1.63.09 1.117.4 1.616.596 2.454.157.677.263 1.672-.029 2.996m15.271 40.019l-.146.1-.81 2.744c-.122.403.106.826.507.953l5.193 1.63a.77.77 0 0 0 .795-.212l1.196-1.289a.77.77 0 0 0 .002-1.043l-1.67-1.824 2.728-4.64c.22-.374.036-.856-.378-.986l-1.675-.526a.58.58 0 0 0-.641.209l-.093.125c0 .002-.018.026-.043.061s-.051.078-.067.118m-4.898 4.58l.151-.105 2.03.137c.286.021.558-.122.707-.366l.653-1.078c.096-.155.242-.273.416-.329l.484-.162a.58.58 0 0 0 .366-.365l.155-.46c0-.004.112-.332.198-.581a.58.58 0 0 0-.071-.514l-.136-.201a.58.58 0 0 1-.055-.556m-4.898 4.58l2.92.916c.24.076.321.374.154.561l-2.391 2.677 2.536.795 1.819-2.135c.298-.348.233-.877-.14-1.145l-.804-.577c-.181-.129-.237-.369-.132-.564l1.674-3.122c.128-.237.122-.523-.015-.754l-.723-1.232m-10.368 4.753l-2.159-.676m1.688-10.3l.849 17.09m12.334-20.098l-1.407 15.965m-5.633-27.952l-.485.519m1.573.246l-.306.547m1.284-.138l-.193.476m-4.376-34.648c2.474.822 4.016 2.005 4.91 2.841 6.759 6.307 4.122 18.354 3.535 21.03-.594 2.71-1.427 4.839-2.015 6.17l-4.506-.995.413-10.161.332-7.045m-9.439 43.413l-69.002-1.799c-1.392-.036-2.492-1.195-2.455-2.587l2.681-102.831c.036-1.392 1.195-2.492 2.587-2.455l69.003 1.799c1.392.036 2.491 1.195 2.455 2.587l-2.681 102.83c-.038 1.392-1.195 2.492-2.587 2.456zm-39.719-6.754l-25.085-.654a1.09 1.09 0 0 1-1.061-1.118l2.459-94.315a1.09 1.09 0 0 1 1.118-1.061l25.085.654a1.09 1.09 0 0 1 1.061 1.118l-2.459 94.315a1.09 1.09 0 0 1-1.118 1.062zm35.814 1.087l-24.915-.649a1.09 1.09 0 0 1-1.061-1.118l2.459-94.315a1.09 1.09 0 0 1 1.118-1.061l24.915.649a1.09 1.09 0 0 1 1.061 1.118l-2.459 94.315a1.09 1.09 0 0 1-1.118 1.061zm17.217-29.676c2.796-3.055 7.206-3.461 9.947-1.363 2.02 1.547 2.95 4.316 2.445 7.076.553-.221 3.713-1.422 6.79.177 3.121 1.621 5.274 5.664 3.927 9.086-1.138 2.888-4.196 3.884-4.708 4.041.62.466 2.075 1.696 2.317 3.567.396 3.059-2.868 5.454-3.663 6.04-4.696 3.461-10.974 2.273-16.863 1.159-5.677-1.075-8.515-1.614-10.542-3.561-6.099-5.871-5.175-20.051 2.385-24.687 2.703-1.661 5.723-1.772 7.965-1.535zm-94.132-1.9c-2.633-3.197-7.016-3.832-9.862-1.88-2.098 1.44-3.171 4.157-2.811 6.939-.54-.249-3.633-1.614-6.789-.177-3.202 1.456-5.562 5.382-4.395 8.87.985 2.943 3.988 4.097 4.49 4.281-.643.433-2.16 1.585-2.5 3.441-.555 3.035 2.58 5.596 3.344 6.223 4.509 3.701 10.841 2.841 16.78 2.036 5.726-.778 8.588-1.168 10.713-3.007 6.397-5.545 6.213-19.754-1.095-24.778-2.611-1.799-5.623-2.068-7.875-1.948zm35.973 5.888l2.888 37.893c.829.445 2.618 1.259 4.996 1.195a9.97 9.97 0 0 0 3.99-.96c.715.417 1.786.918 3.16 1.146 2.752.457 4.949-.478 5.825-.912l4.968-37.602-2.056-7.584-22.852.211-.919 6.614zm.917-6.612c.303-5.128 1.233-19.378 2.93-24.785a4.68 4.68 0 0 1 .608-1.249c2.394-3.491 9.748-4.196 13.958-1.289 3.259 2.251 3.816 6.08 4.9 13.661a67.92 67.92 0 0 1 .495 14.695 20.98 20.98 0 0 1-11.258 2.929c-5.979-.173-10.133-2.875-11.633-3.962zm18.285-37.753c.462-.341 1.036-.434 1.476-.212.687.347.883 1.378.441 2.061-.427.656-1.371.878-2.117.428-.183 1.992-1.325 3.676-2.991 4.387-1.566.67-3.014.232-3.457.073-1.937-.686-3.312-2.605-3.607-4.91-.715.156-1.425-.065-1.78-.567-.584-.824-.068-2.216.772-2.437.553-.145 1.086.258 1.216.363l.341-3.913a59.39 59.39 0 0 0 4.913-1.131c1.255-.349 2.232-.667 3.118-.174.678.377 1.01 1.064 1.178 1.546l.498 4.487zM74.548 84.374c-.5.703-1.214 1.564-2.198 2.407-.792.679-1.563 1.175-2.215 1.538l-.699-2.028a18.09 18.09 0 0 0 2.326-.652c1.091-.387 2.022-.837 2.787-1.266zm7.237-41.525a.29.29 0 0 1-.297.282.29.29 0 0 1-.282-.297.29.29 0 0 1 .297-.282.29.29 0 0 1 .282.297zm-.581 7.993l-.371 2.25c.162.205 1.255 1.544 3.151 1.641 1.701.086 2.843-.888 3.068-1.089l-.085-2.73-5.764-.071zm4.39-7.948c-.034.157.065.31.22.346s.31-.065.346-.22-.065-.31-.22-.346-.312.063-.346.22zm-6.308.244a7.02 7.02 0 0 0 1.253 2.336c.474.582.968.997 1.369 1.282.131 1.321.658 2.158 1.139 2.16.398.001.712-.574.797-.733l.88.153c.009.147.047.413.244.578.344.291.98.11 1.354-.173.489-.367.405-.813.882-1.795.276-.566.421-.662.808-1.278.355-.568.823-1.426 1.219-2.626l.319 5.353a3.67 3.67 0 0 1-1.923 3.45c-.656.353-1.455.652-2.394.765-1.873.224-3.428-.398-4.53-1.092a3.66 3.66 0 0 1-1.696-3.297l.279-5.082zm3.918 2.572a3.32 3.32 0 0 0-.691.309c-.661.402-.645.745-1.298 1.184-.471.319-.782.346-.77.478.016.186.687.317 1.197.3 1.042-.035 1.881-.697 2.436-1.296.345.253 1.05.687 1.975.683.84-.003 1.722-.367 1.706-.625-.012-.201-.559-.174-1.649-.646-.823-.358-.81-.504-1.284-.582-.707-.118-1.362.105-1.624.195zm4.093-7.742c-.55-.105-.906.281-1.531.59-.88.436-1.734.446-2.222.452-1.004.011-1.138-.276-1.892-.106-.25.057-.921.207-1.342.775-.189.256-.258.58-.393 1.227-.129.615-.124.863-.271 1.734-.118.689-.177 1.033-.258 1.035-.143.004-.298-.918-.36-1.619l-.007-.09c-.078-1.036.118-2.234.132-2.311.273-1.679-.413-1.883-.035-2.89.505-1.346 2.078-1.922 2.705-2.15.296-.109 1.413-.488 2.852-.277.592.087 1.681.26 2.659 1.122.538.475.854.983 1.03 1.322a2.15 2.15 0 0 1 .873.474c.154.141.594.579.794 2.767 0 0 .145 1.579-.301 3.181-.058.205-.158.496-.352.532-.142.026-.274-.097-.296-.119-.382-.358.161-.994-.021-1.848-.248-1.161-.953-1.16-1.025-2.206-.037-.527.112-.969-.203-1.31-.195-.216-.455-.269-.534-.285zm-5.169 4.093l-.994-.026c-.194-.005-.347-.167-.342-.361s.167-.347.36-.342l.994.026c.194.005.347.167.342.36s-.167.347-.361.342zm4.264.111l-.994-.026c-.194-.005-.347-.167-.342-.361s.167-.347.361-.342l.994.026c.194.005.347.167.342.36s-.167.347-.361.342zm5.364 42.738a13.35 13.35 0 0 0 2.07 2.519 13.43 13.43 0 0 0 2.132 1.652l1.055-2.608c-.625-.037-1.36-.129-2.161-.325-1.298-.322-2.338-.807-3.096-1.237zm-10.362 43.613c-.309 1.046-2.75 1.133-3.343 1.155-1.748.064-4.529-.407-4.721-1.572-.186-1.137 2.098-2.961 4.323-2.788 2.126.164 4.056 2.138 3.74 3.205zm8.859.485c-.315 1.05-2.74 1.133-3.343 1.155-1.772.061-4.542-.432-4.721-1.572-.179-1.146 2.242-3.021 4.538-2.747 2.009.24 3.84 2.113 3.525 3.164zm-54.905-2.584c-.495.587-1.285 1.718-1.159 3.054.212 2.236 2.83 3.434 4.842 4.353 1.304.596 5.447 2.492 7.598.664.179-.151.787-.683.931-1.521.279-1.626-1.331-3.605-4.13-4.819l-8.082-1.731zm9.54-2.801c-.495.587-1.285 1.719-1.159 3.055.212 2.235 2.83 3.433 4.842 4.352 1.304.596 5.447 2.492 7.598.665.179-.152.787-.683.931-1.521.279-1.627-1.331-3.605-4.13-4.819l-8.082-1.732zM31.572 81.032l23.682 1.644 1.402 43.49c-.658.581-1.785 1.411-3.378 1.882-3.133.926-5.805-.206-6.582-.568-1.261.834-3.587 2.114-6.739 2.447-5.697.601-9.886-2.337-10.966-3.147l2.582-45.748zm12.873 6.498c5.722-.041 9.811-2.525 11.39-3.606l-.015-15.199-25.263-.042.058 13.558c1.235 1.1 6.279 5.343 13.83 5.29zm-4.426-37.39l-.195 3.007c.394.45 1.096 1.14 2.156 1.65.873.419 2.312 1.111 3.633.458 1.026-.505 1.445-1.558 1.592-2.006l-.119-3.135-7.067.026zm-1.95-5.315c-.5-.413-1.144-.551-1.651-.325-.795.35-1.079 1.502-.618 2.3.442.765 1.495 1.071 2.364.607 1.626 3.52 4.403 5.747 6.992 5.523a4.71 4.71 0 0 0 2.296-.871c2.394-1.767 2.169-5.386 2.081-6.792-.148-2.384-1.016-4.284-1.801-5.563-3.459-1.288-6.949-.542-8.601 1.656-.904 1.2-1.064 2.578-1.062 3.465zm5.804-.392l-1.01.167a.36.36 0 0 1-.412-.295l-.002-.006a.36.36 0 0 1 .295-.412l1.01-.167a.36.36 0 0 1 .411.294l.002.006a.36.36 0 0 1-.295.412zm4.106-.72l-1.01.167a.36.36 0 0 1-.411-.295l-.002-.006a.36.36 0 0 1 .295-.411l1.01-.167a.36.36 0 0 1 .412.295l.002.006a.36.36 0 0 1-.295.412zm-.038.736a.3.3 0 0 1-.306.291.3.3 0 0 1-.291-.306.3.3 0 0 1 .306-.291.3.3 0 0 1 .291.306zm-2.302 3.803c-.053-.118-.191-.11-1.046-.251-.893-.147-1.017-.201-1.095-.111-.227.261.205 1.445.966 1.508.69.059 1.319-.828 1.175-1.146zm-1.865-3.088a.3.3 0 0 1-.306.291.3.3 0 0 1-.291-.306.3.3 0 0 1 .306-.291.3.3 0 0 1 .291.306zm-3.933 6.193a12.73 12.73 0 0 0-2.792 1.886c.267.633 1.238 2.706 3.601 3.94 1.732.904 3.355.911 4.1.866l.197-3.529c-.514.028-1.452.007-2.471-.459-1.711-.785-2.441-2.271-2.635-2.704zm5.108 3.164l1.419 3.346c.374-.062 1.078-.239 1.694-.811 1.385-1.284.978-3.317.949-3.447L47.4 52.374c-.027.184-.176 1.052-.968 1.648a2.53 2.53 0 0 1-1.483.499zm-9.61-9.003c.038-.095.323-.776 1.079-1.019.883-.285 1.602.284 1.651.325.055-.006.98-.115 1.399-.971.405-.83-.033-1.604-.068-1.662.556.539 1.383.655 2.015.297.527-.296.848-.88.837-1.51.184.806.922 1.342 1.683 1.27.658-.062 1.223-.566 1.382-1.252.328.704 1.039 1.089 1.691.963.663-.127.985-.73 1.029-.813.964.241 1.937-.109 2.386-.814.594-.932.227-2.427-1.023-3.093.022-.129.181-1.178-.561-1.977-.627-.674-1.64-.896-2.561-.557-.442-.782-1.297-1.239-2.177-1.16-.82.073-1.54.597-1.874 1.361-.623-.529-1.479-.672-2.198-.364-.855.367-1.373 1.314-1.225 2.297-1.189-.909-2.748-.529-3.261.406-.387.704-.19 1.747.549 2.468-1.243-.286-2.267.554-2.304 1.35-.03.64.572 1.37 1.491 1.571a1.56 1.56 0 0 0-.959 1.507c.031.619.43 1.162 1.017 1.378zm77.617 85.901c-.836 1.009-2.336 2.483-4.52 3.133-1.565.465-2.354.171-2.602.065-.777-.332-1.441-1.037-1.613-1.715-.379-1.485 1.386-3.69 4.619-4.991 1.174.106 5.233.535 5.416 1.869.043.311-.099.847-1.3 1.639zm6.317 1.626c-.836 1.008-2.335 2.482-4.52 3.132-1.565.465-2.354.172-2.602.066-.777-.332-1.441-1.038-1.613-1.715-.378-1.486 1.386-3.69 4.619-4.991 2.036-1.511 4.374-.984 5.008.173.472.862.099 2.249-.892 3.335zm8.129-42.263c-.277-1.261-.654-2.288-.968-3.02l-18.725-1.204a15.63 15.63 0 0 0-1.305 2.9s-.616 1.855-.766 3.956c-.193 2.702-.28 16.055-.09 34.304.538.482 2.226 1.861 4.709 1.948a7.21 7.21 0 0 0 2.88-.498c.713.355 1.52.688 2.425.954 3.869 1.143 7.335.434 9.292-.158l2.548-39.182zm-26.535-19.677c-.878-1.946-1.562-2.874-2.053-2.781-.264.05-.473.396-.625 1.038-.587-.718-1.152-1.081-1.406-.933-.235.137-.161.688-.125.905-.252-.289-.585-.427-.783-.333-.249.118-.387.648-.07 1.186-.256.087-.383.212-.443.336-.449.934 2.259 3.04 2.707 3.385.348-.085.97-.287 1.572-.799.863-.737 1.141-1.653 1.227-2.004zm31.537 37.001c.007-.393-.373-.673-.747-.555a33.89 33.89 0 0 1-1.161.345c-.015.004-.03.009-.046.012.228-1.573.36-4.203-.676-7.157a14.92 14.92 0 0 0-2.506-4.47l-.544 1.916a12.63 12.63 0 0 1 1.184 2.011c1.474 3.127 1.343 6.19 1.057 8.079-3.231.747-6.253.956-8.908.892.268-2.546.767-5.389 1.645-8.422.405-1.4.852-2.71 1.32-3.929.788-.28 1.065-1.038.853-1.427-.165-.305-.674-.467-1.207-.33-.294.502-.578 1.023-.853 1.563-2.245 4.41-3.136 8.803-3.398 12.584l-1.368.032a.71.71 0 0 0-.693.713l.109 19.885a1.07 1.07 0 0 0 1.15 1.058 68.71 68.71 0 0 0 7.241-.946c2.356-.437 4.524-.965 6.488-1.531.451-.129.762-.54.769-1.008l.291-19.314zm-6.12-27.45c.28-.425.674-1.086 1.023-1.943 1.283-3.144 1.801-8.424-1.375-11.802-2.299-2.446-5.327-2.814-7.002-3.031-1.711-.223-5.402-.701-8.704 1.711-3.94 2.877-4.26 7.632-4.295 8.346l-5.096-2.887c-.138.386-.511 1.256-1.407 1.95a4.24 4.24 0 0 1-1.627.773c.426 1.197 2.094 5.431 6.518 7.627 1.707.847 3.322 1.143 4.509 1.24-.029.49-.105 1.076-.276 1.726a8.9 8.9 0 0 1-.872 2.143c1.496.955 4.067 2.315 7.518 2.839 5.295.805 9.474-.84 11.196-1.635-.202-.838-.377-1.856-.431-3.019a16.34 16.34 0 0 1 .321-4.039zm-3.119-30.748c1.498 1.208 2.022 2.762 2.439 3.995.855 2.532.71 4.872.406 6.502-.125.664-.699 1.147-1.377 1.165l-4.797.057c-2.553-.006-5.025-.067-7.413-.176-.759-.035-1.359-.65-1.372-1.408a16.19 16.19 0 0 1 .372-3.718c.554-2.525 1.286-5.849 4.189-7.307 2.387-1.197 5.516-.753 7.553.891zM119.911 64c-.161.191-.938 1.083-2.263 1.216-1.634.164-2.716-.96-2.84-1.095a3.12 3.12 0 0 0 .601-1.419 3.14 3.14 0 0 0-.141-1.502l4.213-.146a3.18 3.18 0 0 0-.146 1.558 3.14 3.14 0 0 0 .576 1.387zm-7.145-5.976c.119.751.496 3.166 2.531 4.162 1.403.689 2.75.356 3.163.233 1.808-.536 3.16-2.228 3.54-4.327.648.177 1.31.008 1.658-.434.576-.728.168-2.028-.591-2.27-.5-.16-1.007.184-1.131.273l-.126-3.601c-.299-.243-2.056-1.631-4.447-1.272-1.525.229-2.535 1.052-2.94 1.425-.404.514-2.134 2.826-1.657 5.811zm5.663-1.826c-.004.146-.126.262-.272.258s-.262-.126-.258-.272.125-.262.272-.258.262.126.258.272zm-1.12 2.199c-.1-.057-.27.337-.788.54-.553.217-.982.014-1.019.124-.051.153.667.822 1.273.578.589-.237.675-1.161.534-1.242zm-2.922-2.62c.013.147-.094.276-.239.289s-.276-.094-.289-.239.094-.276.239-.289.274.094.289.239zm5.011-3.894c-1.346 1.828-2.796 2.77-3.589 2.392-.159-.076-.353-.235-.505-.592-.474.215-1.111.584-1.651 1.23-.882 1.054-.839 2.054-1.166 2.066-.473.016-1.342-2.031-.979-4.086.08-.447.527-2.69 2.645-3.862 1.747-.968 3.965-.825 5.772.323.956.017 1.491.334 1.777.567 1.29 1.053 1.433 3.636.134 6.45-.137.299-.567.288-.689-.018l-.18-.452-1.569-4.017zm2.798-3.401a1.88 1.88 0 0 1-1.928 1.83 1.88 1.88 0 0 1-1.829-1.928 1.88 1.88 0 0 1 1.927-1.83 1.88 1.88 0 0 1 1.83 1.928zm-2.427 74.202l.873.267a.93.93 0 0 1 .616 1.159l-.043.138a.93.93 0 0 1-1.159.617l-.873-.267a.93.93 0 0 1-.616-1.159l.043-.138c.15-.487.67-.765 1.159-.617zm2.572.003l1.689.516c.605.185.949.83.764 1.434l-.335 1.1c-.185.605-.83.949-1.434.764l-1.69-.516c-.841-.257-1.319-1.155-1.062-1.996l.072-.239c.257-.841 1.154-1.32 1.996-1.063zm4.724-.01l-.642-.227-.337.728c.053.039.104.059.148.07.264.061.59-.173.831-.571zm-2.65-28.371c-.979.123-1.502.527-1.749.765-.208.203-.504.562-.41.722.054.092.2.06.502.154a2.07 2.07 0 0 1 .459.207c-.636.66-.664 1.428-.369 1.684.218.19.652.133 1.048-.065-.334.332-.323.849-.051 1.115.297.295.886.266 1.192-.161.007.036.07.333.349.466.237.115.534.065.742-.129.355.28.618.321.805.28 1.219-.26 1.25-4.261 1.251-4.887l-.562-4.158-3.809-1.289.602 5.294z" stroke="#fff" stroke-width="10" class="C D F"/></g><g class="C D E H"><path d="M115.008 119.673l-69.002-1.799c-1.392-.036-2.492-1.195-2.455-2.587l2.681-102.83c.036-1.392 1.195-2.492 2.587-2.455L117.82 11.8c1.392.036 2.492 1.195 2.456 2.587l-2.681 102.831c-.038 1.392-1.195 2.491-2.587 2.455z" class="B"/><path d="M75.29 112.92l-25.085-.654a1.09 1.09 0 0 1-1.061-1.118l2.459-94.315a1.09 1.09 0 0 1 1.118-1.061l25.085.654a1.09 1.09 0 0 1 1.061 1.118l-2.459 94.314a1.09 1.09 0 0 1-1.118 1.062zm35.81 1.087l-24.915-.65a1.09 1.09 0 0 1-1.061-1.118l2.459-94.314a1.09 1.09 0 0 1 1.118-1.061l24.914.649a1.09 1.09 0 0 1 1.062 1.118l-2.459 94.315a1.09 1.09 0 0 1-1.118 1.061z" class="P"/><path d="M80.504 118.774l2.812-107.873" class="F"/></g><use href="#B" x="0.027" y="0.001" class="K"/><path d="M57.819 42.159l11.392-13.767" class="C D E F H"/><use href="#C" x="0.029" class="K"/><path d="M63.166 39.519l4.282-4.75" class="C D E F H"/><use href="#D" x="0.028" class="K"/><path d="M61.419 32.877l4.629-5.782" class="C D E F H"/><use href="#B" x="38.252" y="2.945" class="K"/><path d="M96.044 45.103l11.392-13.767" class="C D E F H"/><use href="#C" x="38.252" y="2.945" class="K"/><path d="M101.389 42.464l4.282-4.75" class="C D E F H"/><use href="#D" x="38.252" y="2.943" class="K"/><g class="C D E H"><path d="M99.643 35.82l4.629-5.782" class="F"/><path d="M128.321 84.33c2.796-3.055 7.205-3.461 9.946-1.363 2.02 1.547 2.95 4.316 2.446 7.076.553-.221 3.712-1.422 6.789.177 3.122 1.621 5.274 5.665 3.927 9.087-1.137 2.888-4.195 3.883-4.707 4.041.619.465 2.074 1.695 2.317 3.566.396 3.06-2.868 5.454-3.664 6.041-4.696 3.461-10.974 2.272-16.863 1.158-5.677-1.075-8.515-1.613-10.541-3.561-6.1-5.87-5.176-20.051 2.384-24.687 2.703-1.661 5.724-1.772 7.966-1.535zm-94.132-1.899c-2.633-3.197-7.016-3.832-9.862-1.88-2.098 1.44-3.171 4.157-2.811 6.939-.541-.249-3.633-1.614-6.789-.177-3.202 1.456-5.562 5.382-4.395 8.87.985 2.943 3.988 4.096 4.49 4.281-.643.432-2.16 1.584-2.5 3.44-.555 3.035 2.58 5.597 3.344 6.224 4.509 3.7 10.841 2.841 16.78 2.035 5.726-.778 8.588-1.167 10.713-3.007 6.397-5.544 6.213-19.754-1.095-24.777-2.611-1.799-5.623-2.068-7.875-1.948zm35.978 5.887l2.888 37.894c.829.444 2.618 1.258 4.996 1.194 1.799-.049 3.188-.58 3.99-.96.715.417 1.786.919 3.16 1.146 2.751.458 4.949-.478 5.825-.912l4.968-37.602-2.056-7.585-22.852.211-.919 6.614z" class="K"/></g><g class="B"><path d="M71.083 81.706c.303-5.128 1.233-19.378 2.93-24.785.057-.181.219-.681.608-1.249 2.394-3.491 9.748-4.196 13.958-1.288 3.259 2.251 3.816 6.08 4.9 13.661.862 6.023.763 11.115.495 14.695-1.614.96-5.686 3.089-11.258 2.929-5.979-.173-10.133-2.875-11.633-3.962z" class="C D E G"/><use href="#U"/></g><g class="C D E G"><use href="#U" class="F"/><path d="M89.367 43.954c.462-.341 1.036-.434 1.476-.212.686.347.883 1.378.441 2.061-.427.656-1.371.878-2.117.428-.184 1.992-1.325 3.676-2.991 4.387-1.567.67-3.014.232-3.457.073-1.937-.686-3.312-2.605-3.607-4.91-.715.156-1.425-.065-1.781-.567-.584-.824-.068-2.216.772-2.437.553-.145 1.085.258 1.216.363l.341-3.913 4.913-1.132c1.255-.349 2.232-.667 3.118-.174.678.377 1.01 1.064 1.178 1.546l.498 4.487z" class="J"/><path d="M90.549 44.835c-.206-.116-.46-.097-.642.049-.175.138-.252.37-.198.589" class="F"/></g><use href="#V" class="B"/><g class="C D E G"><use href="#V" class="F"/><path d="M74.575 84.375a13.34 13.34 0 0 1-2.198 2.407c-.792.679-1.563 1.176-2.215 1.538l-.699-2.028c.701-.147 1.485-.354 2.326-.652a17.97 17.97 0 0 0 2.787-1.266z" class="J"/></g><path d="M90.188 45.317l-.48.155.48-.155z" class="B"/><path d="M90.188 45.317l-.48.155" class="C D E F G"/><use href="#E" x="0.031" y="0.001" class="I"/><g class="C D E G"><path d="M83.922 47.629a2.2 2.2 0 0 0 .522-.048 2.25 2.25 0 0 0 .623-.234" class="F"/><use href="#F" x="0.027" y="0.001" class="J"/></g><use href="#G" x="0.027" y="0.001" class="I"/><use href="#H" x="0.029" y="0.001" class="C D E F G"/><path d="M78.26 44.644l.471.179-.471-.179z" class="B"/><g class="C D E G"><path d="M78.26 44.644l.471.179" class="F"/><g class="N"><path d="M79.318 43.138a7.02 7.02 0 0 0 1.253 2.336 6.98 6.98 0 0 0 1.369 1.282c.131 1.321.658 2.158 1.139 2.16.398.001.712-.574.797-.733l.879.153c.009.147.048.413.244.578.344.291.98.11 1.354-.173.489-.367.405-.813.881-1.795.276-.566.421-.662.808-1.278.355-.568.823-1.426 1.219-2.626l.319 5.353a3.67 3.67 0 0 1-1.923 3.45c-.656.353-1.455.652-2.394.765-1.873.224-3.428-.398-4.53-1.092a3.66 3.66 0 0 1-1.696-3.296l.279-5.082z"/><path d="M83.236 45.711a3.32 3.32 0 0 0-.691.309c-.661.402-.645.745-1.298 1.184-.471.319-.782.346-.77.478.016.186.687.317 1.197.3 1.042-.035 1.881-.697 2.436-1.296.345.253 1.05.687 1.975.683.84-.002 1.722-.367 1.706-.625-.012-.201-.559-.174-1.649-.646-.824-.358-.81-.504-1.284-.582-.708-.118-1.362.105-1.624.194z"/></g></g><use href="#W" class="J"/><g class="C D E G"><use href="#W" class="F"/><g class="N"><path d="M87.329 37.969c-.55-.105-.906.281-1.531.59-.88.436-1.734.445-2.223.452-1.004.011-1.138-.276-1.892-.106-.25.057-.921.207-1.342.775-.189.256-.258.58-.393 1.227-.129.615-.124.863-.271 1.734-.118.689-.177 1.033-.258 1.035-.143.004-.297-.918-.36-1.619l-.007-.09c-.078-1.036.118-2.234.132-2.311.273-1.679-.413-1.883-.036-2.89.505-1.346 2.078-1.922 2.705-2.15a5.95 5.95 0 0 1 2.852-.277c.592.087 1.681.26 2.659 1.122.538.475.854.983 1.03 1.322.226.064.565.191.873.474.154.141.594.579.794 2.767 0 0 .145 1.579-.301 3.18-.058.205-.158.496-.352.532-.142.026-.274-.097-.296-.119-.382-.358.161-.994-.021-1.849-.248-1.161-.953-1.16-1.025-2.206-.037-.527.112-.969-.203-1.31-.196-.216-.455-.269-.534-.285z"/><use href="#I" x="0.029"/><path d="M86.424 42.173l-.994-.026c-.194-.005-.347-.167-.342-.36s.167-.347.361-.342l.994.026c.194.005.347.167.342.361s-.167.347-.36.342z"/></g></g><use href="#X" class="N"/><use href="#X" class="C D E F G"/><path d="M87.687 37.92l.705-1.14-.705 1.14z" class="N"/><g class="C D E G"><path d="M87.687 37.92l.705-1.14" class="F"/><path d="M91.789 84.912c.462.728 1.131 1.626 2.07 2.519.756.719 1.499 1.255 2.132 1.652l1.055-2.608a12.14 12.14 0 0 1-2.161-.325c-1.298-.322-2.338-.807-3.096-1.237z" class="J"/></g><use href="#J" x="0.031" class="B"/><path d="M82.795 90.001l-.77 36.446" class="C D E F H"/><use href="#K" x="0.03" class="B"/><g class="C D E F H"><use href="#K" x="0.03"/><path d="M77.172 53.426c.663.692 2.507 2.43 5.433 2.945 4.474.786 7.798-1.934 8.286-2.346m-17.805 1.849c1.44 1.162 4.293 3.122 8.369 3.852 6.908 1.237 12.261-1.972 13.624-2.844"/><use href="#L" x="0.033"/><use href="#M" x="0.03" y="0.001"/><path d="M68.133 66.508a11.62 11.62 0 0 0 3.143 1.654 11.63 11.63 0 0 0 3.663.627 23.23 23.23 0 0 0 5.747 1.793c4.909.852 8.986-.085 11.284-.817a15.33 15.33 0 0 0 3.931-.574 15.29 15.29 0 0 0 3.299-1.367m-31.602 2.815c.728.568 1.888 1.335 3.468 1.873 1.472.501 2.77.617 3.663.627a23.89 23.89 0 0 0 5.747 1.793c5.077.897 9.307-.069 11.696-.829a14.96 14.96 0 0 0 7.308-2.244m-32.047 3.36a13.7 13.7 0 0 0 3.143 1.654 13.74 13.74 0 0 0 4.069.832c1.446.622 3.239 1.227 5.343 1.589 5.252.9 9.625-.202 12.079-1.048a12.67 12.67 0 0 0 3.135-.345c1.901-.456 3.327-1.267 4.224-1.885M67.75 79.42a11.6 11.6 0 0 0 2.451 1.179 11.67 11.67 0 0 0 4.391.603 18.85 18.85 0 0 0 5.021 1.817c5.622 1.166 10.298-.587 12.332-1.506a10.06 10.06 0 0 0 2.883.113 10.22 10.22 0 0 0 4.302-1.482"/></g><use href="#Y" class="B"/><g class="D E"><g class="C"><g class="F"><use href="#Y" class="G"/><use href="#N" x="0.028" y="0.001" class="H"/></g><path d="M81.424 128.524c-.309 1.047-2.75 1.134-3.343 1.156-1.748.063-4.529-.408-4.721-1.573-.187-1.136 2.098-2.96 4.323-2.788 2.126.165 4.056 2.138 3.74 3.205zm8.858.486c-.315 1.05-2.74 1.133-3.343 1.155-1.772.061-4.542-.432-4.721-1.572-.179-1.146 2.243-3.021 4.538-2.747 2.009.24 3.84 2.113 3.525 3.164z" class="B H"/></g><g class="G"><g class="I"><path d="M35.378 126.425c-.495.587-1.286 1.719-1.159 3.055.212 2.235 2.83 3.433 4.842 4.352 1.304.596 5.447 2.492 7.598.664.179-.151.787-.682.931-1.521.279-1.626-1.331-3.604-4.131-4.818l-8.082-1.732z"/><path d="M44.915 123.624c-.495.587-1.286 1.719-1.159 3.055.212 2.235 2.83 3.433 4.842 4.352 1.304.596 5.447 2.492 7.598.665.179-.152.787-.683.931-1.521.279-1.627-1.331-3.605-4.13-4.819l-8.082-1.732z"/></g><path d="M31.599 81.031l23.682 1.644 1.402 43.491a8.98 8.98 0 0 1-3.378 1.882c-3.133.926-5.805-.206-6.582-.568-1.261.833-3.587 2.113-6.739 2.446-5.697.602-9.886-2.337-10.966-3.147l2.582-45.748z" class="B C"/></g><use href="#O" x="0.03" class="C H M"/></g><use href="#Z" class="M"/><g class="C D E"><use href="#Z" class="F H"/><g class="G"><g class="L"><path d="M40.05 50.139l-.195 3.007c.394.45 1.096 1.14 2.157 1.65.873.419 2.312 1.111 3.633.458 1.026-.505 1.445-1.558 1.592-2.006l-.119-3.135-7.067.026z"/><path d="M38.099 44.825c-.501-.413-1.144-.55-1.652-.325-.795.35-1.079 1.502-.618 2.3.443.765 1.495 1.071 2.364.607 1.627 3.52 4.403 5.747 6.992 5.523a4.71 4.71 0 0 0 2.296-.871c2.394-1.767 2.169-5.386 2.081-6.792-.148-2.384-1.016-4.284-1.801-5.563-3.459-1.288-6.949-.542-8.6 1.656-.904 1.2-1.063 2.578-1.062 3.465z"/></g><path d="M36.715 45.749c.238-.118.525-.08.721.094.187.167.261.432.187.676" class="F"/></g></g><path d="M37.09 46.315l.532.204-.532-.204z" class="B"/><path d="M37.09 46.315l.532.204" class="C D E F G"/><path d="M43.902 44.433l-1.01.167a.36.36 0 0 1-.412-.295l-.002-.006a.36.36 0 0 1 .295-.411l1.01-.167a.36.36 0 0 1 .411.295l.002.006a.36.36 0 0 1-.295.412z" class="I"/><path d="M46.697 44.622c1.152.863 1.301 2.16.86 2.637-.389.42-1.432.412-2.347-.255" class="C D E F G"/><g class="I"><path d="M48.01 43.712l-1.01.167a.36.36 0 0 1-.412-.295l-.002-.006a.36.36 0 0 1 .295-.411l1.01-.167a.36.36 0 0 1 .412.295l.002.006a.36.36 0 0 1-.295.411z"/><use href="#P" x="0.029" y="-0.001"/></g><path d="M45.669 48.252c-.053-.118-.191-.11-1.046-.251-.893-.147-1.017-.201-1.095-.111-.227.261.205 1.445.967 1.508.69.059 1.319-.828 1.175-1.146z" class="B C D E G"/><use href="#P" x="-4.139" y="0.714" class="I"/><use href="#a" class="B"/><use href="#a" class="C D E F G"/><path d="M47.06 127.487l-.394-35.591.394 35.592z" class="B"/><g class="C D E G"><path d="M47.06 127.487l-.394-35.591" class="F"/><g class="B"><path d="M39.866 51.357a12.73 12.73 0 0 0-1.411.819c-.54.36-.998.728-1.381 1.068.267.633 1.238 2.706 3.601 3.94 1.732.904 3.354.911 4.1.866l.197-3.529c-.514.028-1.452.007-2.471-.459-1.711-.785-2.441-2.271-2.635-2.704z"/><path d="M44.978 54.521l1.418 3.346c.374-.062 1.078-.239 1.694-.811 1.385-1.284.978-3.317.949-3.447l-1.611-1.234c-.027.184-.176 1.052-.968 1.648a2.53 2.53 0 0 1-1.483.499z"/></g></g><path d="M35.366 45.517c.038-.095.323-.776 1.079-1.019.883-.285 1.602.284 1.651.325.055-.006.981-.115 1.4-.971.405-.83-.033-1.604-.068-1.662.556.539 1.383.655 2.015.297.527-.297.848-.88.837-1.51.184.806.922 1.342 1.683 1.27.658-.062 1.224-.566 1.382-1.252.328.704 1.039 1.089 1.691.963.663-.128.985-.73 1.029-.814.964.241 1.937-.109 2.386-.814.594-.932.227-2.427-1.023-3.093.022-.129.181-1.178-.561-1.977-.627-.674-1.64-.896-2.561-.557-.442-.782-1.297-1.239-2.177-1.16-.82.073-1.54.597-1.874 1.361-.624-.529-1.479-.672-2.198-.364-.855.367-1.373 1.314-1.225 2.297-1.189-.909-2.748-.529-3.261.406-.387.704-.19 1.747.548 2.468-1.243-.286-2.267.554-2.304 1.35-.03.64.572 1.37 1.491 1.571a1.56 1.56 0 0 0-.959 1.507c.031.619.43 1.162 1.017 1.378z" class="I"/><use href="#b" class="M"/><g class="C D E"><use href="#b" class="F H"/><path d="M64.242 57.267c1.784-4.02 3.044-5.936 3.782-5.754.372.092.611.721.718 1.884 1.171-1.002 2.203-1.43 2.574-1.112.342.295.061 1.173-.062 1.516.497-.397 1.081-.525 1.379-.314.373.265.443 1.173-.235 1.96.383.219.556.458.625.68.57 1.789-4.684 4.786-5.134 5.04a5.44 5.44 0 0 1-2.362-1.496c-.863-.934-1.172-1.931-1.285-2.404z" class="G L"/></g><use href="#Q" x="0.026" y="-0.001" class="L"/><use href="#Q" x="0.026" y="-0.001" class="C D E F G"/><use href="#c" class="L"/><use href="#c" class="C D E F G"/><use href="#d" class="M"/><g class="C D E"><g class="F"><use href="#d" class="H"/><use href="#R" x="0.026" y="0.001" class="G"/></g><path d="M55.361 67.205c2.613-3.536 4.258-5.136 4.94-4.797.343.171.441.835.292 1.993 1.359-.724 2.462-.917 2.755-.526.271.36-.196 1.159-.39 1.466.571-.278 1.169-.278 1.414-.006.307.341.178 1.242-.656 1.863.327.296.442.568.464.8.167 1.869-5.609 3.655-6.104 3.806a5.43 5.43 0 0 1-1.981-1.971c-.641-1.101-.726-2.139-.734-2.627z" class="G L"/></g><use href="#e" class="L"/><use href="#e" class="C D E F G"/><use href="#f" class="L"/><g class="C D E"><g class="F G"><use href="#f"/><path d="M33.35 91.263c.584-.026 1.444-.135 2.398-.533 1.374-.573 2.241-1.449 2.673-1.957"/></g><g class="H"><g class="P"><path d="M112.98 131.419c-.836 1.008-2.335 2.482-4.52 3.132-1.565.465-2.354.172-2.601.066-.777-.333-1.441-1.038-1.614-1.715-.378-1.486 1.386-3.69 4.62-4.991 1.174.105 5.233.535 5.416 1.868.042.312-.099.848-1.301 1.64z"/><path d="M119.298 133.045c-.836 1.008-2.336 2.482-4.52 3.132-1.565.465-2.354.172-2.602.066-.777-.333-1.441-1.038-1.613-1.715-.379-1.486 1.386-3.69 4.619-4.991 2.036-1.511 4.374-.984 5.008.173.472.862.099 2.249-.892 3.335z"/></g><path d="M127.43 90.781c-.277-1.261-.655-2.288-.968-3.02l-18.725-1.204c-.443.763-.917 1.734-1.305 2.901 0 0-.616 1.854-.767 3.956-.192 2.702-.279 16.055-.089 34.305.538.482 2.226 1.86 4.709 1.948 1.238.043 2.24-.248 2.88-.499.712.356 1.52.689 2.424.955 3.87 1.142 7.336.433 9.293-.158l2.548-39.183z" class="B"/></g><path d="M100.893 71.105c-.878-1.946-1.563-2.874-2.054-2.781-.264.049-.473.396-.625 1.038-.587-.718-1.152-1.081-1.406-.933-.235.137-.161.688-.125.905-.252-.289-.585-.427-.783-.332-.249.118-.387.648-.07 1.186-.256.087-.383.212-.443.336-.449.934 2.259 3.04 2.707 3.385.348-.085.97-.287 1.572-.799.863-.737 1.141-1.653 1.227-2.004z" class="G J"/></g><use href="#g" class="J"/><use href="#g" class="C D E F G"/><use href="#h" class="J"/><g class="C D E G"><use href="#h" class="F"/><path d="M132.432 108.105c.007-.392-.373-.673-.747-.555l-1.161.346c-.015.003-.03.008-.046.012a15.12 15.12 0 0 0-.676-7.158 14.92 14.92 0 0 0-2.506-4.47l-.544 1.916c.417.579.825 1.247 1.184 2.01 1.474 3.127 1.343 6.19 1.057 8.079-3.231.747-6.253.956-8.908.892.268-2.546.767-5.388 1.645-8.422l1.32-3.928c.788-.28 1.065-1.038.853-1.427-.165-.305-.674-.467-1.207-.33l-.853 1.563c-2.245 4.41-3.136 8.802-3.398 12.583l-1.368.033a.71.71 0 0 0-.693.713l.109 19.884a1.07 1.07 0 0 0 1.15 1.059 68.99 68.99 0 0 0 7.241-.947c2.356-.437 4.524-.965 6.488-1.53.451-.129.762-.541.769-1.008l.291-19.315z" class="B"/></g><use href="#i" class="B"/><use href="#i" class="C D E F H"/><path d="M114.322 92.606l-1.156 36.56 1.156-36.56z" class="B"/><g class="C D E H"><path d="M114.322 92.606l-1.156 36.56" class="F"/><path d="M126.311 80.656a11.25 11.25 0 0 0 1.023-1.944c1.283-3.144 1.801-8.424-1.375-11.802-2.299-2.446-5.327-2.814-7.002-3.031-1.711-.223-5.402-.701-8.704 1.711-3.94 2.877-4.259 7.632-4.295 8.346l-5.096-2.887c-.138.386-.511 1.256-1.407 1.95a4.24 4.24 0 0 1-1.627.773c.426 1.197 2.094 5.431 6.518 7.627 1.707.847 3.322 1.143 4.51 1.24-.03.49-.106 1.076-.277 1.726-.234.894-.572 1.615-.871 2.143 1.496.954 4.066 2.315 7.517 2.839 5.295.805 9.474-.84 11.196-1.635-.202-.838-.377-1.856-.431-3.019a16.34 16.34 0 0 1 .321-4.039z" class="O"/></g><path d="M123.189 49.908c1.498 1.208 2.022 2.762 2.439 3.995.855 2.532.709 4.872.406 6.502-.125.664-.699 1.147-1.377 1.165l-4.797.057-7.413-.176c-.759-.035-1.36-.65-1.372-1.408a16.19 16.19 0 0 1 .372-3.718c.554-2.525 1.286-5.849 4.189-7.307 2.386-1.197 5.516-.753 7.553.891z" class="D E G I"/><g class="C D E"><path d="M120.182 62.338a10.38 10.38 0 0 0-2.551-.283 10.4 10.4 0 0 0-3.003.486c.434 1.216 1.619 2.007 2.897 1.94 1.244-.065 2.319-.932 2.657-2.143z" class="H O"/><g class="G J"><path d="M119.938 64.001c-.161.191-.938 1.083-2.263 1.215-1.634.164-2.716-.96-2.84-1.095a3.12 3.12 0 0 0 .601-1.419c.104-.691-.051-1.24-.141-1.502l4.212-.146c-.095.268-.258.841-.145 1.558a3.13 3.13 0 0 0 .576 1.387z"/><path d="M112.791 58.024c.119.751.496 3.166 2.531 4.162 1.403.689 2.75.356 3.163.233 1.808-.536 3.16-2.228 3.54-4.327.648.177 1.31.008 1.658-.434.576-.727.168-2.028-.591-2.269-.5-.16-1.007.184-1.131.273l-.126-3.601c-.299-.243-2.056-1.631-4.447-1.272-1.525.229-2.535 1.052-2.94 1.425-.404.514-2.134 2.826-1.657 5.811z"/></g></g><path d="M111.898 57.14l.432.166-.432-.166z" class="B"/><path d="M111.898 57.14l.432.166" class="C D E F G"/><path d="M118.187 56.456c.146.004.268-.112.271-.258s-.111-.268-.258-.272-.268.112-.271.258.111.268.258.272z" class="I"/><path d="M117.337 58.397c-.1-.057-.27.337-.788.54-.553.217-.982.014-1.019.124-.051.153.667.822 1.273.578.589-.236.675-1.161.534-1.242z" class="B C D E G"/><path d="M114.412 55.777c.013.147-.093.276-.238.289s-.276-.094-.289-.239.093-.276.238-.289.274.094.289.239z" class="I"/><path d="M123.19 56.649a.53.53 0 0 0-.589.045c-.159.127-.231.34-.182.54" class="C D E F G"/><path d="M122.862 57.091l-.44.143.44-.143z" class="B"/><g class="D E"><g class="C F G"><path d="M122.862 57.091l-.44.143m-6.589-.627a.79.79 0 0 0-.679-.055c-.299.126-.444.434-.445.686-.003.389.337.766.824.837"/><use href="#S" x="4.13" y="0.286"/><path d="M114.9 55.273a1.14 1.14 0 0 0-.522-.237c-.382-.066-.68.09-.769.14"/></g><path d="M119.427 51.882c-1.347 1.828-2.796 2.77-3.589 2.392-.16-.076-.353-.235-.505-.592-.474.215-1.111.584-1.651 1.23-.883 1.054-.839 2.053-1.167 2.066-.472.016-1.342-2.031-.978-4.086.079-.447.527-2.69 2.644-3.862 1.748-.968 3.966-.825 5.773.323.956.017 1.491.334 1.776.567 1.291 1.053 1.434 3.636.135 6.45-.138.299-.568.288-.69-.018l-.179-.452-1.569-4.017z" class="G I"/><g class="C H"><path d="M120.536 64.163l-.351-1.825a4.06 4.06 0 0 1-2.721 1.23c-1.586.064-2.632-.845-2.834-1.027l-.572 1.547c.137.212 1.02 1.532 2.698 1.774 1.435.209 2.898-.453 3.78-1.699z" class="O"/><path d="M109.289 72.72a11.24 11.24 0 0 0-.989 3.397c-.052.431-.113.948-.057 1.63.089 1.117.399 1.616.595 2.454.158.677.263 1.672-.029 2.996" class="F"/></g><use href="#T" x="0.028" y="0.001" class="G I"/><g class="C H"><path d="M119.797 122.684l.873.267a.93.93 0 0 1 .616 1.159l-.043.138a.93.93 0 0 1-1.159.617l-.873-.268a.93.93 0 0 1-.616-1.159l.043-.138c.15-.486.67-.764 1.159-.616z" class="B"/><path d="M122.366 122.687l1.69.515c.604.185.949.83.764 1.434l-.336 1.1a1.15 1.15 0 0 1-1.433.764l-1.69-.516c-.841-.257-1.32-1.155-1.063-1.996l.072-.239c.257-.841 1.155-1.319 1.996-1.062z" class="P"/><path d="M123.932 123.316l.146-.1.151-.105 2.03.137c.286.021.558-.122.707-.366l.653-1.078c.096-.155.242-.273.416-.329l.484-.162a.58.58 0 0 0 .366-.365l.155-.46c0-.004.112-.332.198-.581a.58.58 0 0 0-.071-.514l-.136-.201a.58.58 0 0 1-.055-.556c.016-.04.039-.079.067-.118l.043-.061c.002-.002.041-.057.093-.125a.58.58 0 0 1 .641-.209l1.675.526c.414.13.598.612.378.986l-2.728 4.64 1.67 1.824a.77.77 0 0 1-.002 1.043l-1.196 1.289a.77.77 0 0 1-.795.212l-1.527-.48-2.536-.795-1.13-.355c-.401-.127-.629-.55-.507-.953l.81-2.744z" class="B"/></g></g><path d="M127.089 122.676l-.643-.227-.336.728a.41.41 0 0 0 .148.07c.264.061.589-.173.831-.571z" fill="#c6e1df"/><path d="M124.08 123.217l.152-.105 2.03.137c.285.021.558-.122.707-.367l.652-1.077a.77.77 0 0 1 .417-.329l.484-.162c.172-.058.307-.192.366-.365l.155-.46a51.8 51.8 0 0 1 .198-.582c.059-.173.032-.362-.072-.513l-.135-.201a.58.58 0 0 1-.055-.556l.723 1.232a.76.76 0 0 1 .014.754l-1.673 3.122c-.105.195-.049.435.132.564l.804.577c.373.267.438.797.14 1.145l-1.819 2.135-2.536-.796 2.391-2.676c.167-.188.086-.485-.154-.561l-2.921-.916z" class="C D E H M"/><path d="M118.607 123.39l-2.16-.677 2.16.677z" class="B"/><path d="M118.607 123.39l-2.16-.677" class="C D E F H"/><path d="M118.137 112.414l.849 17.09-.849-17.09z" class="B"/><path d="M118.137 112.414l.849 17.09" class="C D E F H"/><path d="M131.318 109.406l-1.407 15.965 1.407-15.965z" class="B"/><g class="C D E"><path d="M131.318 109.406l-1.407 15.965" class="F H"/><path d="M124.443 94.306c-.979.123-1.503.527-1.75.765-.208.203-.503.562-.41.722.054.092.2.06.502.154.2.062.355.145.459.207-.636.66-.663 1.428-.369 1.684.219.19.653.134 1.049-.065-.334.332-.323.849-.052 1.115.297.295.886.266 1.192-.161.007.036.071.333.349.466.238.115.534.065.742-.129.356.28.618.321.805.28 1.219-.26 1.25-4.261 1.252-4.887l-.563-4.158-3.809-1.289.603 5.294z" class="G J"/></g><path d="M124.284 97.419l-.485.519.485-.519z" fill="#f4cec3"/><path d="M124.284 97.419l-.485.519" class="C D E F H"/><path d="M125.371 98.183l-.305.547.305-.547z" fill="#f4cec3"/><path d="M125.371 98.183l-.305.547" class="C D E F H"/><path d="M126.348 98.593l-.193.476.193-.476z" class="J"/><path d="M126.348 98.593l-.193.476" class="C D E F G"/><use href="#j" class="O"/><use href="#j" class="C D E F H"/><defs><filter id="A" x="0" y="0" width="161.812" height="146.431" filterUnits="userSpaceOnUse" color-interpolation-filters="sRGB"><feFlood flood-opacity="0" result="A"/><feColorMatrix in="SourceAlpha" values="0 0 0 0 0 0 0 0 0 0 0 0 0 0 0 0 0 0 127 0" result="B"/><feOffset/><feGaussianBlur stdDeviation="2.5"/><feComposite in2="B" operator="out"/><feColorMatrix values="0 0 0 0 0 0 0 0 0 0 0 0 0 0 0 0 0 0 0.25 0"/><feBlend in2="A"/><feBlend in="SourceGraphic"/></filter><path id="B" d="M57.792 42.158l11.392-13.767-11.392 13.767z"/><path id="C" d="M63.137 39.519l4.282-4.75-4.282 4.75z"/><path id="D" d="M61.391 32.877l4.629-5.782-4.629 5.782z"/><path id="E" d="M81.489 43.131a.29.29 0 0 0 .297-.282.29.29 0 0 0-.282-.297.29.29 0 0 0-.297.282.29.29 0 0 0 .282.297z"/><path id="F" d="M81.205 50.843l-.371 2.25c.162.205 1.255 1.544 3.151 1.641 1.701.086 2.843-.888 3.068-1.089l-.085-2.73-5.764-.071z"/><path id="G" d="M85.595 42.894c-.034.157.065.31.22.346s.31-.065.346-.22-.065-.31-.22-.346-.312.063-.346.22z"/><path id="H" d="M77.897 44.141c.211-.105.464-.072.639.083.167.147.233.382.167.598"/><path id="I" d="M82.13 42.062l-.994-.026c-.194-.005-.347-.167-.342-.361s.167-.347.36-.342l.994.026c.194.005.347.167.342.36s-.167.347-.361.342z"/><path id="J" d="M82.764 90.001l-.77 36.446.77-36.446z"/><path id="K" d="M80.349 89.947l2.318.06 2.703.166"/><path id="L" d="M70.905 59.16c1.848 1.298 5.572 3.527 10.767 4.148 7.517.897 13.197-2.162 15.07-3.28"/><path id="M" d="M69.165 63.015c2.475 1.403 7.264 3.684 13.713 4.091 7.245.458 12.803-1.689 15.435-2.91"/><path id="N" d="M68.061 83.31c.63.216 1.465.429 2.459.493 1.693.106 3.06-.272 3.882-.576"/><path id="O" d="M44.446 87.53c5.722-.041 9.811-2.525 11.39-3.606l-.015-15.199-25.263-.042.058 13.558c1.235 1.1 6.279 5.343 13.83 5.29z"/><path id="P" d="M47.635 44.74a.3.3 0 0 0 .306-.291.3.3 0 0 0-.291-.306.3.3 0 0 0-.306.291.3.3 0 0 0 .291.306z"/><path id="Q" d="M69.928 55.446a4.94 4.94 0 0 0 .668-.667c.293-.353.494-.698.631-.976"/><path id="R" d="M53.736 59.932c.639 1.46 1.246 3.326 1.491 5.538l.109 1.734"/><path id="S" d="M114.875 55.272c-.086-.07-.264-.193-.522-.237-.382-.066-.679.089-.769.14"/><path id="T" d="M120.268 50.31a1.88 1.88 0 0 0 1.928-1.83 1.88 1.88 0 0 0-1.83-1.928 1.88 1.88 0 0 0-1.927 1.83 1.88 1.88 0 0 0 1.829 1.928z"/><path id="U" d="M85.093 52.88c3.809-.098 6.179 1.007 7.505 1.846 7.817 4.96 7.016 18.382 6.732 23.129a44.7 44.7 0 0 1-1.363 8.58c-.781.034-1.854.001-3.081-.289a11.27 11.27 0 0 1-3.094-1.235l.279-6.665.172-9.553"/><path id="V" d="M82.932 52.737c-3.799-.296-6.223.684-7.591 1.453-8.391 4.731-8.035 18.763-7.928 22.747a41.04 41.04 0 0 0 1.389 9.528c.873-.169 1.887-.424 2.986-.825a19.66 19.66 0 0 0 2.787-1.266l.069-6.67.326-9.549"/><path id="W" d="M83.721 42.789c-.728 1.378-.97 2.505-.592 2.789.188.142.593.121.883.023a1.31 1.31 0 0 0 .582-.4"/><path id="X" d="M79.082 37.813c.158.213.381.469.683.719a4.15 4.15 0 0 0 1.126.665"/><path id="Y" d="M91.998 83.547c.602.264 1.446.549 2.483.655a8.49 8.49 0 0 0 4.128-.626"/><path id="Z" d="M60.072 69.412c-.116-.87-.336-2.189-.769-3.757-.766-2.781-1.744-6.43-4.825-9.106-1.338-1.161-2.586-1.754-3.481-2.17-1.441-.671-5.286-2.396-10.123-1.439-1.446.286-5.552 1.162-8.47 4.883-.785 1-3.033 3.867-2.645 7.872.283 2.919 1.819 4.922 2.513 5.722"/><path id="a" d="M50.122 90.833c-1.038.424-2.563.901-4.449.997a13.4 13.4 0 0 1-2.898-.166"/><path id="b" d="M57.261 71.389c1.239-.515 2.678-1.256 4.151-2.332 3.616-2.641 5.529-5.907 6.473-7.889a7.41 7.41 0 0 1-1.751-1.183 7.54 7.54 0 0 1-1.895-2.717 57.58 57.58 0 0 0-4.104 1.303c-1.325.477-2.56.977-3.704 1.481"/><path id="c" d="M70.772 56.81a7.52 7.52 0 0 0 .872-.63c.3-.254.551-.503.754-.732"/><path id="d" d="M37.129 54.12c-6.017 2.588-9.638 8.41-9.024 14.139.729 6.8 7.057 10.091 7.684 10.406 6.048 3.021 12.095.377 14.257-.564 4.191-1.825 6.769-4.674 8.032-6.297a7.4 7.4 0 0 1-1.453-1.536c-.838-1.187-1.14-2.359-1.262-3.063-1.268-.191-2.774-.311-4.46-.24-3.248.137-5.897.931-7.734 1.663"/><path id="e" d="M61.332 66.665a4.96 4.96 0 0 0 .797-.506 4.95 4.95 0 0 0 .828-.817"/><path id="f" d="M61.833 68.176c.296-.101.63-.239.987-.425a7.22 7.22 0 0 0 .894-.55"/><path id="g" d="M97.465 70.31l-.428-.477-.355-.498"/><path id="h" d="M96.647 71.167l-.551-.652-.268-.329"/><path id="i" d="M116.841 92.596c-.474.106-1.397.248-2.521.01-.882-.187-1.537-.533-1.922-.774"/><path id="j" d="M121.777 64.421c2.474.822 4.016 2.005 4.91 2.841 6.759 6.307 4.122 18.354 3.535 21.031-.593 2.71-1.427 4.839-2.015 6.17l-4.506-.995.413-10.161.332-7.045"/></defs></svg>