<svg width="31" height="36" viewBox="0 0 31 36" fill="none" xmlns="http://www.w3.org/2000/svg">
<path d="M1.65942 8.2037L2.65938 8.21256L1.65942 8.2037ZM29.7149 8.2037L28.7149 8.21255V8.21255L29.7149 8.2037ZM15.7002 1.02002L16.4483 0.356511L15.7002 1.02002ZM29.7096 7.5818L28.7096 7.58958L29.7096 7.5818ZM28.642 6.54652L28.6332 7.54648L28.642 6.54652ZM15.7006 34.9932L15.3835 34.0448L15.7006 34.9932ZM15.6936 34.9998L16.0099 34.0512L15.6936 34.9998ZM15.6807 34.9998L15.9973 35.9484L15.6807 34.9998ZM15.6737 34.9932L15.9908 34.0448L15.6737 34.9932ZM15.6741 1.02002L16.4223 1.68352L15.6741 1.02002ZM15.685 34.9984L15.3685 34.0498L15.685 34.9984ZM15.6893 34.9984L16.0056 34.0497L15.6893 34.9984ZM2.73231 6.54652L2.7235 5.54656L2.73231 6.54652ZM2.74112 7.54648C5.95332 7.51818 8.91728 6.55769 11.2843 5.37157C13.6403 4.191 15.4755 2.7511 16.4223 1.68352L14.9259 0.356511C14.1836 1.19356 12.57 2.49029 10.3883 3.5835C8.21776 4.67117 5.55537 5.52161 2.7235 5.54656L2.74112 7.54648ZM2.65938 8.21256C2.66124 8.00216 2.66308 7.79425 2.66468 7.58958L0.664737 7.57401C0.663153 7.77743 0.661322 7.98426 0.659458 8.19485L2.65938 8.21256ZM15.9908 34.0448C9.21616 31.7791 5.90362 27.4581 4.25538 22.6723C2.58328 17.8172 2.62161 12.4794 2.65938 8.21256L0.659458 8.19485C0.622127 12.412 0.562917 18.0929 2.36438 23.3235C4.1897 28.6235 7.92183 33.4551 15.3565 35.9415L15.9908 34.0448ZM15.9973 35.9484C15.9988 35.9479 16.0001 35.9474 16.0015 35.947L15.3685 34.0498C15.367 34.0503 15.3655 34.0508 15.3641 34.0513L15.9973 35.9484ZM16.0099 34.0512C16.0085 34.0507 16.0071 34.0502 16.0056 34.0497L15.3729 35.947C15.3744 35.9475 15.3758 35.948 15.3773 35.9485L16.0099 34.0512ZM16.0178 35.9415C23.4525 33.4551 27.1846 28.6235 29.0099 23.3235C30.8114 18.0929 30.7522 12.412 30.7148 8.19485L28.7149 8.21255C28.7527 12.4794 28.791 17.8172 27.1189 22.6723C25.4707 27.4581 22.1581 31.7791 15.3835 34.0448L16.0178 35.9415ZM30.7148 8.19485C30.713 7.98426 30.7111 7.77743 30.7095 7.57401L28.7096 7.58958C28.7112 7.79425 28.713 8.00216 28.7149 8.21255L30.7148 8.19485ZM28.6508 5.54656C25.8189 5.52161 23.1565 4.67117 20.986 3.5835C18.8043 2.49029 17.1907 1.19356 16.4483 0.356511L14.952 1.68352C15.8988 2.7511 17.734 4.191 20.09 5.37157C22.457 6.55769 25.421 7.51818 28.6332 7.54648L28.6508 5.54656ZM14.6982 1.00443V1.01464H16.6982V1.00443H14.6982ZM14.6761 1.00443V1.01464H16.6761V1.00443H14.6761ZM16.4346 0.340893C15.8205 -0.356887 14.6761 0.0817962 14.6761 1.00443H16.6761C16.6761 1.91892 15.5417 2.35379 14.9331 1.66212L16.4346 0.340893ZM16.4483 0.356511C16.6211 0.551278 16.6982 0.790573 16.6982 1.01464H14.6982C14.6982 1.24275 14.7766 1.48574 14.952 1.68352L16.4483 0.356511ZM30.7095 7.57401C30.7005 6.41147 29.7312 5.55608 28.6508 5.54656L28.6332 7.54648C28.6596 7.54672 28.6829 7.55733 28.6984 7.5721C28.7054 7.57885 28.7082 7.58407 28.709 7.58581C28.7093 7.58664 28.7096 7.587 28.7096 7.58958L30.7095 7.57401ZM16.6982 34.9965C16.6982 35.4436 16.4064 35.8116 16.0178 35.9415L15.3835 34.0448C14.992 34.1757 14.6982 34.5464 14.6982 34.9965H16.6982ZM15.3773 35.9485C16.0271 36.1652 16.6982 35.6814 16.6982 34.9965H14.6982C14.6982 34.3164 15.3646 33.836 16.0099 34.0512L15.3773 35.9485ZM14.6761 34.9965C14.6761 35.6814 15.3472 36.1653 15.9973 35.9484L15.3641 34.0513C16.0097 33.8358 16.6761 34.3164 16.6761 34.9965H14.6761ZM15.3565 35.9415C14.9679 35.8116 14.6761 35.4436 14.6761 34.9965H16.6761C16.6761 34.5464 16.3823 34.1757 15.9908 34.0448L15.3565 35.9415ZM14.9397 0.340934C15.3362 -0.10965 16.0381 -0.10962 16.4346 0.340893L14.9331 1.66212C15.333 2.11662 16.0413 2.11665 16.4412 1.66208L14.9397 0.340934ZM16.4223 1.68352C16.5977 1.48574 16.6761 1.24275 16.6761 1.01464H14.6761C14.6761 0.790573 14.7532 0.551278 14.9259 0.356511L16.4223 1.68352ZM16.0015 35.947C15.7974 36.0151 15.5769 36.015 15.3729 35.947L16.0056 34.0497C15.7989 33.9808 15.5753 33.9808 15.3685 34.0498L16.0015 35.947ZM16.6982 1.00443C16.6982 0.0818791 15.5538 -0.356982 14.9397 0.340934L16.4412 1.66208C15.8325 2.35388 14.6982 1.91884 14.6982 1.00443H16.6982ZM2.7235 5.54656C1.64305 5.55608 0.673788 6.41147 0.664737 7.57401L2.66468 7.58958C2.6647 7.587 2.66494 7.58664 2.66532 7.58581C2.66609 7.58407 2.66888 7.57885 2.67592 7.5721C2.69134 7.55733 2.7147 7.54672 2.74112 7.54648L2.7235 5.54656Z" fill="black"/>
<path d="M10.2522 17.4801L13.2485 20.3127C13.634 20.6771 14.237 20.6771 14.6224 20.3127L21.1215 14.1688" stroke="black" stroke-width="2" stroke-linecap="round"/>
</svg>
