<svg width="31" height="37" viewBox="0 0 31 37" fill="none" xmlns="http://www.w3.org/2000/svg">
<path d="M15.1367 0C19.151 9.41717e-05 23.0013 1.59506 25.8398 4.43359C28.6782 7.27218 30.2725 11.1225 30.2725 15.1367C30.2722 26.8819 15.2068 36.9532 15.1367 37C15.1367 37 0.00030481 26.9093 0 15.1367C5.98194e-08 11.1223 1.59498 7.27221 4.43359 4.43359C7.27221 1.59498 11.1223 0 15.1367 0ZM15.1436 10.0918C12.357 10.0918 10.0977 12.3502 10.0977 15.1367C10.0977 17.9232 12.357 20.1826 15.1436 20.1826C17.9299 20.1824 20.1885 17.9231 20.1885 15.1367C20.1885 12.3504 17.9299 10.092 15.1436 10.0918Z" fill="#d800fc"/>
</svg>