<svg width="25" height="19" viewBox="0 0 25 19" fill="none" xmlns="http://www.w3.org/2000/svg">
<path d="M23.4435 1.35552C23.17 1.13669 22.8285 1 22.4592 1H2.58693C2.21766 1 1.87613 1.13669 1.6026 1.35552M23.4435 1.35552C23.8128 1.64272 24.0452 2.0804 24.0452 2.58643V16.0988C24.0452 16.9741 23.3345 17.6852 22.4592 17.6852H2.58693C2.14928 17.6852 1.7529 17.5075 1.4657 17.2203M23.4435 1.35552L12.3929 10.4367L1.6026 1.35552M1.6026 1.35552C1.24701 1.64272 1.00024 2.09408 1.00024 2.58643V16.0988C1.00024 16.5364 1.17849 16.9331 1.4657 17.2203M1.4657 17.2203L10.0956 8.52206M14.636 8.45361L23.4302 17.2477" stroke="#444444" stroke-linejoin="round"/>
</svg>
