<svg width="39" height="38" viewBox="0 0 39 38" fill="none" xmlns="http://www.w3.org/2000/svg">
<mask id="mask0_7_308" style="mask-type:luminance" maskUnits="userSpaceOnUse" x="0" y="0" width="39" height="38">
<path d="M19.5718 37.9768C30.0588 37.9768 38.5602 29.4754 38.5602 18.9884C38.5602 8.50148 30.0588 0.00012207 19.5718 0.00012207C9.08486 0.00012207 0.583496 8.50148 0.583496 18.9884C0.583496 29.4754 9.08486 37.9768 19.5718 37.9768Z" fill="white"/>
</mask>
<g mask="url(#mask0_7_308)">
<path d="M-2.19988 31.2853C-2.19988 23.083 -2.19988 14.8941 -2.19988 6.69187C-2.17338 6.47986 -2.13363 6.26784 -2.10713 6.05583C-1.56385 1.88185 1.56333 -1.56335 5.65781 -2.4909C6.18784 -2.61016 6.71787 -2.67641 7.26115 -2.76917C15.4634 -2.76917 23.6523 -2.76917 31.8545 -2.76917C32.0136 -2.74266 32.1726 -2.71616 32.3316 -2.70291C36.6248 -2.17288 40.0568 0.901292 41.0506 5.11503C41.1698 5.63181 41.2361 6.16184 41.3156 6.69187V31.2853C41.2758 31.5105 41.2493 31.7358 41.2228 31.9478C40.6663 36.0953 37.5656 39.5272 33.4844 40.468C32.9544 40.5873 32.3978 40.6535 31.8545 40.7463H7.26115C6.90338 40.6933 6.54561 40.6403 6.18784 40.5873C2.22587 39.9115 -1.06032 36.7976 -1.93487 32.8886C-2.05413 32.3586 -2.12038 31.8153 -2.21313 31.2853H-2.19988ZM21.0419 8.14945C21.0419 8.24221 21.0419 8.30846 21.0419 8.38796C21.0419 13.2775 21.0419 18.1803 21.0419 23.0698C21.0419 24.9912 19.3723 26.3692 17.4907 26.0115C16.1922 25.7729 15.1851 24.6069 15.1321 23.2951C15.0658 21.8905 15.9404 20.6449 17.239 20.2871C17.5835 20.1944 17.9413 20.1679 18.299 20.1149V16.4047C18.14 16.4047 17.981 16.4047 17.8353 16.4047C17.504 16.4312 17.1595 16.4577 16.8282 16.5239C13.118 17.2395 10.7196 20.8569 11.5146 24.5406C12.2567 27.9726 15.5561 30.2517 19.0411 29.7482C22.3538 29.2711 24.7919 26.4487 24.7919 23.1095C24.7919 20.1944 24.7919 17.2792 24.7919 14.3773C24.7919 14.3111 24.7919 14.2448 24.7919 14.1653C25.746 14.6158 26.7133 14.8543 27.7468 14.8411V11.1176C25.9447 10.9189 24.9642 9.92505 24.7786 8.1362H21.0552L21.0419 8.14945Z" fill="white"/>
</g>
</svg>
