<svg width="39" height="38" viewBox="0 0 39 38" fill="none" xmlns="http://www.w3.org/2000/svg">
<mask id="mask0_7_301" style="mask-type:luminance" maskUnits="userSpaceOnUse" x="0" y="0" width="39" height="38">
<path d="M19.1551 37.9768C29.642 37.9768 38.1434 29.4754 38.1434 18.9884C38.1434 8.50148 29.642 0.00012207 19.1551 0.00012207C8.66811 0.00012207 0.166748 8.50148 0.166748 18.9884C0.166748 29.4754 8.66811 37.9768 19.1551 37.9768Z" fill="white"/>
</mask>
<g mask="url(#mask0_7_301)">
<path d="M-19.5636 -5.45929H57.8738C57.8738 10.8391 57.8738 27.1376 57.8738 43.436H-19.5636V-5.45929ZM29.2919 9.22254C29.1859 9.19604 29.1462 9.18279 29.0932 9.18279C28.2584 9.18279 27.4236 9.18279 26.5888 9.18279C26.5225 9.18279 26.443 9.20929 26.39 9.26229C26.2177 9.4213 26.0587 9.58031 25.8997 9.75257C25.383 10.3091 24.8794 10.8789 24.3494 11.4487C23.6604 12.1907 22.9581 12.9195 22.269 13.6615C21.739 14.2313 21.1957 14.8144 20.6657 15.3841C20.5862 15.4636 20.5199 15.5564 20.4272 15.3841C20.3212 15.2119 20.1754 15.0529 20.0561 14.8806C19.6851 14.3638 19.3141 13.8338 18.9431 13.317C18.5853 12.8135 18.2143 12.3232 17.8565 11.8197C17.565 11.4089 17.2735 10.9849 16.9687 10.5609C16.6905 10.1633 16.3989 9.77907 16.1207 9.38155C16.0279 9.23579 15.9219 9.16954 15.7364 9.16954C13.3248 9.16954 10.8999 9.16954 8.48824 9.16954C8.42199 9.16954 8.34248 9.18279 8.27623 9.19604C8.27623 9.24904 8.27623 9.26229 8.27623 9.27554C8.581 9.69957 8.87251 10.1368 9.17728 10.5609C9.5483 11.0776 9.91932 11.5812 10.2903 12.098C10.6481 12.6015 11.0059 13.105 11.3637 13.6085C11.8274 14.2446 12.2912 14.8806 12.7417 15.5299C13.285 16.2852 13.815 17.0405 14.3451 17.7958C14.9016 18.5643 15.4449 19.3461 16.0014 20.1014C16.0809 20.2074 16.0809 20.2604 15.9882 20.3532C15.6039 20.7507 15.2329 21.1615 14.8486 21.5722C13.656 22.8311 12.4635 24.1031 11.2709 25.362C10.2903 26.4088 9.30979 27.4556 8.32923 28.5024C8.28948 28.5421 8.27623 28.5951 8.26298 28.6349C8.31598 28.6614 8.38223 28.7011 8.43524 28.7011C9.23028 28.7011 10.0386 28.7011 10.8336 28.7011C10.9264 28.7011 11.0456 28.6349 11.1251 28.5554C11.3504 28.3301 11.5492 28.0916 11.7612 27.8663C12.2515 27.3363 12.7417 26.8195 13.232 26.3028C13.9873 25.5077 14.7293 24.7127 15.4846 23.9176C16.0147 23.3478 16.5447 22.7781 17.0747 22.2215C17.2867 21.9963 17.3 21.8638 17.5253 22.2613C17.565 22.3408 17.6445 22.3938 17.6975 22.46C18.148 23.0961 18.5853 23.7321 19.0358 24.3681C19.4731 24.9777 19.9236 25.5872 20.3609 26.21C20.9042 26.9653 21.4342 27.7206 21.9643 28.4891C22.0968 28.6879 22.2558 28.7409 22.4943 28.7409C24.6409 28.7409 26.7875 28.7409 28.9342 28.7409C29.1594 28.7409 29.3979 28.7409 29.6232 28.7409C29.7292 28.7409 29.8352 28.7144 29.7424 28.5819C29.5304 28.2771 29.3184 27.9724 29.1064 27.6676C28.7486 27.1773 28.3909 26.6738 28.0331 26.1835C27.6621 25.6667 27.3043 25.1367 26.9333 24.6067C26.4695 23.9441 25.9792 23.2816 25.5155 22.619C24.8662 21.7047 24.2301 20.7904 23.5808 19.8761C23.0111 19.0811 22.4413 18.2861 21.8582 17.5043C21.7257 17.3188 21.739 17.2127 21.898 17.0537C23.1436 15.7552 24.3626 14.4433 25.595 13.1315C26.496 12.1775 27.3838 11.2102 28.2849 10.2561C28.5896 9.92483 28.8944 9.59356 29.2389 9.22254H29.2919Z" fill="white"/>
<path d="M25.9003 26.6592C25.675 26.6592 25.4763 26.6592 25.2775 26.6592C24.668 26.6592 24.0584 26.6592 23.4489 26.6592C23.3561 26.6592 23.2369 26.5797 23.1839 26.5001C22.9586 26.2086 22.7334 25.9039 22.5213 25.5991C22.2166 25.1751 21.9118 24.751 21.607 24.327C21.236 23.8102 20.8385 23.2802 20.4675 22.7634C20.0302 22.1539 19.6062 21.5444 19.1689 20.9348C18.8641 20.4976 18.5461 20.0735 18.2281 19.6363C17.7776 19.0135 17.3403 18.3774 16.8898 17.7414C16.6115 17.3571 16.3332 16.9729 16.055 16.5886C15.737 16.1513 15.4189 15.714 15.1142 15.2768C14.6504 14.6407 14.1866 14.0047 13.7361 13.3687C13.3121 12.7856 12.888 12.1893 12.464 11.6063C12.3978 11.5136 12.3448 11.4075 12.2653 11.275C12.3183 11.275 12.3713 11.2485 12.411 11.2485C13.1531 11.2485 13.8951 11.2618 14.6371 11.2485C14.8889 11.2485 15.0214 11.3413 15.1539 11.5268C15.5647 12.1098 15.9755 12.6796 16.373 13.2494C16.8103 13.8589 17.2475 14.4817 17.6848 15.0913C18.4004 16.0851 19.1291 17.0921 19.8447 18.0859C20.2157 18.6027 20.5602 19.1195 20.9313 19.6363C21.3818 20.259 21.8323 20.8686 22.2828 21.4914C22.6538 22.0081 23.0116 22.5382 23.3826 23.055C23.9127 23.797 24.4427 24.5258 24.9727 25.2678C25.2775 25.7051 25.5955 26.1291 25.9003 26.5664C25.9003 26.5797 25.9003 26.6062 25.9135 26.6724L25.9003 26.6592Z" fill="white"/>
</g>
</svg>
